<?xml version="1.0" encoding="UTF-8" standalone="no"?>
<svg
   height="1000"
   width="1000"
   viewBox="0 0 1000 1000"
   version="1.1"
   id="svg4"
   sodipodi:docname="abc.svg"
   inkscape:version="1.4.2 (f4327f4, 2025-05-13)"
   xmlns:inkscape="http://www.inkscape.org/namespaces/inkscape"
   xmlns:sodipodi="http://sodipodi.sourceforge.net/DTD/sodipodi-0.dtd"
   xmlns="http://www.w3.org/2000/svg"
   xmlns:svg="http://www.w3.org/2000/svg">
  <defs
     id="defs4" />
  <sodipodi:namedview
     id="namedview4"
     pagecolor="#505050"
     bordercolor="#eeeeee"
     borderopacity="1"
     inkscape:showpageshadow="0"
     inkscape:pageopacity="0"
     inkscape:pagecheckerboard="0"
     inkscape:deskcolor="#d1d1d1"
     inkscape:zoom="0.9075"
     inkscape:cx="-35.261708"
     inkscape:cy="463.36088"
     inkscape:window-width="3840"
     inkscape:window-height="2054"
     inkscape:window-x="3829"
     inkscape:window-y="-11"
     inkscape:window-maximized="1"
     inkscape:current-layer="svg4" />
  <path
     d="m 511.24,591.03 c -8.46,0 -16.42,-4.16 -21.29,-11.12 a 26.002,26.002 0 0 1 -3.12,-23.8 l 43.91,-119.4 c 0.9,-2.45 2.47,-4.61 4.54,-6.21 L 854.49,181.81 a 48.977,48.977 0 0 1 30.31,-10.56 c 14.95,0 28.86,6.69 38.17,18.35 l 51.92,65.06 c 8.12,10.18 11.79,22.91 10.33,35.84 -1.46,12.94 -7.89,24.53 -18.08,32.64 L 647.76,571.96 a 13.888,13.888 0 0 1 -6.84,2.84 l -126.36,16.02 c -1.14,0.15 -2.24,0.21 -3.32,0.21 z"
     style="fill:#f2f2f2"
     id="path1" />
  <path
     d="m 884.79,185.25 c 10.22,0 20.36,4.48 27.22,13.09 l 51.92,65.06 c 11.97,15 9.49,36.84 -5.53,48.79 L 639.14,560.92 512.78,576.94 c -0.52,0.06 -1.03,0.1 -1.53,0.1 -8.16,0 -14.16,-8.18 -11.26,-16.13 l 43.9,-119.36 319.27,-248.73 c 6.38,-5.1 14.03,-7.57 21.63,-7.57 m 0,-28 c -14.08,0 -27.91,4.81 -38.96,13.56 L 526.67,419.46 a 28.006,28.006 0 0 0 -9.07,12.42 l -43.9,119.36 -0.03,0.09 a 40.046,40.046 0 0 0 4.81,36.62 c 7.49,10.7 19.74,17.09 32.76,17.09 1.65,0 3.33,-0.1 4.97,-0.31 0.03,0 0.05,-0.01 0.08,-0.01 L 642.65,588.7 c 4.99,-0.63 9.72,-2.6 13.69,-5.69 L 975.6,334.28 c 0.07,-0.06 0.15,-0.12 0.22,-0.17 13.13,-10.44 21.4,-25.37 23.28,-42.02 1.88,-16.65 -2.84,-33.04 -13.29,-46.14 l -51.92,-65.06 c -11.97,-15.03 -29.87,-23.64 -49.1,-23.64 z"
     style="fill:#666666"
     id="path2" />
  <path
     d="m 874.41,331.14 -221.28,170.8 m 66.29,-96.82 -90.59,71.92 m -54.99,5.69 c 1.04,1.31 62.88,78.8 62.88,78.8 M 502.63,522.47 c 1.04,1.31 50.36,61.5 50.36,61.5"
     style="fill:#f2f2f2;stroke:#666666;stroke-width:28;stroke-linecap:round;stroke-linejoin:round;stroke-miterlimit:10"
     id="path3" />
  <path
     d="M 94.93,390.12 H 380.59 M 20.48,515.57 H 306.09 M 77.41,652.43 H 228.84 M 86.17,789.29 h 291.78"
     style="fill:none;stroke:#666666;stroke-width:40;stroke-linecap:round;stroke-linejoin:round;stroke-miterlimit:10"
     id="path4" />
  <ellipse
     cx="96.781944"
     cy="740.21942"
     rx="113.59"
     ry="75.639999"
     transform="rotate(-22.616)"
     style="fill:#666666"
     id="ellipse4" />
</svg>
