<?xml version="1.0" encoding="UTF-8" standalone="no"?>
<svg
   width="991.17999"
   height="713.54004"
   viewBox="0 0 991.17999 713.54004"
   role="img"
   version="1.1"
   id="svg7"
   sodipodi:docname="auswahlfeld.svg"
   inkscape:version="1.4 (86a8ad7, 2024-10-11)"
   xmlns:inkscape="http://www.inkscape.org/namespaces/inkscape"
   xmlns:sodipodi="http://sodipodi.sourceforge.net/DTD/sodipodi-0.dtd"
   xmlns="http://www.w3.org/2000/svg"
   xmlns:svg="http://www.w3.org/2000/svg">
  <defs
     id="defs7" />
  <sodipodi:namedview
     id="namedview7"
     pagecolor="#505050"
     bordercolor="#eeeeee"
     borderopacity="1"
     inkscape:showpageshadow="0"
     inkscape:pageopacity="0"
     inkscape:pagecheckerboard="0"
     inkscape:deskcolor="#d1d1d1"
     inkscape:zoom="0.807"
     inkscape:cx="491.94548"
     inkscape:cy="348.8228"
     inkscape:window-width="1920"
     inkscape:window-height="1009"
     inkscape:window-x="-8"
     inkscape:window-y="-8"
     inkscape:window-maximized="1"
     inkscape:current-layer="svg7" />
  <path
     d="M 963.48,137.40001 H 291.41 c -15.3,0 -27.7,-12.4 -27.7,-27.7 0,-15.299996 12.4,-27.699996 27.7,-27.699996 h 672.07 c 15.3,0 27.7,12.4 27.7,27.699996 0,15.3 -12.4,27.7 -27.7,27.7 z m 0,257.6 H 291.41 c -15.3,0 -27.7,-12.4 -27.7,-27.7 0,-15.3 12.4,-27.7 27.7,-27.7 h 672.07 c 15.3,0 27.7,12.4 27.7,27.7 0,15.3 -12.4,27.7 -27.7,27.7 z"
     style="fill:#666666"
     id="path1" />
  <path
     d="m 32.58,51.000014 h 138.5 V 189.50001 H 32.58 Z M 16.29,280.31001 h 171.08 v 171.08 H 16.29 Z"
     style="fill:#f2f2f2"
     id="path2" />
  <path
     d="M 187.37,467.67001 H 16.29 c -8.99,0 -16.28,-7.29 -16.28,-16.28 v -171.08 c 0,-8.99 7.29,-16.28 16.28,-16.28 h 171.08 c 8.99,0 16.28,7.29 16.28,16.28 v 171.08 c 0,8.99 -7.29,16.28 -16.28,16.28 z m -154.8,-32.56 h 138.52 v -138.52 H 32.57 Z m 930.91,205.76 H 291.41 c -15.3,0 -27.7,-12.4 -27.7,-27.7 0,-15.3 12.4,-27.7 27.7,-27.7 h 672.07 c 15.3,0 27.7,12.4 27.7,27.7 0,15.3 -12.4,27.7 -27.7,27.7 z"
     style="fill:#666666"
     id="path3" />
  <path
     d="m 16.29,526.18001 h 171.08 v 171.08 H 16.29 Z"
     style="fill:#f2f2f2"
     id="path4" />
  <path
     d="M 187.37,713.54001 H 16.29 c -8.99,0 -16.28,-7.29 -16.28,-16.28 v -171.08 c 0,-8.99 7.29,-16.28 16.28,-16.28 h 171.08 c 8.99,0 16.28,7.29 16.28,16.28 v 171.08 c 0,8.99 -7.29,16.28 -16.28,16.28 z m -154.8,-32.56 h 138.52 v -138.52 H 32.57 Z m 138.51,-555.71 v 64.22 H 32.58 V 50.990014 h 116.56 l 28.93,-32.58 H 16.29 c -8.99,0 -16.29,7.3 -16.29,16.29 V 205.78001 c 0,8.99 7.3,16.29 16.29,16.29 h 171.08 c 8.99,0 16.29,-7.3 16.29,-16.29 V 88.590014 Z"
     style="fill:#666666"
     id="path5" />
  <path
     d="m 203.65,67.270014 v -32.56 c 0,-6.16 -3.56,-11.33 -8.6,-14.1 l -26.98,30.39 h 3.01 v 52.959996 z"
     style="fill:#666666"
     id="path6" />
  <path
     d="m 221.76,1.3822523e-5 c -5.15,0 -10.29,2.119999977477 -13.99,6.289999977477 L 105.93,120.98001 78.77,93.810014 a 18.657,18.657 0 0 0 -13.23,-5.48 c -4.79,0 -9.57,1.83 -13.23,5.48 -7.3,7.299996 -7.3,19.149996 0,26.459996 l 41.2,41.19 c 3.51,3.51 8.28,5.48 13.23,5.48 0.19,0 0.37,-0.01 0.56,-0.01 5.14,-0.16 10,-2.42 13.44,-6.27 L 235.75,31.130014 c 6.84,-7.72 6.15,-19.55 -1.57,-26.4100002 A 18.641,18.641 0 0 0 221.76,1.3822523e-5 Z"
     style="fill:#666666"
     id="path7" />
</svg>
