<?xml version="1.0" encoding="UTF-8" standalone="no"?>
<svg
   height="908.20001"
   width="911"
   viewBox="0 0 911 908.20001"
   version="1.1"
   id="svg2"
   sodipodi:docname="diagramm.svg"
   inkscape:version="1.4 (86a8ad7, 2024-10-11)"
   xmlns:inkscape="http://www.inkscape.org/namespaces/inkscape"
   xmlns:sodipodi="http://sodipodi.sourceforge.net/DTD/sodipodi-0.dtd"
   xmlns="http://www.w3.org/2000/svg"
   xmlns:svg="http://www.w3.org/2000/svg">
  <defs
     id="defs2" />
  <sodipodi:namedview
     id="namedview2"
     pagecolor="#505050"
     bordercolor="#eeeeee"
     borderopacity="1"
     inkscape:showpageshadow="0"
     inkscape:pageopacity="0"
     inkscape:pagecheckerboard="0"
     inkscape:deskcolor="#d1d1d1"
     inkscape:zoom="1.815"
     inkscape:cx="455.09642"
     inkscape:cy="454.26997"
     inkscape:window-width="3840"
     inkscape:window-height="2054"
     inkscape:window-x="-11"
     inkscape:window-y="-11"
     inkscape:window-maximized="1"
     inkscape:current-layer="svg2" />
  <path
     d="m 548.96,30.13 -39.49,242.4 c 63.75,18.8 113.34,70.01 129.92,134.5 L 880,357.33 C 842.7,194.11 713.21,65.95 548.96,30.13 Z"
     style="fill:#f2f2f2;stroke:#666666;stroke-width:40;stroke-linecap:round;stroke-linejoin:round;stroke-miterlimit:10"
     id="path1" />
  <path
     d="m 642.95,484.01 c -14.42,90.37 -92.73,159.52 -187.45,159.52 -104.96,0 -190.04,-84.81 -190.04,-189.43 0,-97.03 73.23,-176.9 167.58,-187.99 L 473.06,20.44 C 467.23,20.21 461.39,20 455.5,20 214.98,20 20,214.35 20,454.1 20,693.85 214.98,888.2 455.5,888.2 696.02,888.2 891,693.85 891,454.1 c 0,-7.12 -0.2,-14.19 -0.54,-21.22 z"
     style="fill:#f2f2f2;stroke:#666666;stroke-width:40;stroke-linecap:round;stroke-linejoin:round;stroke-miterlimit:10"
     id="path2" />
</svg>
