<?xml version="1.0" encoding="UTF-8" standalone="no"?>
<svg
   height="933.09998"
   width="664.01685"
   viewBox="0 0 664.01685 933.09998"
   version="1.1"
   id="svg6"
   sodipodi:docname="gehoerbildung.svg"
   inkscape:version="1.4 (86a8ad7, 2024-10-11)"
   xmlns:inkscape="http://www.inkscape.org/namespaces/inkscape"
   xmlns:sodipodi="http://sodipodi.sourceforge.net/DTD/sodipodi-0.dtd"
   xmlns="http://www.w3.org/2000/svg"
   xmlns:svg="http://www.w3.org/2000/svg">
  <defs
     id="defs6" />
  <sodipodi:namedview
     id="namedview6"
     pagecolor="#505050"
     bordercolor="#eeeeee"
     borderopacity="1"
     inkscape:showpageshadow="0"
     inkscape:pageopacity="0"
     inkscape:pagecheckerboard="0"
     inkscape:deskcolor="#d1d1d1"
     inkscape:zoom="1.815"
     inkscape:cx="330.02755"
     inkscape:cy="466.39118"
     inkscape:window-width="3840"
     inkscape:window-height="2054"
     inkscape:window-x="-11"
     inkscape:window-y="-11"
     inkscape:window-maximized="1"
     inkscape:current-layer="svg6" />
  <path
     d="M 327.05,0.01 C 150.09,0.01 6.13,143.95 6.13,320.86 c 0,54.62 -1.38,144.3 -2.71,231.05 -1.17,77.09 -2.3,149.92 -2.3,189.45 0,105.72 86.04,191.74 191.78,191.74 68.53,0 113.55,-40.08 160.55,-142.97 27.18,-59.46 73.18,-97.41 121.88,-137.59 C 560.21,582.49 647.98,510.07 647.98,320.85 647.98,143.95 504.01,0.01 327.05,0.01 Z"
     style="fill:#f2f2f2"
     id="path1" />
  <path
     d="M 629.78,320.87 C 629.78,153.1 493.74,17.09 325.93,17.09 c -167.81,0 -303.85,136 -303.85,303.78 0,103.8 -5.01,337.14 -5.01,420.51 0,96.47 78.22,174.67 174.71,174.67 50.76,0 94.61,-22.62 145.03,-132.98 76.74,-167.97 292.97,-172.2 292.97,-462.2 z"
     style="fill:#f2f2f2"
     id="path2" />
  <path
     d="m 488.04,331.74 c 0,-91.51 -74.2,-165.7 -165.73,-165.7 -91.53,0 -165.73,74.19 -165.73,165.7 v 290"
     style="fill:none;stroke:#666666;stroke-width:40;stroke-linecap:round;stroke-linejoin:round;stroke-miterlimit:10"
     id="path3" />
  <path
     d="m 157.68,492.46 c 28.19,-17.12 64.24,-20.02 96.11,-4.53 24.95,12.12 42.62,33.2 51.02,57.48 11.62,33.57 1.46,70.9 -22.65,97 -17.95,19.43 -46.44,48.38 -72.27,66.34"
     style="fill:none;stroke:#666666;stroke-width:40;stroke-linecap:round;stroke-linejoin:round;stroke-miterlimit:10"
     id="path4" />
  <path
     d="m 463.6,617.02 c -3.7,3.07 -7.41,6.13 -11.13,9.21 -49.53,40.88 -100.76,83.15 -131.18,149.75 -51.86,113.51 -92.41,123 -129.5,123 -86.92,0 -157.64,-70.7 -157.64,-157.6 0,-39.27 1.12,-111.97 2.29,-188.93 1.33,-86.87 2.72,-176.7 2.72,-231.58 0,-158.09 128.65,-286.71 286.78,-286.71 158.13,0 286.77,128.61 286.77,286.7 0,25.49 -1.87,48.37 -5,69.49 a 167.426,167.426 0 0 1 30.83,23.29 c 5.33,-27.51 8.32,-58.15 8.32,-92.79 C 646.86,143.93 502.89,0 325.94,0 148.99,0 5.01,143.95 5.01,320.86 5.01,375.48 3.63,465.16 2.3,551.91 1.13,629 0,701.83 0,741.36 0,847.08 86.04,933.1 191.78,933.1 c 68.53,0 113.55,-40.08 160.55,-142.97 23.42,-51.24 60.85,-86.5 101.91,-121.01 3.98,-22.83 8.66,-48.39 9.36,-52.1 z"
     style="fill:#666666"
     id="path5" />
  <path
     d="m 435.67,532.07 c 0,-49.84 40.76,-90.16 90.76,-89.46 47.52,0.66 87.54,40.67 88.21,88.19 0.41,29.58 -11.33,50.42 -35.32,72.5 -30.47,28.05 -54.16,62.52 -54.16,103.93 v 0"
     style="fill:none;stroke:#666666;stroke-width:98.74;stroke-linecap:round;stroke-linejoin:round;stroke-miterlimit:10"
     id="path6" />
  <ellipse
     cx="526.34998"
     cy="806.73999"
     rx="42.48"
     ry="42.470001"
     style="fill:#666666"
     id="ellipse6" />
</svg>
