<?xml version="1.0" encoding="UTF-8" standalone="no"?>
<svg
   height="1em"
   width="1em"
   viewBox="0 0 1000 1000"
   version="1.1"
   id="svg2"
   sodipodi:docname="image.svg"
   inkscape:version="1.4 (86a8ad7, 2024-10-11)"
   xmlns:inkscape="http://www.inkscape.org/namespaces/inkscape"
   xmlns:sodipodi="http://sodipodi.sourceforge.net/DTD/sodipodi-0.dtd"
   xmlns="http://www.w3.org/2000/svg"
   xmlns:svg="http://www.w3.org/2000/svg">
  <defs
     id="defs2" />
  <sodipodi:namedview
     id="namedview2"
     pagecolor="#505050"
     bordercolor="#eeeeee"
     borderopacity="1"
     inkscape:showpageshadow="0"
     inkscape:pageopacity="0"
     inkscape:pagecheckerboard="0"
     inkscape:deskcolor="#d1d1d1"
     inkscape:zoom="1.815"
     inkscape:cx="499.72452"
     inkscape:cy="500"
     inkscape:window-width="3840"
     inkscape:window-height="2054"
     inkscape:window-x="-11"
     inkscape:window-y="-11"
     inkscape:window-maximized="1"
     inkscape:current-layer="svg2" />
  <path
     d="M940.76 866.84H59.24c-3.95 0-7.16-3.21-7.16-7.16V179.9c0-3.95 3.21-7.16 7.16-7.16h881.53c3.95 0 7.16 3.21 7.16 7.16v679.78a7.168 7.168 0 0 1-7.17 7.16z"
     style="fill: rgb(242, 242, 242); stroke: rgb(102, 102, 102); stroke-width: 40; stroke-linecap: round; stroke-linejoin: round; stroke-miterlimit: 10;"
     id="path1" />
  <path
     d="M938.1 854.05 691.24 474.33c-16.92-26.03-56.07-26.03-73 0L440.2 748.2 336.91 643.04c-18.39-18.73-49.21-18.73-67.6 0L62.06 854.05H938.1z"
     style="fill: rgb(102, 102, 102);"
     id="path2" />
  <ellipse
     cx="405.83"
     cy="410.28"
     rx="84.83"
     ry="85.06"
     style="fill: rgb(102, 102, 102);"
     id="ellipse2" />
</svg>
