<?xml version="1.0" encoding="UTF-8" standalone="no"?>
<svg
   width="991.35693"
   height="780.5069"
   viewBox="0 0 991.35693 780.5069"
   role="img"
   version="1.1"
   id="svg3"
   sodipodi:docname="inhaltsverzeichnis.svg"
   inkscape:version="1.4 (86a8ad7, 2024-10-11)"
   xmlns:inkscape="http://www.inkscape.org/namespaces/inkscape"
   xmlns:sodipodi="http://sodipodi.sourceforge.net/DTD/sodipodi-0.dtd"
   xmlns="http://www.w3.org/2000/svg"
   xmlns:svg="http://www.w3.org/2000/svg">
  <defs
     id="defs3" />
  <sodipodi:namedview
     id="namedview3"
     pagecolor="#505050"
     bordercolor="#eeeeee"
     borderopacity="1"
     inkscape:showpageshadow="0"
     inkscape:pageopacity="0"
     inkscape:pagecheckerboard="0"
     inkscape:deskcolor="#d1d1d1"
     inkscape:zoom="1.815"
     inkscape:cx="495.3168"
     inkscape:cy="390.35813"
     inkscape:window-width="3840"
     inkscape:window-height="2054"
     inkscape:window-x="-11"
     inkscape:window-y="-11"
     inkscape:window-maximized="1"
     inkscape:current-layer="svg3" />
  <path
     d="m 969.40345,765.70345 h -947.44 c -3.95,0 -7.16,-3.21 -7.16,-7.16 v -736.58 c 0,-3.95 3.21,-7.16 7.16,-7.16 h 947.43 c 3.95,0 7.16,3.21 7.16,7.16 v 736.58 c 0.01,3.96 -3.2,7.16 -7.15,7.16 z"
     style="fill:#f2f2f2;stroke:#666666;stroke-width:29.6069;stroke-linecap:round;stroke-linejoin:round;stroke-miterlimit:10"
     id="path1" />
  <path
     d="m 326.66345,186.81345 h 478.75 m -478.75,195.87 h 478.75 m -478.75,195.86 h 478.75"
     style="fill:none;stroke:#666666;stroke-width:41.8409;stroke-linecap:round;stroke-linejoin:round;stroke-miterlimit:10"
     id="path2" />
  <path
     d="m 216.40345,119.51345 h -0.38 c -1.81,0 -4.66,0.32 -8.01,1.87 l -32.13,15.3 c -3.1,1.43 -5.46,4.08 -6.65,7.45 -1.29,3.68 -1.01,7.83 0.75,11.4 3.18,6.78 11.54,10.01 18.31,7.05 l 3.75,-1.58 v 78.43 c 0,8.34 8.05,15.93 16.89,15.93 9.16,0 16.89,-7.3 16.89,-15.93 v -110.5 c 0,-5.2 -4.23,-9.42 -9.42,-9.42 z m 16.19,297.89 h -23.39 l 23.4,-27.04 c 9.3,-11.25 14.01,-22.7 14.01,-34.01 0,-23.71 -19.12,-41.6 -44.47,-41.6 -21.41,0 -37.68,11.39 -44.65,31.25 l -0.04,0.11 c -1.43,4.52 -1.07,9.14 1.02,13.01 1.9,3.51 5.03,6.04 8.82,7.1 9.93,2.84 17.56,-3.11 20.45,-9.86 2.41,-5.78 6.98,-8.96 12.87,-8.96 7.31,0 12.22,3.6 12.22,8.96 0,3.9 -3.19,8.48 -5.93,11.98 l -45.54,56.45 c -3.02,3.55 -4.83,8.17 -4.83,12.38 0,7.35 4.98,12.49 12.1,12.49 h 63.96 c 8.08,0 15.17,-7.54 15.17,-16.13 -0.01,-8.75 -6.95,-16.13 -15.17,-16.13 z m -3.19,155.37 c 7.88,-6.26 12.58,-15.03 12.6,-23.96 0.62,-20.52 -17.14,-37.55 -40.44,-38.77 -13.7,-0.78 -26.94,3.89 -36.31,12.83 -5.98,5.72 -6.39,15.21 -0.87,21.21 6.2,6.45 13.32,6.74 22.45,0.87 2.87,-1.91 6.73,-3.05 10.32,-3.05 7.52,0 9.15,6.88 9.15,8.58 v 0.23 c 0.05,1.52 -0.07,5.31 -2.36,7.67 -1.43,1.48 -3.53,2.2 -6.42,2.2 h -4.98 c -7.44,0 -14.21,7.14 -14.21,14.98 0,8.12 6.51,14.98 14.21,14.98 h 6.13 c 4.42,0 7.7,1.12 9.73,3.33 2.92,3.17 2.81,7.99 2.69,9.49 -0.57,4.53 -6.42,10.75 -14.4,10.27 -4.46,-0.17 -10,-2.38 -13.76,-5.49 -8.35,-7.12 -17.92,-4.92 -23.05,0.9 -6.01,6.74 -4.59,16.73 0.46,21.77 9,9.42 20.73,14.83 33.88,15.62 1.33,0.09 2.64,0.14 3.95,0.14 25.34,0 47,-16.81 49.17,-38.94 1.18,-13.64 -6.41,-27.83 -17.94,-34.86 z"
     style="fill:#666666"
     id="path3" />
</svg>
