<?xml version="1.0" encoding="UTF-8" standalone="no"?>
<svg
   width="994.33002"
   height="501.76001"
   viewBox="0 0 994.33002 501.76001"
   role="img"
   version="1.1"
   id="svg3"
   sodipodi:docname="input.svg"
   inkscape:version="1.4 (86a8ad7, 2024-10-11)"
   xmlns:inkscape="http://www.inkscape.org/namespaces/inkscape"
   xmlns:sodipodi="http://sodipodi.sourceforge.net/DTD/sodipodi-0.dtd"
   xmlns="http://www.w3.org/2000/svg"
   xmlns:svg="http://www.w3.org/2000/svg">
  <defs
     id="defs3" />
  <sodipodi:namedview
     id="namedview3"
     pagecolor="#505050"
     bordercolor="#eeeeee"
     borderopacity="1"
     inkscape:showpageshadow="0"
     inkscape:pageopacity="0"
     inkscape:pagecheckerboard="0"
     inkscape:deskcolor="#d1d1d1"
     inkscape:zoom="0.807"
     inkscape:cx="496.90211"
     inkscape:cy="250.92937"
     inkscape:window-width="1920"
     inkscape:window-height="1009"
     inkscape:window-x="-8"
     inkscape:window-y="-8"
     inkscape:window-maximized="1"
     inkscape:current-layer="svg3" />
  <path
     d="M 914.37,482.09 H 79.96 c -33.3,0 -60.29,-26.11 -60.29,-58.32 V 77.98 c 0,-32.21 26.99,-58.32 60.29,-58.32 h 834.41 c 33.3,0 60.29,26.11 60.29,58.32 v 345.8 c 0,32.21 -26.99,58.31 -60.29,58.31 z"
     style="fill:#f2f2f2"
     id="path1" />
  <path
     d="M 914.37,501.76 H 79.96 C 35.87,501.76 0,466.78 0,423.78 V 77.98 C 0,34.98 35.87,0 79.96,0 h 834.41 c 44.09,0 79.96,34.98 79.96,77.98 v 345.8 c 0,43 -35.87,77.98 -79.96,77.98 z M 79.96,39.33 c -22.4,0 -40.63,17.34 -40.63,38.65 v 345.8 c 0,21.31 18.23,38.65 40.63,38.65 h 834.41 c 22.4,0 40.63,-17.34 40.63,-38.65 V 77.98 C 955,56.67 936.78,39.33 914.37,39.33 H 79.96 Z"
     style="fill:#666666"
     id="path2" />
  <path
     d="m 193.33,405.28 c -10.86,0 -19.67,-8.8 -19.67,-19.67 V 116.15 c 0,-10.86 8.8,-19.67 19.67,-19.67 10.87,0 19.67,8.8 19.67,19.67 v 269.46 c -0.01,10.86 -8.81,19.67 -19.67,19.67 z"
     style="fill:#666666"
     id="path3" />
</svg>
