<?xml version="1.0" encoding="UTF-8" standalone="no"?>
<svg
   height="1em"
   width="1em"
   viewBox="0 0 1000 1000"
   version="1.1"
   id="svg5"
   sodipodi:docname="interaktivemedien.svg"
   inkscape:version="1.4.2 (f4327f4, 2025-05-13)"
   xmlns:inkscape="http://www.inkscape.org/namespaces/inkscape"
   xmlns:sodipodi="http://sodipodi.sourceforge.net/DTD/sodipodi-0.dtd"
   xmlns="http://www.w3.org/2000/svg"
   xmlns:svg="http://www.w3.org/2000/svg">
  <defs
     id="defs5" />
  <sodipodi:namedview
     id="namedview5"
     pagecolor="#505050"
     bordercolor="#ffffff"
     borderopacity="1"
     inkscape:showpageshadow="0"
     inkscape:pageopacity="0"
     inkscape:pagecheckerboard="1"
     inkscape:deskcolor="#d1d1d1"
     inkscape:zoom="1.815"
     inkscape:cx="499.72452"
     inkscape:cy="500"
     inkscape:window-width="3840"
     inkscape:window-height="2054"
     inkscape:window-x="-11"
     inkscape:window-y="-11"
     inkscape:window-maximized="1"
     inkscape:current-layer="svg5" />
  <path
     d="M131.14 704.2v139.67m80.92-199.27v199.27m80.92-288.66v288.66M373.9 644.6v199.27m80.92-199.27v199.27m80.91-139.67v139.67M865.78 644.6v199.27M784.86 704.2v139.67M616.65 763.8v80.07M53.4 763.8v80.07m644.17-80.07v80.07M946.6 763.8v80.07"
     style="fill: none; stroke: rgb(102, 102, 102); stroke-width: 30; stroke-linecap: round; stroke-linejoin: round; stroke-miterlimit: 10;"
     id="path1" />
  <path
     d="M357.06 441.03H241.8l-21.35 72.21c-2.62 8.87-15.18 8.91-17.86.06l-21.87-72.26H67.77c-15.99 0-28.96-12.96-28.96-28.96V169.85c0-15.99 12.96-28.96 28.96-28.96h289.29c15.99 0 28.96 12.96 28.96 28.96v242.23c-.01 15.99-12.97 28.95-28.96 28.95z"
     style="fill: rgb(102, 102, 102);"
     id="path2" />
  <path
     d="M212.41 343.72c8.79 0 15.94-7.15 15.94-15.94 0-11.36 6.15-22.54 18.78-34.18 9.81-9.02 21.02-22.19 20.74-43.97-.42-29.73-24.95-54.26-54.68-54.68-15.41.02-29.16 5.53-39.74 15.96-10.65 10.51-16.51 24.53-16.51 39.51 0 8.81 7.15 15.96 15.94 15.96 8.81 0 15.96-7.15 15.96-15.96 0-6.35 2.49-12.3 7.02-16.78 4.41-4.36 10.41-6.77 16.86-6.77 12.43.17 23.06 10.8 23.23 23.2.08 6.68-1.55 11.87-10.44 20.05-19.29 17.76-29.06 37.17-29.06 57.66 0 8.79 7.15 15.94 15.96 15.94z"
     style="fill: rgb(242, 242, 242);"
     id="path3" />
  <path
     d="M817.05 552.29h-115.2l-21.34 72.17c-2.62 8.87-15.17 8.91-17.85.06l-21.86-72.23H527.9c-15.99 0-28.94-12.96-28.94-28.94V281.23c0-15.99 12.96-28.94 28.94-28.94h289.16c15.99 0 28.94 12.96 28.94 28.94v242.12c0 15.98-12.96 28.94-28.95 28.94z"
     style="fill: rgb(102, 102, 102);"
     id="path4" />
  <path
     d="M672.48 460.97c11.81 0 21.5 8.78 21.5 20.59s-9.69 20.29-21.5 20.29c-11.51 0-21.5-8.48-21.5-20.29-.01-11.81 9.99-20.59 21.5-20.59zm-.31-162.46c8.78 0 16.05 7.57 16.05 16.35l-3.93 116.44c0 6.96-5.46 13.03-12.42 13.03s-12.42-6.06-12.42-13.03l-3.93-116.44c0-8.78 7.26-16.35 16.05-16.35h.6z"
     style="fill: rgb(242, 242, 242);"
     id="path5" />
  <circle
     cx="212.99"
     cy="382.85"
     r="20.79"
     style="fill: rgb(242, 242, 242);"
     id="circle5" />
</svg>
