<?xml version="1.0" encoding="UTF-8" standalone="no"?>
<svg
   height="1000"
   width="1000"
   viewBox="0 0 1000 1000"
   version="1.1"
   id="svg5"
   sodipodi:docname="interaktivemedien.svg"
   inkscape:version="1.3 (0e150ed6c4, 2023-07-21)"
   xmlns:inkscape="http://www.inkscape.org/namespaces/inkscape"
   xmlns:sodipodi="http://sodipodi.sourceforge.net/DTD/sodipodi-0.dtd"
   xmlns="http://www.w3.org/2000/svg"
   xmlns:svg="http://www.w3.org/2000/svg">
  <defs
     id="defs5" />
  <sodipodi:namedview
     id="namedview5"
     pagecolor="#505050"
     bordercolor="#ffffff"
     borderopacity="1"
     inkscape:showpageshadow="0"
     inkscape:pageopacity="0"
     inkscape:pagecheckerboard="1"
     inkscape:deskcolor="#d1d1d1"
     inkscape:zoom="1.815"
     inkscape:cx="460.88154"
     inkscape:cy="270.7989"
     inkscape:window-width="3840"
     inkscape:window-height="2054"
     inkscape:window-x="-11"
     inkscape:window-y="-11"
     inkscape:window-maximized="1"
     inkscape:current-layer="svg5" />
  <path
     d="M 131.14,704.2 V 843.87 M 212.06,644.6 V 843.87 M 292.98,555.21 V 843.87 M 373.9,644.6 V 843.87 M 454.82,644.6 V 843.87 M 535.73,704.2 V 843.87 M 865.78,644.6 V 843.87 M 784.86,704.2 V 843.87 M 616.65,763.8 v 80.07 M 53.4,763.8 v 80.07 M 697.57,763.8 v 80.07 M 946.6,763.8 v 80.07"
     style="fill:none;stroke:#666666;stroke-width:30;stroke-linecap:round;stroke-linejoin:round;stroke-miterlimit:10"
     id="path1" />
  <path
     d="M 357.06,441.03 H 241.8 l -21.35,72.21 c -2.62,8.87 -15.18,8.91 -17.86,0.06 L 180.72,441.04 H 67.77 c -15.99,0 -28.96,-12.96 -28.96,-28.96 V 169.85 c 0,-15.99 12.96,-28.96 28.96,-28.96 h 289.29 c 15.99,0 28.96,12.96 28.96,28.96 v 242.23 c -0.01,15.99 -12.97,28.95 -28.96,28.95 z"
     style="fill:#666666"
     id="path2" />
  <path
     d="m 212.41,343.72 c 8.79,0 15.94,-7.15 15.94,-15.94 0,-11.36 6.15,-22.54 18.78,-34.18 9.81,-9.02 21.02,-22.19 20.74,-43.97 -0.42,-29.73 -24.95,-54.26 -54.68,-54.68 -15.41,0.02 -29.16,5.53 -39.74,15.96 -10.65,10.51 -16.51,24.53 -16.51,39.51 0,8.81 7.15,15.96 15.94,15.96 8.81,0 15.96,-7.15 15.96,-15.96 0,-6.35 2.49,-12.3 7.02,-16.78 4.41,-4.36 10.41,-6.77 16.86,-6.77 12.43,0.17 23.06,10.8 23.23,23.2 0.08,6.68 -1.55,11.87 -10.44,20.05 -19.29,17.76 -29.06,37.17 -29.06,57.66 0,8.79 7.15,15.94 15.96,15.94 z"
     style="fill:#f2f2f2"
     id="path3" />
  <path
     d="m 817.05,552.29 h -115.2 l -21.34,72.17 c -2.62,8.87 -15.17,8.91 -17.85,0.06 L 640.8,552.29 H 527.9 c -15.99,0 -28.94,-12.96 -28.94,-28.94 V 281.23 c 0,-15.99 12.96,-28.94 28.94,-28.94 h 289.16 c 15.99,0 28.94,12.96 28.94,28.94 v 242.12 c 0,15.98 -12.96,28.94 -28.95,28.94 z"
     style="fill:#666666"
     id="path4" />
  <path
     d="m 672.48,460.97 c 11.81,0 21.5,8.78 21.5,20.59 0,11.81 -9.69,20.29 -21.5,20.29 -11.51,0 -21.5,-8.48 -21.5,-20.29 -0.01,-11.81 9.99,-20.59 21.5,-20.59 z m -0.31,-162.46 c 8.78,0 16.05,7.57 16.05,16.35 l -3.93,116.44 c 0,6.96 -5.46,13.03 -12.42,13.03 -6.96,0 -12.42,-6.06 -12.42,-13.03 l -3.93,-116.44 c 0,-8.78 7.26,-16.35 16.05,-16.35 z"
     style="fill:#f2f2f2"
     id="path5" />
  <circle
     cx="212.99001"
     cy="382.85001"
     r="20.790001"
     style="fill:#f2f2f2"
     id="circle5" />
</svg>
