<?xml version="1.0" encoding="UTF-8" standalone="no"?>
<svg
   width="949.8808"
   height="957.85065"
   viewBox="0 0 949.8808 957.85065"
   role="img"
   version="1.1"
   id="svg4"
   sodipodi:docname="leiste-3.svg"
   inkscape:version="1.4 (86a8ad7, 2024-10-11)"
   xmlns:inkscape="http://www.inkscape.org/namespaces/inkscape"
   xmlns:sodipodi="http://sodipodi.sourceforge.net/DTD/sodipodi-0.dtd"
   xmlns="http://www.w3.org/2000/svg"
   xmlns:svg="http://www.w3.org/2000/svg">
  <defs
     id="defs4" />
  <sodipodi:namedview
     id="namedview4"
     pagecolor="#505050"
     bordercolor="#eeeeee"
     borderopacity="1"
     inkscape:showpageshadow="0"
     inkscape:pageopacity="0"
     inkscape:pagecheckerboard="0"
     inkscape:deskcolor="#d1d1d1"
     inkscape:zoom="0.6416994"
     inkscape:cx="665.4206"
     inkscape:cy="1110.333"
     inkscape:window-width="3840"
     inkscape:window-height="2054"
     inkscape:window-x="-11"
     inkscape:window-y="-11"
     inkscape:window-maximized="1"
     inkscape:current-layer="svg4" />
  <path
     d="m 907.59779,353.03788 c 72.962,238.016 -61.57,489.887 -300.516,562.573 -238.946,72.687 -491.785,-61.334 -564.746997,-299.35 -60.732,-198.105 22.3,-405.82 189.619997,-511.82 33.705,-21.356995 70.827,-38.575995 110.883,-50.753995 238.946,-72.687 491.785,61.333995 564.76,299.349995 z"
     style="fill:none;fill-opacity:1;stroke:#000000;stroke-width:2"
     id="path1" />
  <path
     d="m 231.95479,104.45388 c 33.705,-21.356995 70.827,-38.575995 110.883,-50.753995 238.932,-72.686 491.785,61.333995 564.747,299.349995 72.962,238.017 -61.57,489.888 -300.516,562.574 -238.946,72.687 -491.785,-61.334 -564.746997,-299.35 -40.907,-133.458 -16.578,-271.263 54.8,-379.396"
     style="fill:none;fill-opacity:1;stroke:#000000;stroke-width:45;stroke-linecap:round;stroke-linejoin:round;stroke-miterlimit:10;stroke-dasharray:none;stroke-opacity:1"
     id="path2" />
  <path
     d="m 240.02127,29.4624 -31.60988,85.8207 89.12049,21.80217"
     style="fill:none;fill-opacity:1;stroke:#000000;stroke-width:58.9248;stroke-linecap:round;stroke-linejoin:round;stroke-miterlimit:10;stroke-opacity:1"
     id="path3" />
  <path
     d="m 474.95979,469.15888 v -305.322 m 0,304.065 156.046,122.812"
     style="fill:none;fill-opacity:1;stroke:#000000;stroke-width:45;stroke-linecap:round;stroke-linejoin:round;stroke-miterlimit:10;stroke-dasharray:none;stroke-opacity:1"
     id="path4" />
</svg>
