<?xml version="1.0" encoding="UTF-8" standalone="no"?>
<svg
   width="978.10144"
   height="892.87048"
   viewBox="0 0 978.10144 892.87048"
   role="img"
   version="1.1"
   id="svg2"
   sodipodi:docname="leiste-4.svg"
   inkscape:version="1.4 (86a8ad7, 2024-10-11)"
   xmlns:inkscape="http://www.inkscape.org/namespaces/inkscape"
   xmlns:sodipodi="http://sodipodi.sourceforge.net/DTD/sodipodi-0.dtd"
   xmlns="http://www.w3.org/2000/svg"
   xmlns:svg="http://www.w3.org/2000/svg">
  <defs
     id="defs2" />
  <sodipodi:namedview
     id="namedview2"
     pagecolor="#505050"
     bordercolor="#eeeeee"
     borderopacity="1"
     inkscape:showpageshadow="0"
     inkscape:pageopacity="0"
     inkscape:pagecheckerboard="0"
     inkscape:deskcolor="#d1d1d1"
     inkscape:zoom="0.9075"
     inkscape:cx="561.98347"
     inkscape:cy="681.5427"
     inkscape:window-width="3840"
     inkscape:window-height="2054"
     inkscape:window-x="-11"
     inkscape:window-y="-11"
     inkscape:window-maximized="1"
     inkscape:current-layer="svg2" />
  <path
     d="m 208.83697,20.23377 h 560.44097 c 104.16206,0 188.58971,84.44114 188.58971,188.58971 v 307.14453 c 0,104.16206 -84.44114,188.58971 -188.58971,188.58971 H 381.49617 c -1.11959,0 -2.15824,0.43165 -2.90014,1.26796 -47.64314,53.37598 -124.74627,140.20467 -147.28639,165.59097 -2.40104,2.6978 -6.81194,1.11959 -7.05474,-2.48198 L 212.89716,708.34813 a 4.0817714,4.0817714 0 0 0 -4.07368,-3.79041 v 0 c -104.14857,0 -188.58971,-84.42765 -188.58971,-188.58971 V 208.82348 C 20.247259,104.67491 104.67491,20.23377 208.83697,20.23377 Z"
     style="fill:none;stroke:#000000;stroke-width:40.4675;stroke-linecap:round;stroke-linejoin:round;stroke-miterlimit:10;stroke-dasharray:none;stroke-opacity:1"
     id="path1" />
  <path
     d="M 170.97335,300.1575 H 507.71274 M 170.97335,481.08546 H 807.14156 M 170.97335,388.10578 h 105.48398 m 97.485,0 h 431.10844"
     style="fill:none;stroke:#000000;stroke-width:40.467;stroke-linecap:round;stroke-linejoin:round;stroke-miterlimit:10;stroke-opacity:1"
     id="path2" />
</svg>
