<?xml version="1.0" encoding="UTF-8" standalone="no"?>
<svg
   width="780.33197"
   height="889.09399"
   viewBox="0 0 780.33197 889.09399"
   version="1.1"
   id="svg4"
   sodipodi:docname="liste.svg"
   inkscape:version="1.4 (86a8ad7, 2024-10-11)"
   xmlns:inkscape="http://www.inkscape.org/namespaces/inkscape"
   xmlns:sodipodi="http://sodipodi.sourceforge.net/DTD/sodipodi-0.dtd"
   xmlns="http://www.w3.org/2000/svg"
   xmlns:svg="http://www.w3.org/2000/svg">
  <defs
     id="defs4" />
  <sodipodi:namedview
     id="namedview4"
     pagecolor="#505050"
     bordercolor="#eeeeee"
     borderopacity="1"
     inkscape:showpageshadow="0"
     inkscape:pageopacity="0"
     inkscape:pagecheckerboard="0"
     inkscape:deskcolor="#d1d1d1"
     inkscape:zoom="1.815"
     inkscape:cx="395.59229"
     inkscape:cy="446.00551"
     inkscape:window-width="3840"
     inkscape:window-height="2054"
     inkscape:window-x="-11"
     inkscape:window-y="-11"
     inkscape:window-maximized="1"
     inkscape:current-layer="svg4" />
  <g
     fill="#f2f2f2"
     id="g3"
     transform="translate(-103.87,-53.858)">
    <path
       d="m 864.3,852.3 c 0,39.08 -31.68,70.75 -70.75,70.75 H 292.73 c -39.08,0 -70.75,-31.68 -70.75,-70.75 V 144.51 c 0,-39.08 31.68,-70.75 70.75,-70.75 h 364.8 L 864.3,289.59"
       id="path1" />
    <path
       stroke="#666666"
       stroke-linecap="round"
       stroke-linejoin="round"
       stroke-miterlimit="10"
       stroke-width="39.804"
       d="M 221.97,541.62 V 144.51 c 0,-39.08 31.68,-70.75 70.75,-70.75 h 364.8 L 864.3,289.59 V 852.3 c 0,39.08 -31.68,70.75 -70.75,70.75 H 329.82"
       id="path2" />
    <path
       stroke="#666666"
       stroke-linecap="round"
       stroke-linejoin="round"
       stroke-miterlimit="10"
       stroke-width="39.804"
       d="m 645.26,84.59 v 146.03 c 0,40.1 32.51,72.61 72.61,72.61 h 136.84"
       id="path3" />
  </g>
  <path
     fill="#666666"
     d="m 106.34,568.212 c 30.12,0 56.24,11.06 74.99,29.2 7.99,7.38 5.84,23.05 -2.77,30.73 -8.61,7.38 -21.21,7.07 -28.89,0.31 -11.06,-10.45 -26.12,-16.6 -43.33,-16.6 -35.04,0 -61.47,28.89 -61.47,64.85 0,35.96 26.43,64.85 61.47,64.85 17.21,0 32.27,-6.15 43.33,-16.6 7.68,-6.76 20.29,-7.07 28.89,0.31 8.61,7.68 10.76,23.36 2.77,30.73 -18.75,18.13 -44.87,29.2 -74.99,29.2 C 45.79,785.192 0,736.942 0,676.702 0,616.462 45.79,568.212 106.34,568.212 Z m 120.78,146.29 c 11.99,-4.61 23.36,1.84 27.66,10.76 4.61,9.53 15.06,19.98 34.11,19.98 18.13,0 30.73,-8.61 31.04,-22.44 0.31,-9.53 -4,-17.83 -25.51,-23.97 l -25.51,-7.07 c -46.72,-14.45 -54.71,-41.18 -54.71,-60.24 0,-37.8 32.27,-63.31 72.84,-63.31 30.43,0 53.17,13.22 64.54,35.34 5.22,10.14 0.92,19.98 -6.76,24.89 -11.06,7.07 -20.9,4 -28.28,-5.22 -8.91,-11.37 -20.59,-14.75 -30.12,-14.75 -15.67,0 -27.35,9.22 -27.35,21.82 0,5.53 2.15,15.67 22.74,21.51 l 25.2,7.38 c 51.33,14.75 58.7,43.64 58.09,63.93 -0.62,42.11 -38.73,62.08 -76.22,62.08 -37.5,0 -64.54,-18.13 -73.76,-45.49 -3.37,-10.75 1.55,-21.2 12,-25.2 z m 261.24,53.17 c -3.07,9.83 -11.06,16.29 -22.44,16.29 h -4.3 c -11.68,0 -19.36,-6.45 -22.13,-16.29 l -52.55,-171.5 c -3.07,-10.76 4.61,-23.67 15.67,-26.43 11.68,-2.77 24.28,3.38 27.05,14.14 l 34.12,130.62 34.12,-130.62 c 2.77,-10.76 15.37,-16.9 27.05,-14.14 11.06,2.77 18.75,15.67 15.67,26.43 z"
     id="path4" />
</svg>
