<?xml version="1.0" encoding="UTF-8" standalone="no"?>
<svg
   width="929.83978"
   height="699.45001"
   viewBox="0 0 929.83978 699.45001"
   version="1.1"
   id="svg3"
   sodipodi:docname="lueckentext.svg"
   inkscape:version="1.4 (86a8ad7, 2024-10-11)"
   xmlns:inkscape="http://www.inkscape.org/namespaces/inkscape"
   xmlns:sodipodi="http://sodipodi.sourceforge.net/DTD/sodipodi-0.dtd"
   xmlns="http://www.w3.org/2000/svg"
   xmlns:svg="http://www.w3.org/2000/svg">
  <defs
     id="defs3" />
  <sodipodi:namedview
     id="namedview3"
     pagecolor="#505050"
     bordercolor="#eeeeee"
     borderopacity="1"
     inkscape:showpageshadow="0"
     inkscape:pageopacity="0"
     inkscape:pagecheckerboard="0"
     inkscape:deskcolor="#d1d1d1"
     inkscape:zoom="1.815"
     inkscape:cx="455.09642"
     inkscape:cy="302.75482"
     inkscape:window-width="3840"
     inkscape:window-height="2054"
     inkscape:window-x="-11"
     inkscape:window-y="-11"
     inkscape:window-maximized="1"
     inkscape:current-layer="svg3" />
  <path
     fill="#666666"
     d="M 649.54,699.45 H 53.81 C 24.14,699.45 0,675.31 0,645.64 V 314.82 c 0,-29.67 24.14,-53.81 53.81,-53.81 h 73.22 c 9.9,0 17.92,8.02 17.92,17.92 0,9.9 -8.02,17.92 -17.92,17.92 H 53.81 c -9.9,0 -17.96,8.06 -17.96,17.96 v 330.82 c 0,9.9 8.06,17.96 17.96,17.96 h 595.73 c 9.9,0 17.96,-8.06 17.96,-17.96 V 314.81 c 0,-9.9 -8.06,-17.96 -17.96,-17.96 H 578.6 c -9.9,0 -17.92,-8.02 -17.92,-17.92 0,-9.9 8.02,-17.92 17.92,-17.92 h 70.94 c 29.67,0 53.81,24.14 53.81,53.81 v 330.82 c 0,29.67 -24.14,53.81 -53.81,53.81 z"
     id="path1" />
  <path
     fill="#f2f2f2"
     d="M 127.03,296.86 H 53.81 c -9.9,0 -17.96,8.06 -17.96,17.96 v 330.82 c 0,9.9 8.06,17.96 17.96,17.96 h 595.73 c 9.9,0 17.96,-8.06 17.96,-17.96 V 314.82 c 0,-9.9 -8.06,-17.96 -17.96,-17.96 H 578.6 c -9.9,0 -17.92,-8.02 -17.92,-17.92 H 144.95 c 0,9.9 -8.02,17.92 -17.92,17.92 z"
     id="path2" />
  <g
     fill="#666666"
     id="g3"
     transform="translate(-44.7,-197.07)">
    <path
       d="m 973.53,279.01 c -3.57,-10.98 -15.36,-16.99 -26.35,-13.43 l -65.53,21.29 v -68.89 c 0,-11.55 -9.36,-20.91 -20.91,-20.91 -11.55,0 -20.91,9.36 -20.91,20.91 v 68.89 l -65.5,-21.28 c -10.98,-3.57 -22.78,2.44 -26.35,13.43 -3.57,10.98 2.44,22.78 13.42,26.35 l 65.51,21.29 -40.49,55.73 c -6.79,9.34 -4.72,22.42 4.63,29.21 3.71,2.7 8.01,4 12.27,4 6.47,0 12.84,-2.99 16.93,-8.62 l 40.49,-55.73 40.49,55.73 c 4.09,5.63 10.47,8.62 16.93,8.62 4.26,0 8.56,-1.3 12.27,-4 9.34,-6.79 11.41,-19.86 4.63,-29.21 l -40.49,-55.73 65.52,-21.29 c 10.98,-3.57 16.99,-15.37 13.42,-26.35 z m -583.17,-45.35 -2.03,-0.02 c -36.98,0 -71.86,14.32 -98.19,40.32 -26.9,26.5 -41.7,61.89 -41.7,99.65 0,21.39 17.41,38.79 38.8,38.79 21.39,0 38.79,-17.4 38.79,-38.79 0,-16.85 6.59,-32.61 18.58,-44.41 11.76,-11.59 27.01,-17.97 42.91,-17.97 l 1.91,0.04 c 32.8,0.43 60.89,28.58 61.33,61.46 0.25,17.28 -4.15,31.47 -27.39,52.89 -48.95,45.06 -73.78,94.2 -73.78,146.04 0,21.39 17.41,38.8 38.8,38.8 21.39,0 38.79,-17.41 38.79,-38.8 0,-29.71 15.94,-58.81 48.74,-88.97 24.81,-22.86 53.2,-56.14 52.43,-111.05 C 527.3,296.62 465.41,234.73 390.38,233.67 Z m 1.92,417.11 c -25.44,0 -46.13,20.69 -46.13,46.13 0,25.44 20.69,46.13 46.13,46.13 25.44,0 46.11,-20.69 46.11,-46.13 0,-25.44 -20.69,-46.13 -46.11,-46.13 z"
       id="path3" />
  </g>
</svg>
