<?xml version="1.0" encoding="UTF-8" standalone="no"?>
<svg
   height="1000"
   width="1000"
   viewBox="0 0 1000 1000"
   version="1.1"
   id="svg1"
   sodipodi:docname="markdown.svg"
   inkscape:version="1.4.2 (f4327f4, 2025-05-13)"
   xmlns:inkscape="http://www.inkscape.org/namespaces/inkscape"
   xmlns:sodipodi="http://sodipodi.sourceforge.net/DTD/sodipodi-0.dtd"
   xmlns="http://www.w3.org/2000/svg"
   xmlns:svg="http://www.w3.org/2000/svg">
  <defs
     id="defs1" />
  <sodipodi:namedview
     id="namedview1"
     pagecolor="#505050"
     bordercolor="#ffffff"
     borderopacity="1"
     inkscape:showpageshadow="0"
     inkscape:pageopacity="0"
     inkscape:pagecheckerboard="1"
     inkscape:deskcolor="#d1d1d1"
     inkscape:zoom="1.815"
     inkscape:cx="500.27548"
     inkscape:cy="500"
     inkscape:window-width="3840"
     inkscape:window-height="2054"
     inkscape:window-x="3829"
     inkscape:window-y="-11"
     inkscape:window-maximized="1"
     inkscape:current-layer="svg1" />
  <path
     d="M 766.99,162.5 H 233.01 c -8.47,0 -15.35,7.33 -15.35,15.67 v 149.37 c 0,8.33 6.88,15.1 15.35,15.1 h 65.78 c 7.86,0 14.45,-5.85 15.26,-13.54 l 7.62,-71.69 h 116.44 v 475.48 l -87.25,9.82 c -7.75,0.87 -13.6,7.32 -13.6,15 v 64.7 c 0,8.33 6.88,15.1 15.35,15.1 h 294.81 c 8.47,0 15.35,-6.77 15.35,-15.1 v -64.7 c 0,-7.69 -5.88,-14.15 -13.64,-15 l -87.21,-9.59 V 257.4 h 116.44 l 7.62,71.69 c 0.81,7.69 7.4,13.54 15.26,13.54 H 767 c 8.47,0 15.35,-6.77 15.35,-15.1 V 177.6 c -0.01,-8.34 -6.89,-15.1 -15.36,-15.1 z"
     style="fill:#f2f2f2;stroke:#666666;stroke-width:40;stroke-linecap:round;stroke-linejoin:round;stroke-miterlimit:10"
     id="path1" />
</svg>
