<?xml version="1.0" encoding="UTF-8" standalone="no"?>
<svg
   height="1000"
   version="1.1"
   viewBox="0 0 1000 1000"
   width="1000"
   id="svg2533"
   sodipodi:docname="MArkdown mit Bild.svg"
   inkscape:version="1.4.2 (f4327f4, 2025-05-13)"
   xmlns:inkscape="http://www.inkscape.org/namespaces/inkscape"
   xmlns:sodipodi="http://sodipodi.sourceforge.net/DTD/sodipodi-0.dtd"
   xmlns="http://www.w3.org/2000/svg"
   xmlns:svg="http://www.w3.org/2000/svg">
  <sodipodi:namedview
     id="namedview2533"
     pagecolor="#505050"
     bordercolor="#ffffff"
     borderopacity="1"
     inkscape:showpageshadow="0"
     inkscape:pageopacity="0"
     inkscape:pagecheckerboard="1"
     inkscape:deskcolor="#d1d1d1"
     inkscape:document-units="pt"
     inkscape:zoom="1.6168977"
     inkscape:cx="664.85346"
     inkscape:cy="533.42893"
     inkscape:window-width="3840"
     inkscape:window-height="2054"
     inkscape:window-x="3829"
     inkscape:window-y="-11"
     inkscape:window-maximized="1"
     inkscape:current-layer="g2532" />
  <defs
     id="defs5">
    <path
       d="M 3.97,10.1 C 3.47,10.1 3.00667,10.0083 2.58,9.825 2.15333,9.64167 1.78167,9.38667 1.465,9.06 1.14833,8.73333 0.903333,8.35333 0.73,7.92 0.556667,7.48667 0.47,7.02333 0.47,6.53 0.47,6.03 0.556667,5.56333 0.73,5.13 0.903333,4.69667 1.14833,4.31833 1.465,3.995 1.78167,3.67167 2.15167,3.41833 2.575,3.235 2.99833,3.05167 3.46,2.96 3.96,2.96 4.50667,2.96 4.98667,3.05333 5.4,3.24 5.81333,3.42667 6.18,3.68 6.5,4 L 5.85,4.65 C 5.63,4.40333 5.36167,4.21 5.045,4.07 4.72833,3.93 4.36667,3.86 3.96,3.86 3.59333,3.86 3.25667,3.925 2.95,4.055 2.64333,4.185 2.37667,4.37 2.15,4.61 1.92333,4.85 1.74833,5.13333 1.625,5.46 1.50167,5.78667 1.44,6.14333 1.44,6.53 1.44,6.91667 1.50167,7.27333 1.625,7.6 1.74833,7.92667 1.92333,8.21 2.15,8.45 2.37667,8.69 2.64333,8.875 2.95,9.005 3.25667,9.135 3.59333,9.2 3.96,9.2 4.39333,9.2 4.77,9.12833 5.09,8.985 5.41,8.84167 5.68,8.64667 5.9,8.4 L 6.55,9.04 C 6.23,9.37333 5.855,9.63333 5.425,9.82 4.995,10.0067 4.51,10.1 3.97,10.1 Z"
       id="GlOutfit-Regular14" />
    <path
       d=""
       id="GlOutfit-Regular301" />
    <path
       d="M 1.45,10 V 9.18 h 2.1 C 3.95,9.18 4.26333,9.06167 4.49,8.825 4.71667,8.58833 4.83,8.30333 4.83,7.97 4.83,7.74333 4.78,7.53833 4.68,7.355 4.58,7.17167 4.435,7.02667 4.245,6.92 4.055,6.81333 3.83333,6.76 3.58,6.76 H 1.45 V 5.94 H 3.44 C 3.77333,5.94 4.03833,5.85167 4.235,5.675 4.43167,5.49833 4.53,5.24333 4.53,4.91 4.53,4.57667 4.42667,4.32167 4.22,4.145 4.01333,3.96833 3.74,3.88 3.4,3.88 H 1.45 V 3.06 h 1.97 c 0.45333,0 0.83167,0.08167 1.135,0.245 C 4.85833,3.46833 5.08833,3.68333 5.245,3.95 5.40167,4.21667 5.48,4.51 5.48,4.83 5.48,5.20333 5.37833,5.53 5.175,5.81 4.97167,6.09 4.67333,6.31 4.28,6.47 L 4.36,6.17 C 4.80667,6.33 5.155,6.57167 5.405,6.895 5.655,7.21833 5.78,7.6 5.78,8.04 5.78,8.40667 5.69,8.73667 5.51,9.03 5.33,9.32333 5.07167,9.55833 4.735,9.735 4.39833,9.91167 3.98667,10 3.5,10 Z M 0.82,10 V 3.06 H 1.76 V 10 Z"
       id="GlOutfit-Regular13" />
    <path
       d="M 3.02,7.18 0.29,3.06 h 1.09 l 2.2,3.37 H 3.09 L 5.3,3.06 H 6.37 L 3.62,7.18 Z M 2.86,10 V 6.56 H 3.8 V 10 Z"
       id="GlOutfit-Regular106" />
    <path
       d="M 3.98,10.1 C 3.48667,10.1 3.02667,10.0083 2.6,9.825 2.17333,9.64167 1.8,9.385 1.48,9.055 1.16,8.725 0.911667,8.34333 0.735,7.91 0.558333,7.47667 0.47,7.01333 0.47,6.52 0.47,6.02 0.558333,5.555 0.735,5.125 0.911667,4.695 1.15833,4.31667 1.475,3.99 1.79167,3.66333 2.16167,3.41 2.585,3.23 3.00833,3.05 3.46667,2.96 3.96,2.96 4.45333,2.96 4.91167,3.05 5.335,3.23 5.75833,3.41 6.13,3.66333 6.45,3.99 6.77,4.31667 7.02,4.69667 7.2,5.13 7.38,5.56333 7.47,6.03 7.47,6.53 7.47,7.02333 7.38,7.48667 7.2,7.92 7.02,8.35333 6.77167,8.73333 6.455,9.06 6.13833,9.38667 5.76833,9.64167 5.345,9.825 4.92167,10.0083 4.46667,10.1 3.98,10.1 Z M 3.96,9.2 C 4.46,9.2 4.89833,9.085 5.275,8.855 5.65167,8.625 5.95,8.30833 6.17,7.905 6.39,7.50167 6.5,7.04 6.5,6.52 6.5,6.13333 6.43667,5.77833 6.31,5.455 6.18333,5.13167 6.00667,4.85 5.78,4.61 5.55333,4.37 5.28667,4.185 4.98,4.055 4.67333,3.925 4.33333,3.86 3.96,3.86 3.46667,3.86 3.03167,3.97333 2.655,4.2 2.27833,4.42667 1.98167,4.74 1.765,5.14 1.54833,5.54 1.44,6 1.44,6.52 c 0,0.38667 0.06167,0.745 0.185,1.075 0.12333,0.33 0.29667,0.61333 0.52,0.85 0.22333,0.23667 0.49,0.42167 0.8,0.555 0.31,0.13333 0.64833,0.2 1.015,0.2 z"
       id="GlOutfit-Regular63" />
    <path
       d="M 3.16,10.1 C 2.8,10.1 2.475,10.025 2.185,9.875 1.895,9.725 1.66333,9.51667 1.49,9.25 1.31667,8.98333 1.22,8.68 1.2,8.34 V 6.91 C 1.22,6.56333 1.31833,6.25833 1.495,5.995 1.67167,5.73167 1.905,5.525 2.195,5.375 2.485,5.225 2.80667,5.15 3.16,5.15 c 0.43333,0 0.825,0.11 1.175,0.33 0.35,0.22 0.625,0.51667 0.825,0.89 0.2,0.37333 0.3,0.79333 0.3,1.26 0,0.46667 -0.1,0.88667 -0.3,1.26 C 4.96,9.26333 4.685,9.55833 4.335,9.775 3.985,9.99167 3.59333,10.1 3.16,10.1 Z m -2.5,1.89 V 5.25 h 0.9 V 6.5 L 1.39,7.65 1.56,8.81 v 3.18 z M 3.01,9.25 C 3.31,9.25 3.57333,9.18 3.8,9.04 4.02667,8.9 4.20667,8.70833 4.34,8.465 4.47333,8.22167 4.54,7.94 4.54,7.62 4.54,7.30667 4.47333,7.02667 4.34,6.78 4.20667,6.53333 4.02667,6.34167 3.8,6.205 3.57333,6.06833 3.31333,6 3.02,6 2.72,6 2.45667,6.06833 2.23,6.205 2.00333,6.34167 1.82667,6.53333 1.7,6.78 1.57333,7.02667 1.51,7.31 1.51,7.63 c 0,0.31333 0.06167,0.59167 0.185,0.835 0.12333,0.24333 0.3,0.435 0.53,0.575 0.23,0.14 0.49167,0.21 0.785,0.21 z"
       id="GlOutfit-Regular191" />
    <path
       d="M 2.86,10.1 C 2.38667,10.1 1.96,9.99167 1.58,9.775 1.2,9.55833 0.9,9.26333 0.68,8.89 0.46,8.51667 0.35,8.09333 0.35,7.62 0.35,7.15333 0.458333,6.73333 0.675,6.36 0.891667,5.98667 1.185,5.69167 1.555,5.475 1.925,5.25833 2.34,5.15 2.8,5.15 c 0.44,0 0.82833,0.1 1.165,0.3 0.33667,0.2 0.6,0.47667 0.79,0.83 0.19,0.35333 0.285,0.75333 0.285,1.2 0,0.06667 -0.00333,0.13833 -0.01,0.215 C 5.02333,7.77167 5.01,7.86 4.99,7.96 H 0.98 V 7.21 H 4.51 L 4.18,7.5 C 4.18,7.18 4.12333,6.90833 4.01,6.685 3.89667,6.46167 3.73667,6.28833 3.53,6.165 3.32333,6.04167 3.07333,5.98 2.78,5.98 2.47333,5.98 2.20333,6.04667 1.97,6.18 1.73667,6.31333 1.55667,6.5 1.43,6.74 1.30333,6.98 1.24,7.26333 1.24,7.59 c 0,0.33333 0.06667,0.625 0.2,0.875 0.13333,0.25 0.32333,0.44333 0.57,0.58 C 2.25667,9.18167 2.54,9.25 2.86,9.25 3.12667,9.25 3.37167,9.20333 3.595,9.11 3.81833,9.01667 4.01,8.87667 4.17,8.69 L 4.75,9.28 C 4.52333,9.54667 4.245,9.75 3.915,9.89 3.585,10.03 3.23333,10.1 2.86,10.1 Z"
       id="GlOutfit-Regular140" />
    <path
       d="M 4.02,10 V 7.23 C 4.02,6.87 3.90667,6.57333 3.68,6.34 3.45333,6.10667 3.16,5.99 2.8,5.99 2.56,5.99 2.34667,6.04333 2.16,6.15 1.97333,6.25667 1.82667,6.40333 1.72,6.59 1.61333,6.77667 1.56,6.99 1.56,7.23 L 1.19,7.02 C 1.19,6.66 1.27,6.34 1.43,6.06 1.59,5.78 1.81333,5.55833 2.1,5.395 2.38667,5.23167 2.71,5.15 3.07,5.15 3.43,5.15 3.74833,5.24 4.025,5.42 4.30167,5.6 4.52,5.835 4.68,6.125 4.84,6.415 4.92,6.72333 4.92,7.05 V 10 Z M 0.66,10 V 5.25 h 0.9 V 10 Z"
       id="GlOutfit-Regular175" />
    <path
       d="M 0.82,10 V 3.06 H 1.48 L 4.42,7.89 H 3.97 L 6.91,3.06 H 7.57 V 10 H 6.63 V 4.71 L 6.85,4.77 4.53,8.58 H 3.87 L 1.55,4.77 1.76,4.71 V 10 Z"
       id="GlOutfit-Regular56" />
    <path
       d="M 2.58,10.1 C 2.18667,10.1 1.835,10.0117 1.525,9.835 1.215,9.65833 0.973333,9.41333 0.8,9.1 0.626667,8.78667 0.54,8.42333 0.54,8.01 V 5.25 h 0.9 v 2.72 c 0,0.26 0.045,0.485 0.135,0.675 0.09,0.19 0.22167,0.335 0.395,0.435 0.17333,0.1 0.37667,0.15 0.61,0.15 0.35333,0 0.63,-0.11167 0.83,-0.335 0.2,-0.22333 0.3,-0.53167 0.3,-0.925 V 5.25 h 0.9 V 8.01 C 4.61,8.42333 4.52333,8.78667 4.35,9.1 4.17667,9.41333 3.93833,9.65833 3.635,9.835 3.33167,10.0117 2.98,10.1 2.58,10.1 Z"
       id="GlOutfit-Regular207" />
    <path
       d="M 2.17,10.1 C 1.90333,10.1 1.65167,10.065 1.415,9.995 1.17833,9.925 0.96,9.825 0.76,9.695 0.56,9.565 0.386667,9.41 0.24,9.23 L 0.82,8.65 C 0.993333,8.86333 1.19333,9.02167 1.42,9.125 1.64667,9.22833 1.9,9.28 2.18,9.28 2.46,9.28 2.67667,9.23167 2.83,9.135 2.98333,9.03833 3.06,8.90333 3.06,8.73 3.06,8.55667 2.99833,8.42167 2.875,8.325 2.75167,8.22833 2.59333,8.14833 2.4,8.085 2.20667,8.02167 2.00167,7.95833 1.785,7.895 1.56833,7.83167 1.36333,7.75 1.17,7.65 0.976667,7.55 0.818333,7.41333 0.695,7.24 0.571667,7.06667 0.51,6.83667 0.51,6.55 0.51,6.26333 0.58,6.015 0.72,5.805 0.86,5.595 1.055,5.43333 1.305,5.32 1.555,5.20667 1.85667,5.15 2.21,5.15 2.58333,5.15 2.915,5.215 3.205,5.345 3.495,5.475 3.73333,5.67 3.92,5.93 L 3.34,6.51 C 3.20667,6.33667 3.04167,6.20333 2.845,6.11 2.64833,6.01667 2.42667,5.97 2.18,5.97 1.92,5.97 1.72167,6.015 1.585,6.105 1.44833,6.195 1.38,6.32 1.38,6.48 1.38,6.64 1.44,6.76333 1.56,6.85 1.68,6.93667 1.83833,7.01 2.035,7.07 2.23167,7.13 2.43667,7.19167 2.65,7.255 2.86333,7.31833 3.06667,7.40333 3.26,7.51 3.45333,7.61667 3.61167,7.76 3.735,7.94 3.85833,8.12 3.92,8.35667 3.92,8.65 3.92,9.09667 3.76167,9.45 3.445,9.71 3.12833,9.97 2.70333,10.1 2.17,10.1 Z"
       id="GlOutfit-Regular198" />
    <path
       d="M 0.67,10 V 5.25 h 0.9 V 10 Z M 1.12,4.3 C 0.953333,4.3 0.816667,4.245 0.71,4.135 0.603333,4.025 0.55,3.88667 0.55,3.72 0.55,3.56 0.603333,3.425 0.71,3.315 0.816667,3.205 0.953333,3.15 1.12,3.15 1.28667,3.15 1.42333,3.205 1.53,3.315 1.63667,3.425 1.69,3.56 1.69,3.72 1.69,3.88667 1.63667,4.025 1.53,4.135 1.42333,4.245 1.28667,4.3 1.12,4.3 Z"
       id="GlOutfit-Regular156" />
    <path
       d="M 2.83,10.1 C 2.36333,10.1 1.94167,9.99 1.565,9.77 1.18833,9.55 0.891667,9.25167 0.675,8.875 0.458333,8.49833 0.35,8.08 0.35,7.62 0.35,7.15333 0.458333,6.73333 0.675,6.36 0.891667,5.98667 1.18833,5.69167 1.565,5.475 1.94167,5.25833 2.36333,5.15 2.83,5.15 3.19667,5.15 3.53667,5.21833 3.85,5.355 4.16333,5.49167 4.43333,5.69 4.66,5.95 l -0.6,0.6 C 3.91333,6.37667 3.735,6.245 3.525,6.155 3.315,6.065 3.08333,6.02 2.83,6.02 2.53,6.02 2.26333,6.08833 2.03,6.225 1.79667,6.36167 1.61333,6.55 1.48,6.79 1.34667,7.03 1.28,7.30667 1.28,7.62 c 0,0.31333 0.06667,0.59 0.2,0.83 0.13333,0.24 0.31667,0.43 0.55,0.57 0.23333,0.14 0.5,0.21 0.8,0.21 0.25333,0 0.485,-0.045 0.695,-0.135 C 3.735,9.005 3.91667,8.87333 4.07,8.7 L 4.66,9.3 C 4.44,9.55333 4.17167,9.75 3.855,9.89 3.53833,10.03 3.19667,10.1 2.83,10.1 Z"
       id="GlOutfit-Regular131" />
    <path
       d="M 0.31,10 3.15,3.06 H 3.83 L 6.66,10 H 5.64 L 3.31,4.13 H 3.66 L 1.31,10 Z M 1.66,8.43 V 7.61 h 3.65 v 0.82 z"
       id="GlOutfit-Regular1" />
    <path
       d="M 2.68,10.1 C 2.24667,10.1 1.85333,9.99167 1.5,9.775 1.14667,9.55833 0.868333,9.26333 0.665,8.89 0.461667,8.51667 0.36,8.09667 0.36,7.63 0.36,7.16333 0.461667,6.74333 0.665,6.37 0.868333,5.99667 1.145,5.7 1.495,5.48 1.845,5.26 2.24,5.15 2.68,5.15 3.04,5.15 3.36167,5.225 3.645,5.375 3.92833,5.525 4.15667,5.73167 4.33,5.995 4.50333,6.25833 4.6,6.56333 4.62,6.91 V 8.34 C 4.6,8.68 4.505,8.98333 4.335,9.25 4.165,9.51667 3.93833,9.725 3.655,9.875 3.37167,10.025 3.04667,10.1 2.68,10.1 Z M 2.83,9.25 C 3.27667,9.25 3.63667,9.09833 3.91,8.795 4.18333,8.49167 4.32,8.10333 4.32,7.63 4.32,7.30333 4.25833,7.01833 4.135,6.775 4.01167,6.53167 3.83667,6.34167 3.61,6.205 3.38333,6.06833 3.12,6 2.82,6 2.52,6 2.255,6.07 2.025,6.21 1.795,6.35 1.615,6.54167 1.485,6.785 1.355,7.02833 1.29,7.30667 1.29,7.62 1.29,7.94 1.355,8.22167 1.485,8.465 1.615,8.70833 1.79667,8.9 2.03,9.04 2.26333,9.18 2.53,9.25 2.83,9.25 Z M 4.26,10 V 8.72 L 4.43,7.56 4.26,6.41 V 5.25 H 5.17 V 10 Z"
       id="GlOutfit-Regular118" />
    <path
       d="M 2.67,10.1 C 2.23,10.1 1.83667,9.99167 1.49,9.775 1.14333,9.55833 0.868333,9.26333 0.665,8.89 0.461667,8.51667 0.36,8.09667 0.36,7.63 0.36,7.16333 0.461667,6.74333 0.665,6.37 0.868333,5.99667 1.14333,5.7 1.49,5.48 1.83667,5.26 2.23,5.15 2.67,5.15 c 0.35333,0 0.67333,0.075 0.96,0.225 0.28667,0.15 0.51833,0.35667 0.695,0.62 C 4.50167,6.25833 4.6,6.56333 4.62,6.91 V 8.34 C 4.6,8.68 4.50333,8.98333 4.33,9.25 4.15667,9.51667 3.92667,9.725 3.64,9.875 3.35333,10.025 3.03,10.1 2.67,10.1 Z M 2.82,9.25 C 3.12,9.25 3.38167,9.18 3.605,9.04 3.82833,8.9 4.00333,8.70833 4.13,8.465 4.25667,8.22167 4.32,7.94333 4.32,7.63 4.32,7.30333 4.255,7.02 4.125,6.78 3.995,6.54 3.81833,6.35 3.595,6.21 3.37167,6.07 3.11,6 2.81,6 2.51,6 2.24667,6.07 2.02,6.21 1.79333,6.35 1.615,6.54167 1.485,6.785 1.355,7.02833 1.29,7.30667 1.29,7.62 1.29,7.94 1.355,8.22167 1.485,8.465 1.615,8.70833 1.795,8.9 2.025,9.04 2.255,9.18 2.52,9.25 2.82,9.25 Z M 5.17,10 H 4.26 V 8.72 L 4.43,7.56 4.26,6.41 V 2.86 h 0.91 z"
       id="GlOutfit-Regular136" />
    <path
       d="M 0.66,10 V 5.25 h 0.9 V 10 Z m 3.21,0 V 7.13 C 3.87,6.77667 3.76167,6.49833 3.545,6.295 3.32833,6.09167 3.05667,5.99 2.73,5.99 2.51,5.99 2.31333,6.03667 2.14,6.13 1.96667,6.22333 1.82667,6.35333 1.72,6.52 1.61333,6.68667 1.56,6.88667 1.56,7.12 L 1.19,6.94 C 1.19,6.58 1.26833,6.26667 1.425,6 1.58167,5.73333 1.79667,5.525 2.07,5.375 2.34333,5.225 2.65,5.15 2.99,5.15 c 0.33333,0 0.635,0.07333 0.905,0.22 0.27,0.14667 0.48333,0.35333 0.64,0.62 C 4.69167,6.25667 4.77,6.57333 4.77,6.94 V 10 Z m 3.21,0 V 7.13 C 7.08,6.77667 6.97167,6.49833 6.755,6.295 6.53833,6.09167 6.27,5.99 5.95,5.99 5.73,5.99 5.53167,6.03667 5.355,6.13 5.17833,6.22333 5.03667,6.35333 4.93,6.52 4.82333,6.68667 4.77,6.88667 4.77,7.12 L 4.26,6.94 C 4.28,6.57333 4.37833,6.25833 4.555,5.995 4.73167,5.73167 4.96,5.525 5.24,5.375 5.52,5.225 5.82667,5.15 6.16,5.15 6.50667,5.15 6.81667,5.22333 7.09,5.37 7.36333,5.51667 7.58167,5.72333 7.745,5.99 7.90833,6.25667 7.99,6.57667 7.99,6.95 V 10 Z"
       id="GlOutfit-Regular174" />
    <path
       d="M 2.22,10.04 0.16,5.25 h 1 L 2.69,9 H 2.37 L 3.98,5.25 h 1 l -2.22,4.79 z m -1.36,1.95 1.4,-2.87 0.5,0.92 -0.9,1.95 z"
       id="GlOutfit-Regular224" />
    <path
       d="M 0.98,11.3 V 2.36 H 1.8 v 8.94 z"
       id="GlOutfit-Regular349" />
    <path
       d="M 1.44,10 V 9.14 H 3.37 C 3.88333,9.14 4.33333,9.02833 4.72,8.805 5.10667,8.58167 5.40833,8.27333 5.625,7.88 5.84167,7.48667 5.95,7.03333 5.95,6.52 5.95,6.01333 5.84,5.56333 5.62,5.17 5.4,4.77667 5.09667,4.47 4.71,4.25 4.32333,4.03 3.87667,3.92 3.37,3.92 H 1.45 V 3.06 h 1.94 c 0.50667,0 0.975,0.08667 1.405,0.26 0.43,0.17333 0.80333,0.41667 1.12,0.73 0.31667,0.31333 0.56333,0.68 0.74,1.1 C 6.83167,5.57 6.92,6.03 6.92,6.53 6.92,7.02333 6.83167,7.48167 6.655,7.905 6.47833,8.32833 6.23333,8.69667 5.92,9.01 5.60667,9.32333 5.235,9.56667 4.805,9.74 4.375,9.91333 3.91,10 3.41,10 Z M 0.82,10 V 3.06 H 1.76 V 10 Z"
       id="GlOutfit-Regular19" />
    <path
       d="M 0.82,10 V 3.06 H 1.76 V 10 Z M 5.3,10 V 3.06 H 6.24 V 10 Z M 1.46,6.84 V 5.98 h 4.07 v 0.86 z"
       id="GlOutfit-Regular37" />
    <path
       d="M 3.16,10.1 C 2.8,10.1 2.475,10.025 2.185,9.875 1.895,9.725 1.66333,9.51667 1.49,9.25 1.31667,8.98333 1.22,8.68 1.2,8.34 V 6.91 C 1.22,6.56333 1.31833,6.25833 1.495,5.995 1.67167,5.73167 1.905,5.525 2.195,5.375 2.485,5.225 2.80667,5.15 3.16,5.15 c 0.43333,0 0.825,0.11 1.175,0.33 0.35,0.22 0.625,0.51667 0.825,0.89 0.2,0.37333 0.3,0.79333 0.3,1.26 0,0.46667 -0.1,0.88667 -0.3,1.26 C 4.96,9.26333 4.685,9.55833 4.335,9.775 3.985,9.99167 3.59333,10.1 3.16,10.1 Z M 0.66,10 V 2.86 h 0.9 V 6.41 L 1.39,7.56 1.56,8.72 V 10 Z M 3.01,9.25 C 3.31,9.25 3.57333,9.18 3.8,9.04 4.02667,8.9 4.20667,8.70833 4.34,8.465 4.47333,8.22167 4.54,7.94 4.54,7.62 4.54,7.30667 4.47333,7.02667 4.34,6.78 4.20667,6.53333 4.02667,6.34167 3.8,6.205 3.57333,6.06833 3.31333,6 3.02,6 2.72,6 2.45667,6.06833 2.23,6.205 2.00333,6.34167 1.82667,6.53333 1.7,6.78 1.57333,7.02667 1.51,7.31 1.51,7.63 c 0,0.31333 0.06167,0.59167 0.185,0.835 0.12333,0.24333 0.3,0.435 0.53,0.575 0.23,0.14 0.49167,0.21 0.785,0.21 z"
       id="GlOutfit-Regular130" />
    <path
       d="M 4.02,10 V 7.23 C 4.02,6.87 3.90667,6.57333 3.68,6.34 3.45333,6.10667 3.16,5.99 2.8,5.99 2.56,5.99 2.34667,6.04333 2.16,6.15 1.97333,6.25667 1.82667,6.40333 1.72,6.59 1.61333,6.77667 1.56,6.99 1.56,7.23 L 1.19,7.02 C 1.19,6.66 1.27,6.34 1.43,6.06 1.59,5.78 1.81333,5.55833 2.1,5.395 2.38667,5.23167 2.71,5.15 3.07,5.15 3.43,5.15 3.74833,5.23 4.025,5.39 4.30167,5.55 4.52,5.77333 4.68,6.06 4.84,6.34667 4.92,6.67667 4.92,7.05 V 10 Z M 0.66,10 V 2.86 h 0.9 V 10 Z"
       id="GlOutfit-Regular154" />
    <path
       d="M 2.21,11.16 C 1.84333,10.8533 1.53,10.475 1.27,10.025 1.01,9.575 0.81,9.08333 0.67,8.55 0.53,8.01667 0.46,7.46333 0.46,6.89 0.46,6.31667 0.53,5.76333 0.67,5.23 0.81,4.69667 1.01,4.205 1.27,3.755 1.53,3.305 1.84333,2.92667 2.21,2.62 L 2.73,3.09 C 2.25667,3.50333 1.89167,4.03667 1.635,4.69 1.37833,5.34333 1.25,6.07667 1.25,6.89 c 0,0.80667 0.12833,1.53667 0.385,2.19 0.25667,0.65333 0.62167,1.19 1.095,1.61 z"
       id="GlOutfit-Regular322" />
    <path
       d="M 0.33,9.43 2.89,6.73 C 3.15,6.46333 3.35333,6.23167 3.5,6.035 3.64667,5.83833 3.75167,5.65667 3.815,5.49 3.87833,5.32333 3.91,5.15 3.91,4.97 3.91,4.61667 3.79667,4.34 3.57,4.14 3.34333,3.94 3.05,3.84 2.69,3.84 2.33667,3.84 2.02667,3.925 1.76,4.095 1.49333,4.265 1.25667,4.52667 1.05,4.88 L 0.39,4.33 C 0.663333,3.87667 0.993333,3.535 1.38,3.305 1.76667,3.075 2.21333,2.96 2.72,2.96 c 0.42667,0 0.79833,0.08333 1.115,0.25 0.31667,0.16667 0.56167,0.4 0.735,0.7 0.17333,0.3 0.26,0.65 0.26,1.05 0,0.28667 -0.035,0.54333 -0.105,0.77 C 4.655,5.95667 4.53167,6.18833 4.355,6.425 4.17833,6.66167 3.93333,6.94333 3.62,7.27 L 1.55,9.4 Z m 0,0.57 V 9.43 L 1.13,9.16 H 4.99 V 10 Z"
       id="GlOutfit-Regular273" />
    <path
       d="M 3.3,10.1 C 2.78,10.1 2.305,9.95333 1.875,9.66 1.445,9.36667 1.10333,8.95167 0.85,8.415 0.596667,7.87833 0.47,7.24667 0.47,6.52 0.47,5.79333 0.595,5.16333 0.845,4.63 1.095,4.09667 1.43333,3.685 1.86,3.395 2.28667,3.105 2.75667,2.96 3.27,2.96 3.79667,2.96 4.27333,3.105 4.7,3.395 5.12667,3.685 5.465,4.09667 5.715,4.63 5.965,5.16333 6.09,5.79667 6.09,6.53 6.09,7.25667 5.965,7.88833 5.715,8.425 5.465,8.96167 5.12833,9.375 4.705,9.665 4.28167,9.955 3.81333,10.1 3.3,10.1 Z M 3.28,9.21 C 3.64667,9.21 3.96833,9.10833 4.245,8.905 4.52167,8.70167 4.74,8.4 4.9,8 5.06,7.6 5.14,7.10667 5.14,6.52 5.14,5.93333 5.06,5.44167 4.9,5.045 4.74,4.64833 4.52,4.34833 4.24,4.145 3.96,3.94167 3.63667,3.84 3.27,3.84 2.91,3.84 2.59,3.94167 2.31,4.145 2.03,4.34833 1.81167,4.64833 1.655,5.045 1.49833,5.44167 1.42,5.93333 1.42,6.52 1.42,7.10667 1.49833,7.6 1.655,8 1.81167,8.4 2.03,8.70167 2.31,8.905 2.59,9.10833 2.91333,9.21 3.28,9.21 Z"
       id="GlOutfit-Regular271" />
    <path
       d="M 2.48,10.1 C 2.00667,10.1 1.585,10.015 1.215,9.845 0.845,9.675 0.533333,9.42667 0.28,9.1 L 0.92,8.46 C 1.07333,8.69333 1.285,8.87833 1.555,9.015 1.825,9.15167 2.12667,9.22 2.46,9.22 2.77333,9.22 3.04833,9.16 3.285,9.04 3.52167,8.92 3.70833,8.75167 3.845,8.535 3.98167,8.31833 4.05,8.06 4.05,7.76 4.05,7.45333 3.98333,7.19333 3.85,6.98 3.71667,6.76667 3.53833,6.605 3.315,6.495 3.09167,6.385 2.84667,6.33 2.58,6.33 2.30667,6.33 2.05833,6.36333 1.835,6.43 1.61167,6.49667 1.4,6.61 1.2,6.77 L 1.21,6.17 C 1.32333,6.03 1.45333,5.91667 1.6,5.83 1.74667,5.74333 1.91333,5.67667 2.1,5.63 2.28667,5.58333 2.50333,5.56 2.75,5.56 c 0.48,0 0.88667,0.1 1.22,0.3 0.33333,0.2 0.58833,0.47 0.765,0.81 C 4.91167,7.01 5,7.39 5,7.81 5,8.25 4.89167,8.64333 4.675,8.99 4.45833,9.33667 4.16,9.60833 3.78,9.805 3.4,10.0017 2.96667,10.1 2.48,10.1 Z M 1.2,6.77 0.69,6.26 1,3.06 H 1.86 L 1.51,6.35 Z M 1.19,3.9 1,3.06 H 4.65 V 3.9 Z"
       id="GlOutfit-Regular276" />
    <path
       d="M 0.82,11.16 0.3,10.69 C 0.773333,10.27 1.13667,9.73333 1.39,9.08 1.64333,8.42667 1.77,7.69667 1.77,6.89 1.77,6.07667 1.64333,5.34333 1.39,4.69 1.13667,4.03667 0.773333,3.50333 0.3,3.09 L 0.82,2.62 C 1.18667,2.92667 1.5,3.305 1.76,3.755 2.02,4.205 2.22,4.69667 2.36,5.23 2.5,5.76333 2.57,6.31667 2.57,6.89 2.57,7.46333 2.5,8.01667 2.36,8.55 2.22,9.08333 2.02,9.575 1.76,10.025 1.5,10.475 1.18667,10.8533 0.82,11.16 Z"
       id="GlOutfit-Regular323" />
    <path
       d=""
       id="GlArialMT3" />
    <path
       d="M 1.73,10 V 3.06 H 2.66 V 10 Z M 0.31,3.9 V 3.06 H 2.56 V 3.9 Z"
       id="GlOutfit-Regular272" />
    <path
       d="M 1.47,10 3.56,7.15 3.9,6.97 C 3.82,7.10333 3.72333,7.22 3.61,7.32 3.49667,7.42 3.35833,7.49667 3.195,7.55 3.03167,7.60333 2.83333,7.63 2.6,7.63 2.2,7.63 1.83167,7.53333 1.495,7.34 1.15833,7.14667 0.89,6.87833 0.69,6.535 0.49,6.19167 0.39,5.80333 0.39,5.37 0.39,4.92333 0.5,4.51833 0.72,4.155 0.94,3.79167 1.23333,3.50167 1.6,3.285 1.96667,3.06833 2.37333,2.96 2.82,2.96 3.27333,2.96 3.68333,3.06667 4.05,3.28 4.41667,3.49333 4.70667,3.77833 4.92,4.135 5.13333,4.49167 5.24,4.89333 5.24,5.34 5.24,5.95333 5.02667,6.56333 4.6,7.17 L 2.56,10 Z M 2.82,6.89 C 3.1,6.89 3.35167,6.82167 3.575,6.685 3.79833,6.54833 3.975,6.365 4.105,6.135 4.235,5.905 4.3,5.65 4.3,5.37 4.3,5.07667 4.235,4.815 4.105,4.585 3.975,4.355 3.79833,4.17333 3.575,4.04 3.35167,3.90667 3.1,3.84 2.82,3.84 2.54,3.84 2.28833,3.90667 2.065,4.04 1.84167,4.17333 1.66333,4.355 1.53,4.585 1.39667,4.815 1.33,5.07667 1.33,5.37 c 0,0.28667 0.06667,0.54333 0.2,0.77 0.13333,0.22667 0.31333,0.40833 0.54,0.545 0.22667,0.13667 0.47667,0.205 0.75,0.205 z"
       id="GlOutfit-Regular280" />
    <path
       d="M 1.93,10 V 8.3 H 3.59 C 3.96333,8.3 4.28667,8.23167 4.56,8.095 4.83333,7.95833 5.04333,7.75 5.19,7.47 5.33667,7.19 5.41,6.84333 5.41,6.43 5.41,6.01667 5.335,5.67333 5.185,5.4 5.035,5.12667 4.825,4.92167 4.555,4.785 4.285,4.64833 3.96333,4.58 3.59,4.58 H 1.83 v -1.7 h 1.76 c 0.56,0 1.075,0.08333 1.545,0.25 C 5.605,3.29667 6.01333,3.53667 6.36,3.85 6.70667,4.16333 6.975,4.53833 7.165,4.975 7.355,5.41167 7.45,5.9 7.45,6.44 7.45,6.98 7.355,7.46833 7.165,7.905 6.975,8.34167 6.70667,8.71667 6.36,9.03 6.01333,9.34333 5.60667,9.58333 5.14,9.75 4.67333,9.91667 4.16333,10 3.61,10 Z M 0.59,10 V 2.88 h 2 V 10 Z"
       id="GlOutfit-Black19" />
    <path
       d="M 0.46,10 V 5.08 H 2.42 V 10 Z M 1.44,4.62 C 1.15333,4.62 0.915,4.52167 0.725,4.325 0.535,4.12833 0.44,3.88667 0.44,3.6 0.44,3.31333 0.535,3.07167 0.725,2.875 0.915,2.67833 1.15333,2.58 1.44,2.58 1.73333,2.58 1.97333,2.67833 2.16,2.875 2.34667,3.07167 2.44,3.31333 2.44,3.6 2.44,3.88667 2.34667,4.12833 2.16,4.325 1.97333,4.52167 1.73333,4.62 1.44,4.62 Z"
       id="GlOutfit-Black156" />
    <path
       d="M 2.52,10.1 C 2.06,10.1 1.65333,9.99 1.3,9.77 0.946667,9.55 0.67,9.24833 0.47,8.865 0.27,8.48167 0.17,8.04 0.17,7.54 0.17,7.04 0.27,6.59667 0.47,6.21 0.67,5.82333 0.946667,5.52167 1.3,5.305 1.65333,5.08833 2.06,4.98 2.52,4.98 c 0.28667,0 0.55167,0.04833 0.795,0.145 0.24333,0.09667 0.44667,0.23167 0.61,0.405 0.16333,0.17333 0.26833,0.37333 0.315,0.6 V 8.95 C 4.19333,9.17667 4.08833,9.37667 3.925,9.55 3.76167,9.72333 3.55833,9.85833 3.315,9.955 3.07167,10.0517 2.80667,10.1 2.52,10.1 Z M 2.96,8.38 C 3.20667,8.38 3.405,8.30167 3.555,8.145 3.705,7.98833 3.78,7.78667 3.78,7.54 3.78,7.37333 3.74667,7.22833 3.68,7.105 3.61333,6.98167 3.51833,6.88333 3.395,6.81 3.27167,6.73667 3.13,6.7 2.97,6.7 2.81,6.7 2.66833,6.73667 2.545,6.81 2.42167,6.88333 2.32333,6.98333 2.25,7.11 2.17667,7.23667 2.14,7.38 2.14,7.54 c 0,0.16 0.035,0.30333 0.105,0.43 0.07,0.12667 0.16833,0.22667 0.295,0.3 0.12667,0.07333 0.26667,0.11 0.42,0.11 z M 3.72,10 V 8.68 L 3.99,7.48 3.72,6.29 V 5.08 H 5.63 V 10 Z"
       id="GlOutfit-Black118" />
    <path
       d="M 2.58,12.26 C 2.02667,12.26 1.53667,12.1683 1.11,11.985 0.683333,11.8017 0.353333,11.5433 0.12,11.21 l 1.16,-1.15 c 0.15333,0.1667 0.32333,0.2983 0.51,0.395 0.18667,0.0967 0.41333,0.145 0.68,0.145 0.32,0 0.57167,-0.0767 0.755,-0.23 C 3.40833,10.2167 3.5,9.99333 3.5,9.7 V 8.4 L 3.82,7.34 3.55,6.29 V 5.08 h 1.91 v 4.54 c 0,0.54 -0.12667,1.0067 -0.38,1.4 C 4.82667,11.4133 4.48333,11.7183 4.05,11.935 3.61667,12.1517 3.12667,12.26 2.58,12.26 Z M 2.49,9.8 C 2.03,9.8 1.62333,9.69333 1.27,9.48 0.916667,9.26667 0.64,8.97667 0.44,8.61 0.24,8.24333 0.14,7.83667 0.14,7.39 0.14,6.93667 0.24,6.52833 0.44,6.165 0.64,5.80167 0.916667,5.51333 1.27,5.3 1.62333,5.08667 2.03,4.98 2.49,4.98 c 0.28667,0 0.55167,0.04833 0.795,0.145 0.24333,0.09667 0.44667,0.23167 0.61,0.405 0.16333,0.17333 0.26833,0.37333 0.315,0.6 V 8.65 C 4.16333,8.87667 4.05833,9.07667 3.895,9.25 3.73167,9.42333 3.52833,9.55833 3.285,9.655 3.04167,9.75167 2.77667,9.8 2.49,9.8 Z M 2.85,8.13 C 3.01,8.13 3.14667,8.09333 3.26,8.02 3.37333,7.94667 3.46,7.85333 3.52,7.74 3.58,7.62667 3.61,7.50667 3.61,7.38 3.61,7.25333 3.58,7.13333 3.52,7.02 3.46,6.90667 3.375,6.81333 3.265,6.74 3.155,6.66667 3.02,6.63 2.86,6.63 2.70667,6.63 2.57333,6.66667 2.46,6.74 2.34667,6.81333 2.26,6.90833 2.2,7.025 2.14,7.14167 2.11,7.26 2.11,7.38 2.11,7.49333 2.14,7.60833 2.2,7.725 2.26,7.84167 2.345,7.93833 2.455,8.015 2.565,8.09167 2.69667,8.13 2.85,8.13 Z"
       id="GlOutfit-Black150" />
    <path
       d="M 0.47,10 V 5.08 H 2.43 V 10 Z M 2.43,7.34 1.52,6.53 C 1.77333,5.99667 2.06833,5.605 2.405,5.355 2.74167,5.105 3.16333,4.98 3.67,4.98 3.89667,4.98 4.09167,5.00667 4.255,5.06 4.41833,5.11333 4.55,5.19 4.65,5.29 L 3.55,6.85 C 3.50333,6.79667 3.435,6.75167 3.345,6.715 3.255,6.67833 3.15,6.66 3.03,6.66 2.83,6.66 2.68,6.71833 2.58,6.835 2.48,6.95167 2.43,7.12 2.43,7.34 Z"
       id="GlOutfit-Black194" />
    <path
       d="M 0.47,10 V 5.08 H 2.43 V 10 Z M 3.5,10 V 7.18 C 3.5,7.01333 3.45,6.88167 3.35,6.785 3.25,6.68833 3.12333,6.64 2.97,6.64 2.86333,6.64 2.76833,6.66167 2.685,6.705 2.60167,6.74833 2.53833,6.81 2.495,6.89 2.45167,6.97 2.43,7.06667 2.43,7.18 L 1.67,6.9 C 1.67,6.5 1.75833,6.15667 1.935,5.87 2.11167,5.58333 2.35,5.36333 2.65,5.21 2.95,5.05667 3.29,4.98 3.67,4.98 4.00333,4.98 4.305,5.06 4.575,5.22 4.845,5.38 5.06,5.60167 5.22,5.885 5.38,6.16833 5.46,6.50333 5.46,6.89 V 10 Z m 3.03,0 V 7.18 C 6.53,7.01333 6.48,6.88167 6.38,6.785 6.28,6.68833 6.15333,6.64 6,6.64 5.89333,6.64 5.79833,6.66167 5.715,6.705 5.63167,6.74833 5.56833,6.81 5.525,6.89 5.48167,6.97 5.46,7.06667 5.46,7.18 L 4.31,7.19 C 4.31,6.73 4.40167,6.335 4.585,6.005 4.76833,5.675 5.02333,5.42167 5.35,5.245 5.67667,5.06833 6.05,4.98 6.47,4.98 6.86333,4.98 7.21167,5.06333 7.515,5.23 7.81833,5.39667 8.05667,5.63667 8.23,5.95 8.40333,6.26333 8.49,6.64 8.49,7.08 V 10 Z"
       id="GlOutfit-Black174" />
    <path
       d="M 0.82,10 V 3.06 H 1.76 V 10 Z M 1.46,6.95 V 6.09 h 3.62 v 0.86 z m 0,-3.03 V 3.06 h 3.79 v 0.86 z"
       id="GlOutfit-Regular32" />
    <path
       d="M 2.58,10.1 C 2.18667,10.1 1.835,10.0117 1.525,9.835 1.215,9.65833 0.973333,9.41333 0.8,9.1 0.626667,8.78667 0.54,8.42333 0.54,8.01 V 5.25 h 0.9 v 2.72 c 0,0.26 0.045,0.485 0.135,0.675 0.09,0.19 0.22167,0.335 0.395,0.435 0.17333,0.1 0.37667,0.15 0.61,0.15 0.35333,0 0.63,-0.11167 0.83,-0.335 0.2,-0.22333 0.3,-0.53167 0.3,-0.925 V 5.25 h 0.9 V 8.01 C 4.61,8.42333 4.52333,8.78667 4.35,9.1 4.17667,9.41333 3.93833,9.65833 3.635,9.835 3.33167,10.0117 2.98,10.1 2.58,10.1 Z M 1.59,4.45 C 1.42333,4.45 1.28667,4.395 1.18,4.285 1.07333,4.175 1.02,4.03667 1.02,3.87 1.02,3.71 1.07333,3.575 1.18,3.465 1.28667,3.355 1.42333,3.3 1.59,3.3 1.75667,3.3 1.89333,3.355 2,3.465 2.10667,3.575 2.16,3.71 2.16,3.87 2.16,4.03667 2.10667,4.175 2,4.285 1.89333,4.395 1.75667,4.45 1.59,4.45 Z m 2,0 C 3.42333,4.45 3.28667,4.395 3.18,4.285 3.07333,4.175 3.02,4.03667 3.02,3.87 3.02,3.71 3.07333,3.575 3.18,3.465 3.28667,3.355 3.42333,3.3 3.59,3.3 3.75667,3.3 3.89333,3.355 4,3.465 4.10667,3.575 4.16,3.71 4.16,3.87 4.16,4.03667 4.10667,4.175 4,4.285 3.89333,4.395 3.75667,4.45 3.59,4.45 Z"
       id="GlOutfit-Regular211" />
    <path
       d="M 0.66,10 V 5.25 h 0.9 V 10 Z M 1.56,7.29 1.22,7.14 C 1.22,6.53333 1.36,6.05 1.64,5.69 1.92,5.33 2.32333,5.15 2.85,5.15 3.09,5.15 3.30667,5.19167 3.5,5.275 3.69333,5.35833 3.87333,5.49667 4.04,5.69 L 3.45,6.3 C 3.35,6.19333 3.24,6.11667 3.12,6.07 3,6.02333 2.86,6 2.7,6 2.36667,6 2.09333,6.10667 1.88,6.32 1.66667,6.53333 1.56,6.85667 1.56,7.29 Z"
       id="GlOutfit-Regular194" />
    <path
       d="M 0.39,9.35 4.31,3.7 h 1.1 L 1.49,9.35 Z m 0,0.65 V 9.35 L 1.19,9.14 H 5.34 V 10 Z M 0.6,3.92 V 3.06 H 5.41 V 3.7 L 4.6,3.92 Z"
       id="GlOutfit-Regular111" />
    <path
       d="M 2.29,10 0.11,5.25 h 1 L 2.86,9.26 H 2.28 L 4.04,5.25 H 5 L 2.82,10 Z"
       id="GlOutfit-Regular217" />
    <path
       d="M 2.83,10.1 C 2.36333,10.1 1.94333,9.99 1.57,9.77 1.19667,9.55 0.9,9.25167 0.68,8.875 0.46,8.49833 0.35,8.07667 0.35,7.61 0.35,7.15 0.46,6.735 0.68,6.365 0.9,5.995 1.19667,5.7 1.57,5.48 1.94333,5.26 2.36333,5.15 2.83,5.15 3.29,5.15 3.70833,5.25833 4.085,5.475 4.46167,5.69167 4.76,5.98667 4.98,6.36 5.2,6.73333 5.31,7.15 5.31,7.61 5.31,8.07667 5.2,8.49833 4.98,8.875 4.76,9.25167 4.46167,9.55 4.085,9.77 3.70833,9.99 3.29,10.1 2.83,10.1 Z m 0,-0.87 c 0.3,0 0.56667,-0.07 0.8,-0.21 C 3.86333,8.88 4.04667,8.68833 4.18,8.445 4.31333,8.20167 4.38,7.92333 4.38,7.61 4.38,7.30333 4.31167,7.03 4.175,6.79 4.03833,6.55 3.855,6.36167 3.625,6.225 3.395,6.08833 3.13,6.02 2.83,6.02 2.53,6.02 2.26333,6.08833 2.03,6.225 1.79667,6.36167 1.61333,6.55 1.48,6.79 1.34667,7.03 1.28,7.30333 1.28,7.61 c 0,0.31333 0.06667,0.59167 0.2,0.835 0.13333,0.24333 0.31667,0.435 0.55,0.575 0.23333,0.14 0.5,0.21 0.8,0.21 z"
       id="GlOutfit-Regular181" />
    <path
       d="M 2.63,12.09 C 2.14333,12.09 1.71167,12 1.335,11.82 0.958333,11.64 0.656667,11.3867 0.43,11.06 l 0.58,-0.59 c 0.19333,0.2467 0.42333,0.435 0.69,0.565 0.26667,0.13 0.58333,0.195 0.95,0.195 0.48667,0 0.87167,-0.1283 1.155,-0.385 C 4.08833,10.5883 4.23,10.2433 4.23,9.81 V 8.63 L 4.39,7.56 4.23,6.5 V 5.25 h 0.9 v 4.56 c 0,0.4533 -0.105,0.85 -0.315,1.19 -0.21,0.34 -0.50333,0.6067 -0.88,0.8 -0.37667,0.1933 -0.81167,0.29 -1.305,0.29 z m 0,-2.17 C 2.19667,9.92 1.80833,9.81667 1.465,9.61 1.12167,9.40333 0.85,9.11833 0.65,8.755 0.45,8.39167 0.35,7.98333 0.35,7.53 0.35,7.07667 0.45,6.67167 0.65,6.315 0.85,5.95833 1.12167,5.675 1.465,5.465 1.80833,5.255 2.19667,5.15 2.63,5.15 3.00333,5.15 3.33333,5.22333 3.62,5.37 3.90667,5.51667 4.135,5.72167 4.305,5.985 4.475,6.24833 4.56667,6.55667 4.58,6.91 V 8.17 C 4.56,8.51667 4.465,8.82167 4.295,9.085 4.125,9.34833 3.89667,9.55333 3.61,9.7 3.32333,9.84667 2.99667,9.92 2.63,9.92 Z M 2.81,9.07 C 3.10333,9.07 3.36167,9.00667 3.585,8.88 3.80833,8.75333 3.98,8.575 4.1,8.345 4.22,8.115 4.28,7.84667 4.28,7.54 4.28,7.23333 4.21833,6.965 4.095,6.735 3.97167,6.505 3.8,6.325 3.58,6.195 3.36,6.065 3.1,6 2.8,6 2.5,6 2.23667,6.065 2.01,6.195 1.78333,6.325 1.605,6.505 1.475,6.735 1.345,6.965 1.28,7.23 1.28,7.53 c 0,0.3 0.065,0.56667 0.195,0.8 0.13,0.23333 0.31,0.415 0.54,0.545 0.23,0.13 0.495,0.195 0.795,0.195 z"
       id="GlOutfit-Regular150" />
    <path
       d="M 2.83,10.1 C 2.36333,10.1 1.94333,9.99 1.57,9.77 1.19667,9.55 0.9,9.25167 0.68,8.875 0.46,8.49833 0.35,8.07667 0.35,7.61 0.35,7.15 0.46,6.735 0.68,6.365 0.9,5.995 1.19667,5.7 1.57,5.48 1.94333,5.26 2.36333,5.15 2.83,5.15 3.29,5.15 3.70833,5.25833 4.085,5.475 4.46167,5.69167 4.76,5.98667 4.98,6.36 5.2,6.73333 5.31,7.15 5.31,7.61 5.31,8.07667 5.2,8.49833 4.98,8.875 4.76,9.25167 4.46167,9.55 4.085,9.77 3.70833,9.99 3.29,10.1 2.83,10.1 Z m 0,-0.87 c 0.3,0 0.56667,-0.07 0.8,-0.21 C 3.86333,8.88 4.04667,8.68833 4.18,8.445 4.31333,8.20167 4.38,7.92333 4.38,7.61 4.38,7.30333 4.31167,7.03 4.175,6.79 4.03833,6.55 3.855,6.36167 3.625,6.225 3.395,6.08833 3.13,6.02 2.83,6.02 2.53,6.02 2.26333,6.08833 2.03,6.225 1.79667,6.36167 1.61333,6.55 1.48,6.79 1.34667,7.03 1.28,7.30333 1.28,7.61 c 0,0.31333 0.06667,0.59167 0.2,0.835 0.13333,0.24333 0.31667,0.435 0.55,0.575 0.23333,0.14 0.5,0.21 0.8,0.21 z M 1.84,4.45 C 1.67333,4.45 1.53667,4.395 1.43,4.285 1.32333,4.175 1.27,4.03667 1.27,3.87 1.27,3.71 1.32333,3.575 1.43,3.465 1.53667,3.355 1.67333,3.3 1.84,3.3 2.00667,3.3 2.14333,3.355 2.25,3.465 2.35667,3.575 2.41,3.71 2.41,3.87 2.41,4.03667 2.35667,4.175 2.25,4.285 2.14333,4.395 2.00667,4.45 1.84,4.45 Z m 2,0 C 3.67333,4.45 3.53667,4.395 3.43,4.285 3.32333,4.175 3.27,4.03667 3.27,3.87 3.27,3.71 3.32333,3.575 3.43,3.465 3.53667,3.355 3.67333,3.3 3.84,3.3 4.00667,3.3 4.14333,3.355 4.25,3.465 4.35667,3.575 4.41,3.71 4.41,3.87 4.41,4.03667 4.35667,4.175 4.25,4.285 4.14333,4.395 4.00667,4.45 3.84,4.45 Z"
       id="GlOutfit-Regular184" />
    <path
       d="M 1.39,10 V 3.26 h 0.9 V 10 Z M 0.22,6.07 V 5.25 h 3.24 v 0.82 z"
       id="GlOutfit-Regular204" />
    <path
       d="M 1.34,10 V 4.54 C 1.34,4.18667 1.41667,3.87833 1.57,3.615 1.72333,3.35167 1.935,3.14333 2.205,2.99 2.475,2.83667 2.79,2.76 3.15,2.76 c 0.27333,0 0.51,0.04667 0.71,0.14 0.2,0.09333 0.38333,0.23 0.55,0.41 L 3.82,3.89 C 3.73333,3.79667 3.63667,3.725 3.53,3.675 3.42333,3.625 3.29333,3.6 3.14,3.6 2.85333,3.6 2.63167,3.68333 2.475,3.85 2.31833,4.01667 2.24,4.24667 2.24,4.54 V 10 Z M 0.17,6.07 V 5.25 h 3.58 v 0.82 z"
       id="GlOutfit-Regular149" />
    <path
       d="M 1.45,7.3 V 6.48 H 3.34 C 3.6,6.48 3.83167,6.42667 4.035,6.32 4.23833,6.21333 4.39833,6.06333 4.515,5.87 4.63167,5.67667 4.69,5.44667 4.69,5.18 4.69,4.91333 4.63167,4.68333 4.515,4.49 4.39833,4.29667 4.23833,4.14667 4.035,4.04 3.83167,3.93333 3.6,3.88 3.34,3.88 H 1.45 V 3.06 H 3.4 c 0.42667,0 0.80833,0.08667 1.145,0.26 0.33667,0.17333 0.60333,0.41833 0.8,0.735 C 5.54167,4.37167 5.64,4.74667 5.64,5.18 5.64,5.60667 5.54167,5.97833 5.345,6.295 5.14833,6.61167 4.88167,6.85833 4.545,7.035 4.20833,7.21167 3.82667,7.3 3.4,7.3 Z M 0.82,10 V 3.06 H 1.76 V 10 Z"
       id="GlOutfit-Regular73" />
    <path
       d="M 2.02,10 0.14,5.25 h 0.94 l 1.36,3.7 h -0.3 l 1.35,-3.7 h 0.52 l 1.35,3.7 H 5.06 L 6.42,5.25 H 7.36 L 5.49,10 H 4.96 L 3.59,6.41 H 3.92 L 2.54,10 Z"
       id="GlOutfit-Regular218" />
    <path
       d="M 0.28,9.51 3.1,5.74 H 4.16 L 1.34,9.51 Z m 0,0.49 V 9.51 L 1.08,9.18 H 4.1 V 10 Z M 0.45,6.07 V 5.25 H 4.16 V 5.74 L 3.33,6.07 Z"
       id="GlOutfit-Regular229" />
    <path
       d="M 1.45,10.1 C 1.26333,10.1 1.10833,10.035 0.985,9.905 0.861667,9.775 0.8,9.62 0.8,9.44 0.8,9.25333 0.861667,9.09833 0.985,8.975 1.10833,8.85167 1.26333,8.79 1.45,8.79 1.63667,8.79 1.79167,8.85167 1.915,8.975 2.03833,9.09833 2.1,9.25333 2.1,9.44 2.1,9.62 2.03833,9.775 1.915,9.905 1.79167,10.035 1.63667,10.1 1.45,10.1 Z"
       id="GlOutfit-Regular303" />
    <path
       d="M 0.82,10 V 3.06 H 1.76 V 10 Z"
       id="GlOutfit-Regular39" />
    <path
       d="M 3.7,10 1.48,7.57 3.68,5.25 H 4.77 L 2.32,7.81 2.36,7.29 4.86,10 Z M 0.66,10 V 2.86 h 0.9 V 10 Z"
       id="GlOutfit-Regular167" />
    <path
       d="M 2.75,10.1 C 2.20333,10.1 1.73667,10 1.35,9.8 0.963333,9.6 0.62,9.31 0.32,8.93 L 0.96,8.29 C 1.18,8.59667 1.43333,8.82833 1.72,8.985 2.00667,9.14167 2.36,9.22 2.78,9.22 3.19333,9.22 3.525,9.13 3.775,8.95 4.025,8.77 4.15,8.52333 4.15,8.21 4.15,7.95 4.09,7.74 3.97,7.58 3.85,7.42 3.68833,7.28833 3.485,7.185 3.28167,7.08167 3.06,6.98833 2.82,6.905 2.58,6.82167 2.34,6.73167 2.1,6.635 1.86,6.53833 1.64,6.41833 1.44,6.275 1.24,6.13167 1.07833,5.94333 0.955,5.71 0.831667,5.47667 0.77,5.18333 0.77,4.83 0.77,4.43667 0.865,4.10167 1.055,3.825 1.245,3.54833 1.505,3.335 1.835,3.185 2.165,3.035 2.53667,2.96 2.95,2.96 3.40333,2.96 3.81,3.04833 4.17,3.225 4.53,3.40167 4.82333,3.63333 5.05,3.92 L 4.41,4.56 C 4.20333,4.32 3.98167,4.14 3.745,4.02 3.50833,3.9 3.23667,3.84 2.93,3.84 2.55667,3.84 2.26,3.92167 2.04,4.085 1.82,4.24833 1.71,4.47667 1.71,4.77 1.71,5.00333 1.77167,5.19167 1.895,5.335 2.01833,5.47833 2.18,5.6 2.38,5.7 2.58,5.8 2.80167,5.89167 3.045,5.975 3.28833,6.05833 3.53,6.15 3.77,6.25 4.01,6.35 4.23,6.47667 4.43,6.63 4.63,6.78333 4.79167,6.98167 4.915,7.225 5.03833,7.46833 5.1,7.77333 5.1,8.14 5.1,8.75333 4.88833,9.23333 4.465,9.58 4.04167,9.92667 3.47,10.1 2.75,10.1 Z"
       id="GlOutfit-Regular80" />
    <path
       d="M 0.66,10 V 2.86 h 0.9 V 10 Z"
       id="GlOutfit-Regular169" />
    <path
       d="M 0.66,7.88 V 7.03 h 3.29 v 0.85 z"
       id="GlOutfit-Regular318" />
    <path
       d="M 2.68,10.1 C 2.24667,10.1 1.85333,9.99167 1.5,9.775 1.14667,9.55833 0.868333,9.26333 0.665,8.89 0.461667,8.51667 0.36,8.09667 0.36,7.63 0.36,7.16333 0.461667,6.74333 0.665,6.37 0.868333,5.99667 1.145,5.7 1.495,5.48 1.845,5.26 2.24,5.15 2.68,5.15 3.04,5.15 3.36167,5.225 3.645,5.375 3.92833,5.525 4.15667,5.73167 4.33,5.995 4.50333,6.25833 4.6,6.56333 4.62,6.91 V 8.34 C 4.6,8.68 4.505,8.98333 4.335,9.25 4.165,9.51667 3.93833,9.725 3.655,9.875 3.37167,10.025 3.04667,10.1 2.68,10.1 Z M 2.83,9.25 C 3.27667,9.25 3.63667,9.09833 3.91,8.795 4.18333,8.49167 4.32,8.10333 4.32,7.63 4.32,7.30333 4.25833,7.01833 4.135,6.775 4.01167,6.53167 3.83667,6.34167 3.61,6.205 3.38333,6.06833 3.12,6 2.82,6 2.52,6 2.255,6.07 2.025,6.21 1.795,6.35 1.615,6.54167 1.485,6.785 1.355,7.02833 1.29,7.30667 1.29,7.62 1.29,7.94 1.355,8.22167 1.485,8.465 1.615,8.70833 1.79667,8.9 2.03,9.04 2.26333,9.18 2.53,9.25 2.83,9.25 Z M 4.26,10 V 8.72 L 4.43,7.56 4.26,6.41 V 5.25 H 5.17 V 10 Z M 1.94,4.45 C 1.77333,4.45 1.63667,4.395 1.53,4.285 1.42333,4.175 1.37,4.03667 1.37,3.87 1.37,3.71 1.42333,3.575 1.53,3.465 1.63667,3.355 1.77333,3.3 1.94,3.3 2.10667,3.3 2.24333,3.355 2.35,3.465 2.45667,3.575 2.51,3.71 2.51,3.87 2.51,4.03667 2.45667,4.175 2.35,4.285 2.24333,4.395 2.10667,4.45 1.94,4.45 Z m 2,0 C 3.77333,4.45 3.63667,4.395 3.53,4.285 3.42333,4.175 3.37,4.03667 3.37,3.87 3.37,3.71 3.42333,3.575 3.53,3.465 3.63667,3.355 3.77333,3.3 3.94,3.3 4.10667,3.3 4.24333,3.355 4.35,3.465 4.45667,3.575 4.51,3.71 4.51,3.87 4.51,4.03667 4.45667,4.175 4.35,4.285 4.24333,4.395 4.10667,4.45 3.94,4.45 Z"
       id="GlOutfit-Regular123" />
    <path
       d="M 3.09,10 0.31,3.06 H 1.33 L 3.62,8.93 H 3.25 L 5.56,3.06 H 6.57 L 3.77,10 Z"
       id="GlOutfit-Regular99" />
    <path
       d="M 1.34,10 V 4.39 C 1.34,4.07667 1.40833,3.79833 1.545,3.555 1.68167,3.31167 1.87333,3.11833 2.12,2.975 2.36667,2.83167 2.65,2.76 2.97,2.76 3.21667,2.76 3.43333,2.80167 3.62,2.885 3.80667,2.96833 3.98,3.08333 4.14,3.23 L 3.55,3.82 C 3.46333,3.74667 3.37333,3.69167 3.28,3.655 3.18667,3.61833 3.08333,3.6 2.97,3.6 2.73667,3.6 2.55667,3.67167 2.43,3.815 2.30333,3.95833 2.24,4.15 2.24,4.39 V 10 Z M 0.17,6.07 V 5.25 H 4.68 V 6.07 Z M 4.16,10 V 5.25 H 5.07 V 10 Z M 4.61,4.75 C 4.45,4.75 4.31667,4.695 4.21,4.585 4.10333,4.475 4.05,4.33667 4.05,4.17 4.05,4.01 4.10333,3.875 4.21,3.765 4.31667,3.655 4.45,3.6 4.61,3.6 4.78333,3.6 4.92167,3.655 5.025,3.765 5.12833,3.875 5.18,4.01 5.18,4.17 5.18,4.33667 5.12833,4.475 5.025,4.585 4.92167,4.695 4.78333,4.75 4.61,4.75 Z"
       id="GlOutfit-Regular260" />
    <path
       d="M 1.35,10.1 C 1.16333,10.1 1.00833,10.035 0.885,9.905 0.761667,9.775 0.7,9.62333 0.7,9.45 0.7,9.25667 0.761667,9.09833 0.885,8.975 1.00833,8.85167 1.16333,8.79 1.35,8.79 1.53667,8.79 1.69167,8.85167 1.815,8.975 1.93833,9.09833 2,9.25667 2,9.45 2,9.62333 1.93833,9.775 1.815,9.905 1.69167,10.035 1.53667,10.1 1.35,10.1 Z m 0,-3.12 C 1.16333,6.98 1.00833,6.91667 0.885,6.79 0.761667,6.66333 0.7,6.51 0.7,6.33 0.7,6.13667 0.761667,5.97833 0.885,5.855 1.00833,5.73167 1.16333,5.67 1.35,5.67 1.53667,5.67 1.69167,5.73167 1.815,5.855 1.93833,5.97833 2,6.13667 2,6.33 2,6.51 1.93833,6.66333 1.815,6.79 1.69167,6.91667 1.53667,6.98 1.35,6.98 Z"
       id="GlOutfit-Regular305" />
    <path
       d="M 2.66,10 V 3.26 H 3.6 V 10 Z M 0.3,3.92 V 3.06 h 5.65 v 0.86 z"
       id="GlOutfit-Regular86" />
    <path
       d="M 0.82,10 V 3.06 H 1.76 V 10 Z m 0.64,0 V 9.14 H 5.44 V 10 Z m 0,-3.14 V 6.04 h 3.65 v 0.82 z m 0,-2.94 V 3.06 h 3.93 v 0.86 z"
       id="GlOutfit-Regular23" />
    <path
       d="M 0.71,11.1 1.33,9.91 1.65,9.83 C 1.61667,9.90333 1.575,9.96333 1.525,10.01 1.475,10.0567 1.41333,10.08 1.34,10.08 1.2,10.08 1.07167,10.0217 0.955,9.905 0.838333,9.78833 0.78,9.64333 0.78,9.47 0.78,9.27667 0.843333,9.115 0.97,8.985 1.09667,8.855 1.25667,8.79 1.45,8.79 c 0.17333,0 0.32667,0.065 0.46,0.195 0.13333,0.13 0.2,0.29167 0.2,0.485 0,0.07333 -0.015,0.16167 -0.045,0.265 C 2.035,9.83833 1.97667,9.97 1.89,10.13 l -0.66,1.25 z"
       id="GlOutfit-Regular304" />
    <path
       d="M 2.59,10 0.32,3.06 h 0.94 l 1.8,5.66 H 2.79 L 4.56,3.06 H 5.24 L 7.01,8.72 H 6.75 L 8.55,3.06 H 9.48 L 7.22,10 H 6.55 L 4.77,4.35 H 5.03 L 3.26,10 Z"
       id="GlOutfit-Regular100" />
    <path
       d="M 3.42,10.1 C 2.90667,10.1 2.44833,9.985 2.045,9.755 1.64167,9.525 1.32333,9.20833 1.09,8.805 0.856667,8.40167 0.74,7.94333 0.74,7.43 V 3.06 h 0.94 v 4.35 c 0,0.36667 0.07667,0.68333 0.23,0.95 C 2.06333,8.62667 2.27167,8.83333 2.535,8.98 2.79833,9.12667 3.09333,9.2 3.42,9.2 3.76,9.2 4.05833,9.12667 4.315,8.98 4.57167,8.83333 4.775,8.62667 4.925,8.36 5.075,8.09333 5.15,7.78 5.15,7.42 V 3.06 H 6.1 V 7.44 C 6.1,7.95333 5.98333,8.41 5.75,8.81 5.51667,9.21 5.2,9.525 4.8,9.755 4.4,9.985 3.94,10.1 3.42,10.1 Z"
       id="GlOutfit-Regular89" />
    <path
       d="M 3.78,10 2.3,7.92 2.13,7.76 0.26,5.25 H 1.35 L 2.7,7.1 2.87,7.24 4.87,10 Z M 0.17,10 2.13,7.36 2.64,8.02 1.23,10 Z M 2.94,7.75 2.42,7.11 3.73,5.25 h 1.05 z"
       id="GlOutfit-Regular223" />
    <path
       d="M 3.96,10.1 C 3.47333,10.1 3.01833,10.0083 2.595,9.825 2.17167,9.64167 1.80167,9.38667 1.485,9.06 1.16833,8.73333 0.92,8.35333 0.74,7.92 0.56,7.48667 0.47,7.02 0.47,6.52 0.47,6.02 0.56,5.555 0.74,5.125 0.92,4.695 1.17,4.31667 1.49,3.99 1.81,3.66333 2.185,3.41 2.615,3.23 3.045,3.05 3.51333,2.96 4.02,2.96 4.57333,2.96 5.08333,3.06667 5.55,3.28 6.01667,3.49333 6.40667,3.8 6.72,4.2 L 6.07,4.85 C 5.85,4.53 5.56,4.285 5.2,4.115 4.84,3.945 4.44667,3.86 4.02,3.86 3.51333,3.86 3.065,3.97333 2.675,4.2 2.285,4.42667 1.98167,4.74 1.765,5.14 1.54833,5.54 1.44,6 1.44,6.52 c 0,0.52667 0.11,0.99 0.33,1.39 0.22,0.4 0.51667,0.71333 0.89,0.94 0.37333,0.22667 0.8,0.34 1.28,0.34 0.48667,0 0.90833,-0.09333 1.265,-0.28 C 5.56167,8.72333 5.83667,8.44833 6.03,8.085 6.22333,7.72167 6.32,7.27667 6.32,6.75 l 0.57,0.41 h -3 V 6.3 h 3.4 V 6.44 C 7.29,7.24667 7.14833,7.92167 6.865,8.465 6.58167,9.00833 6.18833,9.41667 5.685,9.69 5.18167,9.96333 4.60667,10.1 3.96,10.1 Z"
       id="GlOutfit-Regular33" />
    <path
       d="M 5.11,10 1.61,6.38 5.04,3.06 H 6.26 L 2.56,6.62 V 6.1 L 6.36,10 Z M 0.82,10 V 3.06 H 1.76 V 10 Z"
       id="GlOutfit-Regular49" />
    <path
       d="M 0.82,10 V 3.06 H 1.76 V 10 Z m 0.64,0 V 9.14 H 5.18 V 10 Z"
       id="GlOutfit-Regular51" />
    <path
       d="M 3.23,10.1 C 2.92333,10.1 2.66333,10.06 2.45,9.98 2.23667,9.9 2.04667,9.78 1.88,9.62 L 2.42,8.94 C 2.51333,9.03333 2.62833,9.10833 2.765,9.165 2.90167,9.22167 3.06667,9.25 3.26,9.25 3.48667,9.25 3.68667,9.19833 3.86,9.095 4.03333,8.99167 4.16833,8.845 4.265,8.655 4.36167,8.465 4.41,8.24667 4.41,8 4.41,7.75333 4.35333,7.53333 4.24,7.34 4.12667,7.14667 3.97167,6.99167 3.775,6.875 3.57833,6.75833 3.35333,6.7 3.1,6.7 H 2.5 V 5.91 H 2.85 C 3.06333,5.91 3.25,5.86 3.41,5.76 3.57,5.66 3.69333,5.52 3.78,5.34 3.86667,5.16 3.91,4.95667 3.91,4.73 3.91,4.51667 3.86333,4.32667 3.77,4.16 3.67667,3.99333 3.545,3.86 3.375,3.76 3.205,3.66 3.00333,3.61 2.77,3.61 2.41667,3.61 2.12667,3.715 1.9,3.925 1.67333,4.135 1.56,4.41333 1.56,4.76 V 10 H 0.66 V 4.76 C 0.66,4.38667 0.75,4.04833 0.93,3.745 1.11,3.44167 1.35667,3.20167 1.67,3.025 1.98333,2.84833 2.35,2.76 2.77,2.76 3.18333,2.76 3.54167,2.84667 3.845,3.02 4.14833,3.19333 4.38333,3.42333 4.55,3.71 4.71667,3.99667 4.8,4.31667 4.8,4.67 4.8,5.09667 4.68167,5.45833 4.445,5.755 4.20833,6.05167 3.89,6.25 3.49,6.35 L 3.56,6 C 3.92667,6.03333 4.24833,6.13833 4.525,6.315 4.80167,6.49167 5.01667,6.725 5.17,7.015 5.32333,7.305 5.4,7.64 5.4,8.02 5.4,8.32 5.34667,8.59667 5.24,8.85 5.13333,9.10333 4.98333,9.32333 4.79,9.51 4.59667,9.69667 4.36833,9.84167 4.105,9.945 3.84167,10.0483 3.55,10.1 3.23,10.1 Z"
       id="GlOutfit-Regular203" />
    <path
       d="M 0.59,10 V 2.88 h 2 V 10 Z m 4.3,0 V 2.88 h 2 V 10 Z M 1.68,7.2 V 5.54 H 5.67 V 7.2 Z"
       id="GlOutfit-Black37" />
    <path
       d="M 3.03,10.12 C 2.45667,10.12 1.95333,10.0117 1.52,9.795 1.08667,9.57833 0.748333,9.275 0.505,8.885 0.261667,8.495 0.14,8.04667 0.14,7.54 0.14,7.04 0.258333,6.59667 0.495,6.21 0.731667,5.82333 1.05667,5.51833 1.47,5.295 1.88333,5.07167 2.35,4.96 2.87,4.96 3.38333,4.96 3.83667,5.065 4.23,5.275 4.62333,5.485 4.93167,5.77667 5.155,6.15 5.37833,6.52333 5.49,6.95 5.49,7.43 5.49,7.53 5.485,7.635 5.475,7.745 5.465,7.855 5.44333,7.98333 5.41,8.13 L 0.97,8.16 V 6.96 L 4.68,6.93 3.77,7.46 C 3.77,7.19333 3.73833,6.975 3.675,6.805 3.61167,6.635 3.51667,6.50667 3.39,6.42 3.26333,6.33333 3.10333,6.29 2.91,6.29 2.71,6.29 2.53667,6.34 2.39,6.44 2.24333,6.54 2.13167,6.68333 2.055,6.87 1.97833,7.05667 1.94,7.28333 1.94,7.55 1.94,7.82333 1.98167,8.05167 2.065,8.235 2.14833,8.41833 2.27,8.55667 2.43,8.65 2.59,8.74333 2.79,8.79 3.03,8.79 3.26333,8.79 3.46833,8.75167 3.645,8.675 3.82167,8.59833 3.98333,8.47667 4.13,8.31 L 5.11,9.28 C 4.86333,9.56 4.56667,9.77 4.22,9.91 3.87333,10.05 3.47667,10.12 3.03,10.12 Z"
       id="GlOutfit-Black140" />
    <path
       d="M 1.9,10 -0.03,5.08 H 2.05 L 3.18,9.27 H 2.47 L 3.59,5.08 H 5.66 L 3.73,10 Z"
       id="GlOutfit-Black217" />
    <path
       d="M 2.95,10.12 C 2.41,10.12 1.92833,10.0083 1.505,9.785 1.08167,9.56167 0.748333,9.25333 0.505,8.86 0.261667,8.46667 0.14,8.02333 0.14,7.53 0.14,7.03667 0.26,6.59667 0.5,6.21 0.74,5.82333 1.07167,5.51833 1.495,5.295 1.91833,5.07167 2.4,4.96 2.94,4.96 3.48,4.96 3.96,5.07167 4.38,5.295 4.8,5.51833 5.13167,5.82333 5.375,6.21 5.61833,6.59667 5.74,7.03667 5.74,7.53 5.74,8.02333 5.62,8.46667 5.38,8.86 5.14,9.25333 4.81,9.56167 4.39,9.785 3.97,10.0083 3.49,10.12 2.95,10.12 Z M 2.94,8.4 C 3.10667,8.4 3.25167,8.365 3.375,8.295 3.49833,8.225 3.59333,8.125 3.66,7.995 3.72667,7.865 3.76,7.71333 3.76,7.54 3.76,7.36667 3.725,7.215 3.655,7.085 3.585,6.955 3.49,6.855 3.37,6.785 3.25,6.715 3.10667,6.68 2.94,6.68 2.78,6.68 2.63833,6.71667 2.515,6.79 2.39167,6.86333 2.295,6.965 2.225,7.095 2.155,7.225 2.12,7.37667 2.12,7.55 c 0,0.16667 0.035,0.315 0.105,0.445 0.07,0.13 0.16667,0.23 0.29,0.3 C 2.63833,8.365 2.78,8.4 2.94,8.4 Z"
       id="GlOutfit-Black181" />
    <path
       d="M 3.6,10 V 7.24 C 3.6,7.04667 3.545,6.89833 3.435,6.795 3.325,6.69167 3.18667,6.64 3.02,6.64 2.90667,6.64 2.805,6.66333 2.715,6.71 2.625,6.75667 2.555,6.825 2.505,6.915 2.455,7.005 2.43,7.11333 2.43,7.24 L 1.67,6.9 C 1.67,6.5 1.75167,6.15667 1.915,5.87 2.07833,5.58333 2.305,5.36333 2.595,5.21 2.885,5.05667 3.22333,4.98 3.61,4.98 c 0.4,0 0.74667,0.07833 1.04,0.235 0.29333,0.15667 0.51833,0.37 0.675,0.64 C 5.48167,6.125 5.56,6.43667 5.56,6.79 V 10 Z M 0.47,10 V 2.68 H 2.43 V 10 Z"
       id="GlOutfit-Black154" />
    <path
       d="M 3.5,10.1 C 3.20667,10.1 2.93,10.0433 2.67,9.93 2.41,9.81667 2.19,9.665 2.01,9.475 1.83,9.285 1.71333,9.07667 1.66,8.85 V 6.13 C 1.71333,5.90333 1.83,5.70333 2.01,5.53 2.19,5.35667 2.41,5.22167 2.67,5.125 2.93,5.02833 3.20667,4.98 3.5,4.98 3.98667,4.98 4.41167,5.08833 4.775,5.305 5.13833,5.52167 5.42167,5.82333 5.625,6.21 5.82833,6.59667 5.93,7.04 5.93,7.54 5.93,8.04 5.82833,8.48167 5.625,8.865 5.42167,9.24833 5.13833,9.55 4.775,9.77 4.41167,9.99 3.98667,10.1 3.5,10.1 Z M 0.47,10 V 2.68 H 2.43 V 6.29 L 2.11,7.48 2.38,8.68 V 10 Z M 3.14,8.38 C 3.3,8.38 3.44167,8.34333 3.565,8.27 3.68833,8.19667 3.785,8.09667 3.855,7.97 3.925,7.84333 3.96,7.7 3.96,7.54 3.96,7.38 3.925,7.23667 3.855,7.11 3.785,6.98333 3.68667,6.88333 3.56,6.81 3.43333,6.73667 3.29,6.7 3.13,6.7 2.97,6.7 2.82833,6.73667 2.705,6.81 2.58167,6.88333 2.48667,6.98167 2.42,7.105 2.35333,7.22833 2.32,7.37333 2.32,7.54 c 0,0.16667 0.035,0.31333 0.105,0.44 0.07,0.12667 0.16667,0.225 0.29,0.295 C 2.83833,8.345 2.98,8.38 3.14,8.38 Z"
       id="GlOutfit-Black130" />
    <path
       d="M 2.81,10.12 C 2.33,10.12 1.905,10.0267 1.535,9.84 1.165,9.65333 0.873333,9.39333 0.66,9.06 0.446667,8.72667 0.34,8.34667 0.34,7.92 V 5.08 H 2.3 v 2.86 c 0,0.1 0.02167,0.19 0.065,0.27 0.04333,0.08 0.10333,0.14167 0.18,0.185 C 2.62167,8.43833 2.71,8.46 2.81,8.46 2.95,8.46 3.06833,8.41167 3.165,8.315 3.26167,8.21833 3.31,8.09333 3.31,7.94 V 5.08 h 1.96 v 2.84 c 0,0.43333 -0.105,0.815 -0.315,1.145 -0.21,0.33 -0.5,0.58833 -0.87,0.775 -0.37,0.1867 -0.795,0.28 -1.275,0.28 z"
       id="GlOutfit-Black207" />
    <path
       d="M 3.6,10 V 7.24 C 3.6,7.04667 3.545,6.89833 3.435,6.795 3.325,6.69167 3.18667,6.64 3.02,6.64 2.90667,6.64 2.805,6.66333 2.715,6.71 2.625,6.75667 2.555,6.825 2.505,6.915 2.455,7.005 2.43,7.11333 2.43,7.24 L 1.67,6.9 C 1.67,6.5 1.75833,6.15667 1.935,5.87 2.11167,5.58333 2.355,5.36333 2.665,5.21 2.975,5.05667 3.32667,4.98 3.72,4.98 c 0.35333,0 0.66833,0.07833 0.945,0.235 0.27667,0.15667 0.495,0.37 0.655,0.64 0.16,0.27 0.24,0.58167 0.24,0.935 V 10 Z M 0.47,10 V 5.08 H 2.43 V 10 Z"
       id="GlOutfit-Black175" />
    <path
       d=""
       id="GlOutfit-Black301" />
    <path
       d="M 4.9,10 1.74,6.51 C 1.48667,6.22333 1.30833,5.95333 1.205,5.7 1.10167,5.44667 1.05,5.17 1.05,4.87 1.05,4.50333 1.145,4.16 1.335,3.84 1.525,3.52 1.78833,3.26 2.125,3.06 2.46167,2.86 2.85333,2.76 3.3,2.76 3.66,2.76 3.975,2.80833 4.245,2.905 4.515,3.00167 4.74333,3.12167 4.93,3.265 5.11667,3.40833 5.25333,3.55 5.34,3.69 L 4.09,4.94 C 3.97,4.77333 3.85,4.66167 3.73,4.605 3.61,4.54833 3.48333,4.52 3.35,4.52 3.20333,4.52 3.085,4.56167 2.995,4.645 2.905,4.72833 2.86,4.82667 2.86,4.94 2.86,5.01333 2.87833,5.09 2.915,5.17 2.95167,5.25 3.00667,5.33333 3.08,5.42 L 7.16,10 Z M 2.66,10.12 C 2.18,10.12 1.76167,10.0217 1.405,9.825 1.04833,9.62833 0.771667,9.36333 0.575,9.03 0.378333,8.69667 0.28,8.32667 0.28,7.92 0.28,7.46667 0.396667,7.06167 0.63,6.705 0.863333,6.34833 1.22333,6.06 1.71,5.84 l 0.8,1.32 C 2.35667,7.20667 2.245,7.28667 2.175,7.4 2.105,7.51333 2.07,7.63333 2.07,7.76 c 0,0.1 0.02333,0.19667 0.07,0.29 0.04667,0.09333 0.11667,0.17 0.21,0.23 0.09333,0.06 0.20667,0.09 0.34,0.09 0.11333,0 0.22333,-0.02833 0.33,-0.085 C 3.12667,8.22833 3.23333,8.12333 3.34,7.97 L 4.69,9.26 C 4.59667,9.38 4.45167,9.50667 4.255,9.64 4.05833,9.77333 3.82333,9.88667 3.55,9.98 3.27667,10.0733 2.98,10.12 2.66,10.12 Z"
       id="GlOutfit-Black342" />
    <path
       d="M 2.29,10 V 2.88 h 2 V 10 Z M 0.16,4.58 v -1.7 h 6.27 v 1.7 z"
       id="GlOutfit-Black86" />
    <path
       d="M 0.47,10 V 2.68 H 2.43 V 10 Z"
       id="GlOutfit-Black169" />
    <path
       d="M 0.66,7.84 V 7.07 h 4.17 v 0.77 z"
       id="GlOutfit-Regular319" />
    <path
       d="m 0.06,12.09 c -0.306667,0 -0.565,-0.05 -0.775,-0.15 -0.21,-0.1 -0.39833,-0.2433 -0.565,-0.43 l 0.58,-0.59 c 0.093333,0.1133 0.195,0.1967 0.305,0.25 0.11,0.0533 0.241667,0.08 0.395,0.08 0.2,0 0.373333,-0.0617 0.52,-0.185 0.146667,-0.1233 0.22,-0.3083 0.22,-0.555 V 5.25 h 0.9 v 5.25 c 0,0.3467 -0.07333,0.6367 -0.22,0.87 C 1.27333,11.6033 1.08,11.7817 0.84,11.905 0.6,12.0283 0.34,12.09 0.06,12.09 Z M 1.2,4.3 C 1.04,4.3 0.906667,4.245 0.8,4.135 0.693333,4.025 0.64,3.88667 0.64,3.72 0.64,3.56 0.693333,3.425 0.8,3.315 0.906667,3.205 1.04,3.15 1.2,3.15 1.36667,3.15 1.50333,3.205 1.61,3.315 1.71667,3.425 1.77,3.56 1.77,3.72 1.77,3.88667 1.71667,4.025 1.61,4.135 1.50333,4.245 1.36667,4.3 1.2,4.3 Z"
       id="GlOutfit-Regular165" />
    <path
       d="M 1.39,10 V 3.26 h 0.9 V 10 Z M 0.22,6.07 V 5.25 h 6.07 v 0.82 z m 4,3.93 V 3.26 h 0.9 V 10 Z"
       id="GlOutfit-Regular268" />
    <path
       d="M 0.59,10 V 2.88 H 2.04 L 4.69,6.76 H 4.06 L 6.7,2.88 H 8.15 V 10 H 6.17 V 6.16 L 6.46,6.24 5.01,8.32 H 3.73 L 2.29,6.24 2.57,6.16 V 10 Z"
       id="GlOutfit-Black56" />
    <path
       d="M 3.64,10 2.27,7.41 3.63,5.08 H 5.74 L 3.98,7.71 4.03,7.07 5.84,10 Z M 0.47,10 V 2.68 H 2.43 V 10 Z"
       id="GlOutfit-Black167" />
    <path
       d="M 2.6,10.1 C 2.11333,10.1 1.68833,9.99 1.325,9.77 0.961667,9.55 0.678333,9.24833 0.475,8.865 0.271667,8.48167 0.17,8.04 0.17,7.54 0.17,7.04 0.271667,6.59667 0.475,6.21 0.678333,5.82333 0.961667,5.52167 1.325,5.305 1.68833,5.08833 2.11333,4.98 2.6,4.98 2.89333,4.98 3.17,5.02833 3.43,5.125 3.69,5.22167 3.91167,5.35667 4.095,5.53 4.27833,5.70333 4.39333,5.90333 4.44,6.13 V 8.85 C 4.39333,9.07667 4.27833,9.285 4.095,9.475 3.91167,9.665 3.69,9.81667 3.43,9.93 3.17,10.0433 2.89333,10.1 2.6,10.1 Z M 2.96,8.38 C 3.12667,8.38 3.27,8.345 3.39,8.275 3.51,8.205 3.605,8.10667 3.675,7.98 3.745,7.85333 3.78,7.70667 3.78,7.54 3.78,7.37333 3.74667,7.22833 3.68,7.105 3.61333,6.98167 3.51833,6.88333 3.395,6.81 3.27167,6.73667 3.13,6.7 2.97,6.7 2.81,6.7 2.66833,6.73667 2.545,6.81 2.42167,6.88333 2.32333,6.98333 2.25,7.11 2.17667,7.23667 2.14,7.38 2.14,7.54 c 0,0.16 0.035,0.30333 0.105,0.43 0.07,0.12667 0.16833,0.22667 0.295,0.3 0.12667,0.07333 0.26667,0.11 0.42,0.11 z M 5.63,10 H 3.72 V 8.68 L 3.99,7.48 3.67,6.29 V 2.68 h 1.96 z"
       id="GlOutfit-Black136" />
    <path
       d="M 1.44,10 0.01,5.08 H 1.87 L 2.66,8.66 2.11,8.67 3.14,5.08 H 4.99 L 6.03,8.67 5.47,8.66 6.28,5.08 H 8.14 L 6.71,10 H 4.84 L 3.88,6.6 h 0.4 L 3.29,10 Z"
       id="GlOutfit-Black218" />
    <path
       d="M 1.12,10 V 3.06 H 3.08 V 10 Z M 0.07,6.68 v -1.6 h 4.06 v 1.6 z"
       id="GlOutfit-Black204" />
    <path
       d="M 2.21,10 V 8.56 H 3.52 C 3.77333,8.56 3.97667,8.49167 4.13,8.355 4.28333,8.21833 4.36,8.03 4.36,7.79 4.36,7.63 4.325,7.49167 4.255,7.375 4.185,7.25833 4.08833,7.17 3.965,7.11 3.84167,7.05 3.69333,7.02 3.52,7.02 H 2.21 V 5.64 H 3.43 C 3.64333,5.64 3.82,5.58667 3.96,5.48 4.1,5.37333 4.17,5.20667 4.17,4.98 4.17,4.75333 4.1,4.58667 3.96,4.48 3.82,4.37333 3.64333,4.32 3.43,4.32 H 2.21 V 2.88 h 1.78 c 0.43333,0 0.81167,0.08167 1.135,0.245 C 5.44833,3.28833 5.7,3.51167 5.88,3.795 6.06,4.07833 6.15,4.40333 6.15,4.77 6.15,5.27667 5.97,5.69 5.61,6.01 5.25,6.33 4.72333,6.51333 4.03,6.56 L 4.01,5.87 c 0.75333,0.04667 1.33,0.25333 1.73,0.62 0.4,0.36667 0.6,0.83667 0.6,1.41 0,0.41333 -0.10333,0.77833 -0.31,1.095 C 5.82333,9.31167 5.535,9.55833 5.165,9.735 4.795,9.91167 4.36333,10 3.87,10 Z M 0.59,10 V 2.88 H 2.55 V 10 Z"
       id="GlOutfit-Black13" />
    <clipPath
       id="Clip1">
      <path
         d="M 0,0 H 701.891 V 550.574 H 0 Z"
         id="path2" />
    </clipPath>
    <clipPath
       id="Clip2">
      <path
         d="M 0,0 H 118.456 V 116.36 H 0 Z"
         id="path3" />
    </clipPath>
    <clipPath
       id="Clip3">
      <path
         d="M 0,0 H 735.429 V 522.899 H 0 Z"
         id="path4" />
    </clipPath>
    <clipPath
       id="Clip4">
      <path
         d="M 0,0 H 683.25 V 681.148 H 0 Z"
         id="path5" />
    </clipPath>
    <path
       d="M 2.21,7.5 V 6.06 H 3.5 C 3.65333,6.06 3.795,6.02833 3.925,5.965 4.055,5.90167 4.16,5.805 4.24,5.675 4.32,5.545 4.36,5.38333 4.36,5.19 4.36,4.99667 4.32,4.835 4.24,4.705 4.16,4.575 4.055,4.47833 3.925,4.415 3.795,4.35167 3.65333,4.32 3.5,4.32 H 2.21 V 2.88 h 1.68 c 0.46,0 0.875,0.09167 1.245,0.275 0.37,0.18333 0.66333,0.44667 0.88,0.79 C 6.23167,4.28833 6.34,4.70333 6.34,5.19 6.34,5.67 6.23167,6.08333 6.015,6.43 5.79833,6.77667 5.505,7.04167 5.135,7.225 4.765,7.40833 4.35,7.5 3.89,7.5 Z M 0.59,10 V 2.88 h 2 V 10 Z"
       id="GlOutfit-Black73" />
    <path
       d="M 2.43,10.15 C 2.12333,10.15 1.81667,10.11 1.51,10.03 1.20333,9.95 0.918333,9.84 0.655,9.7 0.391667,9.56 0.17,9.4 -0.01,9.22 L 1.02,8.16 C 1.18,8.32 1.37167,8.44667 1.595,8.54 1.81833,8.63333 2.05333,8.68 2.3,8.68 2.41333,8.68 2.50167,8.665 2.565,8.635 2.62833,8.605 2.66,8.56333 2.66,8.51 2.66,8.41667 2.605,8.34667 2.495,8.3 2.385,8.25333 2.245,8.21 2.075,8.17 1.905,8.13 1.725,8.07833 1.535,8.015 1.345,7.95167 1.16333,7.865 0.99,7.755 0.816667,7.645 0.676667,7.49167 0.57,7.295 0.463333,7.09833 0.41,6.84667 0.41,6.54 0.41,6.22667 0.498333,5.94833 0.675,5.705 0.851667,5.46167 1.10167,5.26833 1.425,5.125 1.74833,4.98167 2.12333,4.91 2.55,4.91 c 0.43333,0 0.85333,0.07333 1.26,0.22 0.40667,0.14667 0.73,0.36667 0.97,0.66 L 3.74,6.85 C 3.57333,6.66333 3.39,6.53833 3.19,6.475 2.99,6.41167 2.82333,6.38 2.69,6.38 2.56333,6.38 2.475,6.39833 2.425,6.435 2.375,6.47167 2.35,6.51667 2.35,6.57 c 0,0.07333 0.05333,0.13333 0.16,0.18 0.10667,0.04667 0.245,0.09 0.415,0.13 0.17,0.04 0.34833,0.09333 0.535,0.16 0.18667,0.06667 0.365,0.16 0.535,0.28 0.17,0.12 0.30833,0.27833 0.415,0.475 0.10667,0.19667 0.16,0.45167 0.16,0.765 0,0.48667 -0.19333,0.87333 -0.58,1.16 -0.38667,0.2867 -0.90667,0.43 -1.56,0.43 z"
       id="GlOutfit-Black198" />
    <clipPath
       clipPathUnits="userSpaceOnUse"
       id="clipPath2533">
      <path
         d="M 0,-52.1417 H 100.2 V 13.4646 H 0 Z"
         id="path2533" />
    </clipPath>
    <clipPath
       clipPathUnits="userSpaceOnUse"
       id="clipPath2534">
      <path
         d="M 0,-63.4803 H 100.2 V 2.126 H 0 Z"
         id="path2534" />
    </clipPath>
    <clipPath
       clipPathUnits="userSpaceOnUse"
       id="clipPath2535">
      <path
         d="M 0,-40.8031 H 100.2 V 24.8032 H 0 Z"
         id="path2535" />
    </clipPath>
    <clipPath
       clipPathUnits="userSpaceOnUse"
       id="clipPath2536">
      <path
         d="m -54.7051,-18.126 h 100.2 v 65.6063 h -100.2 z"
         id="path2536" />
    </clipPath>
    <clipPath
       clipPathUnits="userSpaceOnUse"
       id="clipPath2537">
      <path
         d="m -54.7051,-29.4646 h 100.2 v 65.6063 h -100.2 z"
         id="path2537" />
    </clipPath>
    <clipPath
       clipPathUnits="userSpaceOnUse"
       id="clipPath2538">
      <path
         d="m -54.7051,-3.95276 h 100.2 v 65.6063 h -100.2 z"
         id="path2538" />
    </clipPath>
    <clipPath
       clipPathUnits="userSpaceOnUse"
       id="clipPath2539">
      <path
         d="M 0,0 H 1732.3562 V 1128.7843 H 0 Z"
         id="path2539"
         style="stroke-width:1" />
    </clipPath>
  </defs>
  <g
     id="U1+U4"
     inkscape:groupmode="layer"
     inkscape:label="U1+U4" />
  <g
     id="g5"
     inkscape:groupmode="layer"
     inkscape:label="U1+U4" />
  <g
     id="OpenBook"
     inkscape:groupmode="layer"
     inkscape:label="OpenBook" />
  <g
     id="g2532"
     inkscape:groupmode="layer"
     inkscape:label="OpenBook">
    <g
       clip-path="url(#clipPath2539)"
       clip-rule="evenodd"
       id="Gruppe7"
       style="fill:none;stroke:none;stroke-width:0.116663"
       transform="matrix(0.48118391,0,0,0.51332036,73.185345,204.52078)">
      <path
         d="M 666.511,520.574 H 5.371 C 2.41,520.574 0,518.168 0,515.207 V 5.371 C 0,2.406 2.41,0 5.371,0 h 661.148 c 2.961,0 5.371,2.406 5.371,5.371 v 509.836 c -0.008,2.968 -2.41,5.367 -5.379,5.367 z"
         style="fill:#f1f1f1;fill-rule:evenodd;stroke:#656565;stroke-width:3.49989;stroke-linecap:round;stroke-linejoin:round;stroke-dasharray:none"
         transform="translate(15,15)"
         id="path2495" />
      <path
         d="m 127.246,63.797 c 0,35.23 -28.484,63.793 -63.625,63.793 C 28.484,127.59 0,99.027 0,63.797 0,28.563 28.484,0 63.621,0 c 35.141,0 63.625,28.563 63.625,63.797 z"
         style="fill:#656565;fill-rule:evenodd;stroke:none;stroke-width:0.116663"
         transform="translate(216.691,129.359)"
         id="path2496" />
      <path
         d="M 657.027,299.432 471.883,14.6393 c -12.692,-19.51905 -42.051,-19.51905 -54.75,0 L 283.601,220.041 206.137,141.174 c -13.793,-14.047 -36.911,-14.047 -50.7,0 L 0,299.432 Z"
         style="fill:#656565;fill-rule:evenodd;stroke:none;stroke-width:0.116663"
         transform="translate(22.488,226.552)"
         id="path2497" />
    </g>
    <rect
       style="fill:#666666;fill-opacity:1;stroke:#666666;stroke-width:3.39"
       id="rect2539"
       width="500.95935"
       height="50.714401"
       x="431.07242"
       y="228.21483"
       rx="18.528301"
       ry="18.528301" />
    <rect
       style="fill:#666666;fill-opacity:1;stroke:#666666;stroke-width:3.39"
       id="rect2539-9"
       width="500.95935"
       height="50.714401"
       x="431.27835"
       y="324.46027"
       rx="18.528301"
       ry="18.528301" />
    <rect
       style="fill:#666666;fill-opacity:1;stroke:#666666;stroke-width:3.39"
       id="rect2539-9-8"
       width="500.95935"
       height="50.714401"
       x="428.82742"
       y="420.82962"
       rx="18.528301"
       ry="18.528301" />
    <rect
       style="fill:#666666;fill-opacity:1;stroke:#666666;stroke-width:3.39"
       id="rect2539-9-8-2"
       width="854.1048"
       height="50.714401"
       x="72.678436"
       y="516.78955"
       rx="18.528301"
       ry="18.528301" />
    <rect
       style="fill:#666666;fill-opacity:1;stroke:#666666;stroke-width:3.39"
       id="rect2539-9-8-2-5"
       width="854.1048"
       height="50.714401"
       x="71.765793"
       y="608.51251"
       rx="18.528301"
       ry="18.528301" />
    <rect
       style="fill:#666666;fill-opacity:1;stroke:#666666;stroke-width:3.39"
       id="rect2539-9-8-2-5-1"
       width="854.1048"
       height="50.714401"
       x="79.61483"
       y="706.89404"
       rx="18.528301"
       ry="18.528301" />
  </g>
  <g
     id="Transparenz"
     inkscape:groupmode="layer"
     inkscape:label="Transparenz"
     opacity="0.3" />
  <g
     id="g2533"
     inkscape:groupmode="layer"
     inkscape:label="Transparenz"
     opacity="0.3" />
</svg>
