<?xml version="1.0" encoding="UTF-8" standalone="no"?>
<svg
   height="1000"
   width="1000"
   viewBox="0 0 1000 1000"
   version="1.1"
   id="svg1"
   sodipodi:docname="musicXML.svg"
   inkscape:version="1.4.2 (f4327f4, 2025-05-13)"
   xmlns:inkscape="http://www.inkscape.org/namespaces/inkscape"
   xmlns:sodipodi="http://sodipodi.sourceforge.net/DTD/sodipodi-0.dtd"
   xmlns="http://www.w3.org/2000/svg"
   xmlns:svg="http://www.w3.org/2000/svg">
  <defs
     id="defs1" />
  <sodipodi:namedview
     id="namedview1"
     pagecolor="#505050"
     bordercolor="#eeeeee"
     borderopacity="1"
     inkscape:showpageshadow="0"
     inkscape:pageopacity="0"
     inkscape:pagecheckerboard="0"
     inkscape:deskcolor="#d1d1d1"
     inkscape:zoom="1.815"
     inkscape:cx="483.19559"
     inkscape:cy="421.76309"
     inkscape:window-width="3840"
     inkscape:window-height="2054"
     inkscape:window-x="3829"
     inkscape:window-y="-11"
     inkscape:window-maximized="1"
     inkscape:current-layer="svg1" />
  <path
     d="m 415.93519,279.89424 c -18.54,-5.65 -38.28,4.74 -43.98,23.35 l -104.13,339.79 c -5.69,18.59 4.76,38.28 23.35,43.98 3.44,1.05 6.9,1.55 10.33,1.55 15.06,0 29.01,-9.75 33.65,-24.91 l 104.13,-339.79 c 5.7,-18.58 -4.76,-38.26 -23.35,-43.97 z m -211.79,70.37 c -13.75,-13.75 -36.03,-13.75 -49.79,0 l -124.209998,124.22 a 35.193,35.193 0 0 0 0.38,50.15 l 124.219998,120.57 c 6.84,6.64 15.68,9.94 24.52,9.94 9.19,0 18.36,-3.58 25.26,-10.69 13.55,-13.95 13.22,-36.24 -0.74,-49.79 l -98.57,-95.68 98.94,-98.95 c 13.75,-13.74 13.75,-36.02 -0.01,-49.77 z m 772.52,124.22 -124.22,-124.22 c -13.75,-13.75 -36.03,-13.75 -49.79,0 -13.75,13.75 -13.75,36.03 0,49.79 l 98.94,98.95 -98.57,95.68 c -13.96,13.55 -14.29,35.84 -0.74,49.79 6.9,7.11 16.08,10.69 25.26,10.69 8.84,0 17.69,-3.3 24.52,-9.94 l 124.22,-120.57 a 35.193,35.193 0 0 0 10.69,-25 c 0.07,-9.44 -3.64,-18.5 -10.31,-25.17 z m -299.98,-232.06 c -15.55,0 -28.17,12.61 -28.17,28.17 v 257.11 c -33.54,-10.93 -77.79,-8.56 -121.19,9.61 -74.42,31.14 -117.92,96.61 -97.16,146.22 20.76,49.61 97.92,64.58 172.34,33.44 62.82,-26.29 103.43,-77.02 102.13,-122.04 0.05,-0.68 0.21,-1.33 0.21,-2.02 v -322.32 c 0,-15.55 -12.61,-28.17 -28.16,-28.17 z"
     id="path1"
     style="fill:#666666" />
</svg>
