<?xml version="1.0" encoding="UTF-8" standalone="no"?>
<svg
   viewBox="0 0 927.92999 696.88"
   version="1.1"
   id="svg191"
   sodipodi:docname="oma-suchleiste.svg"
   width="927.92999"
   height="696.88"
   inkscape:version="1.4 (86a8ad7, 2024-10-11)"
   xmlns:inkscape="http://www.inkscape.org/namespaces/inkscape"
   xmlns:sodipodi="http://sodipodi.sourceforge.net/DTD/sodipodi-0.dtd"
   xmlns="http://www.w3.org/2000/svg"
   xmlns:svg="http://www.w3.org/2000/svg">
  <sodipodi:namedview
     id="namedview191"
     pagecolor="#505050"
     bordercolor="#eeeeee"
     borderopacity="1"
     inkscape:showpageshadow="0"
     inkscape:pageopacity="0"
     inkscape:pagecheckerboard="0"
     inkscape:deskcolor="#d1d1d1"
     inkscape:zoom="1.6805556"
     inkscape:cx="479.60331"
     inkscape:cy="348.39669"
     inkscape:window-width="3840"
     inkscape:window-height="2054"
     inkscape:window-x="-11"
     inkscape:window-y="-11"
     inkscape:window-maximized="1"
     inkscape:current-layer="svg191" />
  <defs
     id="defs1">
    <style
       id="style1">
      .cls-1 {
        fill: none;
      }

      .cls-2 {
        fill: #d3dae4;
      }

      .cls-3 {
        fill: #294e80;
      }

      .cls-4 {
        fill: #eceff1;
      }

      .cls-5 {
        fill: #849bbd;
      }

      .cls-6 {
        clip-path: url(#clippath);
      }
    </style>
    <clipPath
       id="clippath">
      <path
         class="cls-1"
         d="m 177.99,351.55 h 692.15 v 275.79 c 0,1.31 -1.07,2.38 -2.38,2.38 h -688.3 c -0.81,0 -1.46,-0.66 -1.46,-1.46 v -276.7 0 z"
         id="path1" />
    </clipPath>
  </defs>
  <g
     id="Ebene_1"
     transform="translate(-60.1,-191.56)">
    <g
       id="g191">
      <g
         id="g6">
        <g
           id="g2">
          <rect
             class="cls-4"
             x="159.27"
             y="192.41"
             width="729.59998"
             height="455.81"
             rx="2.9200001"
             ry="2.9200001"
             id="rect2" />
          <path
             class="cls-3"
             d="M 885.95,649.08 H 162.18 c -2.08,0 -3.77,-1.69 -3.77,-3.77 V 195.33 c 0,-2.08 1.69,-3.77 3.77,-3.77 h 723.77 c 2.08,0 3.77,1.69 3.77,3.77 v 449.98 c 0,2.08 -1.69,3.77 -3.77,3.77 z M 162.18,193.27 c -1.14,0 -2.06,0.93 -2.06,2.06 v 449.98 c 0,1.14 0.93,2.06 2.06,2.06 h 723.77 c 1.14,0 2.06,-0.93 2.06,-2.06 V 195.33 c 0,-1.14 -0.93,-2.06 -2.06,-2.06 z"
             id="path2" />
        </g>
        <rect
           class="cls-3"
           x="176.28999"
           y="240.17"
           width="695.56"
           height="391.25"
           rx="1.71"
           ry="1.71"
           id="rect3" />
        <circle
           class="cls-3"
           cx="524.07001"
           cy="220.42999"
           r="9.9899998"
           id="circle3" />
        <g
           id="g3">
          <polygon
             class="cls-4"
             points="159.27,645.31 888.87,645.31 986.77,887.59 61.37,887.59 "
             id="polygon3" />
          <path
             class="cls-3"
             d="M 988.03,888.44 H 60.1 l 0.47,-1.17 98.12,-242.81 h 730.75 l 0.22,0.53 z M 62.63,886.73 H 985.5 L 888.29,646.16 H 159.84 Z"
             id="path3" />
        </g>
        <g
           id="g4">
          <polygon
             class="cls-4"
             points="441.52,811.63 606.61,811.63 628.77,866.45 419.37,866.45 "
             id="polygon4" />
          <path
             class="cls-3"
             d="M 630.03,867.3 H 418.1 l 22.84,-56.53 h 166.24 l 0.22,0.53 22.62,55.99 z m -209.4,-1.7 H 627.5 L 606.04,812.48 H 442.1 l -21.46,53.12 z"
             id="path4" />
        </g>
        <g
           id="g5">
          <polygon
             class="cls-2"
             points="176.29,664.59 871.85,664.59 918.07,793.03 129.38,793.03 "
             id="polygon5" />
          <path
             class="cls-3"
             d="M 919.29,793.89 H 128.16 l 47.53,-130.15 h 696.75 l 46.84,130.15 z M 130.6,792.18 H 916.86 L 871.25,665.44 H 176.88 Z"
             id="path5" />
        </g>
        <rect
           class="cls-3"
           x="425.85001"
           y="849.56"
           width="196.44"
           height="1.71"
           id="rect5" />
        <rect
           class="cls-3"
           x="523.21997"
           y="850.40997"
           width="1.71"
           height="16.040001"
           id="rect6" />
      </g>
      <g
         id="g7">
        <path
           class="cls-4"
           d="m 179.48,258.95 h 689.17 c 1.29,0 2.34,1.05 2.34,2.34 v 366.94 c 0,1.29 -1.05,2.34 -2.34,2.34 H 179.48 c -1.29,0 -2.34,-1.05 -2.34,-2.34 V 261.29 c 0,-1.29 1.05,-2.34 2.34,-2.34 z"
           id="path6" />
        <path
           class="cls-3"
           d="m 868.65,259.8 c 0.82,0 1.49,0.67 1.49,1.49 v 366.94 c 0,0.82 -0.67,1.49 -1.49,1.49 H 179.48 c -0.82,0 -1.49,-0.67 -1.49,-1.49 V 261.29 c 0,-0.82 0.67,-1.49 1.49,-1.49 h 689.17 m 0,-1.7 H 179.48 c -1.76,0 -3.19,1.43 -3.19,3.19 v 366.94 c 0,1.76 1.43,3.19 3.19,3.19 h 689.17 c 1.76,0 3.19,-1.43 3.19,-3.19 V 261.29 c 0,-1.76 -1.43,-3.19 -3.19,-3.19 z"
           id="path7" />
      </g>
      <path
         class="cls-4"
         d="m 189.36,243.79 c 0,0 0.36,9.77 -9.39,10.52 h -0.63 v 0.56 h 0.51 c 0,0 6.19,3.74 10.39,-2.64 2.83,-4.3 -0.48,-8.54 -0.48,-8.54 v -0.51 l -0.62,0.13 0.21,0.48 z"
         id="path8" />
      <g
         id="g14">
        <path
           class="cls-4"
           d="m 204.62,253.85 c -1.28,0 -2.29,-0.63 -2.63,-1.64 -0.14,-0.45 0.07,-0.9 0.51,-1.07 v 0 c 0.51,-0.2 0.97,0.09 1.15,0.45 0.1,0.21 0.36,0.56 0.97,0.56 0.51,0 0.84,-0.22 0.85,-0.57 0,-0.15 0.01,-0.41 -0.72,-0.62 l -0.85,-0.23 c -1.3,-0.4 -1.95,-1.14 -1.95,-2.18 0,-1.33 1.1,-2.29 2.6,-2.29 1.05,0 1.89,0.46 2.31,1.27 0.24,0.46 0.02,0.87 -0.29,1.07 -0.43,0.27 -0.86,0.19 -1.18,-0.21 -0.27,-0.35 -0.62,-0.42 -0.86,-0.42 -0.42,0 -0.73,0.23 -0.73,0.54 0,0.24 0.21,0.42 0.62,0.54 l 0.84,0.25 c 1.4,0.4 2.1,1.18 2.07,2.31 -0.03,1.54 -1.43,2.24 -2.72,2.24 z m -1.99,-2.37 c -0.26,0.1 -0.38,0.35 -0.29,0.61 0.29,0.87 1.15,1.39 2.28,1.39 1.13,0 2.33,-0.58 2.35,-1.89 0.03,-0.95 -0.56,-1.59 -1.8,-1.95 l -0.84,-0.25 c -0.73,-0.21 -0.89,-0.6 -0.89,-0.89 0,-0.52 0.47,-0.91 1.09,-0.91 0.45,0 0.86,0.2 1.15,0.56 0.2,0.26 0.43,0.3 0.7,0.13 0.17,-0.11 0.29,-0.34 0.16,-0.59 -0.36,-0.69 -1.06,-1.08 -1.98,-1.08 -1.3,0 -2.24,0.81 -2.24,1.92 0,0.87 0.57,1.48 1.69,1.83 l 0.84,0.23 c 0.7,0.2 1,0.5 0.98,0.98 -0.01,0.55 -0.5,0.92 -1.22,0.92 -0.84,0 -1.19,-0.54 -1.3,-0.77 -0.1,-0.22 -0.38,-0.39 -0.69,-0.27 z"
           id="path9" />
        <path
           class="cls-4"
           d="m 208.96,256.14 c -0.09,0 -0.18,-0.01 -0.27,-0.03 -0.21,-0.05 -0.39,-0.2 -0.5,-0.4 -0.11,-0.22 -0.13,-0.48 -0.04,-0.71 l 0.77,-1.91 -1.45,-3.39 c -0.08,-0.24 -0.07,-0.48 0.04,-0.69 0.1,-0.2 0.29,-0.35 0.5,-0.41 0.59,-0.15 0.98,0.16 1.11,0.53 l 0.73,1.89 0.75,-1.9 c 0.13,-0.36 0.53,-0.67 1.11,-0.52 0.22,0.06 0.4,0.21 0.5,0.41 0.11,0.21 0.12,0.46 0.04,0.68 l -2.45,5.91 c -0.14,0.34 -0.46,0.54 -0.84,0.54 z m -0.67,-7.21 c -0.06,0 -0.13,0 -0.19,0.02 -0.11,0.03 -0.21,0.11 -0.27,0.22 -0.06,0.12 -0.07,0.26 -0.02,0.39 l 1.51,3.52 -0.83,2.05 c -0.05,0.13 -0.04,0.28 0.02,0.4 0.06,0.11 0.15,0.19 0.26,0.21 0.33,0.08 0.58,-0.03 0.69,-0.29 l 2.44,-5.9 c 0.04,-0.12 0.04,-0.26 -0.03,-0.38 -0.06,-0.11 -0.15,-0.19 -0.27,-0.22 -0.38,-0.09 -0.6,0.09 -0.67,0.29 l -1.09,2.77 -1.07,-2.77 c -0.07,-0.21 -0.25,-0.32 -0.48,-0.32 z"
           id="path10" />
        <path
           class="cls-4"
           d="m 214.57,253.86 c -0.84,0 -1.81,-0.35 -2.09,-1.15 -0.13,-0.38 0.03,-0.8 0.35,-0.94 0.4,-0.18 0.78,-0.02 0.98,0.22 0.22,0.23 0.47,0.35 0.76,0.35 0.21,0 0.43,-0.03 0.43,-0.11 0,-0.07 0,-0.1 -0.34,-0.22 l -0.55,-0.19 c -1.54,-0.52 -1.54,-1.29 -1.54,-1.76 0,-0.83 0.95,-1.55 2.03,-1.55 0.87,0 1.56,0.32 1.88,0.88 0.21,0.37 0.13,0.79 -0.19,0.98 -0.35,0.21 -0.73,0.16 -1.11,-0.13 -0.39,-0.29 -0.8,-0.15 -0.8,-0.07 0,0.02 0,0.07 0.28,0.16 l 0.73,0.25 c 1.32,0.43 1.42,1.34 1.42,1.61 0,1.15 -1.17,1.68 -2.25,1.68 z m -1.38,-1.8 c -0.06,0 -0.13,0.01 -0.19,0.04 v 0 c -0.14,0.06 -0.23,0.27 -0.16,0.49 0.22,0.62 1.05,0.9 1.74,0.9 0.91,0 1.88,-0.41 1.88,-1.31 0,-0.2 -0.08,-0.9 -1.17,-1.26 l -0.73,-0.25 c -0.17,-0.06 -0.53,-0.17 -0.53,-0.51 0,-0.22 0.18,-0.47 0.7,-0.47 0.23,0 0.46,0.08 0.68,0.25 0.26,0.2 0.48,0.23 0.71,0.1 0.12,-0.07 0.18,-0.26 0.06,-0.48 -0.36,-0.63 -1.21,-0.69 -1.56,-0.69 -0.87,0 -1.67,0.56 -1.67,1.18 0,0.42 0,0.99 1.3,1.42 l 0.54,0.19 c 0.29,0.09 0.59,0.19 0.59,0.56 0,0.32 -0.27,0.48 -0.8,0.48 -0.39,0 -0.74,-0.17 -1.04,-0.48 -0.07,-0.08 -0.2,-0.17 -0.36,-0.17 z"
           id="path11" />
        <path
           class="cls-4"
           d="m 218.72,253.81 c -0.48,0 -0.89,-0.36 -0.9,-0.81 v -2.89 h -0.2 c -0.39,-0.01 -0.69,-0.35 -0.69,-0.75 0,-0.4 0.31,-0.74 0.69,-0.74 h 0.2 v -1.07 c 0.01,-0.45 0.42,-0.82 0.9,-0.82 0.48,0 0.9,0.37 0.9,0.82 v 1.07 h 0.36 c 0.38,0 0.69,0.33 0.69,0.74 0,0.41 -0.31,0.73 -0.69,0.75 h -0.36 v 2.88 c 0,0.45 -0.4,0.82 -0.9,0.82 z M 218,249.74 h 0.18 v 3.25 c 0,0.24 0.25,0.45 0.53,0.45 0.28,0 0.53,-0.2 0.53,-0.45 v -3.25 h 0.72 c 0.18,0 0.33,-0.18 0.33,-0.38 0,-0.2 -0.15,-0.38 -0.33,-0.38 h -0.72 v -1.43 c 0,-0.25 -0.24,-0.45 -0.53,-0.45 -0.29,0 -0.53,0.21 -0.53,0.45 v 1.43 h -0.57 c -0.18,0 -0.33,0.17 -0.33,0.38 0,0.21 0.15,0.37 0.33,0.38 h 0.38 z"
           id="path12" />
        <path
           class="cls-4"
           d="m 223.37,253.85 c -1.53,0 -2.68,-1.15 -2.68,-2.68 0,-1.53 1.13,-2.65 2.68,-2.65 1.55,0 2.63,1.13 2.63,2.69 0,0.34 -0.28,0.62 -0.62,0.62 h -2.83 c 0.16,0.29 0.56,0.42 0.92,0.42 0.25,0 0.46,-0.01 0.72,-0.19 0.38,-0.27 0.86,-0.22 1.14,0.1 0.16,0.18 0.22,0.41 0.18,0.64 -0.04,0.24 -0.19,0.46 -0.41,0.59 -0.58,0.38 -1.27,0.46 -1.74,0.46 z m 0,-4.96 c -1.34,0 -2.31,0.96 -2.31,2.28 0,1.32 0.97,2.31 2.31,2.31 0.43,0 1.04,-0.07 1.55,-0.4 v 0 c 0.13,-0.08 0.22,-0.2 0.24,-0.34 0.02,-0.12 -0.02,-0.24 -0.1,-0.34 -0.16,-0.18 -0.43,-0.2 -0.66,-0.04 -0.35,0.24 -0.64,0.26 -0.93,0.26 -0.59,0 -1.27,-0.3 -1.36,-0.95 l -0.03,-0.21 h 3.29 c 0.12,0 0.26,-0.1 0.26,-0.26 0,-1.35 -0.95,-2.32 -2.26,-2.32 z m 1.22,2.05 h -2.5 l 0.05,-0.22 c 0.13,-0.65 0.58,-1.02 1.24,-1.02 0.66,0 1.1,0.39 1.18,1.03 z m -2.03,-0.36 h 1.59 c -0.14,-0.43 -0.53,-0.5 -0.77,-0.5 -0.41,0 -0.68,0.17 -0.82,0.5 z"
           id="path13" />
        <path
           class="cls-4"
           d="m 233.48,253.81 c -0.48,0 -0.88,-0.36 -0.9,-0.81 v -1.97 c 0,-0.53 -0.31,-0.77 -0.61,-0.77 -0.41,0 -0.62,0.27 -0.62,0.79 v 1.94 c 0,0.45 -0.4,0.82 -0.9,0.82 -0.5,0 -0.89,-0.36 -0.9,-0.81 v -2 c 0,-0.51 -0.3,-0.74 -0.6,-0.74 -0.42,0 -0.64,0.27 -0.64,0.79 v 1.94 c 0,0.45 -0.4,0.82 -0.9,0.82 -0.5,0 -0.89,-0.36 -0.9,-0.81 v -3.61 c 0.01,-0.45 0.42,-0.82 0.9,-0.82 0.35,0 0.66,0.19 0.81,0.46 0.29,-0.31 0.7,-0.5 1.15,-0.5 0.74,0 1.24,0.22 1.57,0.72 0.48,-0.69 1.23,-0.73 1.39,-0.73 1.3,0 2.04,0.86 2.05,2.35 V 253 c 0,0.45 -0.4,0.82 -0.9,0.82 z m -1.52,-3.92 c 0.47,0 0.98,0.36 0.98,1.13 v 1.96 c 0,0.24 0.25,0.45 0.53,0.45 0.28,0 0.53,-0.2 0.53,-0.45 v -2.13 c 0,-1.28 -0.61,-1.98 -1.69,-1.98 -0.14,0 -0.87,0.04 -1.23,0.8 l -0.16,0.35 -0.17,-0.35 c -0.27,-0.57 -0.68,-0.8 -1.41,-0.8 -0.47,0 -0.89,0.27 -1.08,0.68 l -0.35,0.78 v -0.97 c 0,-0.25 -0.24,-0.45 -0.53,-0.45 -0.29,0 -0.53,0.21 -0.53,0.46 v 3.6 c 0,0.24 0.25,0.45 0.53,0.45 0.28,0 0.53,-0.2 0.53,-0.45 v -1.94 c 0,-0.72 0.38,-1.16 1.01,-1.16 0.48,0 0.97,0.38 0.97,1.1 v 1.99 c 0,0.24 0.25,0.45 0.53,0.45 0.28,0 0.53,-0.2 0.53,-0.45 v -1.94 c 0,-0.72 0.37,-1.16 0.99,-1.16 z"
           id="path14" />
      </g>
      <g
         id="g20">
        <path
           class="cls-4"
           d="m 258.99,251.9 -0.48,1.29 c -0.13,0.35 -0.56,0.51 -0.94,0.39 -0.37,-0.12 -0.57,-0.58 -0.45,-0.93 l 2.03,-5.48 c 0.16,-0.43 0.49,-0.69 1.01,-0.69 h 0.06 c 0.52,0 0.85,0.26 1.01,0.69 l 2.03,5.48 c 0.12,0.35 -0.08,0.81 -0.45,0.93 -0.38,0.12 -0.81,-0.04 -0.94,-0.39 l -0.48,-1.29 h -2.41 z m 1.93,-1.29 -0.72,-2.45 -0.72,2.45 h 1.43 z"
           id="path15" />
        <path
           class="cls-4"
           d="m 266.96,248.7 c 1.22,0 2.32,0.89 2.32,2.47 0,1.58 -1.1,2.49 -2.32,2.49 -0.54,0 -1.13,-0.27 -1.43,-0.77 v 0.09 c 0,0.35 -0.34,0.63 -0.72,0.63 -0.38,0 -0.71,-0.28 -0.71,-0.63 v -6.21 c 0,-0.36 0.33,-0.63 0.71,-0.63 0.38,0 0.71,0.29 0.72,0.63 v 2.69 c 0.41,-0.63 1.13,-0.77 1.43,-0.77 z m -0.27,1.28 c -0.64,0 -1.17,0.57 -1.17,1.21 0,0.64 0.52,1.21 1.17,1.21 0.72,0 1.13,-0.57 1.13,-1.21 0,-0.64 -0.41,-1.21 -1.13,-1.21 z"
           id="path16" />
        <path
           class="cls-4"
           d="m 271.72,252.99 c 0,0.36 -0.33,0.63 -0.72,0.63 -0.39,0 -0.71,-0.29 -0.72,-0.63 v -6.21 c 0,-0.35 0.34,-0.63 0.72,-0.63 0.38,0 0.72,0.28 0.72,0.63 z"
           id="path17" />
        <path
           class="cls-4"
           d="m 276.48,249.38 c 0,-0.35 0.34,-0.63 0.72,-0.63 0.38,0 0.72,0.28 0.72,0.63 v 3.61 c 0,0.36 -0.33,0.63 -0.72,0.63 -0.39,0 -0.71,-0.29 -0.72,-0.63 v -0.09 c -0.31,0.5 -0.89,0.77 -1.43,0.77 -1.22,0 -2.32,-0.9 -2.32,-2.49 0,-1.59 1.11,-2.47 2.32,-2.47 0.31,0 1.02,0.13 1.43,0.77 v -0.09 z m -1.16,3.02 c 0.65,0 1.17,-0.57 1.17,-1.21 0,-0.64 -0.52,-1.21 -1.17,-1.21 -0.72,0 -1.13,0.57 -1.13,1.21 0,0.64 0.41,1.21 1.13,1.21 z"
           id="path18" />
        <path
           class="cls-4"
           d="m 279.44,254.12 c 0.25,-0.23 0.68,-0.18 0.88,0.03 0.26,0.29 0.67,0.52 1.06,0.52 1.08,0 1.38,-0.75 1.32,-1.7 v -0.13 c -0.31,0.54 -0.89,0.82 -1.48,0.82 -1.22,0 -2.32,-0.9 -2.32,-2.49 0,-1.59 1.1,-2.47 2.32,-2.47 0.31,0 1.02,0.13 1.43,0.77 v -0.09 c 0,-0.35 0.34,-0.63 0.72,-0.63 0.38,0 0.71,0.28 0.71,0.63 v 3.53 c 0,2.05 -1,3.05 -2.7,3.05 -0.83,0 -1.56,-0.37 -2.02,-0.95 -0.19,-0.24 -0.17,-0.65 0.08,-0.88 z m 2.05,-1.72 c 0.64,0 1.17,-0.57 1.17,-1.21 0,-0.64 -0.52,-1.21 -1.17,-1.21 -0.72,0 -1.13,0.57 -1.13,1.21 0,0.64 0.41,1.21 1.13,1.21 z"
           id="path19" />
        <path
           class="cls-4"
           d="m 289.22,253.24 c -0.48,0.32 -1.09,0.43 -1.65,0.43 -1.37,0 -2.49,-0.99 -2.49,-2.5 0,-1.51 1.13,-2.46 2.49,-2.46 1.36,0 2.44,1 2.44,2.51 0,0.25 -0.21,0.44 -0.44,0.44 h -3.08 c 0.07,0.55 0.68,0.79 1.18,0.79 0.29,0 0.53,-0.02 0.83,-0.22 0.33,-0.23 0.7,-0.16 0.9,0.07 0.27,0.31 0.16,0.75 -0.18,0.95 z m -0.64,-2.48 c -0.07,-0.58 -0.47,-0.87 -1,-0.87 -0.53,0 -0.94,0.26 -1.07,0.87 h 2.06 z"
           id="path20" />
      </g>
      <g
         id="g30">
        <path
           class="cls-4"
           d="m 306.5,253.54 c -0.38,0 -0.59,-0.3 -0.59,-0.63 v -5.78 c 0,-0.35 0.21,-0.63 0.59,-0.63 h 2.23 c 1.27,0 2.09,0.76 2.09,1.96 0,0.46 -0.24,1.04 -0.96,1.32 0.93,0.23 1.33,1.03 1.33,1.61 0,1.17 -0.85,2.16 -2.25,2.16 h -2.43 z m 2.09,-4.23 c 0.39,0 0.65,-0.33 0.65,-0.75 0,-0.42 -0.22,-0.75 -0.66,-0.75 h -1.17 v 1.49 h 1.18 z m -1.18,1.19 v 1.73 h 1.44 c 0.5,0 0.76,-0.46 0.76,-0.88 0,-0.42 -0.25,-0.85 -0.79,-0.85 z"
           id="path21" />
        <path
           class="cls-4"
           d="m 316.12,253.21 c -0.48,0.32 -1.08,0.43 -1.65,0.43 -1.37,0 -2.49,-0.99 -2.49,-2.5 0,-1.51 1.13,-2.46 2.49,-2.46 1.36,0 2.44,1 2.44,2.51 0,0.26 -0.21,0.44 -0.44,0.44 h -3.08 c 0.07,0.55 0.67,0.79 1.18,0.79 0.29,0 0.53,-0.02 0.83,-0.22 0.33,-0.23 0.7,-0.16 0.9,0.07 0.26,0.31 0.16,0.75 -0.18,0.95 z m -0.64,-2.48 c -0.07,-0.58 -0.47,-0.87 -1,-0.87 -0.53,0 -0.94,0.27 -1.06,0.87 z"
           id="path22" />
        <path
           class="cls-4"
           d="m 321.31,249.35 c 0,-0.35 0.34,-0.63 0.72,-0.63 0.38,0 0.71,0.28 0.71,0.63 v 3.61 c 0,0.36 -0.33,0.63 -0.71,0.63 -0.38,0 -0.71,-0.29 -0.72,-0.63 v -0.09 c -0.31,0.5 -0.89,0.77 -1.43,0.77 -1.22,0 -2.32,-0.9 -2.32,-2.49 0,-1.59 1.1,-2.47 2.32,-2.47 0.31,0 1.02,0.13 1.43,0.77 v -0.09 z m -1.16,3.02 c 0.64,0 1.17,-0.57 1.17,-1.21 0,-0.64 -0.52,-1.21 -1.17,-1.21 -0.72,0 -1.13,0.57 -1.13,1.21 0,0.64 0.41,1.21 1.13,1.21 z"
           id="path23" />
        <path
           class="cls-4"
           d="m 327.52,249.46 c -0.05,0.36 -0.39,0.52 -0.7,0.52 -0.1,0 -0.26,0 -0.35,0 -0.8,0 -1.06,0.61 -1.08,1.81 v 1.18 c 0,0.36 -0.33,0.63 -0.72,0.63 -0.39,0 -0.71,-0.29 -0.72,-0.63 v -3.61 c 0,-0.35 0.34,-0.63 0.72,-0.63 0.38,0 0.72,0.28 0.72,0.63 v 0.52 c 0.27,-0.89 0.77,-1.2 1.26,-1.2 0.49,0 0.97,0.11 0.88,0.79 z"
           id="path24" />
        <path
           class="cls-4"
           d="m 331.06,248.68 c 1.22,0 2.32,0.89 2.32,2.47 0,1.58 -1.1,2.49 -2.32,2.49 -0.54,0 -1.13,-0.27 -1.43,-0.77 v 0.09 c 0,0.35 -0.34,0.63 -0.72,0.63 -0.38,0 -0.71,-0.28 -0.71,-0.63 v -6.21 c 0,-0.36 0.33,-0.63 0.71,-0.63 0.38,0 0.71,0.29 0.72,0.63 v 2.69 c 0.41,-0.63 1.13,-0.77 1.43,-0.77 z m -0.28,1.27 c -0.64,0 -1.17,0.57 -1.17,1.21 0,0.64 0.52,1.21 1.17,1.21 0.72,0 1.13,-0.57 1.13,-1.21 0,-0.64 -0.41,-1.21 -1.13,-1.21 z"
           id="path25" />
        <path
           class="cls-4"
           d="m 338.27,253.21 c -0.48,0.32 -1.08,0.43 -1.65,0.43 -1.37,0 -2.49,-0.99 -2.49,-2.5 0,-1.51 1.13,-2.46 2.49,-2.46 1.36,0 2.44,1 2.44,2.51 0,0.26 -0.21,0.44 -0.44,0.44 h -3.08 c 0.07,0.55 0.67,0.79 1.18,0.79 0.29,0 0.53,-0.02 0.83,-0.22 0.33,-0.23 0.7,-0.16 0.9,0.07 0.26,0.31 0.16,0.75 -0.18,0.95 z m -0.64,-2.48 c -0.07,-0.58 -0.47,-0.87 -1,-0.87 -0.53,0 -0.94,0.27 -1.06,0.87 z"
           id="path26" />
        <path
           class="cls-4"
           d="m 340.64,246.17 c 0.48,0 0.87,0.36 0.87,0.83 0,0.47 -0.39,0.84 -0.87,0.84 -0.48,0 -0.89,-0.37 -0.89,-0.84 0,-0.47 0.41,-0.83 0.89,-0.83 z m 0.72,6.79 c 0,0.36 -0.33,0.63 -0.72,0.63 -0.39,0 -0.71,-0.29 -0.72,-0.63 v -3.61 c 0,-0.35 0.34,-0.63 0.72,-0.63 0.38,0 0.72,0.28 0.72,0.63 z"
           id="path27" />
        <path
           class="cls-4"
           d="m 342.99,248.77 v -1.25 c 0,-0.35 0.34,-0.63 0.72,-0.63 0.38,0 0.72,0.28 0.72,0.63 v 1.25 h 0.54 c 0.29,0 0.51,0.26 0.51,0.56 0,0.3 -0.22,0.55 -0.51,0.56 h -0.54 v 3.07 c 0,0.36 -0.33,0.63 -0.72,0.63 -0.39,0 -0.71,-0.29 -0.72,-0.63 v -3.07 h -0.39 c -0.29,-0.01 -0.51,-0.27 -0.51,-0.56 0,-0.29 0.22,-0.56 0.51,-0.56 z"
           id="path28" />
        <path
           class="cls-4"
           d="m 350,253.21 c -0.48,0.32 -1.08,0.43 -1.65,0.43 -1.37,0 -2.49,-0.99 -2.49,-2.5 0,-1.51 1.13,-2.46 2.49,-2.46 1.36,0 2.44,1 2.44,2.51 0,0.26 -0.21,0.44 -0.44,0.44 h -3.08 c 0.07,0.55 0.67,0.79 1.18,0.79 0.29,0 0.53,-0.02 0.83,-0.22 0.33,-0.23 0.7,-0.16 0.9,0.07 0.26,0.31 0.16,0.75 -0.18,0.95 z m -0.63,-2.48 c -0.07,-0.58 -0.47,-0.87 -1,-0.87 -0.53,0 -0.94,0.27 -1.06,0.87 z"
           id="path29" />
        <path
           class="cls-4"
           d="m 353.09,249.46 c 0.26,-0.48 0.82,-0.8 1.38,-0.8 1.07,0 1.76,0.66 1.76,2.02 v 2.27 c 0,0.36 -0.33,0.63 -0.72,0.63 -0.39,0 -0.7,-0.29 -0.72,-0.63 v -1.96 c 0,-0.63 -0.35,-0.95 -0.83,-0.95 -0.48,0 -0.88,0.25 -0.88,0.97 v 1.94 c 0,0.36 -0.33,0.63 -0.72,0.63 -0.39,0 -0.71,-0.29 -0.72,-0.63 v -3.61 c 0,-0.35 0.34,-0.63 0.72,-0.63 0.38,0 0.72,0.28 0.72,0.63 v 0.11 z"
           id="path30" />
      </g>
      <g
         id="g37">
        <path
           class="cls-4"
           d="m 375.71,251.88 -0.48,1.29 c -0.13,0.35 -0.56,0.51 -0.94,0.39 -0.37,-0.12 -0.57,-0.58 -0.45,-0.93 l 2.03,-5.48 c 0.16,-0.43 0.49,-0.7 1.01,-0.7 h 0.06 c 0.52,0 0.85,0.27 1.01,0.7 l 2.03,5.48 c 0.12,0.35 -0.08,0.81 -0.45,0.93 -0.38,0.12 -0.81,-0.04 -0.94,-0.39 l -0.48,-1.29 h -2.41 z m 1.92,-1.3 -0.72,-2.45 -0.72,2.45 h 1.43 z"
           id="path31" />
        <path
           class="cls-4"
           d="m 382.23,249.46 c 0.25,-0.48 0.82,-0.8 1.38,-0.8 1.08,0 1.76,0.66 1.76,2.02 v 2.27 c 0,0.36 -0.33,0.63 -0.72,0.63 -0.39,0 -0.7,-0.29 -0.72,-0.63 v -1.96 c 0,-0.63 -0.35,-0.95 -0.83,-0.95 -0.48,0 -0.88,0.25 -0.88,0.97 v 1.94 c 0,0.36 -0.33,0.63 -0.72,0.63 -0.39,0 -0.71,-0.29 -0.72,-0.63 v -3.61 c 0,-0.35 0.34,-0.63 0.72,-0.63 0.38,0 0.72,0.28 0.72,0.63 v 0.11 z"
           id="path32" />
        <path
           class="cls-4"
           d="m 386.59,251.91 c 0.32,-0.14 0.61,0 0.77,0.17 0.26,0.28 0.56,0.42 0.9,0.42 0.32,0 0.61,-0.05 0.61,-0.3 0,-0.2 -0.12,-0.28 -0.47,-0.39 l -0.54,-0.19 c -1.43,-0.48 -1.42,-1.16 -1.42,-1.6 0,-0.71 0.85,-1.36 1.85,-1.36 0.69,0 1.39,0.21 1.72,0.79 0.17,0.31 0.09,0.6 -0.12,0.73 -0.32,0.18 -0.61,0.11 -0.91,-0.11 -0.2,-0.15 -0.39,-0.21 -0.57,-0.21 -0.31,0 -0.52,0.1 -0.52,0.29 0,0.15 0.12,0.25 0.41,0.34 l 0.73,0.24 c 1.16,0.38 1.3,1.12 1.3,1.43 0,1.01 -1.06,1.49 -2.06,1.49 -0.77,0 -1.67,-0.32 -1.91,-1.02 -0.1,-0.3 0.02,-0.61 0.26,-0.72 z"
           id="path33" />
        <path
           class="cls-4"
           d="m 391.97,246.17 c 0.48,0 0.87,0.36 0.87,0.83 0,0.47 -0.39,0.84 -0.87,0.84 -0.48,0 -0.89,-0.37 -0.89,-0.84 0,-0.47 0.41,-0.83 0.89,-0.83 z m 0.71,6.79 c 0,0.36 -0.33,0.63 -0.72,0.63 -0.39,0 -0.71,-0.29 -0.72,-0.63 v -3.61 c 0,-0.35 0.34,-0.63 0.72,-0.63 0.38,0 0.72,0.28 0.72,0.63 z"
           id="path34" />
        <path
           class="cls-4"
           d="m 396.27,252.26 c 0.26,0 0.5,-0.07 0.71,-0.18 0.26,-0.14 0.68,-0.2 0.93,0.05 0.28,0.29 0.24,0.81 -0.09,1.04 -0.43,0.31 -0.97,0.47 -1.55,0.47 -1.37,0 -2.62,-0.96 -2.62,-2.46 v -0.03 c 0,-1.5 1.25,-2.46 2.62,-2.46 0.57,0 1.12,0.16 1.55,0.47 0.34,0.24 0.38,0.76 0.09,1.04 -0.26,0.26 -0.68,0.19 -0.93,0.05 -0.2,-0.11 -0.45,-0.18 -0.71,-0.18 -0.61,0 -1.17,0.42 -1.17,1.08 v 0.03 c 0,0.66 0.55,1.08 1.17,1.08 z"
           id="path35" />
        <path
           class="cls-4"
           d="m 402.3,251 c 0,-0.62 -0.45,-0.94 -0.88,-0.94 -0.43,0 -0.94,0.24 -0.94,0.96 v 1.94 c 0,0.36 -0.33,0.63 -0.72,0.63 -0.39,0 -0.71,-0.29 -0.72,-0.63 v -6.21 c 0,-0.35 0.34,-0.63 0.72,-0.63 0.38,0 0.72,0.28 0.72,0.63 v 2.76 c 0.19,-0.59 0.88,-0.84 1.33,-0.84 1.26,0 1.92,0.83 1.92,2.27 v 2.01 c 0,0.36 -0.33,0.63 -0.72,0.63 -0.39,0 -0.71,-0.29 -0.72,-0.63 v -1.96 z"
           id="path36" />
        <path
           class="cls-4"
           d="m 405.32,248.77 v -1.25 c 0,-0.35 0.34,-0.63 0.72,-0.63 0.38,0 0.72,0.28 0.72,0.63 v 1.25 h 0.54 c 0.29,0 0.51,0.26 0.51,0.56 0,0.3 -0.22,0.55 -0.51,0.56 h -0.54 v 3.07 c 0,0.36 -0.33,0.63 -0.72,0.63 -0.39,0 -0.71,-0.29 -0.72,-0.63 v -3.07 h -0.39 c -0.29,-0.01 -0.51,-0.27 -0.51,-0.56 0,-0.29 0.23,-0.56 0.51,-0.56 z"
           id="path37" />
      </g>
      <g
         id="g44">
        <path
           class="cls-4"
           d="m 425.91,253.05 c -0.1,0.33 -0.37,0.54 -0.75,0.54 h -0.14 c -0.39,0 -0.64,-0.21 -0.74,-0.54 l -1.75,-5.71 c -0.1,-0.36 0.15,-0.79 0.52,-0.88 0.39,-0.09 0.81,0.11 0.9,0.47 l 1.13,4.35 1.14,-4.35 c 0.09,-0.36 0.51,-0.56 0.9,-0.47 0.37,0.09 0.62,0.52 0.52,0.88 l -1.74,5.71 z"
           id="path38" />
        <path
           class="cls-4"
           d="m 431.91,253.21 c -0.48,0.32 -1.08,0.43 -1.65,0.43 -1.37,0 -2.49,-0.99 -2.49,-2.5 0,-1.51 1.13,-2.46 2.49,-2.46 1.36,0 2.44,1 2.44,2.51 0,0.26 -0.21,0.44 -0.44,0.44 h -3.08 c 0.07,0.55 0.67,0.79 1.18,0.79 0.29,0 0.53,-0.02 0.83,-0.22 0.33,-0.23 0.7,-0.16 0.9,0.07 0.26,0.31 0.16,0.75 -0.18,0.95 z m -0.63,-2.48 c -0.07,-0.58 -0.47,-0.87 -1,-0.87 -0.53,0 -0.94,0.27 -1.06,0.87 z"
           id="path39" />
        <path
           class="cls-4"
           d="m 437.14,249.46 c -0.05,0.36 -0.39,0.52 -0.7,0.52 -0.1,0 -0.26,0 -0.35,0 -0.8,0 -1.06,0.61 -1.08,1.81 v 1.18 c 0,0.36 -0.33,0.63 -0.72,0.63 -0.39,0 -0.71,-0.29 -0.72,-0.63 v -3.61 c 0,-0.35 0.34,-0.63 0.72,-0.63 0.38,0 0.72,0.28 0.72,0.63 v 0.52 c 0.27,-0.89 0.77,-1.2 1.26,-1.2 0.49,0 0.97,0.11 0.88,0.79 z"
           id="path40" />
        <path
           class="cls-4"
           d="m 439.25,252.96 c 0,0.36 -0.33,0.63 -0.72,0.63 -0.39,0 -0.7,-0.29 -0.71,-0.63 v -6.21 c 0,-0.35 0.34,-0.63 0.71,-0.63 0.37,0 0.72,0.28 0.72,0.63 z"
           id="path41" />
        <path
           class="cls-4"
           d="m 444,249.35 c 0,-0.35 0.34,-0.63 0.72,-0.63 0.38,0 0.72,0.28 0.72,0.63 v 3.61 c 0,0.36 -0.33,0.63 -0.72,0.63 -0.39,0 -0.71,-0.29 -0.72,-0.63 v -0.09 c -0.31,0.5 -0.89,0.77 -1.43,0.77 -1.22,0 -2.32,-0.9 -2.32,-2.49 0,-1.59 1.1,-2.47 2.32,-2.47 0.31,0 1.02,0.13 1.43,0.77 v -0.09 z m -1.15,3.02 c 0.64,0 1.17,-0.57 1.17,-1.21 0,-0.64 -0.52,-1.21 -1.17,-1.21 -0.72,0 -1.13,0.57 -1.13,1.21 0,0.64 0.41,1.21 1.13,1.21 z"
           id="path42" />
        <path
           class="cls-4"
           d="m 449.75,252.85 c -0.25,0.48 -0.82,0.79 -1.38,0.79 -1.07,0 -1.76,-0.53 -1.76,-1.89 v -2.39 c 0,-0.36 0.33,-0.63 0.72,-0.63 0.39,0 0.7,0.29 0.72,0.63 v 1.96 c 0,0.63 0.23,0.94 0.83,0.94 0.5,0 0.88,-0.24 0.88,-0.96 v -1.94 c 0,-0.36 0.33,-0.63 0.72,-0.63 0.39,0 0.71,0.29 0.72,0.63 v 3.61 c 0,0.35 -0.34,0.63 -0.72,0.63 -0.38,0 -0.72,-0.28 -0.72,-0.63 v -0.11 z"
           id="path43" />
        <path
           class="cls-4"
           d="m 454.79,248.77 c 0.29,0 0.51,0.26 0.51,0.56 0,0.3 -0.22,0.55 -0.51,0.56 h -0.49 v 3.07 c 0,0.36 -0.33,0.63 -0.71,0.63 -0.38,0 -0.71,-0.29 -0.72,-0.63 v -3.07 h -0.45 c -0.29,-0.01 -0.51,-0.27 -0.51,-0.56 0,-0.29 0.22,-0.56 0.51,-0.56 h 0.45 v -0.33 c 0,-1.46 0.73,-2.27 2.1,-2.27 h 0.12 c 0.37,0 0.65,0.3 0.65,0.65 0,0.35 -0.3,0.64 -0.65,0.65 h -0.12 c -0.49,0 -0.67,0.35 -0.67,0.91 v 0.38 h 0.49 z"
           id="path44" />
      </g>
      <g
         id="g55">
        <path
           class="cls-4"
           d="m 472.63,252.23 h 2.03 c 0.34,0 0.61,0.3 0.61,0.65 0,0.34 -0.29,0.64 -0.61,0.65 h -2.93 c -0.38,0 -0.59,-0.29 -0.59,-0.63 v -5.77 c 0,-0.37 0.36,-0.7 0.75,-0.7 0.41,0 0.75,0.32 0.75,0.7 v 5.09 z"
           id="path45" />
        <path
           class="cls-4"
           d="m 479.79,253.21 c -0.48,0.32 -1.08,0.43 -1.65,0.43 -1.37,0 -2.49,-0.99 -2.49,-2.5 0,-1.51 1.13,-2.46 2.49,-2.46 1.36,0 2.44,1 2.44,2.51 0,0.26 -0.21,0.44 -0.44,0.44 h -3.08 c 0.07,0.55 0.67,0.79 1.18,0.79 0.29,0 0.53,-0.02 0.83,-0.22 0.33,-0.23 0.7,-0.16 0.9,0.07 0.26,0.31 0.16,0.75 -0.18,0.95 z m -0.63,-2.48 c -0.07,-0.58 -0.47,-0.87 -1,-0.87 -0.53,0 -0.94,0.27 -1.06,0.87 z"
           id="path46" />
        <path
           class="cls-4"
           d="m 481.49,251.91 c 0.32,-0.14 0.61,0 0.77,0.17 0.26,0.28 0.56,0.42 0.9,0.42 0.32,0 0.61,-0.05 0.61,-0.3 0,-0.2 -0.12,-0.28 -0.47,-0.39 l -0.54,-0.19 c -1.43,-0.48 -1.42,-1.16 -1.42,-1.6 0,-0.71 0.85,-1.36 1.85,-1.36 0.69,0 1.39,0.21 1.72,0.79 0.17,0.31 0.09,0.6 -0.12,0.73 -0.32,0.18 -0.61,0.11 -0.91,-0.11 -0.2,-0.15 -0.39,-0.21 -0.57,-0.21 -0.31,0 -0.52,0.1 -0.52,0.29 0,0.15 0.12,0.25 0.41,0.34 l 0.73,0.24 c 1.16,0.38 1.3,1.12 1.3,1.43 0,1.01 -1.06,1.49 -2.06,1.49 -0.77,0 -1.67,-0.32 -1.91,-1.02 -0.1,-0.3 0.02,-0.61 0.26,-0.72 z"
           id="path47" />
        <path
           class="cls-4"
           d="m 490.07,253.21 c -0.48,0.32 -1.08,0.43 -1.65,0.43 -1.37,0 -2.49,-0.99 -2.49,-2.5 0,-1.51 1.13,-2.46 2.49,-2.46 1.36,0 2.44,1 2.44,2.51 0,0.26 -0.21,0.44 -0.44,0.44 h -3.08 c 0.07,0.55 0.67,0.79 1.18,0.79 0.29,0 0.53,-0.02 0.83,-0.22 0.33,-0.23 0.7,-0.16 0.9,0.07 0.26,0.31 0.16,0.75 -0.18,0.95 z m -0.64,-2.48 c -0.07,-0.58 -0.47,-0.87 -1,-0.87 -0.53,0 -0.94,0.27 -1.06,0.87 z"
           id="path48" />
        <path
           class="cls-4"
           d="m 493.49,252.23 h 1.73 c 0.32,0 0.61,0.31 0.61,0.65 0,0.34 -0.29,0.65 -0.61,0.65 h -3.11 c -0.32,0 -0.66,-0.2 -0.66,-0.61 v -0.03 c 0,-0.22 0.08,-0.47 0.29,-0.69 l 1.96,-2.14 h -1.58 c -0.32,0 -0.61,-0.31 -0.61,-0.65 0,-0.34 0.29,-0.65 0.61,-0.65 h 2.96 c 0.32,0 0.66,0.2 0.66,0.61 v 0.03 c 0,0.23 -0.08,0.47 -0.29,0.69 z"
           id="path49" />
        <path
           class="cls-4"
           d="m 500.64,253.21 c -0.48,0.32 -1.08,0.43 -1.65,0.43 -1.37,0 -2.49,-0.99 -2.49,-2.5 0,-1.51 1.13,-2.46 2.49,-2.46 1.36,0 2.44,1 2.44,2.51 0,0.26 -0.21,0.44 -0.44,0.44 h -3.08 c 0.07,0.55 0.67,0.79 1.18,0.79 0.29,0 0.53,-0.02 0.83,-0.22 0.33,-0.23 0.7,-0.16 0.9,0.07 0.26,0.31 0.16,0.75 -0.18,0.95 z M 500,250.73 c -0.07,-0.58 -0.47,-0.87 -1,-0.87 -0.53,0 -0.94,0.27 -1.06,0.87 z"
           id="path50" />
        <path
           class="cls-4"
           d="m 503.01,246.17 c 0.48,0 0.87,0.36 0.87,0.83 0,0.47 -0.39,0.84 -0.87,0.84 -0.48,0 -0.89,-0.37 -0.89,-0.84 0,-0.47 0.41,-0.83 0.89,-0.83 z m 0.72,6.79 c 0,0.36 -0.33,0.63 -0.72,0.63 -0.39,0 -0.71,-0.29 -0.72,-0.63 v -3.61 c 0,-0.35 0.34,-0.63 0.72,-0.63 0.38,0 0.72,0.28 0.72,0.63 z"
           id="path51" />
        <path
           class="cls-4"
           d="m 507.32,252.26 c 0.26,0 0.5,-0.07 0.71,-0.18 0.25,-0.14 0.67,-0.2 0.93,0.05 0.28,0.29 0.24,0.81 -0.09,1.04 -0.43,0.31 -0.97,0.47 -1.54,0.47 -1.37,0 -2.62,-0.96 -2.62,-2.46 v -0.03 c 0,-1.5 1.25,-2.46 2.62,-2.46 0.57,0 1.11,0.16 1.54,0.47 0.34,0.24 0.38,0.76 0.09,1.04 -0.26,0.26 -0.68,0.19 -0.93,0.05 -0.2,-0.11 -0.45,-0.18 -0.71,-0.18 -0.61,0 -1.17,0.42 -1.17,1.08 v 0.03 c 0,0.66 0.55,1.08 1.17,1.08 z"
           id="path52" />
        <path
           class="cls-4"
           d="m 513.34,251 c 0,-0.62 -0.45,-0.94 -0.88,-0.94 -0.43,0 -0.94,0.24 -0.94,0.96 v 1.94 c 0,0.36 -0.33,0.63 -0.72,0.63 -0.39,0 -0.7,-0.29 -0.71,-0.63 v -6.21 c 0,-0.35 0.34,-0.63 0.71,-0.63 0.37,0 0.72,0.28 0.72,0.63 v 2.76 c 0.19,-0.59 0.88,-0.84 1.33,-0.84 1.26,0 1.92,0.83 1.92,2.27 v 2.01 c 0,0.36 -0.33,0.63 -0.72,0.63 -0.39,0 -0.71,-0.29 -0.72,-0.63 v -1.96 z"
           id="path53" />
        <path
           class="cls-4"
           d="m 519.85,253.21 c -0.48,0.32 -1.08,0.43 -1.65,0.43 -1.37,0 -2.49,-0.99 -2.49,-2.5 0,-1.51 1.13,-2.46 2.49,-2.46 1.36,0 2.44,1 2.44,2.51 0,0.26 -0.21,0.44 -0.44,0.44 h -3.08 c 0.07,0.55 0.67,0.79 1.18,0.79 0.29,0 0.53,-0.02 0.83,-0.22 0.33,-0.23 0.7,-0.16 0.9,0.07 0.26,0.31 0.16,0.75 -0.18,0.95 z m -0.64,-2.48 c -0.07,-0.58 -0.47,-0.87 -1,-0.87 -0.53,0 -0.94,0.27 -1.06,0.87 z"
           id="path54" />
        <path
           class="cls-4"
           d="m 522.94,249.46 c 0.26,-0.48 0.82,-0.8 1.38,-0.8 1.07,0 1.76,0.66 1.76,2.02 v 2.27 c 0,0.36 -0.33,0.63 -0.72,0.63 -0.39,0 -0.7,-0.29 -0.72,-0.63 v -1.96 c 0,-0.63 -0.35,-0.95 -0.83,-0.95 -0.48,0 -0.88,0.25 -0.88,0.97 v 1.94 c 0,0.36 -0.33,0.63 -0.72,0.63 -0.39,0 -0.71,-0.29 -0.72,-0.63 v -3.61 c 0,-0.35 0.34,-0.63 0.72,-0.63 0.38,0 0.72,0.28 0.72,0.63 v 0.11 z"
           id="path55" />
      </g>
      <g
         id="g60">
        <path
           class="cls-4"
           d="m 549.16,252.9 c 0,0.38 -0.34,0.7 -0.75,0.7 -0.39,0 -0.75,-0.33 -0.75,-0.7 v -2.19 h -2.51 v 2.19 c 0,0.38 -0.34,0.7 -0.75,0.7 -0.39,0 -0.75,-0.33 -0.75,-0.7 v -5.76 c 0,-0.37 0.36,-0.7 0.75,-0.7 0.41,0 0.75,0.32 0.75,0.7 v 2.23 h 2.51 v -2.23 c 0,-0.37 0.36,-0.7 0.75,-0.7 0.41,0 0.75,0.32 0.75,0.7 z"
           id="path56" />
        <path
           class="cls-4"
           d="m 551.21,246.17 c 0.48,0 0.87,0.36 0.87,0.83 0,0.47 -0.39,0.84 -0.87,0.84 -0.48,0 -0.89,-0.37 -0.89,-0.84 0,-0.47 0.41,-0.83 0.89,-0.83 z m 0.72,6.79 c 0,0.36 -0.33,0.63 -0.72,0.63 -0.39,0 -0.71,-0.29 -0.72,-0.63 v -3.61 c 0,-0.35 0.34,-0.63 0.72,-0.63 0.38,0 0.72,0.28 0.72,0.63 z"
           id="path57" />
        <path
           class="cls-4"
           d="m 554.59,252.96 c 0,0.36 -0.33,0.63 -0.72,0.63 -0.39,0 -0.7,-0.29 -0.71,-0.63 v -6.21 c 0,-0.35 0.34,-0.63 0.71,-0.63 0.37,0 0.72,0.28 0.72,0.63 z"
           id="path58" />
        <path
           class="cls-4"
           d="m 558.21,248.77 c 0.29,0 0.51,0.26 0.51,0.56 0,0.3 -0.22,0.55 -0.51,0.56 h -0.49 v 3.07 c 0,0.36 -0.33,0.63 -0.71,0.63 -0.38,0 -0.71,-0.29 -0.72,-0.63 v -3.07 h -0.45 c -0.29,-0.01 -0.51,-0.27 -0.51,-0.56 0,-0.29 0.22,-0.56 0.51,-0.56 h 0.45 v -0.33 c 0,-1.46 0.73,-2.27 2.1,-2.27 h 0.12 c 0.37,0 0.65,0.3 0.65,0.65 0,0.35 -0.3,0.64 -0.65,0.65 h -0.12 c -0.49,0 -0.67,0.35 -0.67,0.91 v 0.38 h 0.49 z"
           id="path59" />
        <path
           class="cls-4"
           d="m 563.27,253.21 c -0.48,0.32 -1.08,0.43 -1.65,0.43 -1.37,0 -2.49,-0.99 -2.49,-2.5 0,-1.51 1.13,-2.46 2.49,-2.46 1.36,0 2.44,1 2.44,2.51 0,0.26 -0.21,0.44 -0.44,0.44 h -3.08 c 0.07,0.55 0.67,0.79 1.18,0.79 0.29,0 0.53,-0.02 0.83,-0.22 0.33,-0.23 0.7,-0.16 0.9,0.07 0.26,0.31 0.16,0.75 -0.18,0.95 z m -0.64,-2.48 c -0.07,-0.58 -0.47,-0.87 -1,-0.87 -0.53,0 -0.94,0.27 -1.06,0.87 z"
           id="path60" />
      </g>
      <g
         id="g61">
        <rect
           class="cls-4"
           x="183.92999"
           y="285.54001"
           width="671.53998"
           height="14.84"
           rx="0.25999999"
           ry="0.25999999"
           id="rect60" />
        <path
           class="cls-3"
           d="m 854.61,286.39 v 13.14 H 184.78 v -13.14 h 669.83 m 0.59,-1.7 H 184.18 c -0.61,0 -1.11,0.5 -1.11,1.11 v 14.33 c 0,0.61 0.5,1.11 1.11,1.11 H 855.2 c 0.61,0 1.11,-0.5 1.11,-1.11 V 285.8 c 0,-0.61 -0.5,-1.11 -1.11,-1.11 z"
           id="path61" />
      </g>
      <rect
         class="cls-3"
         x="176.28999"
         y="310.07001"
         width="695.56"
         height="1.71"
         id="rect61" />
      <circle
         class="cls-3"
         cx="187.75"
         cy="273.14001"
         r="4.6799998"
         id="circle61" />
      <circle
         class="cls-3"
         cx="199.31"
         cy="273.14001"
         r="4.6799998"
         id="circle62" />
      <circle
         class="cls-3"
         cx="210.87"
         cy="273.14001"
         r="4.6799998"
         id="circle63" />
      <g
         id="g79">
        <path
           class="cls-3"
           d="m 478.64,293.37 c 0,-1.5 1.11,-2.46 2.51,-2.46 1.4,0 2.51,0.96 2.51,2.46 0,1.5 -1.12,2.5 -2.51,2.5 -1.39,0 -2.51,-0.99 -2.51,-2.5 z m 3.59,0 c 0,-0.64 -0.49,-1.08 -1.08,-1.08 -0.59,0 -1.07,0.44 -1.07,1.08 0,0.64 0.49,1.12 1.07,1.12 0.58,0 1.08,-0.46 1.08,-1.12 z"
           id="path63" />
        <path
           class="cls-3"
           d="m 487.52,290.9 c 1.22,0 2.32,0.89 2.32,2.47 0,1.58 -1.1,2.49 -2.32,2.49 -0.54,0 -1.13,-0.27 -1.43,-0.77 v 2.37 c 0,0.35 -0.34,0.63 -0.72,0.63 -0.38,0 -0.71,-0.27 -0.71,-0.63 v -5.89 c 0,-0.36 0.33,-0.63 0.71,-0.63 0.38,0 0.71,0.29 0.72,0.63 v 0.09 c 0.41,-0.63 1.13,-0.77 1.43,-0.77 z m -0.27,1.28 c -0.64,0 -1.17,0.57 -1.17,1.21 0,0.64 0.52,1.21 1.17,1.21 0.72,0 1.13,-0.57 1.13,-1.21 0,-0.64 -0.41,-1.21 -1.13,-1.21 z"
           id="path64" />
        <path
           class="cls-3"
           d="m 494.74,295.44 c -0.48,0.32 -1.08,0.43 -1.65,0.43 -1.37,0 -2.49,-0.99 -2.49,-2.5 0,-1.51 1.13,-2.46 2.49,-2.46 1.36,0 2.44,1 2.44,2.51 0,0.25 -0.21,0.44 -0.44,0.44 h -3.08 c 0.07,0.55 0.67,0.79 1.18,0.79 0.29,0 0.53,-0.02 0.83,-0.22 0.33,-0.23 0.7,-0.16 0.9,0.07 0.26,0.31 0.16,0.75 -0.18,0.95 z m -0.64,-2.48 c -0.07,-0.58 -0.47,-0.87 -1,-0.87 -0.53,0 -0.94,0.26 -1.06,0.87 z"
           id="path65" />
        <path
           class="cls-3"
           d="m 497.83,291.69 c 0.25,-0.48 0.82,-0.8 1.38,-0.8 1.07,0 1.76,0.66 1.76,2.02 v 2.27 c 0,0.36 -0.33,0.63 -0.72,0.63 -0.39,0 -0.7,-0.29 -0.72,-0.63 v -1.96 c 0,-0.63 -0.35,-0.95 -0.83,-0.95 -0.48,0 -0.88,0.25 -0.88,0.97 v 1.94 c 0,0.36 -0.33,0.63 -0.72,0.63 -0.39,0 -0.71,-0.29 -0.72,-0.63 v -3.61 c 0,-0.35 0.34,-0.63 0.72,-0.63 0.38,0 0.72,0.28 0.72,0.63 v 0.11 z"
           id="path66" />
        <path
           class="cls-3"
           d="m 509.66,295.19 c 0,0.36 -0.33,0.63 -0.72,0.63 -0.39,0 -0.71,-0.29 -0.72,-0.63 v -1.96 c 0,-0.62 -0.38,-0.95 -0.8,-0.95 -0.45,0 -0.81,0.28 -0.81,0.97 v 1.94 c 0,0.36 -0.33,0.63 -0.72,0.63 -0.39,0 -0.71,-0.29 -0.72,-0.63 v -1.99 c 0,-0.6 -0.38,-0.92 -0.79,-0.92 -0.41,0 -0.83,0.25 -0.83,0.97 v 1.94 c 0,0.36 -0.33,0.63 -0.72,0.63 -0.39,0 -0.71,-0.29 -0.72,-0.63 v -3.61 c 0,-0.35 0.34,-0.63 0.72,-0.63 0.38,0 0.72,0.28 0.72,0.63 v 0.11 c 0.22,-0.5 0.74,-0.79 1.25,-0.79 0.76,0 1.26,0.25 1.58,0.9 0.35,-0.76 1.05,-0.91 1.39,-0.91 1.14,0 1.86,0.73 1.87,2.17 v 2.13 z"
           id="path67" />
        <path
           class="cls-3"
           d="m 513.94,295.08 c -0.25,0.48 -0.82,0.79 -1.38,0.79 -1.07,0 -1.76,-0.53 -1.76,-1.89 v -2.39 c 0,-0.36 0.33,-0.63 0.72,-0.63 0.39,0 0.7,0.29 0.72,0.63 v 1.96 c 0,0.63 0.23,0.94 0.83,0.94 0.5,0 0.88,-0.24 0.88,-0.96 v -1.94 c 0,-0.36 0.33,-0.63 0.72,-0.63 0.39,0 0.71,0.29 0.72,0.63 v 3.61 c 0,0.35 -0.34,0.63 -0.72,0.63 -0.38,0 -0.72,-0.28 -0.72,-0.63 v -0.11 z"
           id="path68" />
        <path
           class="cls-3"
           d="m 516.62,294.14 c 0.32,-0.14 0.61,0 0.77,0.17 0.26,0.28 0.56,0.42 0.9,0.42 0.32,0 0.61,-0.05 0.61,-0.3 0,-0.2 -0.12,-0.28 -0.47,-0.39 l -0.54,-0.19 c -1.43,-0.48 -1.42,-1.16 -1.42,-1.6 0,-0.71 0.85,-1.36 1.85,-1.36 0.69,0 1.39,0.21 1.72,0.79 0.17,0.31 0.09,0.6 -0.12,0.73 -0.32,0.18 -0.61,0.11 -0.91,-0.11 -0.2,-0.15 -0.39,-0.21 -0.57,-0.21 -0.31,0 -0.52,0.1 -0.52,0.29 0,0.15 0.12,0.25 0.41,0.34 l 0.73,0.24 c 1.16,0.38 1.3,1.13 1.3,1.43 0,1.01 -1.06,1.49 -2.06,1.49 -0.77,0 -1.67,-0.32 -1.91,-1.02 -0.1,-0.3 0.02,-0.61 0.26,-0.72 z"
           id="path69" />
        <path
           class="cls-3"
           d="m 522,288.4 c 0.48,0 0.87,0.36 0.87,0.83 0,0.47 -0.39,0.84 -0.87,0.84 -0.48,0 -0.89,-0.37 -0.89,-0.84 0,-0.47 0.41,-0.83 0.89,-0.83 z m 0.72,6.79 c 0,0.36 -0.33,0.63 -0.72,0.63 -0.39,0 -0.71,-0.29 -0.72,-0.63 v -3.61 c 0,-0.35 0.34,-0.63 0.72,-0.63 0.38,0 0.72,0.28 0.72,0.63 z"
           id="path70" />
        <path
           class="cls-3"
           d="m 526.31,294.49 c 0.26,0 0.5,-0.07 0.71,-0.18 0.25,-0.14 0.67,-0.2 0.93,0.05 0.29,0.29 0.24,0.81 -0.09,1.04 -0.43,0.31 -0.97,0.47 -1.54,0.47 -1.37,0 -2.62,-0.96 -2.62,-2.46 v -0.03 c 0,-1.5 1.25,-2.46 2.62,-2.46 0.57,0 1.11,0.16 1.54,0.47 0.34,0.23 0.38,0.76 0.09,1.04 -0.26,0.26 -0.68,0.19 -0.93,0.05 -0.2,-0.11 -0.45,-0.18 -0.71,-0.18 -0.61,0 -1.17,0.42 -1.17,1.08 v 0.03 c 0,0.66 0.55,1.08 1.17,1.08 z"
           id="path71" />
        <path
           class="cls-3"
           d="m 529.85,294.16 c 0.48,0 0.89,0.36 0.89,0.85 0,0.49 -0.41,0.86 -0.89,0.86 -0.48,0 -0.88,-0.36 -0.88,-0.86 0,-0.5 0.4,-0.85 0.88,-0.85 z"
           id="path72" />
        <path
           class="cls-3"
           d="m 535.38,291.58 c 0,-0.35 0.34,-0.63 0.72,-0.63 0.38,0 0.72,0.28 0.72,0.63 v 3.61 c 0,0.36 -0.33,0.63 -0.72,0.63 -0.39,0 -0.71,-0.29 -0.72,-0.63 v -0.09 c -0.31,0.5 -0.89,0.77 -1.43,0.77 -1.22,0 -2.32,-0.9 -2.32,-2.49 0,-1.59 1.1,-2.47 2.32,-2.47 0.31,0 1.02,0.13 1.43,0.77 v -0.09 z m -1.15,3.02 c 0.64,0 1.17,-0.57 1.17,-1.21 0,-0.64 -0.52,-1.21 -1.17,-1.21 -0.72,0 -1.13,0.57 -1.13,1.21 0,0.64 0.41,1.21 1.13,1.21 z"
           id="path73" />
        <path
           class="cls-3"
           d="m 540.41,294.49 c 0.26,0 0.5,-0.07 0.71,-0.18 0.25,-0.14 0.67,-0.2 0.93,0.05 0.29,0.29 0.24,0.81 -0.09,1.04 -0.43,0.31 -0.97,0.47 -1.54,0.47 -1.37,0 -2.62,-0.96 -2.62,-2.46 v -0.03 c 0,-1.5 1.25,-2.46 2.62,-2.46 0.57,0 1.11,0.16 1.54,0.47 0.34,0.23 0.38,0.76 0.09,1.04 -0.26,0.26 -0.68,0.19 -0.93,0.05 -0.2,-0.11 -0.45,-0.18 -0.71,-0.18 -0.61,0 -1.17,0.42 -1.17,1.08 v 0.03 c 0,0.66 0.55,1.08 1.17,1.08 z"
           id="path74" />
        <path
           class="cls-3"
           d="m 546.69,291.58 c 0,-0.35 0.34,-0.63 0.72,-0.63 0.38,0 0.71,0.28 0.71,0.63 v 3.61 c 0,0.36 -0.33,0.63 -0.71,0.63 -0.38,0 -0.71,-0.29 -0.72,-0.63 v -0.09 c -0.31,0.5 -0.89,0.77 -1.43,0.77 -1.22,0 -2.32,-0.9 -2.32,-2.49 0,-1.59 1.1,-2.47 2.32,-2.47 0.31,0 1.02,0.13 1.43,0.77 v -0.09 z m -1.16,3.02 c 0.64,0 1.17,-0.57 1.17,-1.21 0,-0.64 -0.52,-1.21 -1.17,-1.21 -0.72,0 -1.13,0.57 -1.13,1.21 0,0.64 0.41,1.21 1.13,1.21 z"
           id="path75" />
        <path
           class="cls-3"
           d="m 552.86,288.98 c 0,-0.35 0.34,-0.63 0.72,-0.63 0.38,0 0.72,0.28 0.72,0.63 v 6.21 c 0,0.36 -0.33,0.63 -0.72,0.63 -0.39,0 -0.71,-0.29 -0.72,-0.63 v -0.09 c -0.31,0.5 -0.89,0.77 -1.43,0.77 -1.22,0 -2.32,-0.9 -2.32,-2.49 0,-1.59 1.1,-2.47 2.32,-2.47 0.31,0 1.02,0.13 1.43,0.77 v -2.69 z m -1.16,5.62 c 0.64,0 1.17,-0.57 1.17,-1.21 0,-0.64 -0.52,-1.21 -1.17,-1.21 -0.72,0 -1.13,0.57 -1.13,1.21 0,0.64 0.41,1.21 1.13,1.21 z"
           id="path76" />
        <path
           class="cls-3"
           d="m 559.43,295.44 c -0.48,0.32 -1.08,0.43 -1.65,0.43 -1.37,0 -2.49,-0.99 -2.49,-2.5 0,-1.51 1.13,-2.46 2.49,-2.46 1.36,0 2.44,1 2.44,2.51 0,0.25 -0.21,0.44 -0.44,0.44 h -3.08 c 0.07,0.55 0.67,0.79 1.18,0.79 0.29,0 0.53,-0.02 0.83,-0.22 0.33,-0.23 0.7,-0.16 0.9,0.07 0.26,0.31 0.16,0.75 -0.18,0.95 z m -0.64,-2.48 c -0.07,-0.58 -0.47,-0.87 -1,-0.87 -0.53,0 -0.94,0.26 -1.06,0.87 z"
           id="path77" />
        <path
           class="cls-3"
           d="m 568.6,295.19 c 0,0.36 -0.33,0.63 -0.72,0.63 -0.39,0 -0.71,-0.29 -0.72,-0.63 v -1.96 c 0,-0.62 -0.38,-0.95 -0.8,-0.95 -0.45,0 -0.81,0.28 -0.81,0.97 v 1.94 c 0,0.36 -0.33,0.63 -0.72,0.63 -0.39,0 -0.71,-0.29 -0.72,-0.63 v -1.99 c 0,-0.6 -0.38,-0.92 -0.79,-0.92 -0.41,0 -0.83,0.25 -0.83,0.97 v 1.94 c 0,0.36 -0.33,0.63 -0.72,0.63 -0.39,0 -0.71,-0.29 -0.72,-0.63 v -3.61 c 0,-0.35 0.34,-0.63 0.72,-0.63 0.38,0 0.72,0.28 0.72,0.63 v 0.11 c 0.22,-0.5 0.74,-0.79 1.25,-0.79 0.76,0 1.26,0.25 1.58,0.9 0.35,-0.76 1.05,-0.91 1.39,-0.91 1.14,0 1.86,0.73 1.87,2.17 v 2.13 z"
           id="path78" />
        <path
           class="cls-3"
           d="m 571.41,297.73 c -0.13,0.32 -0.46,0.5 -0.9,0.4 -0.35,-0.08 -0.55,-0.49 -0.41,-0.86 l 0.8,-1.98 -1.48,-3.46 c -0.13,-0.37 0.07,-0.76 0.42,-0.85 0.45,-0.11 0.78,0.09 0.89,0.41 l 0.9,2.33 0.92,-2.33 c 0.11,-0.32 0.44,-0.52 0.89,-0.41 0.35,0.09 0.55,0.48 0.42,0.85 l -2.44,5.9 z"
           id="path79" />
      </g>
      <g
         id="g96">
        <path
           class="cls-3"
           d="m 478.64,293.37 c 0,-1.5 1.11,-2.46 2.51,-2.46 1.4,0 2.51,0.96 2.51,2.46 0,1.5 -1.12,2.5 -2.51,2.5 -1.39,0 -2.51,-0.99 -2.51,-2.5 z m 3.59,0 c 0,-0.64 -0.49,-1.08 -1.08,-1.08 -0.59,0 -1.07,0.44 -1.07,1.08 0,0.64 0.49,1.12 1.07,1.12 0.58,0 1.08,-0.46 1.08,-1.12 z"
           id="path80" />
        <path
           class="cls-3"
           d="m 487.52,290.9 c 1.22,0 2.32,0.89 2.32,2.47 0,1.58 -1.1,2.49 -2.32,2.49 -0.54,0 -1.13,-0.27 -1.43,-0.77 v 2.37 c 0,0.35 -0.34,0.63 -0.72,0.63 -0.38,0 -0.71,-0.27 -0.71,-0.63 v -5.89 c 0,-0.36 0.33,-0.63 0.71,-0.63 0.38,0 0.71,0.29 0.72,0.63 v 0.09 c 0.41,-0.63 1.13,-0.77 1.43,-0.77 z m -0.27,1.28 c -0.64,0 -1.17,0.57 -1.17,1.21 0,0.64 0.52,1.21 1.17,1.21 0.72,0 1.13,-0.57 1.13,-1.21 0,-0.64 -0.41,-1.21 -1.13,-1.21 z"
           id="path81" />
        <path
           class="cls-3"
           d="m 494.74,295.44 c -0.48,0.32 -1.08,0.43 -1.65,0.43 -1.37,0 -2.49,-0.99 -2.49,-2.5 0,-1.51 1.13,-2.46 2.49,-2.46 1.36,0 2.44,1 2.44,2.51 0,0.25 -0.21,0.44 -0.44,0.44 h -3.08 c 0.07,0.55 0.67,0.79 1.18,0.79 0.29,0 0.53,-0.02 0.83,-0.22 0.33,-0.23 0.7,-0.16 0.9,0.07 0.26,0.31 0.16,0.75 -0.18,0.95 z m -0.64,-2.48 c -0.07,-0.58 -0.47,-0.87 -1,-0.87 -0.53,0 -0.94,0.26 -1.06,0.87 z"
           id="path82" />
        <path
           class="cls-3"
           d="m 497.83,291.69 c 0.25,-0.48 0.82,-0.8 1.38,-0.8 1.07,0 1.76,0.66 1.76,2.02 v 2.27 c 0,0.36 -0.33,0.63 -0.72,0.63 -0.39,0 -0.7,-0.29 -0.72,-0.63 v -1.96 c 0,-0.63 -0.35,-0.95 -0.83,-0.95 -0.48,0 -0.88,0.25 -0.88,0.97 v 1.94 c 0,0.36 -0.33,0.63 -0.72,0.63 -0.39,0 -0.71,-0.29 -0.72,-0.63 v -3.61 c 0,-0.35 0.34,-0.63 0.72,-0.63 0.38,0 0.72,0.28 0.72,0.63 v 0.11 z"
           id="path83" />
        <path
           class="cls-3"
           d="m 509.66,295.19 c 0,0.36 -0.33,0.63 -0.72,0.63 -0.39,0 -0.71,-0.29 -0.72,-0.63 v -1.96 c 0,-0.62 -0.38,-0.95 -0.8,-0.95 -0.45,0 -0.81,0.28 -0.81,0.97 v 1.94 c 0,0.36 -0.33,0.63 -0.72,0.63 -0.39,0 -0.71,-0.29 -0.72,-0.63 v -1.99 c 0,-0.6 -0.38,-0.92 -0.79,-0.92 -0.41,0 -0.83,0.25 -0.83,0.97 v 1.94 c 0,0.36 -0.33,0.63 -0.72,0.63 -0.39,0 -0.71,-0.29 -0.72,-0.63 v -3.61 c 0,-0.35 0.34,-0.63 0.72,-0.63 0.38,0 0.72,0.28 0.72,0.63 v 0.11 c 0.22,-0.5 0.74,-0.79 1.25,-0.79 0.76,0 1.26,0.25 1.58,0.9 0.35,-0.76 1.05,-0.91 1.39,-0.91 1.14,0 1.86,0.73 1.87,2.17 v 2.13 z"
           id="path84" />
        <path
           class="cls-3"
           d="m 513.94,295.08 c -0.25,0.48 -0.82,0.79 -1.38,0.79 -1.07,0 -1.76,-0.53 -1.76,-1.89 v -2.39 c 0,-0.36 0.33,-0.63 0.72,-0.63 0.39,0 0.7,0.29 0.72,0.63 v 1.96 c 0,0.63 0.23,0.94 0.83,0.94 0.5,0 0.88,-0.24 0.88,-0.96 v -1.94 c 0,-0.36 0.33,-0.63 0.72,-0.63 0.39,0 0.71,0.29 0.72,0.63 v 3.61 c 0,0.35 -0.34,0.63 -0.72,0.63 -0.38,0 -0.72,-0.28 -0.72,-0.63 v -0.11 z"
           id="path85" />
        <path
           class="cls-3"
           d="m 516.62,294.14 c 0.32,-0.14 0.61,0 0.77,0.17 0.26,0.28 0.56,0.42 0.9,0.42 0.32,0 0.61,-0.05 0.61,-0.3 0,-0.2 -0.12,-0.28 -0.47,-0.39 l -0.54,-0.19 c -1.43,-0.48 -1.42,-1.16 -1.42,-1.6 0,-0.71 0.85,-1.36 1.85,-1.36 0.69,0 1.39,0.21 1.72,0.79 0.17,0.31 0.09,0.6 -0.12,0.73 -0.32,0.18 -0.61,0.11 -0.91,-0.11 -0.2,-0.15 -0.39,-0.21 -0.57,-0.21 -0.31,0 -0.52,0.1 -0.52,0.29 0,0.15 0.12,0.25 0.41,0.34 l 0.73,0.24 c 1.16,0.38 1.3,1.13 1.3,1.43 0,1.01 -1.06,1.49 -2.06,1.49 -0.77,0 -1.67,-0.32 -1.91,-1.02 -0.1,-0.3 0.02,-0.61 0.26,-0.72 z"
           id="path86" />
        <path
           class="cls-3"
           d="m 522,288.4 c 0.48,0 0.87,0.36 0.87,0.83 0,0.47 -0.39,0.84 -0.87,0.84 -0.48,0 -0.89,-0.37 -0.89,-0.84 0,-0.47 0.41,-0.83 0.89,-0.83 z m 0.72,6.79 c 0,0.36 -0.33,0.63 -0.72,0.63 -0.39,0 -0.71,-0.29 -0.72,-0.63 v -3.61 c 0,-0.35 0.34,-0.63 0.72,-0.63 0.38,0 0.72,0.28 0.72,0.63 z"
           id="path87" />
        <path
           class="cls-3"
           d="m 526.31,294.49 c 0.26,0 0.5,-0.07 0.71,-0.18 0.25,-0.14 0.67,-0.2 0.93,0.05 0.29,0.29 0.24,0.81 -0.09,1.04 -0.43,0.31 -0.97,0.47 -1.54,0.47 -1.37,0 -2.62,-0.96 -2.62,-2.46 v -0.03 c 0,-1.5 1.25,-2.46 2.62,-2.46 0.57,0 1.11,0.16 1.54,0.47 0.34,0.23 0.38,0.76 0.09,1.04 -0.26,0.26 -0.68,0.19 -0.93,0.05 -0.2,-0.11 -0.45,-0.18 -0.71,-0.18 -0.61,0 -1.17,0.42 -1.17,1.08 v 0.03 c 0,0.66 0.55,1.08 1.17,1.08 z"
           id="path88" />
        <path
           class="cls-3"
           d="m 529.85,294.16 c 0.48,0 0.89,0.36 0.89,0.85 0,0.49 -0.41,0.86 -0.89,0.86 -0.48,0 -0.88,-0.36 -0.88,-0.86 0,-0.5 0.4,-0.85 0.88,-0.85 z"
           id="path89" />
        <path
           class="cls-3"
           d="m 535.38,291.58 c 0,-0.35 0.34,-0.63 0.72,-0.63 0.38,0 0.72,0.28 0.72,0.63 v 3.61 c 0,0.36 -0.33,0.63 -0.72,0.63 -0.39,0 -0.71,-0.29 -0.72,-0.63 v -0.09 c -0.31,0.5 -0.89,0.77 -1.43,0.77 -1.22,0 -2.32,-0.9 -2.32,-2.49 0,-1.59 1.1,-2.47 2.32,-2.47 0.31,0 1.02,0.13 1.43,0.77 v -0.09 z m -1.15,3.02 c 0.64,0 1.17,-0.57 1.17,-1.21 0,-0.64 -0.52,-1.21 -1.17,-1.21 -0.72,0 -1.13,0.57 -1.13,1.21 0,0.64 0.41,1.21 1.13,1.21 z"
           id="path90" />
        <path
           class="cls-3"
           d="m 540.41,294.49 c 0.26,0 0.5,-0.07 0.71,-0.18 0.25,-0.14 0.67,-0.2 0.93,0.05 0.29,0.29 0.24,0.81 -0.09,1.04 -0.43,0.31 -0.97,0.47 -1.54,0.47 -1.37,0 -2.62,-0.96 -2.62,-2.46 v -0.03 c 0,-1.5 1.25,-2.46 2.62,-2.46 0.57,0 1.11,0.16 1.54,0.47 0.34,0.23 0.38,0.76 0.09,1.04 -0.26,0.26 -0.68,0.19 -0.93,0.05 -0.2,-0.11 -0.45,-0.18 -0.71,-0.18 -0.61,0 -1.17,0.42 -1.17,1.08 v 0.03 c 0,0.66 0.55,1.08 1.17,1.08 z"
           id="path91" />
        <path
           class="cls-3"
           d="m 546.69,291.58 c 0,-0.35 0.34,-0.63 0.72,-0.63 0.38,0 0.71,0.28 0.71,0.63 v 3.61 c 0,0.36 -0.33,0.63 -0.71,0.63 -0.38,0 -0.71,-0.29 -0.72,-0.63 v -0.09 c -0.31,0.5 -0.89,0.77 -1.43,0.77 -1.22,0 -2.32,-0.9 -2.32,-2.49 0,-1.59 1.1,-2.47 2.32,-2.47 0.31,0 1.02,0.13 1.43,0.77 v -0.09 z m -1.16,3.02 c 0.64,0 1.17,-0.57 1.17,-1.21 0,-0.64 -0.52,-1.21 -1.17,-1.21 -0.72,0 -1.13,0.57 -1.13,1.21 0,0.64 0.41,1.21 1.13,1.21 z"
           id="path92" />
        <path
           class="cls-3"
           d="m 552.86,288.98 c 0,-0.35 0.34,-0.63 0.72,-0.63 0.38,0 0.72,0.28 0.72,0.63 v 6.21 c 0,0.36 -0.33,0.63 -0.72,0.63 -0.39,0 -0.71,-0.29 -0.72,-0.63 v -0.09 c -0.31,0.5 -0.89,0.77 -1.43,0.77 -1.22,0 -2.32,-0.9 -2.32,-2.49 0,-1.59 1.1,-2.47 2.32,-2.47 0.31,0 1.02,0.13 1.43,0.77 v -2.69 z m -1.16,5.62 c 0.64,0 1.17,-0.57 1.17,-1.21 0,-0.64 -0.52,-1.21 -1.17,-1.21 -0.72,0 -1.13,0.57 -1.13,1.21 0,0.64 0.41,1.21 1.13,1.21 z"
           id="path93" />
        <path
           class="cls-3"
           d="m 559.43,295.44 c -0.48,0.32 -1.08,0.43 -1.65,0.43 -1.37,0 -2.49,-0.99 -2.49,-2.5 0,-1.51 1.13,-2.46 2.49,-2.46 1.36,0 2.44,1 2.44,2.51 0,0.25 -0.21,0.44 -0.44,0.44 h -3.08 c 0.07,0.55 0.67,0.79 1.18,0.79 0.29,0 0.53,-0.02 0.83,-0.22 0.33,-0.23 0.7,-0.16 0.9,0.07 0.26,0.31 0.16,0.75 -0.18,0.95 z m -0.64,-2.48 c -0.07,-0.58 -0.47,-0.87 -1,-0.87 -0.53,0 -0.94,0.26 -1.06,0.87 z"
           id="path94" />
        <path
           class="cls-3"
           d="m 568.6,295.19 c 0,0.36 -0.33,0.63 -0.72,0.63 -0.39,0 -0.71,-0.29 -0.72,-0.63 v -1.96 c 0,-0.62 -0.38,-0.95 -0.8,-0.95 -0.45,0 -0.81,0.28 -0.81,0.97 v 1.94 c 0,0.36 -0.33,0.63 -0.72,0.63 -0.39,0 -0.71,-0.29 -0.72,-0.63 v -1.99 c 0,-0.6 -0.38,-0.92 -0.79,-0.92 -0.41,0 -0.83,0.25 -0.83,0.97 v 1.94 c 0,0.36 -0.33,0.63 -0.72,0.63 -0.39,0 -0.71,-0.29 -0.72,-0.63 v -3.61 c 0,-0.35 0.34,-0.63 0.72,-0.63 0.38,0 0.72,0.28 0.72,0.63 v 0.11 c 0.22,-0.5 0.74,-0.79 1.25,-0.79 0.76,0 1.26,0.25 1.58,0.9 0.35,-0.76 1.05,-0.91 1.39,-0.91 1.14,0 1.86,0.73 1.87,2.17 v 2.13 z"
           id="path95" />
        <path
           class="cls-3"
           d="m 571.41,297.73 c -0.13,0.32 -0.46,0.5 -0.9,0.4 -0.35,-0.08 -0.55,-0.49 -0.41,-0.86 l 0.8,-1.98 -1.48,-3.46 c -0.13,-0.37 0.07,-0.76 0.42,-0.85 0.45,-0.11 0.78,0.09 0.89,0.41 l 0.9,2.33 0.92,-2.33 c 0.11,-0.32 0.44,-0.52 0.89,-0.41 0.35,0.09 0.55,0.48 0.42,0.85 l -2.44,5.9 z"
           id="path96" />
      </g>
      <g
         id="g99">
        <path
           class="cls-5"
           d="m 224.84,331.88 v 6.75 c 0,1.05 -0.76,1.78 -1.78,1.78 -1.02,0 -1.8,-0.73 -1.8,-1.78 v -6.23 c 0,-1.89 -1.05,-3.09 -2.74,-3.09 -1.69,0 -2.74,1.19 -2.74,3.09 v 6.23 c 0,1.05 -0.73,1.78 -1.78,1.78 -1.05,0 -1.8,-0.73 -1.8,-1.78 v -6.23 c 0,-1.89 -1.05,-3.09 -2.74,-3.09 -1.69,0 -2.74,1.19 -2.74,3.09 v 6.23 c 0,1.05 -0.73,1.78 -1.78,1.78 -1.05,0 -1.78,-0.73 -1.78,-1.78 v -10.56 c 0,-1.05 0.73,-1.78 1.75,-1.78 1.02,0 1.72,0.64 1.8,1.6 0.84,-1.16 2.18,-1.89 3.84,-1.89 2.04,0 3.58,0.9 4.45,2.53 0.82,-1.37 2.24,-2.53 4.45,-2.53 3.23,0 5.36,2.15 5.36,5.88 z"
           id="path97" />
        <path
           class="cls-5"
           d="m 241.43,328.07 v 10.56 c 0,1.05 -0.73,1.78 -1.78,1.78 -1.05,0 -1.75,-0.67 -1.8,-1.63 -0.99,1.19 -2.42,1.92 -4.25,1.92 -3.7,0 -6.69,-3 -6.69,-7.36 0,-4.36 2.82,-7.33 6.69,-7.33 1.83,0 3.26,0.67 4.25,1.83 0.12,-0.93 0.81,-1.54 1.8,-1.54 1.05,0 1.78,0.73 1.78,1.78 z m -3.58,5.27 c 0,-2.24 -1.54,-4.02 -3.67,-4.02 -2.13,0 -3.73,1.78 -3.73,4.02 0,2.24 1.57,4.05 3.73,4.05 2.16,0 3.67,-1.8 3.67,-4.05 z"
           id="path98" />
        <path
           class="cls-5"
           d="m 196.07,326.31 v 3.67 c 0.99,0.71 1.62,1.94 1.62,3.36 0,2.24 -1.54,4.05 -3.67,4.05 -2.13,0 -3.73,-1.8 -3.73,-4.05 0,-1.42 0.63,-2.65 1.65,-3.37 v -3.67 c -3.01,0.89 -5.2,3.71 -5.2,7.04 0,4.07 3.23,7.36 7.25,7.36 4.02,0 7.28,-3.29 7.28,-7.36 0,-3.32 -2.18,-6.13 -5.2,-7.03 z"
           id="path99" />
      </g>
      <path
         class="cls-5"
         d="m 867.77,629.72 h -687.4 c -1.31,0 -2.38,-1.06 -2.38,-2.38 V 351.55 h 692.15 v 275.79 c 0,1.31 -1.06,2.38 -2.38,2.38 z"
         id="path100" />
      <rect
         class="cls-2"
         x="397.26001"
         y="480.23001"
         width="252.94"
         height="27.83"
         rx="4.46"
         ry="4.46"
         id="rect100" />
      <g
         class="cls-6"
         clip-path="url(#clippath)"
         id="g181">
        <g
           id="g180">
          <g
             id="g152">
            <path
               class="cls-2"
               d="m 202.31,536.06 c -5.32,-1.12 -26.05,-5.49 -34.6,5.02 -4.53,5.57 -5.04,14.57 -4.13,20.05 0.31,1.86 0.73,3 0.84,5.36 0.32,6.86 -2.52,12.22 -3.81,14.33 -3.43,5.63 -7.99,7.95 -11.59,10.4 -9.13,6.2 -18.78,17.8 -21.06,30.06 -3.26,17.48 9.21,32.18 11.09,34.33 7.95,9.1 17.44,13.16 27.33,16.51 8.2,2.78 18.75,5.68 32.45,4.04 6.31,-0.75 15.37,-1.83 23.48,-8.38 10.53,-8.51 14.71,-22.46 14.15,-33.38 -0.35,-6.75 -2.67,-15.16 -5.33,-24.84 -1.8,-6.54 -3.42,-11.22 -1.37,-16.43 1.02,-2.57 1.84,-2.52 6.93,-9.52 6.57,-9.05 6.64,-11.14 6.42,-12.49 -0.55,-3.27 -3.51,-6.24 -6.65,-7.11 -3.95,-1.09 -5.42,1.9 -10.67,1.52 -0.58,-0.04 -7.02,-0.59 -9.68,-5.22 -1.38,-2.4 -1.66,-5.01 -1.3,-8.66 0.62,-6.2 2.28,-8.43 1.26,-10.82 -0.96,-2.24 -3.05,-2.05 -10.97,-4.08 -0.24,-0.06 -1.74,-0.45 -2.79,-0.67"
               id="path101" />
            <path
               class="cls-5"
               d="m 190.99,676.95 c -9.79,0 -17.89,-2.22 -24.73,-4.53 -8.91,-3.02 -19.12,-7.04 -27.48,-16.6 -2.42,-2.77 -14.35,-17.48 -11.16,-34.61 2.34,-12.55 12.33,-24.25 21.2,-30.27 0.57,-0.38 1.15,-0.76 1.76,-1.15 3.23,-2.09 6.89,-4.45 9.74,-9.14 1.53,-2.52 4.06,-7.71 3.76,-14.15 -0.07,-1.58 -0.29,-2.61 -0.52,-3.69 -0.11,-0.51 -0.22,-1.03 -0.32,-1.63 -0.78,-4.67 -0.77,-14.2 4.2,-20.31 3.69,-4.54 10.01,-6.89 18.77,-6.99 6.96,-0.08 13.41,1.28 16.16,1.86 v 0 c 0.95,0.2 2.27,0.54 2.8,0.67 1.97,0.5 3.59,0.88 4.89,1.17 4.01,0.92 5.52,1.26 6.3,3.1 0.63,1.48 0.31,2.89 -0.19,5.01 -0.35,1.51 -0.79,3.39 -1.05,5.97 -0.38,3.8 -0.02,6.25 1.25,8.47 2.56,4.44 8.73,5 9.42,5.05 2.49,0.18 4.13,-0.43 5.57,-0.97 1.56,-0.58 3.04,-1.13 5.16,-0.54 3.38,0.94 6.34,4.11 6.88,7.38 0.26,1.57 -0.02,3.85 -6.48,12.74 -2.25,3.1 -3.69,4.84 -4.64,5.99 -1.2,1.46 -1.7,2.06 -2.25,3.45 -1.85,4.68 -0.68,8.86 0.94,14.66 0.14,0.51 0.29,1.03 0.43,1.56 2.68,9.73 4.99,18.13 5.34,24.91 0.51,9.8 -2.92,24.49 -14.27,33.66 -8.18,6.61 -17.49,7.72 -23.65,8.45 -2.74,0.33 -5.36,0.47 -7.86,0.47 z m -4.26,-142.38 c -7.56,0 -14.66,1.66 -18.77,6.72 -4.82,5.92 -4.82,15.22 -4.06,19.78 0.1,0.58 0.21,1.1 0.31,1.6 0.24,1.11 0.46,2.16 0.53,3.79 0.31,6.61 -2.28,11.94 -3.86,14.52 -2.93,4.82 -6.66,7.23 -9.94,9.35 -0.6,0.39 -1.18,0.77 -1.75,1.15 -8.75,5.94 -18.62,17.48 -20.92,29.85 -3.14,16.83 8.62,31.32 11.01,34.05 8.25,9.44 18.36,13.42 27.19,16.41 8.51,2.88 19.01,5.61 32.3,4.03 6.45,-0.77 15.27,-1.82 23.31,-8.31 11.15,-9.01 14.52,-23.46 14.02,-33.11 -0.35,-6.71 -2.65,-15.08 -5.32,-24.77 -0.15,-0.53 -0.29,-1.05 -0.43,-1.56 -1.59,-5.7 -2.85,-10.19 -0.92,-15.08 0.59,-1.49 1.1,-2.12 2.36,-3.63 0.95,-1.15 2.38,-2.88 4.61,-5.96 6.3,-8.68 6.59,-10.87 6.36,-12.24 -0.51,-3.03 -3.26,-5.98 -6.41,-6.85 -1.92,-0.53 -3.23,-0.04 -4.75,0.53 -1.51,0.56 -3.22,1.2 -5.85,1.01 -0.73,-0.05 -7.22,-0.65 -9.95,-5.38 -1.35,-2.34 -1.74,-4.91 -1.34,-8.86 0.26,-2.62 0.71,-4.52 1.06,-6.05 0.48,-2.07 0.77,-3.32 0.23,-4.6 -0.65,-1.53 -1.96,-1.83 -5.84,-2.72 -1.31,-0.3 -2.93,-0.67 -4.9,-1.18 -0.53,-0.13 -1.84,-0.47 -2.78,-0.66 l 0.07,-0.32 -0.07,0.32 c -4.83,-1.02 -10.28,-1.81 -15.51,-1.81 z"
               id="path102" />
            <path
               class="cls-5"
               d="m 211.14,627.1 c -0.03,-0.29 -0.37,-0.45 -0.61,-0.28 -0.88,0.64 -3.01,1.66 -6.64,0.56 -4.98,-1.51 -6.4,-5.07 -6.4,-5.07 l -11.03,-3.34 -0.78,-0.23 -11.03,-3.34 c 0,0 -3.15,2.18 -8.14,0.67 -3.63,-1.1 -4.83,-3.13 -5.22,-4.15 -0.1,-0.28 -0.47,-0.33 -0.66,-0.11 -1.33,1.57 -1.69,3.65 -0.92,5.33 0.69,1.5 2.21,2.19 3,2.52 3.77,1.55 16.25,5.52 20.95,6.95 4.76,1.44 17.39,5.06 21.39,5.86 0.83,0.17 2.48,0.43 3.89,-0.43 1.57,-0.96 2.43,-2.9 2.19,-4.94"
               id="path103" />
            <path
               class="cls-5"
               d="m 206.6,632.98 c -0.71,0 -1.3,-0.12 -1.6,-0.18 -4.13,-0.83 -17.16,-4.58 -21.42,-5.87 -4.23,-1.28 -17.08,-5.36 -20.98,-6.96 -0.59,-0.24 -2.39,-0.98 -3.17,-2.68 -0.82,-1.79 -0.44,-4.02 0.97,-5.68 0.17,-0.2 0.42,-0.29 0.67,-0.24 0.25,0.04 0.46,0.21 0.55,0.45 0.39,1.03 1.55,2.9 5,3.95 4.76,1.44 7.82,-0.61 7.85,-0.63 l 0.13,-0.09 0.15,0.05 22.98,6.95 0.06,0.15 c 0,0 1.43,3.44 6.19,4.88 3.45,1.04 5.46,0.13 6.35,-0.51 0.21,-0.15 0.47,-0.18 0.7,-0.07 0.24,0.1 0.4,0.32 0.43,0.58 v 0 c 0.25,2.17 -0.67,4.23 -2.34,5.26 -0.83,0.51 -1.75,0.65 -2.53,0.65 z m -45.65,-20.96 c 0,0 -0.03,0 -0.05,0.02 -1.25,1.47 -1.59,3.42 -0.87,4.98 0.61,1.31 1.9,1.97 2.82,2.35 3.62,1.49 15.72,5.36 20.92,6.94 5.24,1.58 17.52,5.09 21.36,5.85 0.98,0.2 2.42,0.37 3.65,-0.39 1.46,-0.9 2.26,-2.71 2.03,-4.62 v 0 c 0,0 -0.02,-0.04 -0.04,-0.05 -0.03,-0.01 -0.05,0 -0.05,0 -0.99,0.71 -3.2,1.74 -6.93,0.61 -4.55,-1.38 -6.21,-4.4 -6.54,-5.12 l -22.54,-6.82 c -0.68,0.41 -3.73,2.01 -8.28,0.63 -3.73,-1.13 -5,-3.21 -5.43,-4.35 0,0 -0.01,-0.03 -0.04,-0.03 z"
               id="path104" />
            <rect
               class="cls-1"
               x="127.08"
               y="404.20999"
               width="175.74001"
               height="284.01001"
               id="rect104" />
            <rect
               class="cls-2"
               x="182.67999"
               y="612.25"
               width="4.4000001"
               height="20.65"
               transform="rotate(-73.17,184.85852,622.56141)"
               id="rect105" />
            <path
               class="cls-5"
               d="m 198.32,597.95 c -1.8,0 -3.6,-0.26 -5.37,-0.8 -9.74,-2.95 -15.27,-13.27 -12.32,-23.01 2.95,-9.74 13.27,-15.27 23.01,-12.32 9.74,2.95 15.27,13.27 12.32,23.01 -1.43,4.72 -4.61,8.6 -8.95,10.92 -2.72,1.46 -5.69,2.19 -8.69,2.19 z M 198.3,561.7 c -7.64,0 -14.72,4.96 -17.04,12.64 -2.84,9.39 2.49,19.34 11.88,22.18 4.55,1.38 9.36,0.9 13.55,-1.35 4.19,-2.25 7.26,-5.98 8.63,-10.53 2.84,-9.39 -2.49,-19.34 -11.88,-22.18 -1.71,-0.52 -3.44,-0.76 -5.14,-0.76 z m 0.01,34.74 c -1.65,0 -3.31,-0.24 -4.93,-0.73 -8.94,-2.71 -14.01,-12.18 -11.31,-21.12 2.71,-8.94 12.18,-14.01 21.12,-11.31 4.33,1.31 7.89,4.23 10.03,8.22 2.14,3.99 2.59,8.57 1.28,12.9 -1.31,4.33 -4.23,7.89 -8.22,10.03 -2.5,1.34 -5.22,2.01 -7.98,2.01 z m -0.01,-33.23 c -6.99,0 -13.47,4.54 -15.59,11.57 -2.6,8.59 2.28,17.7 10.87,20.3 4.16,1.26 8.57,0.82 12.4,-1.23 3.83,-2.05 6.64,-5.48 7.9,-9.64 v 0 c 1.26,-4.16 0.82,-8.57 -1.23,-12.4 -2.05,-3.83 -5.48,-6.64 -9.64,-7.9 -1.57,-0.47 -3.15,-0.7 -4.71,-0.7 z"
               id="path105" />
            <path
               class="cls-5"
               d="m 211.76,583.57 c -2.25,7.44 -10.1,11.64 -17.54,9.39 -7.44,-2.25 -11.64,-10.1 -9.39,-17.54 2.25,-7.44 10.1,-11.64 17.54,-9.39 7.44,2.25 11.64,10.1 9.39,17.54"
               id="path106" />
            <path
               class="cls-2"
               d="m 233.82,405.12 2.52,0.75 c 0.09,0.03 0.18,-0.02 0.21,-0.11 l 0.76,-2.53 3.31,0.99 0.47,-1.58 -0.94,-0.28 v -0.04 c 0,0 -2.36,-0.71 -2.36,-0.71 l 0.69,-2.3 c 0.03,-0.09 -0.02,-0.18 -0.11,-0.21 l -0.83,-0.25 c 0,0 -0.05,-0.06 -0.1,-0.08 l -2.52,-0.75 c -0.48,-0.14 -0.99,0.13 -1.13,0.61 l -1.51,5.03 c -0.14,0.48 0.13,0.99 0.61,1.13 l 0.67,0.2 c 0.08,0.05 0.16,0.1 0.26,0.13"
               id="path107" />
            <path
               class="cls-2"
               d="m 236.05,421.66 -0.94,-0.28 v -0.04 c 0,0 -2.35,-0.71 -2.35,-0.71 l 0.63,-2.09 c 0.03,-0.09 -0.02,-0.18 -0.11,-0.21 l -0.83,-0.25 c 0,0 -0.05,-0.06 -0.1,-0.08 l -2.52,-0.75 c -0.48,-0.14 -0.99,0.13 -1.13,0.61 l -1.27,4.26 c -0.14,0.48 0.13,0.99 0.61,1.13 l 0.67,0.2 c 0.08,0.05 0.16,0.1 0.26,0.13 l 2.52,0.75 c 0.09,0.03 0.18,-0.02 0.21,-0.11 l 0.59,-1.97 3.3,0.99 0.47,-1.58 z"
               id="path108" />
            <path
               class="cls-2"
               d="m 234.55,412.33 3.31,0.99 0.47,-1.58 -0.94,-0.28 v -0.04 c 0,0 -2.36,-0.71 -2.36,-0.71 l 0.46,-1.53 -0.94,-0.28 v -0.04 c 0,0 -2.83,-0.85 -2.83,-0.85 -0.39,-0.12 -0.81,0.11 -0.93,0.5 l -1.04,3.48 c -0.12,0.39 0.11,0.81 0.5,0.93 l 0.7,0.21 c 0.07,0.05 0.14,0.09 0.22,0.11 l 2.84,0.85 0.52,-1.75 z"
               id="path109" />
            <path
               class="cls-2"
               d="m 261.21,432.32 1.73,-4.96 c 0.17,-0.48 -0.09,-0.99 -0.56,-1.16 l -2.49,-0.87 c -0.09,-0.03 -0.18,0.02 -0.21,0.1 l -0.87,2.49 -3.27,-1.14 -0.54,1.56 3.27,1.14 -0.81,2.31 c -0.03,0.09 0.02,0.18 0.1,0.21 l 2.49,0.87 c 0.48,0.17 0.99,-0.09 1.16,-0.56"
               id="path110" />
            <path
               class="cls-2"
               d="m 263.41,412.83 c -0.03,0.09 0.02,0.18 0.1,0.21 l 2.49,0.87 c 0.48,0.17 0.99,-0.09 1.16,-0.56 l 1.46,-4.2 c 0.17,-0.48 -0.09,-0.99 -0.56,-1.16 l -2.49,-0.87 c -0.09,-0.03 -0.18,0.02 -0.21,0.1 l -0.68,1.94 -3.25,-1.13 -0.54,1.56 3.25,1.13 z"
               id="path111" />
            <path
               class="cls-2"
               d="m 260.89,422.08 2.8,0.98 c 0.39,0.14 0.81,-0.07 0.95,-0.46 l 1.19,-3.43 c 0.14,-0.39 -0.07,-0.81 -0.46,-0.95 l -2.8,-0.98 -0.6,1.73 -3.27,-1.14 -0.54,1.56 3.27,1.14 z"
               id="path112" />
            <path
               class="cls-2"
               d="m 235.51,433.05 c 0,0 0.38,0.14 1.02,0.37 l -41.31,130.54 c -0.42,1.37 -0.53,1.27 0.89,1.7 l 11.42,3.44 c 1.29,0.39 1.31,0.3 1.68,-0.92 4.26,-14.07 33.01,-114.74 37.83,-131.04 0.23,0.08 0.46,0.15 0.68,0.22 2.65,-4.6 5.55,-3.09 5.48,-3.26 l 9.77,-27.77 c 0.53,-1.5 -0.27,-3.14 -1.77,-3.62 l -0.13,-0.04 0.39,-1.45 c 0.48,-1.8 -0.48,-3.66 -2.22,-4.28 l -9.16,-3.27 c -3.79,-1.35 -7.94,0.81 -9.05,4.72 -3.02,10.63 -8.22,29.31 -7.62,29.9 2.61,2.54 2.11,4.75 2.11,4.75"
               id="path113" />
            <path
               class="cls-5"
               d="m 208.48,569.63 c -0.25,0 -0.59,-0.08 -1.04,-0.21 l -11.59,-3.49 c -0.66,-0.2 -0.99,-0.3 -1.15,-0.6 -0.15,-0.29 -0.06,-0.59 0.12,-1.14 l 0.1,-0.33 41.21,-130.24 -1,-0.37 0.06,-0.28 c 0.02,-0.09 0.41,-2.09 -2.01,-4.45 -0.29,-0.28 -0.83,-0.81 7.53,-30.22 0.56,-1.96 1.91,-3.62 3.72,-4.55 1.81,-0.93 3.85,-1.07 5.76,-0.39 l 9.16,3.27 c 1.88,0.67 2.95,2.72 2.43,4.67 l -0.31,1.15 c 0.73,0.28 1.32,0.82 1.67,1.53 0.38,0.77 0.43,1.64 0.15,2.46 l -9.73,27.66 0.03,0.07 -0.13,0.16 c -0.14,0.16 -0.32,0.12 -0.48,0.09 -1.89,-0.4 -3.56,0.65 -4.97,3.11 l -0.13,0.23 -0.61,-0.2 c -2.25,7.63 -9.07,31.37 -16.29,56.48 -9.38,32.66 -19.09,66.43 -21.45,74.24 -0.29,0.96 -0.47,1.35 -1.05,1.35 z m 27.4,-136.8 1.07,0.39 -41.5,131.16 c -0.09,0.28 -0.18,0.57 -0.16,0.64 0.05,0.06 0.41,0.16 0.76,0.27 l 11.59,3.49 c 0.3,0.09 0.8,0.24 0.92,0.18 0.1,-0.06 0.21,-0.43 0.34,-0.86 2.37,-7.82 12.07,-41.59 21.45,-74.24 7.32,-25.49 14.24,-49.56 16.39,-56.81 l 0.1,-0.33 0.75,0.25 c 1.08,-1.79 2.86,-3.68 5.41,-3.22 l 9.68,-27.52 c 0.23,-0.65 0.19,-1.34 -0.12,-1.95 -0.3,-0.6 -0.81,-1.05 -1.45,-1.25 l -0.43,-0.14 0.47,-1.75 c 0.43,-1.62 -0.45,-3.32 -2.01,-3.88 l -9.16,-3.27 c -1.73,-0.62 -3.59,-0.49 -5.24,0.35 -1.67,0.86 -2.87,2.33 -3.38,4.14 -4.95,17.42 -7.8,28.45 -7.65,29.62 2.14,2.11 2.24,4.01 2.19,4.72 z"
               id="path114" />
            <path
               class="cls-5"
               d="m 244.02,448.76 -0.2,0.62 c 0,0 -0.07,0.08 -0.12,0.06 l -11.76,-3.76 c 0,0 -0.08,-0.07 -0.06,-0.12 l 0.2,-0.62 c 0,0 0.07,-0.08 0.12,-0.06 l 11.76,3.76 c 0,0 0.08,0.07 0.06,0.12"
               id="path115" />
            <path
               class="cls-5"
               d="m 240.97,458.78 -0.2,0.62 c 0,0 -0.07,0.08 -0.12,0.06 l -11.76,-3.76 c 0,0 -0.08,-0.07 -0.06,-0.12 l 0.2,-0.62 c 0,0 0.07,-0.08 0.12,-0.06 l 11.76,3.76 c 0,0 0.08,0.07 0.06,0.12"
               id="path116" />
            <path
               class="cls-5"
               d="m 237.93,468.8 -0.2,0.62 c 0,0 -0.07,0.08 -0.12,0.06 l -11.76,-3.76 c 0,0 -0.08,-0.07 -0.06,-0.12 l 0.2,-0.62 c 0,0 0.07,-0.08 0.12,-0.06 l 11.76,3.76 c 0,0 0.08,0.07 0.06,0.12"
               id="path117" />
            <path
               class="cls-5"
               d="m 234.88,478.82 -0.2,0.62 c 0,0 -0.07,0.08 -0.12,0.06 l -11.76,-3.76 c 0,0 -0.08,-0.07 -0.06,-0.12 l 0.2,-0.62 c 0,0 0.07,-0.08 0.12,-0.06 l 11.76,3.76 c 0,0 0.08,0.07 0.06,0.12"
               id="path118" />
            <path
               class="cls-5"
               d="m 231.84,488.83 -0.2,0.62 c 0,0 -0.07,0.08 -0.12,0.06 l -11.76,-3.76 c 0,0 -0.08,-0.07 -0.06,-0.12 l 0.2,-0.62 c 0,0 0.07,-0.08 0.12,-0.06 l 11.76,3.76 c 0,0 0.08,0.07 0.06,0.12"
               id="path119" />
            <path
               class="cls-5"
               d="m 228.79,498.85 -0.2,0.62 c 0,0 -0.07,0.08 -0.12,0.06 l -11.76,-3.76 c 0,0 -0.08,-0.07 -0.06,-0.12 l 0.2,-0.62 c 0,0 0.07,-0.08 0.12,-0.06 l 11.76,3.76 c 0,0 0.08,0.07 0.06,0.12"
               id="path120" />
            <path
               class="cls-5"
               d="m 226.44,509.08 -0.2,0.62 c 0,0 -0.07,0.07 -0.12,0.06 l -12.37,-3.94 c -0.05,-0.02 -0.08,-0.07 -0.06,-0.12 l 0.2,-0.62 c 0,0 0.07,-0.07 0.12,-0.06 l 12.37,3.94 c 0.05,0.02 0.08,0.07 0.06,0.12"
               id="path121" />
            <path
               class="cls-5"
               d="m 223.39,519.1 -0.2,0.62 c 0,0 -0.07,0.07 -0.12,0.06 l -12.37,-3.94 c -0.05,-0.02 -0.08,-0.07 -0.06,-0.12 l 0.2,-0.62 c 0,0 0.07,-0.07 0.12,-0.06 l 12.37,3.94 c 0.05,0.02 0.08,0.07 0.06,0.12"
               id="path122" />
            <path
               class="cls-5"
               d="m 220.34,529.11 -0.2,0.62 c 0,0 -0.07,0.07 -0.12,0.06 l -12.37,-3.94 c -0.05,-0.02 -0.08,-0.07 -0.06,-0.12 l 0.2,-0.62 c 0,0 0.07,-0.07 0.12,-0.06 l 12.37,3.94 c 0.05,0.02 0.08,0.07 0.06,0.12"
               id="path123" />
            <path
               class="cls-5"
               d="m 217.3,539.13 -0.2,0.62 c 0,0 -0.07,0.07 -0.12,0.06 l -12.37,-3.94 c -0.05,-0.02 -0.08,-0.07 -0.06,-0.12 l 0.2,-0.62 c 0,0 0.07,-0.07 0.12,-0.06 l 12.37,3.94 c 0.05,0.02 0.08,0.07 0.06,0.12"
               id="path124" />
            <path
               class="cls-5"
               d="m 214.5,549.48 -0.2,0.62 c 0,0 -0.07,0.07 -0.13,0.06 l -13.22,-4.2 c -0.05,-0.02 -0.09,-0.07 -0.07,-0.12 l 0.2,-0.62 c 0,0 0.07,-0.07 0.13,-0.06 l 13.22,4.2 c 0.05,0.02 0.09,0.07 0.07,0.12"
               id="path125" />
            <path
               class="cls-5"
               d="m 211.45,559.5 -0.2,0.62 c 0,0 -0.07,0.07 -0.13,0.06 l -13.22,-4.2 c -0.05,-0.02 -0.09,-0.07 -0.07,-0.12 l 0.2,-0.62 c 0,0 0.07,-0.07 0.13,-0.06 l 13.22,4.2 c 0.05,0.02 0.09,0.07 0.07,0.12"
               id="path126" />
            <path
               class="cls-5"
               d="m 248.33,436.53 -0.22,0.67 c -0.02,0.05 -0.07,0.08 -0.13,0.07 l -12.43,-3.97 c -0.05,-0.02 -0.08,-0.07 -0.06,-0.13 l 0.22,-0.67 c 0.02,-0.05 0.07,-0.08 0.13,-0.07 l 12.43,3.97 c 0.05,0.02 0.08,0.07 0.07,0.13"
               id="path127" />
            <path
               class="cls-5"
               d="m 245.3,402.05 c 1.24,0.52 1.82,1.95 1.29,3.19 -0.52,1.24 -1.95,1.82 -3.19,1.29 -1.24,-0.52 -1.82,-1.95 -1.29,-3.19 0.52,-1.24 1.95,-1.82 3.19,-1.29"
               id="path128" />
            <path
               class="cls-5"
               d="m 242.96,411.52 c 1.24,0.52 1.82,1.95 1.29,3.19 -0.52,1.24 -1.95,1.82 -3.19,1.29 -1.24,-0.52 -1.82,-1.95 -1.29,-3.19 0.52,-1.24 1.95,-1.82 3.19,-1.29"
               id="path129" />
            <path
               class="cls-5"
               d="m 240.55,421.17 c 1.24,0.52 1.82,1.95 1.29,3.19 -0.52,1.24 -1.95,1.82 -3.19,1.29 -1.24,-0.52 -1.82,-1.95 -1.29,-3.19 0.52,-1.24 1.95,-1.82 3.19,-1.29"
               id="path130" />
            <path
               class="cls-5"
               d="m 257.71,405.24 c 1.18,0.64 1.61,2.12 0.97,3.3 -0.65,1.18 -2.12,1.61 -3.3,0.97 -1.18,-0.65 -1.61,-2.12 -0.97,-3.3 0.65,-1.18 2.12,-1.61 3.3,-0.97"
               id="path131" />
            <path
               class="cls-5"
               d="m 254.43,414.43 c 1.18,0.65 1.61,2.12 0.97,3.3 -0.65,1.18 -2.12,1.61 -3.3,0.97 -1.18,-0.65 -1.61,-2.12 -0.97,-3.3 0.65,-1.18 2.12,-1.61 3.3,-0.97"
               id="path132" />
            <path
               class="cls-5"
               d="m 251.06,423.78 c 1.18,0.65 1.61,2.12 0.97,3.3 -0.65,1.18 -2.12,1.61 -3.3,0.97 -1.18,-0.65 -1.61,-2.12 -0.97,-3.3 0.65,-1.18 2.12,-1.61 3.3,-0.97"
               id="path133" />
            <path
               class="cls-2"
               d="m 179.35,621.22 c -0.14,0.45 -0.61,0.7 -1.05,0.56 -0.45,-0.14 -0.7,-0.61 -0.56,-1.05 0.14,-0.45 0.61,-0.7 1.05,-0.56 0.45,0.14 0.7,0.61 0.56,1.05"
               id="path134" />
            <path
               class="cls-5"
               d="m 178.54,622.15 c -0.11,0 -0.23,-0.02 -0.34,-0.05 -0.3,-0.09 -0.55,-0.29 -0.7,-0.57 -0.15,-0.28 -0.18,-0.59 -0.09,-0.9 0.19,-0.62 0.84,-0.97 1.47,-0.78 0.3,0.09 0.55,0.29 0.7,0.57 0.15,0.28 0.18,0.59 0.09,0.9 -0.15,0.51 -0.62,0.83 -1.13,0.83 z m 0,-1.69 c -0.22,0 -0.43,0.14 -0.49,0.37 -0.04,0.13 -0.03,0.27 0.04,0.39 0.07,0.12 0.17,0.21 0.31,0.25 0.27,0.08 0.56,-0.07 0.64,-0.34 0.04,-0.13 0.03,-0.27 -0.04,-0.39 -0.07,-0.12 -0.17,-0.21 -0.3,-0.25 -0.05,-0.02 -0.1,-0.02 -0.15,-0.02 z"
               id="path135" />
            <path
               class="cls-2"
               d="m 181.85,621.98 c -0.14,0.45 -0.61,0.7 -1.05,0.56 -0.45,-0.14 -0.7,-0.61 -0.56,-1.05 0.14,-0.45 0.61,-0.7 1.05,-0.56 0.45,0.14 0.7,0.61 0.56,1.05"
               id="path136" />
            <path
               class="cls-5"
               d="m 181.04,622.91 c -0.11,0 -0.23,-0.02 -0.34,-0.05 -0.3,-0.09 -0.55,-0.29 -0.7,-0.57 -0.15,-0.28 -0.18,-0.59 -0.09,-0.9 0.19,-0.62 0.84,-0.97 1.47,-0.78 0.3,0.09 0.55,0.29 0.7,0.57 0.15,0.28 0.18,0.59 0.09,0.9 -0.15,0.51 -0.62,0.83 -1.13,0.83 z m 0,-1.69 c -0.22,0 -0.43,0.14 -0.49,0.37 -0.04,0.13 -0.03,0.27 0.04,0.39 0.07,0.12 0.17,0.21 0.31,0.25 0.27,0.08 0.56,-0.07 0.64,-0.34 0.04,-0.13 0.03,-0.27 -0.04,-0.39 -0.06,-0.12 -0.17,-0.21 -0.31,-0.25 -0.05,-0.02 -0.1,-0.02 -0.15,-0.02 z"
               id="path137" />
            <path
               class="cls-2"
               d="m 184.35,622.73 c -0.14,0.45 -0.61,0.7 -1.05,0.56 -0.45,-0.14 -0.7,-0.61 -0.56,-1.05 0.14,-0.45 0.61,-0.7 1.05,-0.56 0.45,0.14 0.7,0.61 0.56,1.05"
               id="path138" />
            <path
               class="cls-5"
               d="m 183.55,623.66 c -0.11,0 -0.23,-0.02 -0.34,-0.05 -0.3,-0.09 -0.55,-0.29 -0.7,-0.57 -0.15,-0.28 -0.18,-0.59 -0.09,-0.89 0.19,-0.62 0.84,-0.97 1.47,-0.78 0.3,0.09 0.55,0.29 0.7,0.57 0.15,0.28 0.18,0.59 0.09,0.9 -0.09,0.3 -0.29,0.55 -0.57,0.7 -0.17,0.09 -0.36,0.14 -0.55,0.14 z m 0,-1.69 c -0.22,0 -0.43,0.14 -0.49,0.37 -0.04,0.13 -0.03,0.27 0.04,0.39 0.06,0.12 0.17,0.21 0.3,0.25 0.13,0.04 0.27,0.03 0.39,-0.04 0.12,-0.06 0.21,-0.17 0.25,-0.3 v 0 c 0.04,-0.13 0.03,-0.27 -0.04,-0.39 -0.07,-0.12 -0.17,-0.21 -0.3,-0.25 -0.05,-0.02 -0.1,-0.02 -0.15,-0.02 z"
               id="path139" />
            <path
               class="cls-2"
               d="m 186.86,623.49 c -0.14,0.45 -0.61,0.7 -1.05,0.56 -0.45,-0.14 -0.7,-0.61 -0.56,-1.05 0.14,-0.45 0.61,-0.7 1.05,-0.56 0.45,0.14 0.7,0.61 0.56,1.05"
               id="path140" />
            <path
               class="cls-5"
               d="m 186.05,624.42 c -0.11,0 -0.23,-0.02 -0.34,-0.05 -0.62,-0.19 -0.97,-0.84 -0.78,-1.46 0.19,-0.62 0.84,-0.97 1.47,-0.78 0.62,0.19 0.97,0.85 0.78,1.47 -0.15,0.51 -0.62,0.83 -1.13,0.83 z m 0,-1.69 c -0.22,0 -0.43,0.14 -0.49,0.37 -0.08,0.27 0.07,0.56 0.34,0.64 0.27,0.08 0.56,-0.07 0.64,-0.34 0.04,-0.13 0.03,-0.27 -0.04,-0.39 -0.06,-0.12 -0.17,-0.21 -0.3,-0.25 -0.05,-0.01 -0.1,-0.02 -0.15,-0.02 z"
               id="path141" />
            <path
               class="cls-2"
               d="m 189.36,624.25 c -0.14,0.45 -0.61,0.7 -1.05,0.56 -0.45,-0.14 -0.7,-0.61 -0.56,-1.05 0.14,-0.45 0.61,-0.7 1.05,-0.56 0.45,0.14 0.7,0.61 0.56,1.05"
               id="path142" />
            <path
               class="cls-5"
               d="m 188.55,625.18 c -0.11,0 -0.23,-0.02 -0.34,-0.05 -0.3,-0.09 -0.55,-0.29 -0.7,-0.57 -0.15,-0.28 -0.18,-0.59 -0.09,-0.9 0.09,-0.3 0.29,-0.55 0.57,-0.7 0.28,-0.15 0.59,-0.18 0.89,-0.09 0.3,0.09 0.55,0.29 0.7,0.57 0.15,0.28 0.18,0.59 0.09,0.9 -0.09,0.3 -0.29,0.55 -0.57,0.7 -0.17,0.09 -0.36,0.14 -0.55,0.14 z m 0,-1.69 c -0.08,0 -0.17,0.02 -0.24,0.06 -0.12,0.06 -0.21,0.17 -0.25,0.31 -0.04,0.13 -0.03,0.27 0.04,0.39 0.07,0.12 0.17,0.21 0.31,0.25 0.13,0.04 0.27,0.03 0.39,-0.04 0.12,-0.06 0.21,-0.17 0.25,-0.31 0.04,-0.13 0.03,-0.27 -0.04,-0.39 -0.06,-0.12 -0.17,-0.21 -0.31,-0.25 -0.05,-0.02 -0.1,-0.02 -0.15,-0.02 z"
               id="path143" />
            <path
               class="cls-2"
               d="m 191.86,625 c -0.14,0.45 -0.61,0.7 -1.05,0.56 -0.45,-0.14 -0.7,-0.61 -0.56,-1.05 0.14,-0.45 0.61,-0.7 1.05,-0.56 0.45,0.14 0.7,0.61 0.56,1.05"
               id="path144" />
            <path
               class="cls-5"
               d="m 191.05,625.93 c -0.11,0 -0.23,-0.02 -0.34,-0.05 -0.3,-0.09 -0.55,-0.29 -0.7,-0.57 -0.15,-0.28 -0.18,-0.59 -0.09,-0.9 0.09,-0.3 0.29,-0.55 0.57,-0.7 0.28,-0.15 0.59,-0.18 0.89,-0.09 0.62,0.19 0.97,0.84 0.78,1.46 v 0 c -0.15,0.51 -0.62,0.83 -1.13,0.83 z m 0,-1.69 c -0.08,0 -0.17,0.02 -0.24,0.06 -0.12,0.06 -0.21,0.17 -0.25,0.31 -0.04,0.14 -0.03,0.27 0.04,0.39 0.07,0.12 0.17,0.21 0.3,0.25 0.27,0.08 0.56,-0.07 0.64,-0.34 0.08,-0.27 -0.07,-0.56 -0.34,-0.64 -0.05,-0.02 -0.1,-0.02 -0.15,-0.02 z"
               id="path145" />
            <path
               class="cls-2"
               d="m 225.99,643.65 c 5.81,1.06 26.12,-12.89 27.28,-51.22 0.82,-27.15 -8.53,-43.37 -18.08,-41.84 -9.55,1.53 -20.49,17.15 -20.73,49.03 -0.24,31.88 5.91,43.01 11.53,44.03"
               id="path146" />
            <path
               class="cls-5"
               d="m 226.67,643.98 c -0.26,0 -0.5,-0.02 -0.72,-0.06 -2.31,-0.42 -5.6,-2.61 -8.17,-10.63 -2.48,-7.76 -3.69,-19.08 -3.58,-33.67 0.24,-31.6 11.04,-47.71 20.97,-49.3 2.65,-0.43 5.35,0.49 7.79,2.64 7.09,6.23 11.15,21.36 10.6,39.48 -0.92,30.17 -13.28,43.35 -18.56,47.61 -3.07,2.49 -6.17,3.94 -8.33,3.94 z m 9.76,-93.22 c -0.4,0 -0.79,0.03 -1.18,0.09 -9.71,1.56 -20.27,17.48 -20.5,48.76 -0.29,38.64 8.58,43.26 11.3,43.76 1.49,0.27 4.64,-0.55 8.61,-3.76 5.22,-4.22 17.45,-17.26 18.35,-47.2 0.65,-21.47 -4.95,-34.25 -10.42,-39.06 -1.95,-1.71 -4.06,-2.6 -6.16,-2.6 z"
               id="path147" />
            <path
               class="cls-5"
               d="m 220.98,656.75 -0.49,-0.25 c 3.99,-7.83 9.51,-22.13 13.18,-45.81 2.19,-14.17 2.68,-25.13 2.68,-25.24 l 0.55,0.02 c 0,0.11 -0.49,11.09 -2.69,25.29 -2.03,13.11 -5.97,31.74 -13.23,45.98 z"
               id="path148" />
            <path
               class="cls-5"
               d="m 253.28,592.42 c 0,0 -16.49,14.93 -20.01,30.81 -3.52,15.88 -1.54,18.81 -1.54,18.81 0,0 6.51,-4.26 8.45,-6.78 1.94,-2.53 14.55,-38.06 13.11,-42.84"
               id="path149" />
            <path
               class="cls-2"
               d="m 239.56,642.42 c 4.16,4.98 26.18,6.55 51.78,-37.09 25.6,-43.64 0.62,-44.21 -8.75,-39.04 -12,6.62 -61.94,53.49 -43.03,76.13"
               id="path150" />
            <path
               class="cls-5"
               d="m 246.67,645.16 c -3.78,0 -6.23,-1.27 -7.32,-2.56 -3.83,-4.58 -5.1,-10.45 -3.79,-17.43 4.41,-23.52 37.27,-53.8 46.9,-59.11 2.47,-1.36 5.75,-2.21 8.76,-2.25 2.55,-0.03 6.12,0.47 8.67,3.09 4.08,4.19 5.95,14.28 -8.31,38.58 -7.99,13.62 -16.3,23.99 -24.7,30.82 -8.22,6.68 -14.71,8.48 -18.71,8.81 -0.52,0.04 -1.02,0.06 -1.5,0.06 z m -6.9,-2.92 c 1.13,1.35 3.92,2.67 8.35,2.3 18.87,-1.56 36.34,-28.04 42.98,-39.35 14.08,-24 12.33,-33.87 8.39,-37.92 -4.32,-4.43 -12.56,-3.06 -16.77,-0.74 -9.58,5.28 -42.24,35.38 -46.63,58.73 -1.28,6.82 -0.04,12.53 3.68,16.98 z"
               id="path151" />
            <path
               class="cls-5"
               d="m 220.84,657.16 -0.21,-0.51 0.52,-0.22 c 2.11,-0.89 4.12,-2.03 5.99,-3.4 24.45,-17.98 40.5,-38.44 49.66,-52.43 9.92,-15.16 14.11,-26.2 14.15,-26.31 l 0.51,0.19 c -0.04,0.11 -4.25,11.21 -14.2,26.42 -9.18,14.03 -25.27,34.55 -49.79,52.57 -1.9,1.4 -3.95,2.56 -6.1,3.47 l -0.52,0.22 z"
               id="path152" />
            <rect
               class="cls-1"
               x="127.08"
               y="404.20999"
               width="175.74001"
               height="284.01001"
               id="rect152" />
          </g>
          <g
             id="g160">
            <path
               class="cls-2"
               d="m 730.32,578.85 c 0,0 -12.05,-20.89 -18.43,-26.72 -6.38,-5.82 -18.05,-15.81 -37.05,-6.95 -19,8.85 -12.81,23.08 -10.62,26.41 2.19,3.33 11.26,4.05 17.71,-2.11 6.45,-6.16 9.72,-4.25 10.85,-3.55 1.12,0.7 1.41,3.99 -0.57,5.69 -1.98,1.69 -6.54,7.96 -3.24,10.37 3.31,2.41 7.08,0.92 8.38,-2.14 1.3,-3.07 5.72,-5.26 8.68,-4.88 2.96,0.38 13.52,1.72 17.55,6.75 4.6,-1.18 6.74,-2.85 6.74,-2.85"
               id="path153" />
            <path
               class="cls-2"
               d="m 729.03,530.85 c 1.18,-5.41 2.63,-9.37 3.68,-11.82 -4,-0.43 -8.25,0.82 -11.91,4.5 -12.5,12.56 5.5,47.68 5.5,47.68 l 1.82,-2.15 c -2.33,-17.17 -0.86,-30.11 0.91,-38.21"
               id="path154" />
            <path
               class="cls-2"
               d="m 727.39,549.48 c 1.02,-1.32 8.68,-10.76 19.39,-10.52 2.85,-9.19 -4.7,-18.64 -13.59,-19.88 -1.98,4.61 -5.46,14.84 -5.79,30.4"
               id="path155" />
            <path
               class="cls-2"
               d="m 727.62,549.89 -0.24,-0.17 c -0.11,5.75 0.21,12.21 1.19,19.38 l 14.57,1.53 c 0,0 -3.38,-16.04 2.99,-29.97 0.19,-0.42 0.36,-0.84 0.51,-1.27 -11.16,-0.17 -18.93,10.39 -19.01,10.5"
               id="path156" />
            <path
               class="cls-2"
               d="m 762.01,549.15 c -2.29,-10.95 -17.87,-69.59 -15.29,-73.99 2.58,-4.4 4.85,0.1 8.74,19.88 0.41,2.44 6.82,12.66 -1.28,-23.52 -0.77,-4.02 3.81,-17.95 10.5,20.39 0.4,2.54 3.62,6.46 2.68,-1.76 -0.94,-8.22 -0.86,-11.32 -2.8,-22.06 -1.94,-10.74 4.98,-13.22 8.76,19.36 0.76,5.62 2.63,7.45 3.61,5.01 1.92,-4.78 8.5,-11.43 14.46,-4.69 10.13,11.44 5.02,12.63 2.72,11.52 -2.3,-1.11 -5.17,-8.83 -7.2,-7.09 -2.03,1.74 -7.2,8.2 -6.9,11.94 0.3,3.74 8.38,9.24 11.99,3.63 1.51,-2.35 2.25,-7.27 5.25,-6.49 2.83,0.73 2.57,6.76 0.12,11.19 -1.8,3.26 -4.82,7.83 -11.47,10.66 1.11,5.06 7.78,26.19 7.78,26.19 l -30.24,6.24 -1.42,-6.42 z"
               id="path157" />
            <path
               class="cls-2"
               d="m 888.94,598.14 c 11.32,45.73 -20.25,92.88 -70.51,105.33 -50.27,12.45 -100.19,-14.53 -111.52,-60.26 -11.32,-45.73 20.25,-92.88 70.51,-105.33 50.27,-12.45 100.19,14.53 111.52,60.26"
               id="path158" />
            <path
               class="cls-2"
               d="m 767.59,657.53 c 0,37.95 -30.77,68.72 -68.72,68.72 -37.95,0 -68.72,-30.77 -68.72,-68.72 0,-37.95 30.77,-68.72 68.72,-68.72 37.95,0 68.72,30.77 68.72,68.72"
               id="path159" />
            <path
               class="cls-2"
               d="m 873.37,490.14 c -20.63,11.86 -34.53,34.12 -34.53,59.62 0,25.5 13.89,47.76 34.53,59.62 z"
               id="path160" />
          </g>
          <g
             id="g161">
            <rect
               class="cls-2"
               x="287.23999"
               y="452.89001"
               width="0.69"
               height="5.8800001"
               id="rect160" />
            <rect
               class="cls-2"
               x="284.64999"
               y="455.48999"
               width="5.8800001"
               height="0.69"
               id="rect161" />
          </g>
          <g
             id="g163">
            <rect
               class="cls-2"
               x="268.10999"
               y="477.20001"
               width="0.55000001"
               height="4.73"
               id="rect162" />
            <rect
               class="cls-2"
               x="266.03"
               y="479.28"
               width="4.73"
               height="0.55000001"
               id="rect163" />
          </g>
          <g
             id="g164">
            <path
               class="cls-2"
               d="m 327.82,489.14 c -0.56,4.88 -6.96,8.15 -14.29,7.31 -7.33,-0.84 -12.82,-5.48 -12.26,-10.36 0.56,-4.88 6.96,-8.15 14.29,-7.31 7.33,0.84 12.82,5.48 12.26,10.36"
               id="path163" />
            <path
               class="cls-2"
               d="m 315.8,496.98 c -0.76,0 -1.53,-0.04 -2.31,-0.13 -7.54,-0.86 -13.19,-5.71 -12.61,-10.8 0.58,-5.09 7.19,-8.52 14.72,-7.66 7.53,0.86 13.19,5.71 12.61,10.8 -0.52,4.56 -5.88,7.79 -12.41,7.79 z m -2.52,-17.93 c -6.13,0 -11.13,2.94 -11.61,7.1 -0.53,4.66 4.81,9.11 11.91,9.92 7.1,0.82 13.32,-2.31 13.85,-6.97 l 0.39,0.04 -0.39,-0.04 c 0.53,-4.66 -4.81,-9.11 -11.91,-9.92 -0.76,-0.09 -1.51,-0.13 -2.24,-0.13 z"
               id="path164" />
            <rect
               class="cls-2"
               x="317.23999"
               y="476.87"
               width="23.91"
               height="0.79000002"
               transform="rotate(-83.41,329.21873,477.26976)"
               id="rect164" />
          </g>
          <g
             id="g168">
            <path
               class="cls-2"
               d="m 721.09,427.87 c 0.26,6.59 -6.74,12.22 -15.62,12.57 -8.88,0.35 -16.3,-4.72 -16.55,-11.31 -0.26,-6.59 6.74,-12.22 15.62,-12.57 8.88,-0.35 16.3,4.72 16.55,11.31"
               id="path165" />
            <path
               class="cls-2"
               d="m 704.61,440.88 c -8.71,0 -15.86,-5.13 -16.12,-11.73 -0.13,-3.33 1.48,-6.51 4.54,-8.97 3.02,-2.43 7.1,-3.86 11.49,-4.03 4.39,-0.17 8.57,0.94 11.77,3.13 3.24,2.21 5.09,5.26 5.22,8.59 0.27,6.81 -6.92,12.65 -16.02,13 -0.29,0.01 -0.58,0.02 -0.87,0.02 z m 0.79,-23.91 c -0.28,0 -0.57,0 -0.85,0.02 -4.21,0.16 -8.11,1.53 -10.99,3.85 -2.84,2.29 -4.34,5.23 -4.23,8.28 0.25,6.35 7.49,11.24 16.12,10.91 8.64,-0.34 15.46,-5.78 15.22,-12.13 -0.12,-3.05 -1.85,-5.87 -4.86,-7.93 -2.85,-1.94 -6.51,-3 -10.41,-3 z"
               id="path166" />
            <polygon
               class="cls-2"
               points="759.5,373.46 761.53,413.98 760.69,414.02 758.72,374.62 719.52,388.21 721.51,427.85 720.67,427.9 718.65,387.62 "
               id="polygon166" />
            <path
               class="cls-2"
               d="m 761.11,414 c 0.26,6.59 -6.74,12.22 -15.62,12.57 -8.88,0.35 -16.3,-4.72 -16.55,-11.31 -0.26,-6.59 6.74,-12.22 15.62,-12.57 8.88,-0.35 16.3,4.72 16.55,11.31"
               id="path167" />
            <path
               class="cls-2"
               d="m 744.62,427.01 c -4.06,0 -7.9,-1.1 -10.88,-3.14 -3.24,-2.21 -5.09,-5.26 -5.22,-8.59 -0.13,-3.33 1.48,-6.51 4.54,-8.97 3.02,-2.43 7.1,-3.86 11.49,-4.03 9.11,-0.36 16.72,4.9 16.99,11.71 0.13,3.33 -1.48,6.51 -4.54,8.97 -3.02,2.43 -7.1,3.86 -11.49,4.03 -0.3,0.01 -0.59,0.02 -0.88,0.02 z m 0.79,-23.92 c -0.28,0 -0.56,0 -0.84,0.02 -4.21,0.16 -8.11,1.53 -10.99,3.85 -2.84,2.29 -4.34,5.23 -4.23,8.28 0.12,3.05 1.85,5.87 4.86,7.93 3.05,2.09 7.06,3.14 11.26,2.98 4.21,-0.16 8.11,-1.53 10.99,-3.85 2.84,-2.29 4.34,-5.23 4.23,-8.28 -0.24,-6.14 -7.01,-10.92 -15.28,-10.92 z"
               id="path168" />
          </g>
          <g
             id="g169">
            <rect
               class="cls-2"
               x="659.89001"
               y="397.79999"
               width="1.04"
               height="8.8999996"
               id="rect168" />
            <rect
               class="cls-2"
               x="655.96002"
               y="401.73001"
               width="8.8999996"
               height="1.04"
               id="rect169" />
          </g>
          <rect
             class="cls-2"
             x="683.89001"
             y="477.34"
             width="1.04"
             height="7.46"
             id="rect170" />
          <rect
             class="cls-2"
             x="680.67999"
             y="480.54999"
             width="7.46"
             height="1.04"
             id="rect171" />
          <g
             id="g173">
            <rect
               class="cls-2"
               x="801.04999"
               y="396.82999"
               width="0.83999997"
               height="7.1599998"
               id="rect172" />
            <rect
               class="cls-2"
               x="797.89001"
               y="399.98999"
               width="7.1599998"
               height="0.83999997"
               id="rect173" />
          </g>
          <g
             id="g176">
            <path
               class="cls-2"
               d="m 419.5,588.25 c 0.17,4.45 -4.54,8.24 -10.53,8.47 -5.99,0.23 -10.99,-3.18 -11.16,-7.62 -0.17,-4.45 4.54,-8.24 10.53,-8.47 5.99,-0.23 10.99,3.18 11.16,7.62"
               id="path173" />
            <path
               class="cls-2"
               d="m 408.4,597.01 c -5.87,0 -10.69,-3.46 -10.87,-7.91 -0.09,-2.24 1,-4.39 3.06,-6.05 2.04,-1.64 4.79,-2.6 7.74,-2.72 2.96,-0.11 5.77,0.63 7.93,2.11 2.18,1.49 3.43,3.55 3.52,5.79 0.18,4.59 -4.67,8.53 -10.8,8.77 -0.2,0 -0.39,0.01 -0.59,0.01 z m 0.53,-16.11 c -0.19,0 -0.38,0 -0.57,0.01 -2.84,0.11 -5.47,1.03 -7.41,2.59 -1.92,1.54 -2.93,3.53 -2.85,5.58 0.17,4.28 5.05,7.58 10.86,7.35 5.82,-0.23 10.42,-3.9 10.26,-8.18 -0.08,-2.06 -1.24,-3.96 -3.28,-5.34 -1.92,-1.31 -4.39,-2.02 -7.02,-2.02 z"
               id="path174" />
            <polygon
               class="cls-2"
               points="445.4,551.56 446.77,578.88 446.2,578.91 444.87,552.35 418.45,561.51 419.79,588.23 419.22,588.26 417.86,561.11 "
               id="polygon174" />
            <path
               class="cls-2"
               d="m 446.48,578.9 c 0.17,4.45 -4.54,8.24 -10.53,8.47 -5.99,0.23 -10.99,-3.18 -11.16,-7.62 -0.17,-4.45 4.54,-8.24 10.53,-8.47 5.99,-0.23 10.99,3.18 11.16,7.62"
               id="path175" />
            <path
               class="cls-2"
               d="m 435.37,587.66 c -2.74,0 -5.32,-0.74 -7.34,-2.12 -2.18,-1.49 -3.43,-3.55 -3.52,-5.79 -0.09,-2.24 1,-4.39 3.06,-6.05 2.04,-1.64 4.79,-2.6 7.74,-2.72 6.14,-0.24 11.27,3.3 11.45,7.9 0.09,2.24 -1,4.39 -3.06,6.05 -2.04,1.64 -4.79,2.6 -7.74,2.72 -0.2,0 -0.4,0.01 -0.6,0.01 z m 0.53,-16.12 c -0.19,0 -0.38,0 -0.57,0.01 -2.84,0.11 -5.47,1.03 -7.41,2.59 -1.92,1.54 -2.93,3.53 -2.85,5.58 0.08,2.06 1.24,3.96 3.28,5.34 2.06,1.41 4.76,2.12 7.59,2.01 2.84,-0.11 5.47,-1.03 7.41,-2.59 1.92,-1.54 2.93,-3.53 2.85,-5.58 -0.16,-4.14 -4.73,-7.36 -10.3,-7.36 z"
               id="path176" />
          </g>
          <g
             id="g177">
            <rect
               class="cls-2"
               x="378.23999"
               y="567.96997"
               width="0.69999999"
               height="6"
               id="rect176" />
            <rect
               class="cls-2"
               x="375.60001"
               y="570.62"
               width="6"
               height="0.69999999"
               id="rect177" />
          </g>
          <g
             id="g179">
            <rect
               class="cls-2"
               x="473.41"
               y="567.32001"
               width="0.56"
               height="4.8200002"
               id="rect178" />
            <rect
               class="cls-2"
               x="471.28"
               y="569.45001"
               width="4.8200002"
               height="0.56"
               id="rect179" />
          </g>
        </g>
      </g>
      <g
         id="g182">
        <path
           class="cls-5"
           d="m 638.44,500.62 -4.36,-4.36 c 0.84,-1.07 1.34,-2.42 1.34,-3.88 0,-3.49 -2.84,-6.33 -6.33,-6.33 -3.49,0 -6.33,2.84 -6.33,6.33 0,3.49 2.84,6.33 6.33,6.33 1.34,0 2.58,-0.42 3.61,-1.14 l 4.39,4.39 c 0.37,0.37 0.98,0.37 1.35,0 0.37,-0.37 0.37,-0.98 0,-1.35 z m -13.8,-8.24 c 0,-2.45 2,-4.45 4.45,-4.45 2.45,0 4.45,2 4.45,4.45 0,2.45 -1.99,4.45 -4.45,4.45 -2.46,0 -4.45,-1.99 -4.45,-4.45 z"
           id="path181" />
        <path
           class="cls-5"
           d="m 637.76,502.67 c -0.35,0 -0.71,-0.13 -0.98,-0.4 l -4.14,-4.14 c -1.07,0.67 -2.29,1.02 -3.55,1.02 -3.73,0 -6.76,-3.03 -6.76,-6.76 0,-3.73 3.03,-6.76 6.76,-6.76 3.73,0 6.76,3.03 6.76,6.76 0,1.39 -0.41,2.7 -1.2,3.84 l 4.1,4.1 c 0.54,0.54 0.54,1.41 0,1.95 -0.27,0.27 -0.62,0.4 -0.98,0.4 z m -5.01,-5.65 4.64,4.64 c 0.21,0.2 0.54,0.2 0.75,0 0.2,-0.2 0.2,-0.54 0,-0.74 l -4.62,-4.62 0.23,-0.3 c 0.82,-1.05 1.25,-2.3 1.25,-3.62 0,-3.26 -2.65,-5.9 -5.9,-5.9 -3.25,0 -5.9,2.65 -5.9,5.9 0,3.25 2.65,5.9 5.9,5.9 1.21,0 2.37,-0.37 3.37,-1.06 l 0.29,-0.2 z m -3.66,0.23 c -2.69,0 -4.87,-2.19 -4.87,-4.87 0,-2.68 2.19,-4.87 4.87,-4.87 2.68,0 4.87,2.19 4.87,4.87 0,2.68 -2.19,4.87 -4.87,4.87 z m 0,-8.89 c -2.22,0 -4.02,1.8 -4.02,4.02 0,2.22 1.8,4.02 4.02,4.02 2.22,0 4.02,-1.8 4.02,-4.02 0,-2.22 -1.8,-4.02 -4.02,-4.02 z"
           id="path182" />
      </g>
      <g
         id="g190">
        <path
           class="cls-5"
           d="m 417.47,490.77 c 0.18,-0.39 0.39,-0.45 0.68,-0.45 h 0.15 c 0.35,0 0.62,0.32 0.66,0.66 l 0.71,5.74 c 0.04,0.36 -0.3,0.72 -0.69,0.75 -0.4,0.03 -0.76,-0.26 -0.8,-0.63 l -0.43,-3.64 -1.4,2.89 c -0.13,0.29 -0.39,0.62 -0.83,0.62 -0.44,0 -0.69,-0.34 -0.82,-0.62 l -1.41,-2.89 -0.43,3.64 c -0.04,0.38 -0.4,0.66 -0.8,0.63 -0.39,-0.03 -0.74,-0.39 -0.68,-0.75 l 0.7,-5.74 c 0.04,-0.35 0.32,-0.66 0.67,-0.66 h 0.15 c 0.29,0 0.5,0.06 0.67,0.45 l 1.94,4.14 1.94,-4.14 z"
           id="path183" />
        <path
           class="cls-5"
           d="m 424.66,497.08 c -0.48,0.32 -1.08,0.43 -1.65,0.43 -1.37,0 -2.49,-0.99 -2.49,-2.5 0,-1.51 1.13,-2.46 2.49,-2.46 1.36,0 2.44,1 2.44,2.51 0,0.26 -0.21,0.44 -0.44,0.44 h -3.08 c 0.07,0.55 0.67,0.79 1.18,0.79 0.29,0 0.53,-0.02 0.83,-0.22 0.33,-0.23 0.7,-0.16 0.9,0.07 0.26,0.31 0.16,0.75 -0.18,0.95 z m -0.63,-2.47 c -0.07,-0.58 -0.47,-0.87 -1,-0.87 -0.53,0 -0.94,0.27 -1.06,0.87 z"
           id="path184" />
        <path
           class="cls-5"
           d="m 426.74,492.64 v -1.25 c 0,-0.35 0.34,-0.63 0.72,-0.63 0.38,0 0.72,0.28 0.72,0.63 v 1.25 h 0.54 c 0.29,0 0.51,0.26 0.51,0.56 0,0.3 -0.22,0.55 -0.51,0.56 h -0.54 v 3.07 c 0,0.36 -0.33,0.63 -0.72,0.63 -0.39,0 -0.71,-0.29 -0.72,-0.63 v -3.07 h -0.39 c -0.29,-0.01 -0.51,-0.27 -0.51,-0.56 0,-0.29 0.22,-0.56 0.51,-0.56 z"
           id="path185" />
        <path
           class="cls-5"
           d="m 433.2,494.87 c 0,-0.62 -0.45,-0.94 -0.88,-0.94 -0.43,0 -0.94,0.24 -0.94,0.96 v 1.94 c 0,0.36 -0.33,0.63 -0.72,0.63 -0.39,0 -0.7,-0.29 -0.71,-0.63 v -6.21 c 0,-0.35 0.34,-0.63 0.71,-0.63 0.37,0 0.72,0.28 0.72,0.63 v 2.76 c 0.19,-0.59 0.88,-0.84 1.33,-0.84 1.26,0 1.92,0.83 1.92,2.27 v 2.01 c 0,0.36 -0.33,0.63 -0.72,0.63 -0.39,0 -0.71,-0.29 -0.72,-0.63 v -1.96 z"
           id="path186" />
        <path
           class="cls-5"
           d="m 435.57,495.02 c 0,-1.5 1.11,-2.46 2.51,-2.46 1.4,0 2.51,0.96 2.51,2.46 0,1.5 -1.12,2.5 -2.51,2.5 -1.39,0 -2.51,-0.99 -2.51,-2.5 z m 3.59,0 c 0,-0.64 -0.49,-1.08 -1.08,-1.08 -0.59,0 -1.07,0.44 -1.07,1.08 0,0.64 0.49,1.11 1.07,1.11 0.58,0 1.08,-0.46 1.08,-1.11 z"
           id="path187" />
        <path
           class="cls-5"
           d="m 445.09,490.63 c 0,-0.35 0.34,-0.63 0.72,-0.63 0.38,0 0.72,0.28 0.72,0.63 v 6.21 c 0,0.36 -0.33,0.63 -0.72,0.63 -0.39,0 -0.71,-0.29 -0.72,-0.63 v -0.09 c -0.31,0.5 -0.89,0.77 -1.43,0.77 -1.22,0 -2.32,-0.9 -2.32,-2.49 0,-1.59 1.1,-2.47 2.32,-2.47 0.31,0 1.02,0.13 1.43,0.77 v -2.69 z m -1.15,5.61 c 0.64,0 1.17,-0.57 1.17,-1.21 0,-0.64 -0.52,-1.21 -1.17,-1.21 -0.72,0 -1.13,0.57 -1.13,1.21 0,0.64 0.41,1.21 1.13,1.21 z"
           id="path188" />
        <path
           class="cls-5"
           d="m 451.66,497.08 c -0.48,0.32 -1.08,0.43 -1.65,0.43 -1.37,0 -2.49,-0.99 -2.49,-2.5 0,-1.51 1.13,-2.46 2.49,-2.46 1.36,0 2.44,1 2.44,2.51 0,0.26 -0.21,0.44 -0.44,0.44 h -3.08 c 0.07,0.55 0.67,0.79 1.18,0.79 0.29,0 0.53,-0.02 0.83,-0.22 0.33,-0.23 0.7,-0.16 0.9,0.07 0.26,0.31 0.16,0.75 -0.18,0.95 z m -0.63,-2.47 c -0.07,-0.58 -0.47,-0.87 -1,-0.87 -0.53,0 -0.94,0.27 -1.06,0.87 z"
           id="path189" />
        <path
           class="cls-5"
           d="m 454.75,493.34 c 0.26,-0.48 0.82,-0.8 1.38,-0.8 1.07,0 1.76,0.66 1.76,2.02 v 2.27 c 0,0.36 -0.33,0.63 -0.72,0.63 -0.39,0 -0.7,-0.29 -0.72,-0.63 v -1.96 c 0,-0.63 -0.35,-0.95 -0.83,-0.95 -0.48,0 -0.88,0.25 -0.88,0.97 v 1.94 c 0,0.36 -0.33,0.63 -0.72,0.63 -0.39,0 -0.71,-0.29 -0.72,-0.63 v -3.61 c 0,-0.35 0.34,-0.63 0.72,-0.63 0.38,0 0.72,0.28 0.72,0.63 v 0.11 z"
           id="path190" />
      </g>
    </g>
  </g>
</svg>
