<?xml version="1.0" encoding="UTF-8" standalone="no"?>
<svg
   height="889.28998"
   width="768.5"
   viewBox="0 0 768.5 889.28998"
   version="1.1"
   id="svg4"
   sodipodi:docname="pdf-Viewer.svg"
   inkscape:version="1.4 (86a8ad7, 2024-10-11)"
   xmlns:inkscape="http://www.inkscape.org/namespaces/inkscape"
   xmlns:sodipodi="http://sodipodi.sourceforge.net/DTD/sodipodi-0.dtd"
   xmlns="http://www.w3.org/2000/svg"
   xmlns:svg="http://www.w3.org/2000/svg">
  <defs
     id="defs4" />
  <sodipodi:namedview
     id="namedview4"
     pagecolor="#505050"
     bordercolor="#eeeeee"
     borderopacity="1"
     inkscape:showpageshadow="0"
     inkscape:pageopacity="0"
     inkscape:pagecheckerboard="0"
     inkscape:deskcolor="#d1d1d1"
     inkscape:zoom="1.815"
     inkscape:cx="384.02204"
     inkscape:cy="446.00551"
     inkscape:window-width="3840"
     inkscape:window-height="2054"
     inkscape:window-x="-11"
     inkscape:window-y="-11"
     inkscape:window-maximized="1"
     inkscape:current-layer="svg4" />
  <path
     d="m 748.5,798.54 c 0,39.08 -31.68,70.75 -70.75,70.75 H 176.93 c -39.08,0 -70.75,-31.68 -70.75,-70.75 V 90.75 C 106.18,51.67 137.86,20 176.93,20 h 364.8 L 748.5,235.83"
     style="fill:#f2f2f2"
     id="path1" />
  <path
     d="M 106.17,487.86 V 90.75 C 106.17,51.67 137.85,20 176.92,20 h 364.8 L 748.5,235.83 v 562.71 c 0,39.08 -31.68,70.75 -70.75,70.75 H 214.02"
     style="fill:#f2f2f2;stroke:#666666;stroke-width:40;stroke-linecap:round;stroke-linejoin:round;stroke-miterlimit:10"
     id="path2" />
  <path
     d="m 529.46,30.83 v 146.03 c 0,40.1 32.51,72.61 72.61,72.61 h 136.84"
     style="fill:#f2f2f2;stroke:#666666;stroke-width:40;stroke-linecap:round;stroke-linejoin:round;stroke-miterlimit:10"
     id="path3" />
  <path
     d="m 0,589.23 c 0.31,-12.92 8.18,-23.64 22.05,-23.64 h 66.77 c 49.48,0 71.51,35.6 71.51,71.2 0,35.91 -22.04,70.89 -71.51,70.89 H 45.98 v 55.12 c 0,11.65 -10.38,21.43 -22.99,21.43 C 11.03,784.23 0,774.14 0,762.8 Z m 45.98,16.99 v 61.13 h 40.64 c 17.98,0 27.42,-16.39 27.42,-30.56 0,-13.55 -8.82,-30.56 -26.15,-30.56 H 45.98 Z m 182,176.42 c -11.65,0 -18.27,-9.13 -18.27,-19.54 V 585.13 c 0.31,-10.72 6.62,-19.54 18.27,-19.54 h 66.79 c 62.38,0 97.98,47.25 97.98,109.01 0,61.42 -35.6,108.05 -97.98,108.05 h -66.79 z m 27.74,-40.32 h 39.05 c 34.66,0 51.98,-32.13 51.98,-67.73 0,-35.91 -17.31,-68.37 -51.98,-68.37 H 255.72 Z M 565.29,565.59 c 10.38,0 18.89,9.13 18.89,20.47 0,10.4 -8.82,19.85 -18.89,20.16 h -72.16 v 49.77 h 53.56 c 10.4,0 18.91,8.82 18.91,19.85 0,10.4 -8.82,19.85 -18.91,19.85 h -53.56 v 67.1 c 0,11.65 -10.38,21.43 -22.99,21.43 -11.96,0 -22.99,-10.09 -22.99,-21.43 V 585.13 c 0.31,-10.72 6.62,-19.54 18.27,-19.54 z"
     style="fill:#666666"
     id="path4" />
</svg>
