<?xml version="1.0" encoding="UTF-8" standalone="no"?>
<svg
   height="829.4671"
   width="920.96997"
   viewBox="0 0 920.96997 829.4671"
   version="1.1"
   id="svg3"
   sodipodi:docname="schnell-tester.svg"
   inkscape:version="1.4 (86a8ad7, 2024-10-11)"
   xmlns:inkscape="http://www.inkscape.org/namespaces/inkscape"
   xmlns:sodipodi="http://sodipodi.sourceforge.net/DTD/sodipodi-0.dtd"
   xmlns="http://www.w3.org/2000/svg"
   xmlns:svg="http://www.w3.org/2000/svg">
  <defs
     id="defs3" />
  <sodipodi:namedview
     id="namedview3"
     pagecolor="#505050"
     bordercolor="#eeeeee"
     borderopacity="1"
     inkscape:showpageshadow="0"
     inkscape:pageopacity="0"
     inkscape:pagecheckerboard="0"
     inkscape:deskcolor="#d1d1d1"
     inkscape:zoom="1.815"
     inkscape:cx="460.0551"
     inkscape:cy="415.15152"
     inkscape:window-width="3840"
     inkscape:window-height="2054"
     inkscape:window-x="-11"
     inkscape:window-y="-11"
     inkscape:window-maximized="1"
     inkscape:current-layer="svg3" />
  <path
     d="M 756.64,20 H 164.34 C 84.63,20 20,84.61 20,164.3 v 364.76 c 0,79.69 64.62,144.3 144.34,144.3 h 455.42 c 43.87,49.14 121.09,136.11 121.09,136.11 l 9.63,-136.11 h 6.16 c 79.71,0 144.33,-64.61 144.33,-144.3 V 164.3 C 900.97,84.61 836.35,20 756.64,20 Z"
     style="fill:#f2f2f2;stroke:#666666;stroke-width:40;stroke-linecap:round;stroke-linejoin:round;stroke-miterlimit:10"
     id="path1" />
  <path
     d="m 625.21,117.88 h 68.9 c 61.01,0 110.48,49.45 110.48,110.45 m 0,62.05 v 72.18"
     style="fill:none;stroke:#666666;stroke-width:40;stroke-linecap:round;stroke-linejoin:round;stroke-miterlimit:10"
     id="path2" />
  <path
     d="m 373.79,285.01 c 0,-37.97 31.05,-68.69 69.15,-68.16 36.21,0.5 66.7,30.99 67.2,67.18 0.31,22.53 -8.64,38.41 -26.91,55.23 -23.21,21.37 -41.26,47.63 -41.26,79.18 v 0"
     style="fill:none;stroke:#666666;stroke-width:68.0372;stroke-linecap:round;stroke-linejoin:round;stroke-miterlimit:10"
     id="path3" />
  <circle
     cx="437.51999"
     cy="501.83997"
     r="35.43"
     style="fill:#666666"
     id="circle3" />
</svg>
