<?xml version="1.0" encoding="UTF-8" standalone="no"?>
<svg
   height="865.15002"
   width="726.02002"
   viewBox="0 0 726.02002 865.15002"
   version="1.1"
   id="svg2"
   sodipodi:docname="tabelle.svg"
   inkscape:version="1.4 (86a8ad7, 2024-10-11)"
   xmlns:inkscape="http://www.inkscape.org/namespaces/inkscape"
   xmlns:sodipodi="http://sodipodi.sourceforge.net/DTD/sodipodi-0.dtd"
   xmlns="http://www.w3.org/2000/svg"
   xmlns:svg="http://www.w3.org/2000/svg">
  <defs
     id="defs2" />
  <sodipodi:namedview
     id="namedview2"
     pagecolor="#505050"
     bordercolor="#eeeeee"
     borderopacity="1"
     inkscape:showpageshadow="0"
     inkscape:pageopacity="0"
     inkscape:pagecheckerboard="0"
     inkscape:deskcolor="#d1d1d1"
     inkscape:zoom="1.815"
     inkscape:cx="362.53444"
     inkscape:cy="432.78237"
     inkscape:window-width="3840"
     inkscape:window-height="2054"
     inkscape:window-x="-11"
     inkscape:window-y="-11"
     inkscape:window-maximized="1"
     inkscape:current-layer="svg2" />
  <path
     d="m 706.02,169.98 v 673.11 c 0,-5.41 -8.52,2.06 -19.03,2.06 H 39.03 C 28.52,845.15 20,837.69 20,843.09 V 51.29 C 20,27.47 28.52,20 39.03,20 h 647.96 c 10.51,0 19.03,7.46 19.03,16.67 V 75.54 M 30.51,193.27 h 655.82 m -440.87,2.86 V 829.52 M 475.9,196.13 v 633.39"
     style="fill:#f2f2f2;stroke:#666666;stroke-width:40;stroke-linecap:round;stroke-linejoin:round;stroke-miterlimit:10"
     id="path1" />
  <path
     d="m 76.22,334.57 h 111.85 m 358.35,0 h 86.39 M 76.22,509.95 h 42.11 m 189.05,0 h 78.84 m 160.2,0 H 653.51 M 76.22,685.33 h 76.5 m 154.66,0 h 41.73 M 307.38,335.18 h 41.73 m 197.31,350.15 h 47.4"
     style="fill:#f2f2f2;stroke:#666666;stroke-width:34;stroke-linecap:round;stroke-linejoin:round;stroke-miterlimit:10"
     id="path2" />
</svg>
