<?xml version="1.0" encoding="UTF-8" standalone="no"?>
<!-- Generator: Adobe Illustrator 26.2.1, SVG Export Plug-In . SVG Version: 6.00 Build 0)  -->

<svg
   version="1.0"
   x="0px"
   y="0px"
   width="299.01376"
   height="258.10727"
   viewBox="0 0 299.01376 258.10727"
   xml:space="preserve"
   id="svg164"
   sodipodi:docname="tl_oHintergrund.svg"
   inkscape:version="1.4 (86a8ad7, 2024-10-11)"
   xmlns:inkscape="http://www.inkscape.org/namespaces/inkscape"
   xmlns:sodipodi="http://sodipodi.sourceforge.net/DTD/sodipodi-0.dtd"
   xmlns:xlink="http://www.w3.org/1999/xlink"
   xmlns="http://www.w3.org/2000/svg"
   xmlns:svg="http://www.w3.org/2000/svg"><defs
   id="defs168">
	
</defs><sodipodi:namedview
   id="namedview166"
   pagecolor="#505050"
   bordercolor="#eeeeee"
   borderopacity="1"
   inkscape:showpageshadow="0"
   inkscape:pageopacity="0"
   inkscape:pagecheckerboard="0"
   inkscape:deskcolor="#505050"
   showgrid="false"
   inkscape:zoom="1.1125147"
   inkscape:cx="1037.2897"
   inkscape:cy="630.55347"
   inkscape:window-width="3840"
   inkscape:window-height="2054"
   inkscape:window-x="-11"
   inkscape:window-y="-11"
   inkscape:window-maximized="1"
   inkscape:current-layer="svg164" />
<style
   type="text/css"
   id="style2">
	.st0{fill:#F0CE3A;}
	.st1{fill:#F4F1E6;}
	.st2{fill:none;}
	.st3{fill:#2E3192;}
	.st4{fill:#E6E7EF;}
	.st5{fill:#D9DAE8;}
	.st6{opacity:0.7;fill:#BABDD3;}
	.st7{fill:#EBECF2;}
	.st8{fill:none;stroke:#ADB1C9;stroke-width:0.5755;stroke-miterlimit:10;}
	.st9{fill:#9AA0D6;}
	.st10{fill:none;stroke:#D9DAE8;stroke-width:1.7266;stroke-miterlimit:10;}
	.st11{fill:#E2AD50;}
	.st12{fill:#FEC556;}
	
		.st13{clip-path:url(#SVGID_00000094616303440307734040000000173710487625474210_);fill:none;stroke:#2E3192;stroke-width:0.2878;stroke-miterlimit:10;}
	.st14{fill:#8790C1;}
	.st15{fill:#7F84CA;}
	.st16{fill:#EDB554;}
	.st17{fill:#6971B7;}
	
		.st18{clip-path:url(#SVGID_00000043431262258126159430000004543213936685171356_);fill:none;stroke:#2E3192;stroke-width:0.2878;stroke-miterlimit:10;}
	.st19{fill:#C7C9D8;}
	.st20{fill:#353778;}
	.st21{fill:#363D96;}
</style>

<g
   id="g410"
   transform="scale(0.5126289)"><g
     id="Ebene_1"
     transform="translate(-102.19456,-53.688894)">
	<path
   class="st1"
   d="M 336.3,59.2 C 294,66.9 183,109.9 150.4,158 c -32.6,48.1 -69.9,108.5 -32.7,184.6 31.4,64.4 113.4,68.4 123.4,140 11.2,80.1 126,97.9 232.1,42.6 C 579.3,469.9 710.4,439.6 681.4,306.6 638.9,112 491.3,30.8 336.3,59.2 Z"
   id="path7" />
	<path
   class="st2"
   d="M 336.3,59.2 C 294,66.9 183,109.9 150.4,158 c -32.6,48.1 -69.9,108.5 -32.7,184.6 31.4,64.4 113.4,68.4 123.4,140 11.2,80.1 126,97.9 232.1,42.6 C 579.3,469.9 710.4,439.6 681.4,306.6 638.9,112 491.3,30.8 336.3,59.2 Z"
   id="path9" />
	<path
   class="st3"
   d="M 456.4,537.1"
   id="path11" />
	<path
   class="st4"
   d="m 205.5,121.8 v 60.6 h -60.2 v -16.8 c -1.9,2.9 -3.8,5.8 -5.8,8.8 v 8.1 h -5.1 c -0.8,1.3 -1.6,2.7 -2.4,4 h 7.5 v 55.2 h -32.2 c -0.4,1.3 -0.7,2.7 -1,4 h 33.2 v 71.4 h -31.8 c 0.4,1.3 0.8,2.7 1.2,4 H 209.5 V 117.8 h -13.9 c -2.1,1.3 -4.1,2.7 -6.1,4 z m 0,195.4 h -60.2 v -71.4 h 60.2 z m 0,-75.5 h -60.2 v -55.2 h 60.2 z"
   id="path13" />
	<path
   class="st5"
   d="m 110.8,326.3 h 104 V 317 H 107.7 c 0.9,3.1 1.9,6.2 3.1,9.3 z"
   id="path15" />
	<path
   class="st6"
   d="m 291.6,514.5 c -0.6,1.5 11.7,1.7 26.1,2.9 14.8,1.2 27.8,1.4 26.1,-2.9 -0.6,-1.5 -11.7,-2.9 -26.1,-2.9 -14.4,0 -24.4,-1.5 -26.1,2.9 z"
   id="path17" />
	<path
   class="st6"
   d="m 332.7,508.6 c -0.5,1.4 10.8,1.6 24,2.6 13.6,1.1 25.5,1.3 24,-2.6 -0.5,-1.4 -10.7,-2.6 -24,-2.6 -13.3,0 -22.4,-1.4 -24,2.6 z"
   id="path19" />
	<rect
   x="294.10001"
   y="118.5"
   class="st5"
   width="198.10001"
   height="190.5"
   id="rect21" />
	<rect
   x="296.89999"
   y="121.8"
   class="st7"
   width="186.89999"
   height="178.7"
   id="rect23" />
	<line
   class="st8"
   x1="324.79999"
   y1="148.7"
   x2="446.89999"
   y2="148.7"
   id="line25" />
	<line
   class="st8"
   x1="324.79999"
   y1="153.2"
   x2="446.89999"
   y2="153.2"
   id="line27" />
	<line
   class="st8"
   x1="324.79999"
   y1="157.60001"
   x2="446.89999"
   y2="157.60001"
   id="line29" />
	<line
   class="st8"
   x1="324.79999"
   y1="162.5"
   x2="446.89999"
   y2="162.5"
   id="line31" />
	<circle
   class="st8"
   cx="445"
   cy="176.2"
   r="4"
   id="circle33" />
	<circle
   class="st8"
   cx="465.29999"
   cy="188.7"
   r="2.9000001"
   id="circle35" />
	<circle
   class="st8"
   cx="459.89999"
   cy="153.39999"
   r="1.6"
   id="circle37" />
	<rect
   x="325.89999"
   y="171.89999"
   class="st8"
   width="50.299999"
   height="33.900002"
   id="rect39" />
	<rect
   x="398.29999"
   y="194.3"
   class="st8"
   width="50.299999"
   height="33.900002"
   id="rect41" />
	<line
   class="st8"
   x1="381"
   y1="202.10001"
   x2="393.70001"
   y2="205.89999"
   id="line43" />
	<line
   class="st8"
   x1="360.70001"
   y1="228.5"
   x2="386.29999"
   y2="228.5"
   id="line45" />
	<line
   class="st8"
   x1="352.10001"
   y1="237.60001"
   x2="415"
   y2="237.60001"
   id="line47" />
	<path
   class="st8"
   d="m 428.9,238.2 c 0.3,-0.4 4.6,-4.6 4.6,-4.6"
   id="path49" />
	<path
   class="st8"
   d="m 433.6,238.2 c 0.3,-0.4 4.6,-4.6 4.6,-4.6"
   id="path51" />
	<rect
   x="356.79999"
   y="258"
   class="st8"
   width="19.200001"
   height="12.9"
   id="rect53" />
	<rect
   x="384.39999"
   y="258"
   class="st8"
   width="19.200001"
   height="12.9"
   id="rect55" />
	<rect
   x="429.79999"
   y="258"
   class="st8"
   width="19.200001"
   height="12.9"
   id="rect57" />
	<path
   class="st9"
   d="m 314.5,494 -0.3,-26.8 -18.5,0.5 1.3,25.2 c -0.9,2.7 0,11.3 0,11.3 l 19.4,2.2 z"
   id="path59" />
	<path
   class="st4"
   d="m 314.4,488.8 c -5.2,-0.4 -13.2,-0.8 -17.7,-1.1 l 0.4,5.3 c -0.9,2.7 0,11.3 0,11.3 l 20,2.2 L 315,494 Z"
   id="path61" />
	<path
   class="st5"
   d="m 301.1,499.7 c 1.1,1.4 3.2,1.6 4.6,0.6 3.5,-2.6 9.4,-6.8 9.7,-6.6 0.4,0.4 12.9,11.1 13.3,11.2 0.3,0.1 5.8,2.3 9.5,3.8 1.7,0.7 1,5.2 0.1,6.6 v 0 c -0.6,1 -1.8,1.6 -3,1.5 l -37.8,-2.6 c -2.3,-0.2 -3.5,-1.4 -4.2,-3.4 -1.2,-3.7 1.1,-14.3 1.9,-15.3 1.3,-1.5 1.9,-0.7 3.2,0.9 z"
   id="path63" />
	<path
   class="st10"
   d="m 297.1,490.9 c 0.1,0 17.6,0.7 17.6,0.7"
   id="path65" />
	<path
   class="st9"
   d="m 353.6,489.6 -1.7,-24.8 -17,1.5 2.6,23.2 c -0.7,2.6 0.6,10.4 0.6,10.4 l 18.1,1 z"
   id="path67" />
	<path
   class="st4"
   d="m 353.3,484.8 c -4.9,-0.1 -12.2,0 -16.4,-0.1 l 0.6,4.9 c -0.7,2.6 0.6,10.4 0.6,10.4 l 18.6,0.9 -2.6,-11.3 z"
   id="path69" />
	<path
   class="st5"
   d="m 341.6,495.6 c 1.1,1.2 3,1.3 4.3,0.3 3.1,-2.6 8.3,-6.8 8.6,-6.6 0.4,0.3 12.5,9.6 12.9,9.7 0.2,0.1 5.5,1.8 9,3 1.6,0.5 1.2,4.7 0.5,6.1 v 0 c -0.5,1 -1.5,1.6 -2.7,1.6 l -35,-0.4 c -2.1,0 -3.4,-1.1 -4.1,-2.9 -1.3,-3.4 0.2,-13.3 1,-14.3 1.1,-1.5 1.7,-0.8 3,0.6 z"
   id="path71" />
	<path
   class="st10"
   d="m 337.4,487.6 c 0.1,0 16.3,-0.3 16.3,-0.3"
   id="path73" />
	<path
   class="st11"
   d="m 291.3,341.8 c 0,0.9 -17.5,68.6 2.3,136.5 15.2,3.7 23.7,-0.4 23.7,-0.4 0,0 3.6,-50.7 5.3,-88.3 1.7,5.7 6,70.3 12.3,86.9 19.7,0 21.2,-1.1 21.2,-1.1 0,0 6,-100.3 -6.3,-137.2 -11.3,0.7 -58.5,3.6 -58.5,3.6 z"
   id="path75" />
	<path
   class="st12"
   d="m 287.7,301.8 c 0,0 -1.6,37.9 0,43 12,2.8 61,-2.7 66.8,-3 -1.3,-13.4 -5.7,-60.5 -10.4,-70.3 -4.7,-9.8 -30.8,-11.2 -30.8,-11.2 l -18,3.8 -8.2,37.8"
   id="path77" />
	<g
   id="g91">
		<defs
   id="defs80">
			<path
   id="SVGID_1_"
   d="m 403.8,206.7 c -0.5,0 -2.8,2.7 -4.4,5 -0.7,1 -1.5,2.1 -2.2,3.3 -0.1,-0.3 -0.3,-0.4 -0.3,-0.4 0,0 0,0 -0.9,-0.3 -0.9,-0.3 -1.8,0.2 -3,0.8 -1.2,-0.5 -2.5,0.2 -3.2,0.7 -1,0.3 -5,3.5 -6,6.2 -1,2.8 -0.6,14.2 -0.7,14.4 0,0 5.5,17.4 7.3,10.1 1.8,-7.2 6.5,-12.9 8.8,-15.2 2.3,-2.2 1.5,-5.9 0.9,-7.9 -0.4,-1.4 -1.2,-2 -1.7,-2 0.6,-1.4 4.5,-9 4.5,-9 0,0 1.2,-2.6 1.5,-3.6 0.4,-0.9 -0.1,-2 -0.6,-2.1 z m -6,16.7 c 0,0.5 0.1,1.1 0.2,1.9 0,0.3 0,0.5 0,0.7 0,0 -0.1,-0.1 -0.1,-0.1 -0.6,-0.5 -0.4,-1.5 -0.1,-2.5 z" />
		</defs>
		<clipPath
   id="SVGID_00000113312152550113404270000012740526083169133730_">
			<use
   xlink:href="#SVGID_1_"
   style="overflow:visible"
   id="use82" />
		</clipPath>
		
			<path
   style="fill:none;stroke:#2e3192;stroke-width:0.2878;stroke-miterlimit:10"
   d="m 393.7,214.5 c 0,0 -1.6,2.3 -2.2,4"
   clip-path="url(#SVGID_00000113312152550113404270000012740526083169133730_)"
   id="path85" />
		
			<path
   style="fill:none;stroke:#2e3192;stroke-width:0.2878;stroke-miterlimit:10"
   d="m 397.4,214.6 c 0,0 -1.7,2.2 -2.4,3.9"
   clip-path="url(#SVGID_00000113312152550113404270000012740526083169133730_)"
   id="path87" />
		
			<path
   style="fill:none;stroke:#2e3192;stroke-width:0.2878;stroke-miterlimit:10"
   d="m 390.5,215 c 0,0 -1.6,2.3 -2.3,4"
   clip-path="url(#SVGID_00000113312152550113404270000012740526083169133730_)"
   id="path89" />
	</g>
	<path
   class="st14"
   d="M 398.5,221.5 398,222 c -0.1,0.5 -0.2,1.3 -0.1,2.4 0,0 0.1,0.6 0.1,0.6 0.2,-0.7 0.7,-2 0.7,-3.5 -0.1,0 -0.1,0 -0.2,0 z"
   id="path93" />
	<path
   class="st15"
   d="M 318.9,270.9"
   id="path95" />
	<path
   class="st9"
   d="m 331.2,365.6 c -0.4,-0.7 -4.2,-4.3 -6.6,-6.6 -2.6,-2.4 -5.5,-6.6 -5.2,-7.4 0.4,-0.8 5.8,-0.8 6.3,-0.9 0.5,-0.1 1.6,-0.4 1.2,-1.7 -0.3,-1.3 -10.9,-1.1 -13.5,-1.4 -1,-0.1 -2.8,-0.6 -4.5,-1.2 l -4.4,9.8 c 0.8,0.8 1.5,1.5 2.1,2 1.9,1.9 6.3,5.6 8.1,7 2.3,1.8 6,3.8 6.8,4.3 0.8,0.5 1.8,0.1 1.8,-0.5 0,0 0,0 0,-0.1 0.3,0.2 0.5,0.5 0.7,0.7 1,0.9 2,1.1 2.2,1.1 0.8,0 0.9,-1.2 0.3,-2.1 0,0 -0.1,-0.1 -0.1,-0.1 0.6,0.5 1,0.9 1.3,1.1 1.5,1.1 2.8,-0.6 1.5,-1.8 -1.2,-1.2 -2.9,-2.4 -3.3,-2.9 0,0 1.4,1.5 3.3,2.3 2,0.6 2.4,-1 2,-1.6 z"
   id="path97" />
	<path
   class="st12"
   d="m 393.3,238.3 c 0,0 -5.1,-1.8 -10,-2 -10.3,10 -15.7,38.5 -15.7,38.5 0,0 -4.9,-2.8 -22.9,-9.3 -6.2,-2.2 -12.7,-3.2 -18.7,-3.5 -0.6,-0.1 -1.2,-0.2 -1.8,-0.4 v 1.2 l -6.4,6.8 -16.5,-6.6 v -1.7 c -4.6,0.8 -16,3.6 -21.5,12.5 -7.1,11.4 -15.1,27 -15.1,27 -4.1,10.1 -14,25.3 12.9,41.8 27,16.4 26,15.5 26,15.5 l 5.6,-12.4 c 0,0 -0.1,-0.2 -0.3,-0.4 18.5,-0.8 41.7,-3.4 45.6,-3.6 -0.7,-7.4 -2.4,-25.2 -4.5,-41.2 12.5,-0.4 26.6,-2.5 35.1,-9.1 8.2,-16.7 8.2,-53.1 8.2,-53.1 z m -106.2,81.3 c -1.8,-1.6 -3.6,-2.8 -5.2,-3.6 1.9,-1.2 3.7,-2.4 5.3,-3.6 0.1,2.3 0,4.7 -0.1,7.2 z"
   id="path99" />
	<path
   class="st9"
   d="m 403.8,206.7 c -0.5,0 -2.8,2.7 -4.4,5 -0.7,1 -1.5,2.1 -2.2,3.3 -0.1,-0.3 -0.3,-0.4 -0.3,-0.4 0,0 0,0 -0.9,-0.3 -0.9,-0.3 -1.8,0.2 -3,0.8 -1.2,-0.5 -2.5,0.2 -3.2,0.7 -1,0.3 -5,3.5 -6,6.2 -1,2.8 -0.6,14.2 -0.7,14.4 0,0 0,0 0,0 0,0 0.1,-0.1 0.1,-0.1 4.9,0.1 10,2 10,2 0,0 0,0.4 0,1.2 2.1,-3.8 4.6,-6.7 6.1,-8.1 2.3,-2.2 1.5,-5.9 0.9,-7.9 -0.4,-1.4 -1.2,-2 -1.7,-2 0.6,-1.3 4.5,-9 4.5,-9 0,0 1.2,-2.6 1.5,-3.6 0.3,-1 -0.2,-2.1 -0.7,-2.2 z M 398,226 c 0,0 -0.1,-0.1 -0.1,-0.1 -0.5,-0.4 -0.3,-1.5 0,-2.5 0,0.5 0.1,1.1 0.2,1.8 -0.1,0.4 -0.1,0.6 -0.1,0.8 z"
   id="path101" />
	<path
   class="st16"
   d="m 301.5,335.3 c -0.1,-0.4 -0.3,-0.8 -0.4,-1.2 -3.1,-8.7 -11.1,-16.9 -13.6,-19.3 3.6,-2.1 8.8,-8.8 11.3,-12.2 -3.2,3.4 -6.7,6.6 -11.4,9.9 -0.1,2.2 -0.1,4.6 -0.2,7.1 4.7,4.1 10,10.3 14.3,15.7 z"
   id="path103" />
	<path
   class="st17"
   d="m 320.8,251.1 -6.7,-0.3 c 2.8,1.7 7.5,2.4 10.1,2.7 v -2.7 c -1,0.3 -2.2,0.4 -3.4,0.3 z"
   id="path105" />
	<path
   class="st3"
   d="m 336,218 c -3.1,-18.3 -18,-18.9 -28.6,-15.9 -2.1,-0.1 -11,-0.1 -17.5,9.2 -7.2,10.3 -6.7,23.4 -7.2,31 -0.5,7.6 -0.1,10.6 1.5,10.8 1.6,0.2 8.4,1.1 9,-1.9 0.3,1.8 0.5,2.1 3.4,2.1 2.9,0 8.2,-0.3 8.2,-0.3 l -0.3,-17.3 c -0.4,0.1 -0.8,0.2 -1.3,0.2 -2.2,0 -4.1,-1.8 -4.1,-4.1 0,-2.2 1.8,-4.1 4.1,-4.1 1.2,0 2.3,0.5 3,1.4 4.4,-1.9 7.5,-9.6 7.5,-9.6 h 9 c 1.2,0 2.2,-0.9 2.3,-2.1 l 0.6,-6.7 0.8,5.4 c 0.1,1.2 1.1,3.3 2.4,3.3 l 5.8,0.2 c 0.9,0.1 1.6,-0.7 1.4,-1.6 z"
   id="path107" />
	<path
   class="st15"
   d="m 334.8,219.6 c -0.1,0 -0.1,0 -0.2,0 l -5.8,-0.2 c -1.2,0 -2.2,-2.1 -2.4,-3.3 l -0.8,-5.4 -0.6,6.7 c -0.1,1.2 -1.1,2.1 -2.3,2.1 h -9 c 0,0 -3.1,7.7 -7.5,9.6 -0.7,-0.8 -1.8,-1.4 -3,-1.4 -2.2,0 -4.1,1.8 -4.1,4.1 0,2.2 1.8,4.1 4.1,4.1 0.5,0 0.9,-0.1 1.3,-0.2 l 0.3,17.3 c 0,0 -1.6,0.1 -3.6,0.1 v 9.9 l 16.5,6.6 6.4,-6.8 0.1,-12 c 7,-1.4 12.1,-7.7 11.6,-15.2 z"
   id="path109" />
	<path
   class="st3"
   d="m 324.3,250.9 v 2 l 4.4,-0.2 c 0.8,0 1.4,-0.6 1.4,-1.4 l 0.1,-3 c -1.7,1.2 -3.7,2.1 -5.9,2.6 z"
   id="path111" />
	<g
   id="g125">
		<defs
   id="defs114">
			<path
   id="SVGID_00000164495139031021348680000001485791312567275937_"
   d="m 303.2,344.3 c 0,0 7.8,3.1 10.3,3.3 2.5,0.2 13.1,0.1 13.5,1.4 0.4,1.3 -0.7,1.7 -1.2,1.7 -0.6,0.1 -5.9,0.1 -6.3,0.9 -0.4,0.8 2.5,5.1 5.2,7.4 2.5,2.2 6.2,5.9 6.6,6.6 0.4,0.5 0,2.2 -1.9,1.5 -1.9,-0.8 -3.3,-2.3 -3.3,-2.3 0.3,0.5 2,1.7 3.3,2.9 1.3,1.2 0,2.9 -1.5,1.8 -1.5,-1.1 -7.5,-6.4 -8.2,-7.2 0.6,0.5 6.3,5.3 7,6.3 0.7,0.9 0.6,2.1 -0.3,2.1 -0.2,0 -1.2,-0.2 -2.2,-1.1 -0.3,-0.3 -0.6,-0.5 -0.9,-0.8 -1.2,-1.2 -2.6,-2.3 -3.6,-3.3 -0.7,-0.7 -0.7,-0.7 -1.1,-1 0.4,0.3 4.8,3.9 4.9,4.5 0.1,0.6 -1,0.9 -1.8,0.5 -0.8,-0.5 -4.5,-2.5 -6.8,-4.3 -1.8,-1.4 -6.2,-5.1 -8.1,-7 -1.9,-1.9 -6.5,-6.1 -6.5,-6.1 z" />
		</defs>
		<clipPath
   id="SVGID_00000151504271631347642370000002937944615254538143_">
			<use
   xlink:href="#SVGID_00000164495139031021348680000001485791312567275937_"
   style="overflow:visible"
   id="use116" />
		</clipPath>
		
			<path
   style="fill:none;stroke:#2e3192;stroke-width:0.2878;stroke-miterlimit:10"
   d="m 320.6,360.8 c 0,0 5.3,4.5 9.6,7"
   clip-path="url(#SVGID_00000151504271631347642370000002937944615254538143_)"
   id="path119" />
		
			<path
   style="fill:none;stroke:#2e3192;stroke-width:0.2878;stroke-miterlimit:10"
   d="m 318.9,363 c 0,0 3.3,3.2 7.7,5.6"
   clip-path="url(#SVGID_00000151504271631347642370000002937944615254538143_)"
   id="path121" />
		
			<path
   style="fill:none;stroke:#2e3192;stroke-width:0.2878;stroke-miterlimit:10"
   d="m 318.4,365.2 c 0,0 1.2,1.5 5.1,3.9"
   clip-path="url(#SVGID_00000151504271631347642370000002937944615254538143_)"
   id="path123" />
	</g>
	<path
   class="st19"
   d="m 386.6,379.7 h -24.5 v -0.6 h 24.4 v -0.6 h -24.4 v -0.7 h 24.4 v -0.6 h -24.4 v -0.7 h 24.4 V 376 h -24.4 v -0.7 h 24.4 v -0.6 h -24.4 v -0.6 h 24.4 v -0.6 h -24.4 v -0.4 h 24.6 c 1,0 1.9,-0.8 1.9,-1.9 0,-1.1 -0.8,-1.9 -1.9,-1.9 h -25 c -3.9,0 -7,3.1 -7,7 0,3.9 3.1,7 7,7 h 24.8 c 1,0 1.9,-0.8 1.9,-1.9 0.1,-0.8 -0.8,-1.7 -1.8,-1.7 z m -28.1,-3.2 c 0,-1.7 1.3,-3.1 3,-3.2 v 6.5 c -1.7,-0.2 -3,-1.6 -3,-3.3 z"
   id="path127" />
	<path
   class="st5"
   d="M 419.8,382.7 H 239.1 c -1.8,0 -3.3,1.5 -3.3,3.3 0,1.8 1.5,3.3 3.3,3.3 h 8 v 114.8 c 1.5,3.4 3.3,6.7 5.3,9.8 V 389.4 h 156.9 v 126.9 h 5.3 V 389.4 h 5.1 c 1.8,0 3.3,-1.5 3.3,-3.3 0,-1.8 -1.3,-3.4 -3.2,-3.4 z"
   id="path129" />
	<path
   class="st19"
   d="m 405.8,370.5 0.9,-5.2 h -17 l 3.1,17.8 h 10.7 l 0.9,-5 c 0.2,0 0.4,0.1 0.6,0.1 2.3,0 4.2,-1.7 4.2,-3.9 0.1,-1.9 -1.4,-3.5 -3.4,-3.8 z m -0.7,5.9 c -0.1,0 -0.2,0 -0.3,0 l 0.8,-4.3 c 1.1,0.2 1.9,1.1 1.9,2.1 -0.1,1.3 -1.1,2.2 -2.4,2.2 z"
   id="path131" />
	<path
   class="st3"
   d="M 625.2,363.8"
   id="path133" />
	<path
   class="st20"
   d="m 646.6,429.6 c -2.1,-0.2 -4.1,-0.3 -6.3,-0.3 v 0 c -29,0 -53.6,19.1 -61.8,45.4 26,-13.3 49.7,-27.7 68.1,-45.1 z"
   id="path135" />
	<path
   class="st12"
   d="m 660.3,414.8 c -6.3,-2.2 -11.9,-2.6 -11.9,-2.6 v 0.1 l -18.3,-1.4 c 0,0 -15.9,-0.1 -23.1,6.2 0,0 0,0 0,0 0,0 -6.8,2.2 -16.4,24.1 -3.7,8.4 -5.9,16 -7.2,22.2 10.9,-20.3 32.4,-34.1 57.1,-34.1 v 0 c 2.1,0 4.2,0.1 6.2,0.3 4.9,-4.7 9.4,-9.6 13.6,-14.8 z"
   id="path137" />
	<path
   class="st15"
   d="m 568.2,437.5 c 0,0 -2.5,-6.4 -3,-11.5 -0.5,-5.1 1.7,-11.7 1.7,-11.7 l -13.2,-4.8 3.1,-36.3 -20.6,8.9 -4.6,19.7 c -1.8,7.7 3.6,17.2 11.1,19.4 l -1.1,15.5 z"
   id="path139" />
	<path
   class="st3"
   d="M 542.2,383.1"
   id="path141" />
	<path
   class="st3"
   d="m 583.4,390.5 c -1.1,-16.1 -14.2,-25.2 -31.1,-22 -7.4,-1.7 -11.6,-1.5 -14.7,0.2 -3.3,1.8 -7.5,7.6 -3.6,11.6 0.4,0.4 0.8,0.8 1.2,1.1 -0.5,3.9 -0.5,9.4 0.6,14.3 0.6,-0.4 1.4,-0.7 2.2,-0.7 2.2,0 4.1,1.8 4.1,4.1 0,2 -1.4,3.6 -3.3,4 4,6.3 8.7,15.7 16.2,16.4 7.6,0.7 8.7,-0.1 8.7,-0.1 4.6,-0.2 7.3,-3.8 9,-5.4 3.2,-2.9 11.4,-13.3 10.7,-23.5 z"
   id="path143" />
	<path
   class="st20"
   d="m 594,466.4 c -10.4,-7.1 -23,-11.3 -36.5,-11.3 v 0 c -34.2,0 -62.2,26.6 -64.6,60.2 34.3,-16.7 70,-31.6 101.1,-48.9 z"
   id="path145" />
	<path
   class="st12"
   d="m 588.4,444 c -7.3,-11.3 -23.8,-12.4 -23.8,-12.4 v 0.1 L 548,430.3 c 0,0 -14.4,-0.1 -20.9,6.2 0,0 0,0 0,0 0,0 -6.2,2.2 -14.9,24.1 -3,7.4 -4.9,14.2 -6.1,20 11.8,-15.4 30.4,-25.4 51.4,-25.4 v 0 c 13.6,0 26.1,4.2 36.5,11.3 1.5,-0.9 3.1,-1.7 4.6,-2.6 -3.6,-8.2 -7.4,-15.5 -10.2,-19.9 z"
   id="path147" />
	<path
   class="st20"
   d="m 473.2,525.2 c 12.9,-6.7 26.3,-13.1 39.6,-19.4 -11.9,-15 -30.2,-24.7 -50.9,-24.7 v 0 c -35.8,0 -64.8,29 -64.8,64.8 v 6.6 c 24.9,-5 50.7,-14.1 76.1,-27.3 z"
   id="path149" />
	<path
   class="st15"
   d="m 479,441.5 -18.2,-2.9 -3.1,-36.3 -18.8,12.2 -0.5,8 c -1,1.5 -2.3,3.4 -3.6,4.9 -1.2,1.4 1,2.3 3.1,2.8 l -0.3,4.5 c -0.4,6.8 4.6,14 11,16.5 l -1,14.5 31.1,1.2 c 0,0 -2,-7.4 -2.4,-12.4 -0.5,-5 2.7,-13 2.7,-13 z"
   id="path151" />
	<path
   class="st12"
   d="m 521.1,498.8 c -6.5,-16.4 -18.5,-30.6 -27.7,-32.9 -5.6,-1.4 -18.9,-3.6 -24.5,-3.5 -1.9,0 -18.5,-0.3 -18.5,-0.3 -7,0 -37.6,5.4 -44.3,15.5 -5.7,8.5 -11.2,35.3 -7.5,54.7 6.2,-29.3 32.2,-51.3 63.3,-51.3 v 0 c 20.6,0 39,9.7 50.9,24.7 3.1,-1.4 6.2,-2.9 9.3,-4.3 -0.4,-0.8 -0.7,-1.7 -1,-2.6 z"
   id="path153" />
	<path
   class="st21"
   d="m 564.4,395.1 c 0,0 5.1,-2.2 10.6,4 5.5,6.2 10.1,21.4 3.7,32.4 -3.8,6.6 -4.3,11.4 -4,14.2 0.1,1.1 -1.1,1.9 -2,1.3 -4.9,-3.1 -14.4,-10.8 -11.9,-21.3 3.4,-13.9 3.8,-22.5 2,-24.8 -1.8,-2.3 1.6,-5.8 1.6,-5.8 z"
   id="path155" />
	<path
   class="st20"
   d="m 489.4,417.5 c -1.5,-7 0.3,-33.2 -24.3,-32.6 -21.9,0.6 -36.8,17 -26.8,32.6 3.9,6 5.3,3.4 5.7,5.3 l -2.2,5.3 c 0,0 -3.5,6.8 -4,7.9 -0.6,1.1 -3.6,7.5 -0.7,12 2.9,4.5 11,3.3 11,3.3 0,-2.5 -1.4,-7.4 -3.1,-9.9 -1.7,-2.5 -2.9,-11.1 -2.2,-12.8 0.7,-1.7 2.3,-4.6 2.3,-4.6 v -0.1 c 0.6,-0.3 1.2,-0.5 1.9,-0.5 2.2,0 4.1,1.8 4.1,4.1 0,2.2 -1.8,4.1 -4.1,4.1 -0.6,0 -1.2,-0.2 -1.8,-0.4 1,3.6 3,7.6 7,11.1 4.4,3.9 8.6,6 21.7,3.3 13,-2.9 17,-21.1 15.5,-28.1 z"
   id="path157" />
	<path
   class="st15"
   d="m 614.5,382.5 c -1.8,7.7 3.6,17.2 11.1,19.4 l -0.6,9.3 c 3,-0.3 5,-0.3 5,-0.3 l 18.3,1.4 v -0.1 c 0,0 0.3,0 1,0.1 -0.5,-1.8 -0.9,-3.8 -1.1,-5.6 -0.5,-5.1 1.7,-11.7 1.7,-11.7 l -13.2,-4.8 3.1,-36.3 -20.6,8.9 -3.3,13.9 c -0.9,1.1 -1.7,1.9 -2.3,2.5 -0.7,0.7 0.4,2 1.1,2.7 z"
   id="path159" />
	<path
   class="st20"
   d="m 629.5,347.4 c -2.6,-1.4 -8.1,-3 -12.8,0.2 -5.2,3.6 -4,16.8 3.8,17.4 1.4,0.1 2.8,0 4.3,-0.3 -0.2,2.8 -0.2,6.1 0.6,9.3 0.4,-0.1 0.8,-0.2 1.3,-0.2 2.2,0 4.1,1.8 4.1,4.1 0,1.4 -0.7,2.7 -1.9,3.4 0.8,0.9 1.6,1.8 2.7,2.6 1.1,18.4 21.2,17.6 31.5,12.7 7.1,-3.4 6.8,-16.4 6,-24.2 12.9,-23.2 -26.9,-41.9 -39.6,-25 z"
   id="path161" />
</g></g>
</svg>
