<?xml version="1.0" encoding="UTF-8" standalone="no"?>
<svg
   id="Ebene_1"
   version="1.1"
   viewBox="0 0 595.28 841.89"
   sodipodi:docname="UmschlagLayout.svg"
   inkscape:version="1.4 (86a8ad7, 2024-10-11)"
   xmlns:inkscape="http://www.inkscape.org/namespaces/inkscape"
   xmlns:sodipodi="http://sodipodi.sourceforge.net/DTD/sodipodi-0.dtd"
   xmlns="http://www.w3.org/2000/svg"
   xmlns:svg="http://www.w3.org/2000/svg">
  <sodipodi:namedview
     id="namedview131"
     pagecolor="#505050"
     bordercolor="#ffffff"
     borderopacity="1"
     inkscape:showpageshadow="0"
     inkscape:pageopacity="0"
     inkscape:pagecheckerboard="1"
     inkscape:deskcolor="#d1d1d1"
     inkscape:zoom="2.1558636"
     inkscape:cx="297.79249"
     inkscape:cy="309.6207"
     inkscape:window-width="3840"
     inkscape:window-height="2054"
     inkscape:window-x="-11"
     inkscape:window-y="-11"
     inkscape:window-maximized="1"
     inkscape:current-layer="Ebene_1" />
  <!-- Generator: Adobe Illustrator 29.5.1, SVG Export Plug-In . SVG Version: 2.1.0 Build 141)  -->
  <defs
     id="defs7">
    <style
       id="style1">
      .st0 {
        clip-path: url(#clippath-6);
      }

      .st1 {
        stroke-width: 2.03px;
      }

      .st1, .st2, .st3, .st4, .st5, .st6, .st7, .st8, .st9, .st10 {
        fill: none;
      }

      .st1, .st2, .st4, .st5, .st7, .st8, .st9, .st10 {
        stroke: #293842;
      }

      .st1, .st2, .st5, .st7, .st8, .st9, .st10 {
        stroke-miterlimit: 10;
      }

      .st11 {
        clip-path: url(#clippath-4);
      }

      .st2 {
        stroke-width: 2.52px;
      }

      .st3 {
        stroke: #feeadc;
        stroke-linecap: round;
        stroke-width: 3px;
      }

      .st3, .st4 {
        stroke-linejoin: round;
      }

      .st4 {
        stroke-width: 2.49px;
      }

      .st12 {
        font-family: SofiaProSoftMedium, 'Sofia Pro Soft';
        font-size: 47.58px;
      }

      .st12, .st13, .st14 {
        fill: #feeddd;
      }

      .st5 {
        stroke-width: 2.03px;
      }

      .st15 {
        font-family: SofiaProSoftLight, 'Sofia Pro Soft';
        font-size: 30px;
      }

      .st15, .st16 {
        fill: #feeadc;
      }

      .st17 {
        clip-path: url(#clippath-1);
      }

      .st18 {
        clip-path: url(#clippath-5);
      }

      .st19 {
        fill: #3a4956;
      }

      .st20 {
        fill: #f0825d;
      }

      .st21 {
        clip-path: url(#clippath-3);
      }

      .st14 {
        font-family: SofiaProSoftRegular, 'Sofia Pro Soft';
        font-size: 83.23px;
      }

      .st22 {
        fill: #f1b7a8;
      }

      .st23 {
        clip-path: url(#clippath-2);
      }

      .st7 {
        stroke-width: 2.89px;
      }

      .st8 {
        stroke-width: 1.76px;
      }

      .st24 {
        fill: #415361;
      }

      .st9 {
        stroke-width: 1.47px;
      }

      .st10 {
        stroke-width: 2.57px;
      }

      .st25 {
        clip-path: url(#clippath);
      }

      .st16 {
        font-family: SofiaProSoftBold, 'Sofia Pro Soft';
        font-size: 58px;
      }

      .st26 {
        fill: #293842;
      }
    </style>
    <clipPath
       id="clippath">
      <rect
         class="st6"
         x="1727.01"
         y="1283.77"
         width="516.82"
         height="370.02"
         transform="translate(-314.57 2368.35) rotate(-57.85)"
         id="rect1" />
    </clipPath>
    <clipPath
       id="clippath-1">
      <rect
         class="st6"
         x="-436.77"
         y="1734.82"
         width="319.81"
         height="269.14"
         id="rect2" />
    </clipPath>
    <clipPath
       id="clippath-2">
      <rect
         class="st6"
         x="-436.77"
         y="1734.82"
         width="319.81"
         height="269.14"
         id="rect3" />
    </clipPath>
    <clipPath
       id="clippath-3">
      <rect
         class="st6"
         x="-29.08"
         y="1791.31"
         width="17.3"
         height="17.3"
         id="rect4" />
    </clipPath>
    <clipPath
       id="clippath-4">
      <rect
         class="st6"
         x="210.62"
         y="2037.66"
         width="17.3"
         height="17.3"
         id="rect5" />
    </clipPath>
    <clipPath
       id="clippath-5">
      <rect
         class="st6"
         x="390.29"
         y="1982.69"
         width="146.96"
         height="218.35"
         transform="translate(-1051.92 577.37) rotate(-32.52)"
         id="rect6" />
    </clipPath>
    <clipPath
       id="clippath-6">
      <rect
         class="st6"
         x="15.11"
         y="2014.4"
         width="110.2"
         height="115.78"
         id="rect7" />
    </clipPath>
  </defs>
  <rect
     class="st20"
     x="-595.28"
     width="1190.55"
     height="841.89"
     id="rect8" />
  <rect
     class="st19"
     x="-751.19"
     y="1742.71"
     width="1866.08"
     height="372.82"
     id="rect9" />
  <path
     class="st24"
     d="M452.79,1735.31c-26.95-30.08-72.07-26.48-95.97-12.36-23.42,13.84-24.7,48.99-9.38,67.34,2.65,3.17,7.31,6.93,13.58,10.54-.24,3.63-1.15,9.46-4.42,12.6,6.29-2.68,10.29-5.9,12.7-8.4,14.29,6.41,33.91,11.21,56.24,9.34,38.76-3.24,54.2-48.98,27.26-79.06"
     id="path9" />
  <path
     class="st4"
     d="M452.79,1735.31c-26.95-30.08-72.07-26.48-95.97-12.36-23.42,13.84-24.7,48.99-9.38,67.34,2.65,3.17,7.31,6.93,13.58,10.54-.24,3.63-1.15,9.46-4.42,12.6,6.29-2.68,10.29-5.9,12.7-8.4,14.29,6.41,33.91,11.21,56.24,9.34,38.76-3.24,54.2-48.98,27.26-79.06Z"
     id="path10" />
  <path
     class="st24"
     d="M-669.25,1812.42c-14.18-2.99-69.42-14.64-92.21,13.37-12.07,14.84-13.43,38.82-11,53.42.83,4.97,1.95,7.99,2.25,14.28.85,18.29-6.71,32.55-10.15,38.2-9.14,15.02-21.3,21.19-30.89,27.7-24.33,16.52-50.03,47.42-56.12,80.1-8.68,46.58,24.54,85.75,29.54,91.48,21.19,24.25,46.48,35.06,72.84,43.99,21.86,7.4,49.97,15.13,86.46,10.77,16.81-2.01,40.96-4.89,62.57-22.34,28.07-22.68,39.21-59.85,37.7-88.96-.93-17.98-7.11-40.41-14.21-66.2-4.8-17.43-9.11-29.91-3.64-43.78,2.71-6.86,4.91-6.71,18.46-25.37,17.51-24.11,17.7-29.69,17.1-33.28-1.45-8.72-9.34-16.64-17.71-18.96-10.52-2.91-14.45,5.06-28.43,4.06-1.55-.11-18.71-1.58-25.81-13.9-3.69-6.41-4.44-13.35-3.46-23.09,1.66-16.52,6.08-22.48,3.37-28.83-2.55-5.98-8.13-5.47-29.22-10.88-.64-.16-4.64-1.19-7.43-1.78"
     id="path11" />
  <path
     class="st8"
     d="M-669.25,1812.42c-14.18-2.99-69.42-14.64-92.21,13.37-12.07,14.84-13.43,38.82-11,53.42.83,4.97,1.95,7.99,2.25,14.28.85,18.29-6.71,32.55-10.15,38.2-9.14,15.02-21.3,21.19-30.89,27.7-24.33,16.52-50.03,47.42-56.12,80.1-8.68,46.58,24.54,85.75,29.54,91.48,21.19,24.25,46.48,35.06,72.84,43.99,21.86,7.4,49.97,15.13,86.46,10.77,16.81-2.01,40.96-4.89,62.57-22.34,28.07-22.68,39.21-59.85,37.7-88.96-.93-17.98-7.11-40.41-14.21-66.2-4.8-17.43-9.11-29.91-3.64-43.78,2.71-6.86,4.91-6.71,18.46-25.37,17.51-24.11,17.7-29.69,17.1-33.28-1.45-8.72-9.34-16.64-17.71-18.96-10.52-2.91-14.45,5.06-28.43,4.06-1.55-.11-18.71-1.58-25.81-13.9-3.69-6.41-4.44-13.35-3.46-23.09,1.66-16.52,6.08-22.48,3.37-28.83-2.55-5.98-8.13-5.47-29.22-10.88-.64-.16-4.64-1.19-7.43-1.78Z"
     id="path12" />
  <path
     class="st26"
     d="M-645.71,2055.02c-.09-.78-.98-1.19-1.62-.73-2.36,1.69-8.02,4.42-17.7,1.5-13.28-4.02-17.05-13.52-17.05-13.52l-29.38-8.89-2.07-.62-29.38-8.89s-8.4,5.81-21.68,1.8c-9.68-2.93-12.88-8.34-13.9-11.05-.28-.74-1.25-.89-1.76-.29-3.54,4.17-4.51,9.74-2.45,14.2,1.84,3.99,5.89,5.85,7.98,6.71,10.04,4.13,43.29,14.72,55.83,18.51,12.68,3.84,46.35,13.49,56.99,15.62,2.22.44,6.62,1.15,10.36-1.16,4.18-2.57,6.47-7.74,5.83-13.17"
     id="path13" />
  <path
     class="st8"
     d="M-645.71,2055.02c-.09-.78-.98-1.19-1.62-.73-2.36,1.69-8.02,4.42-17.7,1.5-13.28-4.02-17.05-13.52-17.05-13.52l-29.38-8.89-2.07-.62-29.38-8.89s-8.4,5.81-21.68,1.8c-9.68-2.93-12.88-8.34-13.9-11.05-.28-.74-1.25-.89-1.76-.29-3.54,4.17-4.51,9.74-2.45,14.2,1.84,3.99,5.89,5.85,7.98,6.71,10.04,4.13,43.29,14.72,55.83,18.51,12.68,3.84,46.35,13.49,56.99,15.62,2.22.44,6.62,1.15,10.36-1.16,4.18-2.57,6.47-7.74,5.83-13.17Z"
     id="path14" />
  <rect
     class="st6"
     x="-869.7"
     y="1461.04"
     width="468.33"
     height="756.84"
     id="rect14" />
  <rect
     class="st24"
     x="-721.54"
     y="2015.44"
     width="11.71"
     height="55.04"
     transform="translate(-2463.87 766.35) rotate(-73.17)"
     id="rect15" />
  <path
     class="st8"
     d="M-637.57,1940.97c-7.08,23.4-31.79,36.63-55.19,29.55-23.4-7.08-36.63-31.79-29.55-55.19,7.08-23.4,31.79-36.63,55.19-29.55,23.4,7.08,36.63,31.79,29.55,55.19ZM-633.71,1942.13c-7.72,25.53-34.68,39.97-60.21,32.24-25.53-7.72-39.97-34.68-32.24-60.21,7.72-25.53,34.68-39.97,60.21-32.24,25.53,7.72,39.97,34.68,32.24,60.21Z"
     id="path15" />
  <path
     class="st26"
     d="M-644.05,1939.01c-6,19.82-26.93,31.03-46.75,25.03-19.82-6-31.03-26.93-25.03-46.75,6-19.82,26.93-31.03,46.75-25.03,19.82,6,31.03,26.93,25.03,46.75"
     id="path16" />
  <path
     class="st26"
     d="M-585.26,1463.48l6.72,2.01c.24.07.48-.06.56-.3l2.02-6.74,8.83,2.64,1.26-4.21-2.5-.75.03-.12-6.33-1.89,1.84-6.14c.07-.24-.06-.48-.3-.56l-2.21-.66c-.06-.09-.14-.17-.25-.2l-6.72-2.01c-1.28-.38-2.64.35-3.02,1.63l-4.01,13.41c-.38,1.28.35,2.64,1.63,3.02l1.77.53c.21.14.44.26.69.33"
     id="path17" />
  <path
     class="st26"
     d="M-579.31,1507.55l-2.5-.75.03-.12-6.3-1.88,1.67-5.58c.07-.24-.06-.48-.3-.56l-2.21-.66c-.06-.09-.14-.17-.25-.2l-6.72-2.01c-1.28-.38-2.64.35-3.02,1.63l-3.4,11.35c-.38,1.28.35,2.64,1.63,3.02l1.77.53c.21.14.44.26.69.33l6.72,2.01c.24.07.48-.06.56-.3l1.57-5.24,8.79,2.63,1.26-4.21Z"
     id="path18" />
  <path
     class="st26"
     d="M-583.31,1482.68l8.83,2.64,1.26-4.21-2.5-.75.03-.12-6.33-1.89,1.22-4.07-2.5-.75.03-.12-7.57-2.27c-1.05-.31-2.15.28-2.47,1.33l-2.77,9.27c-.31,1.05.28,2.15,1.33,2.47l1.87.56c.18.13.38.24.6.31l7.57,2.27,1.4-4.67Z"
     id="path19" />
  <path
     class="st26"
     d="M-512.27,1535.96l4.61-13.21c.44-1.27-.23-2.65-1.49-3.09l-6.62-2.31c-.23-.08-.49.04-.57.27l-2.31,6.64-8.7-3.03-1.45,4.15,8.7,3.03-2.15,6.17c-.08.23.04.49.27.57l6.62,2.31c1.27.44,2.65-.23,3.09-1.49"
     id="path20" />
  <path
     class="st26"
     d="M-506.42,1484.01c-.08.23.04.49.27.57l6.62,2.31c1.27.44,2.65-.23,3.09-1.49l3.9-11.19c.44-1.27-.23-2.65-1.49-3.09l-6.62-2.31c-.23-.08-.49.04-.57.27l-1.8,5.17-8.67-3.02-1.45,4.15,8.67,3.02-1.96,5.62Z"
     id="path21" />
  <path
     class="st26"
     d="M-513.13,1508.67l7.47,2.6c1.03.36,2.16-.19,2.52-1.22l3.18-9.13c.36-1.03-.19-2.16-1.22-2.52l-7.47-2.6-1.6,4.6-8.7-3.03-1.45,4.15,8.7,3.03-1.44,4.13Z"
     id="path22" />
  <path
     class="st24"
     d="M-580.75,1537.91s1.01.37,2.72,1l-110.08,347.86c-1.11,3.66-1.42,3.39,2.37,4.54l30.43,9.17c3.43,1.04,3.49.8,4.47-2.45,11.34-37.49,87.97-305.77,100.82-349.21.62.21,1.22.41,1.8.6,7.05-12.26,14.79-8.22,14.61-8.68l26.03-74.01c1.4-4-.73-8.36-4.72-9.65l-.36-.12,1.03-3.85c1.28-4.79-1.29-9.75-5.92-11.39l-24.41-8.7c-10.1-3.6-21.16,2.16-24.11,12.57-8.05,28.32-21.91,78.11-20.3,79.67,6.97,6.76,5.61,12.67,5.61,12.67"
     id="path23" />
  <path
     class="st8"
     d="M-580.75,1537.91s1.01.37,2.72,1l-110.08,347.86c-1.11,3.66-1.42,3.39,2.37,4.54l30.43,9.17c3.43,1.04,3.49.8,4.47-2.45,11.34-37.49,87.97-305.77,100.82-349.21.62.21,1.22.41,1.8.6,7.05-12.26,14.79-8.22,14.61-8.68l26.03-74.01c1.4-4-.73-8.36-4.72-9.65l-.36-.12,1.03-3.85c1.28-4.79-1.29-9.75-5.92-11.39l-24.41-8.7c-10.1-3.6-21.16,2.16-24.11,12.57-8.05,28.32-21.91,78.11-20.3,79.67,6.97,6.76,5.61,12.67,5.61,12.67Z"
     id="path24" />
  <path
     class="st26"
     d="M-558.09,1579.76l-.53,1.65c-.04.13-.18.2-.31.16l-31.34-10.02c-.13-.04-.2-.18-.16-.31l.53-1.65c.04-.13.18-.2.31-.16l31.34,10.02c.13.04.2.18.16.31"
     id="path25" />
  <path
     class="st26"
     d="M-566.2,1606.46l-.53,1.65c-.04.13-.18.2-.31.16l-31.34-10.02c-.13-.04-.2-.18-.16-.31l.53-1.65c.04-.13.18-.2.31-.16l31.34,10.02c.13.04.2.18.16.31"
     id="path26" />
  <path
     class="st26"
     d="M-574.32,1633.16l-.53,1.65c-.04.13-.18.2-.31.16l-31.34-10.02c-.13-.04-.2-.18-.16-.31l.53-1.65c.04-.13.18-.2.31-.16l31.34,10.02c.13.04.2.18.16.31"
     id="path27" />
  <path
     class="st26"
     d="M-582.43,1659.86l-.53,1.65c-.04.13-.18.2-.31.16l-31.34-10.02c-.13-.04-.2-.18-.16-.31l.53-1.65c.04-.13.18-.2.31-.16l31.34,10.02c.13.04.2.18.16.31"
     id="path28" />
  <path
     class="st26"
     d="M-590.55,1686.56l-.53,1.65c-.04.13-.18.2-.31.16l-31.34-10.02c-.13-.04-.2-.18-.16-.31l.53-1.65c.04-.13.18-.2.31-.16l31.34,10.02c.13.04.2.18.16.31"
     id="path29" />
  <path
     class="st26"
     d="M-598.66,1713.26l-.53,1.65c-.04.13-.18.2-.31.16l-31.34-10.02c-.13-.04-.2-.18-.16-.31l.53-1.65c.04-.13.18-.2.31-.16l31.34,10.02c.13.04.2.18.16.31"
     id="path30" />
  <path
     class="st26"
     d="M-604.94,1740.5l-.53,1.65c-.04.13-.18.2-.32.16l-32.97-10.51c-.14-.04-.21-.18-.17-.31l.53-1.64c.04-.13.18-.2.32-.16l32.97,10.51c.14.04.21.18.17.31"
     id="path31" />
  <path
     class="st26"
     d="M-613.06,1767.2l-.53,1.65c-.04.13-.18.2-.32.16l-32.97-10.51c-.14-.04-.21-.18-.17-.31l.53-1.64c.04-.13.18-.2.32-.16l32.97,10.51c.14.04.21.18.17.31"
     id="path32" />
  <path
     class="st26"
     d="M-621.18,1793.9l-.53,1.65c-.04.13-.18.2-.32.16l-32.97-10.51c-.14-.04-.21-.18-.17-.31l.53-1.64c.04-.13.18-.2.32-.16l32.97,10.51c.14.04.21.18.17.31"
     id="path33" />
  <path
     class="st26"
     d="M-629.29,1820.6l-.53,1.64c-.04.13-.18.2-.32.16l-32.97-10.51c-.14-.04-.21-.18-.17-.31l.53-1.64c.04-.13.19-.2.32-.16l32.97,10.51c.14.04.21.18.17.31"
     id="path34" />
  <path
     class="st26"
     d="M-636.75,1848.18l-.53,1.64c-.04.13-.19.2-.34.15l-35.22-11.19c-.15-.05-.23-.19-.19-.32l.53-1.64c.04-.13.19-.2.34-.15l35.22,11.19c.15.05.23.19.19.32"
     id="path35" />
  <path
     class="st26"
     d="M-644.87,1874.87l-.53,1.64c-.04.13-.19.2-.34.15l-35.22-11.19c-.15-.05-.23-.19-.19-.32l.53-1.64c.04-.13.19-.2.34-.15l35.22,11.19c.15.05.23.19.19.32"
     id="path36" />
  <path
     class="st26"
     d="M-546.59,1547.19l-.57,1.79c-.04.14-.2.22-.34.17l-33.11-10.59c-.14-.04-.22-.2-.17-.34l.57-1.79c.04-.14.2-.22.34-.17l33.11,10.59c.14.04.22.2.17.34"
     id="path37" />
  <path
     class="st26"
     d="M-554.68,1455.29c3.3,1.39,4.84,5.2,3.45,8.49-1.39,3.3-5.2,4.84-8.49,3.45-3.3-1.39-4.84-5.2-3.45-8.49,1.39-3.3,5.2-4.84,8.49-3.45"
     id="path38" />
  <path
     class="st26"
     d="M-560.92,1480.54c3.3,1.39,4.84,5.2,3.45,8.49-1.39,3.3-5.2,4.84-8.49,3.45-3.3-1.39-4.84-5.2-3.45-8.49,1.39-3.3,5.2-4.84,8.49-3.45"
     id="path39" />
  <path
     class="st26"
     d="M-567.34,1506.23c3.3,1.39,4.84,5.2,3.45,8.49-1.39,3.3-5.2,4.84-8.49,3.45-3.3-1.39-4.84-5.2-3.45-8.49,1.39-3.3,5.2-4.84,8.49-3.45"
     id="path40" />
  <path
     class="st26"
     d="M-521.6,1463.78c3.14,1.72,4.29,5.66,2.57,8.8-1.72,3.14-5.66,4.29-8.8,2.57-3.14-1.72-4.29-5.66-2.57-8.8,1.72-3.14,5.66-4.29,8.8-2.57"
     id="path41" />
  <path
     class="st26"
     d="M-530.35,1488.28c3.14,1.72,4.29,5.66,2.57,8.8-1.72,3.14-5.66,4.29-8.8,2.57-3.14-1.72-4.29-5.66-2.57-8.8,1.72-3.14,5.66-4.29,8.8-2.57"
     id="path42" />
  <path
     class="st26"
     d="M-539.33,1513.19c3.14,1.72,4.29,5.66,2.57,8.8-1.72,3.14-5.66,4.29-8.8,2.57-3.14-1.72-4.29-5.66-2.57-8.8,1.72-3.14,5.66-4.29,8.8-2.57"
     id="path43" />
  <path
     class="st24"
     d="M-730.42,2039.35c-.36,1.19-1.62,1.86-2.81,1.5-1.19-.36-1.86-1.62-1.5-2.81.36-1.19,1.62-1.86,2.81-1.5,1.19.36,1.86,1.62,1.5,2.81"
     id="path44" />
  <path
     class="st8"
     d="M-730.42,2039.35c-.36,1.19-1.62,1.86-2.81,1.5-1.19-.36-1.86-1.62-1.5-2.81.36-1.19,1.62-1.86,2.81-1.5,1.19.36,1.86,1.62,1.5,2.81Z"
     id="path45" />
  <path
     class="st24"
     d="M-723.75,2041.37c-.36,1.19-1.62,1.86-2.81,1.5-1.19-.36-1.86-1.62-1.5-2.81.36-1.19,1.62-1.86,2.81-1.5,1.19.36,1.86,1.62,1.5,2.81"
     id="path46" />
  <path
     class="st8"
     d="M-723.75,2041.37c-.36,1.19-1.62,1.86-2.81,1.5-1.19-.36-1.86-1.62-1.5-2.81.36-1.19,1.62-1.86,2.81-1.5,1.19.36,1.86,1.62,1.5,2.81Z"
     id="path47" />
  <path
     class="st24"
     d="M-717.09,2043.38c-.36,1.19-1.62,1.86-2.81,1.5-1.19-.36-1.86-1.62-1.5-2.81.36-1.19,1.62-1.86,2.81-1.5,1.19.36,1.86,1.62,1.5,2.81"
     id="path48" />
  <path
     class="st8"
     d="M-717.09,2043.38c-.36,1.19-1.62,1.86-2.81,1.5-1.19-.36-1.86-1.62-1.5-2.81.36-1.19,1.62-1.86,2.81-1.5,1.19.36,1.86,1.62,1.5,2.81Z"
     id="path49" />
  <path
     class="st24"
     d="M-710.42,2045.4c-.36,1.19-1.62,1.86-2.81,1.5-1.19-.36-1.86-1.62-1.5-2.81.36-1.19,1.62-1.86,2.81-1.5,1.19.36,1.86,1.62,1.5,2.81"
     id="path50" />
  <path
     class="st8"
     d="M-710.42,2045.4c-.36,1.19-1.62,1.86-2.81,1.5-1.19-.36-1.86-1.62-1.5-2.81.36-1.19,1.62-1.86,2.81-1.5,1.19.36,1.86,1.62,1.5,2.81Z"
     id="path51" />
  <path
     class="st24"
     d="M-703.75,2047.42c-.36,1.19-1.62,1.86-2.81,1.5-1.19-.36-1.86-1.62-1.5-2.81.36-1.19,1.62-1.86,2.81-1.5,1.19.36,1.86,1.62,1.5,2.81"
     id="path52" />
  <path
     class="st8"
     d="M-703.75,2047.42c-.36,1.19-1.62,1.86-2.81,1.5-1.19-.36-1.86-1.62-1.5-2.81.36-1.19,1.62-1.86,2.81-1.5,1.19.36,1.86,1.62,1.5,2.81Z"
     id="path53" />
  <path
     class="st24"
     d="M-697.08,2049.43c-.36,1.19-1.62,1.86-2.81,1.5-1.19-.36-1.86-1.62-1.5-2.81.36-1.19,1.62-1.86,2.81-1.5,1.19.36,1.86,1.62,1.5,2.81"
     id="path54" />
  <path
     class="st8"
     d="M-697.08,2049.43c-.36,1.19-1.62,1.86-2.81,1.5-1.19-.36-1.86-1.62-1.5-2.81.36-1.19,1.62-1.86,2.81-1.5,1.19.36,1.86,1.62,1.5,2.81Z"
     id="path55" />
  <path
     class="st24"
     d="M-606.13,2099.11c15.49,2.82,69.61-34.35,72.71-136.51,2.2-72.35-22.72-115.58-48.17-111.5-25.45,4.08-54.62,45.7-55.26,130.67-.64,84.97,15.75,114.61,30.71,117.34"
     id="path56" />
  <path
     class="st9"
     d="M-606.13,2099.11c15.49,2.82,69.61-34.35,72.71-136.51,2.2-72.35-22.72-115.58-48.17-111.5-25.45,4.08-54.62,45.7-55.26,130.67-.64,84.97,15.75,114.61,30.71,117.34Z"
     id="path57" />
  <path
     class="st9"
     d="M-577.8,1944.05s-4.97,116.32-42.34,189.65"
     id="path58" />
  <path
     class="st26"
     d="M-533.42,1962.61s-43.94,39.79-53.33,82.11c-9.39,42.33-4.11,50.13-4.11,50.13,0,0,17.34-11.34,22.51-18.08,5.17-6.73,38.78-101.43,34.92-114.16"
     id="path59" />
  <path
     class="st24"
     d="M-569.96,2095.84c11.07,13.26,69.76,17.46,137.99-98.84,68.22-116.29,1.64-117.81-23.32-104.04-31.97,17.64-165.07,142.53-114.67,202.87"
     id="path60" />
  <path
     class="st9"
     d="M-569.96,2095.84c11.07,13.26,69.76,17.46,137.99-98.84,68.22-116.29,1.64-117.81-23.32-104.04-31.97,17.64-165.07,142.53-114.67,202.87Z"
     id="path61" />
  <path
     class="st9"
     d="M-432.36,1914.55s-43.99,117.31-170.28,210.17c-4.99,3.67-10.39,6.75-16.1,9.15l-1.4.59"
     id="path62" />
  <rect
     class="st6"
     x="-869.7"
     y="1461.04"
     width="468.33"
     height="756.84"
     id="rect62" />
  <g
     class="st25"
     clip-path="url(#clippath)"
     id="g64">
    <path
       class="st26"
       d="M2201.26,1394.07l-209.86,141.26c-18.35,11.96-13.67,19.15-10.57,23.9,3.47,5.32,7.78,11.94,26.13-.03l209.86-141.26,9.7,14.89-209.86,141.26c-22.05,14.38-39.12,12.64-50.72-5.16-7.98-12.24-11.72-30.58,15.75-48.49l209.86-141.26"
       id="path63" />
    <path
       class="st26"
       d="M2032.98,1474.38c-36.44,21.27-117.3,73.85-143.18,134.96-29.65,70.03-21.99,90.73-21.99,90.73l-58.72-87.27-.1.07-5.03-7.7-5.13-7.63.1-.07-57.54-88.06s16.08,15.11,92.13,15.05c66.37-.05,146.27-54.08,180.04-79.38l197.81-139.52,27.89,43.29-206.28,125.52Z"
       id="path64" />
  </g>
  <g
     class="st17"
     clip-path="url(#clippath-1)"
     id="g68">
    <path
       class="st26"
       d="M-214.74,1866.36c.62,15.94-16.28,29.54-37.76,30.38-21.48.84-39.39-11.4-40.01-27.34-.62-15.94,16.28-29.54,37.76-30.38,21.48-.84,39.39,11.4,40.01,27.34"
       id="path65" />
    <path
       class="st5"
       d="M-214.74,1866.36c.62,15.94-16.28,29.54-37.76,30.38-21.48.84-39.39-11.4-40.01-27.34-.62-15.94,16.28-29.54,37.76-30.38,21.48-.84,39.39,11.4,40.01,27.34Z"
       id="path66" />
    <polyline
       class="st5"
       points="-214.74 1866.36 -219.57 1769.76 -122.83 1736.22 -118 1832.82"
       id="polyline66" />
    <path
       class="st26"
       d="M-118,1832.82c.62,15.94-16.28,29.54-37.76,30.38-21.48.84-39.39-11.4-40.01-27.34-.62-15.94,16.28-29.54,37.76-30.38,21.48-.84,39.39,11.4,40.01,27.34"
       id="path67" />
    <path
       class="st5"
       d="M-118,1832.82c.62,15.94-16.28,29.54-37.76,30.38-21.48.84-39.39-11.4-40.01-27.34-.62-15.94,16.28-29.54,37.76-30.38,21.48-.84,39.39,11.4,40.01,27.34Z"
       id="path68" />
  </g>
  <line
     class="st2"
     x1="-361.42"
     y1="1793.66"
     x2="-361.42"
     y2="1815.16"
     id="line68" />
  <line
     class="st2"
     x1="-350.67"
     y1="1804.41"
     x2="-372.18"
     y2="1804.41"
     id="line69" />
  <line
     class="st2"
     x1="289.51"
     y1="1948.71"
     x2="289.51"
     y2="1970.22"
     id="line70" />
  <line
     class="st2"
     x1="300.27"
     y1="1959.47"
     x2="278.76"
     y2="1959.47"
     id="line71" />
  <g
     class="st23"
     clip-path="url(#clippath-2)"
     id="g72">
    <line
       class="st2"
       x1="-303.39"
       y1="1985.93"
       x2="-303.39"
       y2="2003.96"
       id="line72" />
  </g>
  <line
     class="st2"
     x1="-294.38"
     y1="1994.94"
     x2="-312.41"
     y2="1994.94"
     id="line73" />
  <g
     class="st21"
     clip-path="url(#clippath-3)"
     id="g75">
    <line
       class="st1"
       x1="-20.43"
       y1="1791.31"
       x2="-20.43"
       y2="1808.6"
       id="line74" />
    <line
       class="st1"
       x1="-11.78"
       y1="1799.96"
       x2="-29.08"
       y2="1799.96"
       id="line75" />
  </g>
  <g
     class="st11"
     clip-path="url(#clippath-4)"
     id="g77">
    <line
       class="st1"
       x1="219.27"
       y1="2037.66"
       x2="219.27"
       y2="2054.96"
       id="line76" />
    <line
       class="st1"
       x1="227.92"
       y1="2046.31"
       x2="210.62"
       y2="2046.31"
       id="line77" />
  </g>
  <g
     class="st18"
     clip-path="url(#clippath-5)"
     id="g82">
    <path
       class="st24"
       d="M531.84,2066.76c-24.7-28.64-87.75-83.71-140.34-56.48-52.59,27.23-21.62,104.22,29.19,97.92,50.81-6.29,98.53,20.59,98.53,20.59,0,0,22.83,11.83,38.86,28.23,1.8,1.84,4.92.51,4.84-2.06-1.28-40.61-13.18-67.45-31.08-88.21"
       id="path77" />
    <path
       class="st10"
       d="M531.84,2066.76c-24.7-28.64-87.75-83.71-140.34-56.48-52.59,27.23-21.62,104.22,29.19,97.92,50.81-6.29,98.53,20.59,98.53,20.59,0,0,22.83,11.83,38.86,28.23,1.8,1.84,4.92.51,4.84-2.06-1.28-40.61-13.18-67.45-31.08-88.21Z"
       id="path78" />
    <path
       class="st24"
       d="M364.83,2044.46s71.17-19.36,183.85,48.51"
       id="path79" />
    <path
       class="st10"
       d="M364.83,2044.46s71.17-19.36,183.85,48.51"
       id="path80" />
    <path
       class="st24"
       d="M469.68,2056.41s-44.88,13.87-54.48,52.33"
       id="path81" />
    <path
       class="st10"
       d="M469.68,2056.41s-44.88,13.87-54.48,52.33"
       id="path82" />
  </g>
  <g
     class="st0"
     clip-path="url(#clippath-6)"
     id="g84">
    <path
       class="st26"
       d="M113.84,2101.49c-2.05,17.86-25.46,29.84-52.29,26.76-26.83-3.08-46.91-20.05-44.86-37.91,2.05-17.86,25.46-29.84,52.29-26.76,26.83,3.08,46.91,20.05,44.86,37.91"
       id="path83" />
    <path
       class="st7"
       d="M113.84,2101.49c-2.05,17.86-25.46,29.84-52.29,26.76-26.83-3.08-46.91-20.05-44.86-37.91,2.05-17.86,25.46-29.84,52.29-26.76,26.83,3.08,46.91,20.05,44.86,37.91Z"
       id="path84" />
    <line
       class="st7"
       x1="113.84"
       y1="2101.49"
       x2="123.88"
       y2="2014.56"
       id="line84" />
  </g>
  <rect
     class="st6"
     x="-751.19"
     y="1742.71"
     width="1866.08"
     height="372.82"
     id="rect84" />
  <text
     class="st14"
     transform="translate(-607.19 1927.62)"
     id="text84"><tspan
       x="0"
       y="0"
       id="tspan84">Musikaufnahmen</tspan></text>
  <text
     class="st12"
     transform="translate(-607.19 1986.37)"
     id="text85"><tspan
       x="0"
       y="0"
       id="tspan85">unter CC-Lizenz</tspan></text>
  <g
     id="g121">
    <g
       id="g86">
      <rect
         class="st13"
         x="829.47"
         y="1938.5"
         width="60.7"
         height="1.38"
         id="rect85" />
      <rect
         class="st13"
         x="940.95"
         y="1938.5"
         width="80.03"
         height="1.38"
         id="rect86" />
    </g>
    <g
       id="g95">
      <path
         class="st13"
         d="M807.93,1901.98h-8.1v7.25h-1.93v-16.02h1.93v7.07h8.1v-7.07h1.93v16.02h-1.93v-7.25Z"
         id="path86" />
      <path
         class="st13"
         d="M812.52,1903.31c0-3.76,2.18-6.2,5.35-6.2s5.35,2.43,5.35,6.2-2.18,6.2-5.35,6.2-5.35-2.43-5.35-6.2ZM821.24,1904.16v-1.7c0-2.5-1.4-3.72-3.37-3.72s-3.37,1.22-3.37,3.72v1.7c0,2.5,1.4,3.72,3.37,3.72s3.37-1.22,3.37-3.72Z"
         id="path87" />
      <path
         class="st13"
         d="M825.34,1903.31c0-3.79,1.95-6.2,5.28-6.2,2.34,0,3.74,1.15,4.43,2.78l-1.54.78c-.44-1.22-1.45-1.93-2.89-1.93-2.18,0-3.3,1.49-3.3,3.56v2.02c0,2.07,1.12,3.56,3.3,3.56,1.49,0,2.57-.71,3.21-2.07l1.33.9c-.76,1.7-2.29,2.8-4.54,2.8-3.33,0-5.28-2.41-5.28-6.2Z"
         id="path88" />
      <path
         class="st13"
         d="M837.93,1892.25h1.84v7.07h.09c.57-1.33,1.58-2.2,3.35-2.2,2.43,0,3.97,1.65,3.97,4.52v7.6h-1.84v-7.27c0-2.11-.92-3.19-2.69-3.19-1.47,0-2.89.73-2.89,2.25v8.22h-1.84v-16.98Z"
         id="path89" />
      <path
         class="st13"
         d="M849.84,1907.19l1.31-1.06c.92,1.15,2.02,1.81,3.51,1.81s2.48-.71,2.48-1.93c0-.92-.5-1.63-2.07-1.86l-.94-.14c-2.18-.32-3.81-1.22-3.81-3.42,0-2.34,1.81-3.49,4.22-3.49,1.9,0,3.17.71,4.13,1.9l-1.22,1.1c-.53-.73-1.54-1.45-3.05-1.45s-2.32.71-2.32,1.84.8,1.61,2.27,1.84l.92.14c2.62.39,3.63,1.54,3.63,3.33,0,2.3-1.68,3.69-4.38,3.69-2.18,0-3.63-.92-4.68-2.32Z"
         id="path90" />
      <path
         class="st13"
         d="M861.2,1903.31c0-3.79,1.95-6.2,5.28-6.2,2.34,0,3.74,1.15,4.43,2.78l-1.54.78c-.44-1.22-1.45-1.93-2.89-1.93-2.18,0-3.3,1.49-3.3,3.56v2.02c0,2.07,1.12,3.56,3.3,3.56,1.49,0,2.57-.71,3.21-2.07l1.33.9c-.76,1.7-2.29,2.8-4.54,2.8-3.33,0-5.28-2.41-5.28-6.2Z"
         id="path91" />
      <path
         class="st13"
         d="M873.68,1892.25h1.84v7.07h.09c.57-1.33,1.58-2.2,3.35-2.2,2.43,0,3.97,1.65,3.97,4.52v7.6h-1.84v-7.27c0-2.11-.92-3.19-2.69-3.19-1.47,0-2.89.73-2.89,2.25v8.22h-1.84v-16.98Z"
         id="path92" />
      <path
         class="st13"
         d="M893.54,1907.31h-.09c-.46,1.12-1.35,2.2-3.33,2.2-2.43,0-3.99-1.65-3.99-4.52v-7.6h1.84v7.27c0,2.11.94,3.19,2.71,3.19,1.45,0,2.87-.71,2.87-2.27v-8.19h1.84v11.84h-1.84v-1.93Z"
         id="path93" />
      <path
         class="st13"
         d="M901.29,1909.23c-1.26,0-1.95-.8-1.95-1.9v-15.08h1.84v15.38h1.74v1.61h-1.63Z"
         id="path94" />
      <path
         class="st13"
         d="M905.53,1903.31c0-3.76,2.11-6.2,5.32-6.2s5.12,2.43,5.12,5.78v.87h-8.51v.55c0,2.04,1.31,3.58,3.51,3.58,1.49,0,2.64-.73,3.26-2.04l1.31.94c-.76,1.61-2.46,2.71-4.68,2.71-3.21,0-5.32-2.43-5.32-6.2ZM907.46,1902.23v.16h6.54v-.25c0-2.09-1.26-3.49-3.14-3.49-2,0-3.4,1.51-3.4,3.58Z"
         id="path95" />
    </g>
    <g
       id="g98">
      <path
         class="st13"
         d="M797.89,1926.19h-1.93v-1.61h1.93v-2.39c0-1.63.85-2.75,2.59-2.75h1.79v1.61h-2.55v3.53h2.55v1.61h-2.55v10.24h-1.84v-10.24Z"
         id="path96" />
      <path
         class="st13"
         d="M811.85,1934.49h-.09c-.46,1.12-1.35,2.2-3.33,2.2-2.43,0-3.99-1.65-3.99-4.52v-7.6h1.84v7.27c0,2.11.94,3.19,2.71,3.19,1.45,0,2.87-.71,2.87-2.27v-8.19h1.84v11.84h-1.84v-1.93ZM805.81,1921.18v-.25c0-.64.34-1.06,1.12-1.06s1.12.41,1.12,1.06v.25c0,.64-.34,1.06-1.12,1.06s-1.12-.41-1.12-1.06ZM810.08,1921.18v-.25c0-.64.34-1.06,1.12-1.06s1.12.41,1.12,1.06v.25c0,.64-.34,1.06-1.12,1.06s-1.12-.41-1.12-1.06Z"
         id="path97" />
      <path
         class="st13"
         d="M817.59,1936.42v-11.84h1.84v2.18h.11c.41-1.12,1.49-2.18,3.42-2.18h.71v1.84h-1.08c-1.97,0-3.17.85-3.17,1.97v8.03h-1.84Z"
         id="path98" />
    </g>
    <g
       id="g103">
      <path
         class="st13"
         d="M831.12,1920.4h2.57l4.59,8.63h.11l4.61-8.63h2.48v16.02h-1.88v-13.49h-.11l-1.35,2.69-3.83,6.98-3.83-6.98-1.35-2.69h-.11v13.49h-1.88v-16.02Z"
         id="path99" />
      <path
         class="st13"
         d="M855.95,1934.49h-.09c-.46,1.12-1.35,2.2-3.33,2.2-2.43,0-3.99-1.65-3.99-4.52v-7.6h1.84v7.27c0,2.11.94,3.19,2.71,3.19,1.45,0,2.87-.71,2.87-2.27v-8.19h1.84v11.84h-1.84v-1.93Z"
         id="path100" />
      <path
         class="st13"
         d="M860.56,1934.38l1.31-1.06c.92,1.15,2.02,1.81,3.51,1.81s2.48-.71,2.48-1.93c0-.92-.5-1.63-2.07-1.86l-.94-.14c-2.18-.32-3.81-1.22-3.81-3.42,0-2.34,1.81-3.49,4.22-3.49,1.9,0,3.17.71,4.13,1.9l-1.22,1.1c-.53-.73-1.54-1.45-3.05-1.45s-2.32.71-2.32,1.84.8,1.61,2.27,1.84l.92.14c2.62.39,3.63,1.54,3.63,3.33,0,2.3-1.68,3.69-4.38,3.69-2.18,0-3.63-.92-4.68-2.32Z"
         id="path101" />
      <path
         class="st13"
         d="M872.66,1920.77v-.3c0-.62.34-1.03,1.12-1.03s1.12.41,1.12,1.03v.3c0,.62-.34,1.03-1.12,1.03s-1.12-.41-1.12-1.03ZM872.86,1924.58h1.84v11.84h-1.84v-11.84Z"
         id="path102" />
      <path
         class="st13"
         d="M878.6,1919.44h1.84v10.76h.09l1.81-2.02,3.35-3.6h2.23l-4.38,4.68,4.82,7.16h-2.23l-3.92-6.04-1.77,1.81v4.22h-1.84v-16.98Z"
         id="path103" />
    </g>
    <g
       id="g106">
      <path
         class="st13"
         d="M904.82,1934.49h-.09c-.46,1.12-1.35,2.2-3.33,2.2-2.43,0-3.99-1.65-3.99-4.52v-7.6h1.84v7.27c0,2.11.94,3.19,2.71,3.19,1.45,0,2.87-.71,2.87-2.27v-8.19h1.84v11.84h-1.84v-1.93Z"
         id="path104" />
      <path
         class="st13"
         d="M910.56,1936.42v-11.84h1.84v1.93h.09c.57-1.33,1.58-2.2,3.35-2.2,2.43,0,3.97,1.65,3.97,4.52v7.6h-1.84v-7.27c0-2.11-.92-3.19-2.69-3.19-1.47,0-2.89.73-2.89,2.25v8.22h-1.84Z"
         id="path105" />
      <path
         class="st13"
         d="M931.16,1934.49h-.09c-.71,1.47-1.84,2.2-3.47,2.2-2.96,0-4.82-2.41-4.82-6.2s1.86-6.2,4.82-6.2c1.63,0,2.85.71,3.47,2.2h.09v-7.07h1.84v16.98h-1.84v-1.93ZM931.16,1932.63v-4.41c0-1.31-1.38-2.27-3.05-2.27-2.07,0-3.35,1.42-3.35,3.53v2.02c0,2.11,1.29,3.53,3.35,3.53,1.68,0,3.05-.87,3.05-2.41Z"
         id="path106" />
    </g>
    <g
       id="g113">
      <path
         class="st13"
         d="M947.89,1922.1v14.32h-1.93v-14.32h-5.09v-1.7h12.12v1.7h-5.09Z"
         id="path107" />
      <path
         class="st13"
         d="M955.44,1919.44h1.84v7.07h.09c.57-1.33,1.58-2.2,3.35-2.2,2.43,0,3.97,1.65,3.97,4.52v7.6h-1.84v-7.27c0-2.11-.92-3.19-2.69-3.19-1.47,0-2.89.73-2.89,2.25v8.22h-1.84v-16.98Z"
         id="path108" />
      <path
         class="st13"
         d="M967.61,1930.5c0-3.76,2.11-6.2,5.32-6.2s5.12,2.43,5.12,5.78v.87h-8.51v.55c0,2.04,1.31,3.58,3.51,3.58,1.49,0,2.64-.73,3.26-2.04l1.31.94c-.76,1.61-2.46,2.71-4.68,2.71-3.21,0-5.32-2.43-5.32-6.2ZM969.53,1929.42v.16h6.54v-.25c0-2.09-1.26-3.49-3.14-3.49-2,0-3.4,1.51-3.4,3.58Z"
         id="path109" />
      <path
         class="st13"
         d="M989.68,1936.42c-1.35,0-1.9-.83-2.04-1.93h-.11c-.5,1.45-1.77,2.2-3.42,2.2-2.5,0-3.97-1.38-3.97-3.58s1.61-3.47,5.05-3.47h2.34v-1.17c0-1.68-.92-2.59-2.8-2.59-1.42,0-2.36.69-3.01,1.77l-1.1-1.03c.64-1.26,2.07-2.32,4.2-2.32,2.85,0,4.54,1.49,4.54,3.99v6.52h1.35v1.61h-1.03ZM987.53,1932.98v-1.95h-2.43c-2.09,0-3.03.64-3.03,1.79v.48c0,1.17.92,1.84,2.34,1.84,1.81,0,3.12-.94,3.12-2.16Z"
         id="path110" />
      <path
         class="st13"
         d="M995.95,1936.42c-1.26,0-1.95-.8-1.95-1.95v-8.28h-1.95v-1.61h1.1c.78,0,1.03-.28,1.03-1.08v-2.2h1.65v3.28h2.59v1.61h-2.59v8.63h2.41v1.61h-2.29Z"
         id="path111" />
      <path
         class="st13"
         d="M1000.43,1930.5c0-3.76,2.11-6.2,5.32-6.2s5.12,2.43,5.12,5.78v.87h-8.51v.55c0,2.04,1.31,3.58,3.51,3.58,1.49,0,2.64-.73,3.26-2.04l1.31.94c-.76,1.61-2.46,2.71-4.68,2.71-3.21,0-5.32-2.43-5.32-6.2ZM1002.35,1929.42v.16h6.54v-.25c0-2.09-1.26-3.49-3.14-3.49-2,0-3.4,1.51-3.4,3.58Z"
         id="path112" />
      <path
         class="st13"
         d="M1013.9,1936.42v-11.84h1.84v2.18h.11c.41-1.12,1.49-2.18,3.42-2.18h.71v1.84h-1.08c-1.97,0-3.17.85-3.17,1.97v8.03h-1.84Z"
         id="path113" />
    </g>
    <g
       id="g120">
      <path
         class="st13"
         d="M797.93,1947.25h2.57l4.59,8.63h.11l4.61-8.63h2.48v16.02h-1.88v-13.49h-.11l-1.35,2.68-3.83,6.98-3.83-6.98-1.35-2.68h-.11v13.49h-1.88v-16.02Z"
         id="path114" />
      <path
         class="st13"
         d="M823.68,1961.34h-.09c-.46,1.12-1.35,2.2-3.33,2.2-2.43,0-3.99-1.65-3.99-4.52v-7.6h1.84v7.27c0,2.11.94,3.19,2.71,3.19,1.45,0,2.87-.71,2.87-2.27v-8.19h1.84v11.84h-1.84v-1.93ZM817.65,1948.03v-.25c0-.64.34-1.06,1.12-1.06s1.12.41,1.12,1.06v.25c0,.64-.34,1.06-1.12,1.06s-1.12-.41-1.12-1.06ZM821.92,1948.03v-.25c0-.64.34-1.06,1.12-1.06s1.12.41,1.12,1.06v.25c0,.64-.34,1.06-1.12,1.06s-1.12-.41-1.12-1.06Z"
         id="path115" />
      <path
         class="st13"
         d="M829.42,1963.27v-11.84h1.84v1.93h.09c.57-1.33,1.58-2.2,3.35-2.2,2.43,0,3.97,1.65,3.97,4.52v7.6h-1.84v-7.27c0-2.11-.92-3.19-2.69-3.19-1.47,0-2.89.73-2.89,2.25v8.22h-1.84Z"
         id="path116" />
      <path
         class="st13"
         d="M841.59,1957.35c0-3.79,1.95-6.2,5.28-6.2,2.34,0,3.74,1.15,4.43,2.78l-1.54.78c-.44-1.22-1.45-1.93-2.89-1.93-2.18,0-3.3,1.49-3.3,3.56v2.02c0,2.07,1.12,3.56,3.3,3.56,1.49,0,2.57-.71,3.21-2.07l1.33.9c-.76,1.7-2.29,2.8-4.54,2.8-3.33,0-5.28-2.41-5.28-6.2Z"
         id="path117" />
      <path
         class="st13"
         d="M854,1946.29h1.84v7.07h.09c.57-1.33,1.58-2.2,3.35-2.2,2.43,0,3.97,1.65,3.97,4.52v7.6h-1.84v-7.27c0-2.11-.92-3.19-2.69-3.19-1.47,0-2.89.73-2.89,2.25v8.22h-1.84v-16.98Z"
         id="path118" />
      <path
         class="st13"
         d="M866.16,1957.35c0-3.76,2.11-6.2,5.32-6.2s5.12,2.43,5.12,5.78v.87h-8.51v.55c0,2.04,1.31,3.58,3.51,3.58,1.49,0,2.64-.73,3.26-2.04l1.31.94c-.76,1.61-2.46,2.71-4.68,2.71-3.21,0-5.32-2.43-5.32-6.2ZM868.09,1956.27v.16h6.54v-.25c0-2.09-1.26-3.49-3.14-3.49-2,0-3.4,1.51-3.4,3.58Z"
         id="path119" />
      <path
         class="st13"
         d="M879.64,1963.27v-11.84h1.84v1.93h.09c.57-1.33,1.58-2.2,3.35-2.2,2.43,0,3.97,1.65,3.97,4.52v7.6h-1.84v-7.27c0-2.11-.92-3.19-2.69-3.19-1.47,0-2.89.73-2.89,2.25v8.22h-1.84Z"
         id="path120" />
    </g>
  </g>
  <g
     id="g123">
    <path
       class="st13"
       d="M729.93,1937.16c0,13.54,3.13,21.72,10.05,25.76,3.18,1.73,6.42,2.22,8.91,2.22,5.82,0,13.1-3.39,13.1-3.39v-13.11h-5.7c-7.55,0-9.4-2.65-9.4-10.06v-30.7h17.48l.06-14.68h-17.54v-16.62h-16.56l.06,14.44-11.26,2.19-.06,14.68h10.86v29.26Z"
       id="path121" />
    <path
       class="st13"
       d="M593.48,1963.27l-.04-42.04c0-2.41,0-9.9,0-9.9,0,0,7.64-3.44,13.75-3.44,7.33,0,10.47,3.27,10.47,12.03v43.35s15.76,0,15.76,0v-43.12c0-20.64-6.98-28.89-23.9-28.89-7.26,0-15.01,3.18-20.6,7.86h-.27c-3.97-5.19-9.68-7.98-18.33-7.8-6.67.14-13.61,3.84-17.58,7.8h-.27v-5.88h-15.76l.04,70.02h16.71l-.04-42.04c0-2.41,0-9.9,0-9.9,0,0,7.64-3.44,13.75-3.44,7.33,0,10.47,3.27,10.47,12.03l.04,43.35h15.79Z"
       id="path122" />
    <path
       class="st13"
       d="M691.18,1990.45l6.51-2.63c7.19-2.99,10.44-3.39,10.44-12.16v-82.45h-16.94v42.04c0,2.41,0,9.9,0,9.9,0,0-7.64,3.44-13.75,3.44-7.33,0-10.47-3.27-10.47-12.03v-43.35h-17.02v43.08c0,20.74,8.57,28.85,22.73,28.85,7.37,0,14.3-3.93,18.22-7.82h.27v33.12Z"
       id="path123" />
  </g>
  <g
     id="g127">
    <path
       class="st22"
       d="M407.16,675.59s-33.26-50.18-50.07-63.7c-16.81-13.52-47.43-36.57-93.4-11.56-45.96,25.01-28.33,59.5-22.35,67.46,5.98,7.96,28.68,8.33,43.79-8.02,15.11-16.35,23.56-12.1,26.47-10.54,2.91,1.56,4.14,9.73-.54,14.25-4.68,4.53-15.06,20.84-6.45,26.34,8.61,5.5,17.78,1.2,20.54-6.64,2.76-7.84,13.43-13.99,20.85-13.52,7.43.47,33.95,2.17,44.78,14.08,11.27-3.65,16.36-8.16,16.36-8.16"
       id="path124" />
    <path
       class="st22"
       d="M396.49,556.19c2.1-13.65,5.09-23.74,7.34-30.03-10.04-.45-20.41,3.31-28.98,13.06-29.19,33.23,21.12,117.93,21.12,117.93l4.19-5.63c-8.47-42.42-6.82-74.88-3.68-95.33"
       id="path125" />
    <path
       class="st22"
       d="M395.28,602.88c2.33-3.45,19.94-28.15,46.66-29.22,5.67-23.34-14.6-45.71-36.96-47.42-4.21,11.79-11.29,37.82-9.7,76.64"
       id="path126" />
    <path
       class="st22"
       d="M395.93,603.85l-.62-.39c.62,14.33,2.41,30.39,5.97,48.11l36.55,1.55s-10.91-39.43,2.78-75.13c.41-1.08.77-2.16,1.07-3.24-27.83,1.32-45.55,28.82-45.73,29.11"
       id="path127" />
  </g>
  <path
     class="st22"
     d="M470.22,618.7c-5.72-27.33-44.61-173.71-38.17-184.69,6.44-10.99,12.12.25,21.81,49.63,1.02,6.08,17.02,31.59-3.19-58.7-1.91-10.05,9.52-44.8,26.21,50.89,1.01,6.33,9.03,16.14,6.68-4.39-2.34-20.53-2.14-28.26-6.99-55.07-4.85-26.8,12.43-33.01,21.86,48.32,1.9,14.02,6.58,18.59,9.01,12.52,4.78-11.94,21.21-28.52,36.1-11.7,25.28,28.56,12.53,31.52,6.79,28.75-5.74-2.76-12.91-22.03-17.98-17.7-5.07,4.33-17.97,20.47-17.21,29.81.76,9.34,20.91,23.05,29.93,9.06,3.78-5.87,5.61-18.14,13.09-16.2,7.06,1.83,6.41,16.88.3,27.93-4.5,8.14-12.04,19.55-28.62,26.61,2.77,12.64,19.41,65.36,19.41,65.36l-75.48,15.59-3.54-16.02Z"
     id="path128" />
  <path
     class="st22"
     d="M787.03,741c28.26,114.14-50.54,231.85-176.01,262.92-125.47,31.07-250.1-36.27-278.36-150.4-28.26-114.14,50.54-231.85,176.01-262.92,125.47-31.07,250.1,36.27,278.36,150.4"
     id="path129" />
  <path
     class="st22"
     d="M484.13,889.25c0,94.73-76.8,171.53-171.53,171.53s-171.53-76.8-171.53-171.53,76.8-171.53,171.53-171.53,171.53,76.8,171.53,171.53"
     id="path130" />
  <path
     class="st22"
     d="M260,894.56c-22.89,125.6-170.82,203.83-330.39,174.74-159.58-29.09-270.38-154.48-247.49-280.08,22.89-125.59,170.82-203.83,330.39-174.74,159.58,29.09,270.38,154.48,247.49,280.08"
     id="path131" />
  <circle
     class="st22"
     cx="-333.07"
     cy="841.06"
     r="150.46"
     id="circle131" />
  <ellipse
     class="st22"
     cx="-563.14"
     cy="801.64"
     rx="173.77"
     ry="220.58"
     transform="translate(-1051.74 -47.49) rotate(-65)"
     id="ellipse131" />
</svg>
