<?xml version="1.0" encoding="UTF-8" standalone="no"?>
<svg
   width="788.64001"
   height="782.23248"
   viewBox="0 0 788.64001 782.23248"
   role="img"
   version="1.1"
   id="svg3"
   sodipodi:docname="uploadfeld.svg"
   inkscape:version="1.4 (86a8ad7, 2024-10-11)"
   xmlns:inkscape="http://www.inkscape.org/namespaces/inkscape"
   xmlns:sodipodi="http://sodipodi.sourceforge.net/DTD/sodipodi-0.dtd"
   xmlns="http://www.w3.org/2000/svg"
   xmlns:svg="http://www.w3.org/2000/svg">
  <defs
     id="defs3" />
  <sodipodi:namedview
     id="namedview3"
     pagecolor="#505050"
     bordercolor="#eeeeee"
     borderopacity="1"
     inkscape:showpageshadow="0"
     inkscape:pageopacity="0"
     inkscape:pagecheckerboard="0"
     inkscape:deskcolor="#d1d1d1"
     inkscape:zoom="0.807"
     inkscape:cx="445.47708"
     inkscape:cy="410.78067"
     inkscape:window-width="1920"
     inkscape:window-height="1009"
     inkscape:window-x="-8"
     inkscape:window-y="-8"
     inkscape:window-maximized="1"
     inkscape:current-layer="svg3" />
  <path
     d="m 632.98,209.7925 -212.7,-200.9 c -12.57,-11.85 -32.24,-11.87 -44.81,0.02 l -212.69,200.9 c -13.09,12.36 -13.68,33.01 -1.3,46.11 12.39,13.11 33.04,13.69 46.11,1.3 l 157.67,-148.92 v 463.03 c 0,18.01 14.61,32.61 32.61,32.61 18,0 32.61,-14.61 32.61,-32.61 v -463.03 l 157.68,148.94 a 32.601,32.601 0 0 0 22.41,8.89 c 8.66,0 17.29,-3.42 23.72,-10.21 12.37,-13.11 11.78,-33.75 -1.31,-46.13 z"
     style="fill:#666666"
     id="path1" />
  <path
     d="m 397.87,670.6425 c -54.76,0 -99.31,-44.55 -99.31,-99.31 v -193.12 H 89.31 c -28.1,0 -50.95,22.84 -50.95,50.95 v 263.75 c 0,28.1 22.84,50.97 50.95,50.97 h 610 c 28.1,0 50.97,-22.86 50.97,-50.97 v -263.76 c 0,-28.1 -22.86,-50.95 -50.97,-50.95 H 497.18 v 193.13 c 0,54.76 -44.55,99.31 -99.31,99.31 z"
     style="fill:#f2f2f2"
     id="path2" />
  <path
     d="M 699.31,339.8425 H 497.18 v 38.36 h 202.13 c 28.1,0 50.97,22.84 50.97,50.95 v 263.75 c 0,28.1 -22.86,50.97 -50.97,50.97 h -610 c -28.1,0 -50.95,-22.86 -50.95,-50.97 v -263.75 c 0,-28.1 22.84,-50.95 50.95,-50.95 h 209.25 v -38.36 H 89.31 c -49.24,0 -89.31,40.07 -89.31,89.31 v 263.75 c 0,49.26 40.07,89.33 89.31,89.33 h 610 c 49.26,0 89.33,-40.07 89.33,-89.33 v -263.75 c 0,-49.23 -40.07,-89.31 -89.33,-89.31 z"
     style="fill:#666666"
     id="path3" />
</svg>
