<?xml version="1.0" encoding="UTF-8" standalone="no"?>
<svg
   width="992.09003"
   height="689.65997"
   viewBox="0 0 992.09003 689.65997"
   role="img"
   version="1.1"
   id="svg6"
   sodipodi:docname="whiteboard.svg"
   inkscape:version="1.4 (86a8ad7, 2024-10-11)"
   xmlns:inkscape="http://www.inkscape.org/namespaces/inkscape"
   xmlns:sodipodi="http://sodipodi.sourceforge.net/DTD/sodipodi-0.dtd"
   xmlns="http://www.w3.org/2000/svg"
   xmlns:svg="http://www.w3.org/2000/svg">
  <defs
     id="defs6" />
  <sodipodi:namedview
     id="namedview6"
     pagecolor="#505050"
     bordercolor="#eeeeee"
     borderopacity="1"
     inkscape:showpageshadow="0"
     inkscape:pageopacity="0"
     inkscape:pagecheckerboard="0"
     inkscape:deskcolor="#d1d1d1"
     inkscape:zoom="0.807"
     inkscape:cx="496.28253"
     inkscape:cy="343.86617"
     inkscape:window-width="1920"
     inkscape:window-height="1009"
     inkscape:window-x="-8"
     inkscape:window-y="-8"
     inkscape:window-maximized="1"
     inkscape:current-layer="svg6" />
  <path
     d="M 914.06,675.54 H 78.02 c -35.29,0 -63.9,-29.45 -63.9,-65.78 V 79.9 c 0,-36.33 28.61,-65.78 63.9,-65.78 h 836.05 c 35.29,0 63.9,29.45 63.9,65.78 v 529.86 c 0,36.33 -28.61,65.78 -63.91,65.78 z"
     style="fill:#f2f2f2"
     id="path1" />
  <path
     d="M 914.06,689.66 H 78.02 C 35,689.66 0,653.82 0,609.76 V 79.9 C 0,35.84 35,0 78.02,0 h 836.05 c 43.02,0 78.02,35.84 78.02,79.9 v 529.86 c 0,44.06 -35,79.9 -78.03,79.9 z M 78.02,28.24 c -27.45,0 -49.78,23.17 -49.78,51.66 v 529.86 c 0,28.48 22.33,51.66 49.78,51.66 h 836.05 c 27.45,0 49.78,-23.17 49.78,-51.66 V 79.9 c 0,-28.48 -22.33,-51.66 -49.78,-51.66 z"
     style="fill:#666666"
     id="path2" />
  <path
     d="M 977.97,616.71 H 22.08 c -7.8,0 -14.12,-6.32 -14.12,-14.12 0,-7.8 6.32,-14.12 14.12,-14.12 h 955.89 c 7.8,0 14.12,6.32 14.12,14.12 0,7.8 -6.32,14.12 -14.12,14.12 z"
     style="fill:#666666"
     id="path3" />
  <path
     d="M 907.8,610.19 H 759 c -7.8,0 -14.12,-6.32 -14.12,-14.12 v -42.03 c 0,-23.14 18.47,-41.97 41.17,-41.97 h 94.7 c 22.7,0 41.17,18.83 41.17,41.97 v 42.03 c 0,7.8 -6.32,14.12 -14.12,14.12 z M 773.12,581.95 h 120.57 v -27.91 c 0,-7.57 -5.8,-13.73 -12.93,-13.73 h -94.7 c -7.13,0 -12.93,6.16 -12.93,13.73 v 27.91 z"
     style="fill:#666666"
     id="path4" />
  <path
     d="m 236.6,526.94 c 0,0 166.79,-81.19 187.23,-220.12 C 444.27,167.89 306.18,108.32 264.45,182.34 203.71,290.07 350.98,446.88 501.43,427.91 733.58,398.64 726.2,165.5 726.2,165.5"
     style="fill:#f2f2f2"
     id="path5" />
  <path
     d="m 236.61,541.06 c -5.23,0 -10.26,-2.92 -12.71,-7.94 -3.41,-7.01 -0.5,-15.46 6.51,-18.87 0.41,-0.2 41.08,-20.24 83.5,-56.46 C 331,443.2 346.04,428 358.86,412.4 321.98,392.19 289.87,363.36 267.77,330.46 232.17,277.45 226.47,220.94 252.14,175.4 c 19.46,-34.52 58.51,-47.77 99.48,-33.75 50.79,17.38 99.42,77.13 86.17,167.22 -4.64,31.52 -16.7,62.57 -35.87,92.4 32.3,12.31 65.68,16.67 97.74,12.62 50.06,-6.31 92.27,-23.11 125.46,-49.92 26.49,-21.41 47.49,-49.34 62.42,-83.02 25.87,-58.37 24.56,-114.47 24.54,-115.03 -0.23,-7.79 5.9,-14.3 13.68,-14.53 7.77,-0.24 14.3,5.87 14.54,13.66 0.08,2.51 1.62,62.22 -26.51,126.35 -16.69,38.04 -40.38,69.71 -70.41,94.12 -37.42,30.41 -84.59,49.39 -140.2,56.4 -38.97,4.91 -79.46,-0.95 -118.18,-16.98 -14.93,18.96 -32.8,37.33 -53.32,54.79 -45.1,38.38 -87.16,59.04 -88.92,59.9 -1.97,0.97 -4.07,1.43 -6.15,1.43 z m 83.36,-376.57 c -16.41,0 -32.95,6.57 -43.22,24.77 -20.24,35.9 -14.96,81.62 14.47,125.44 20.3,30.22 50.25,56.65 84.67,74.78 18.32,-27.51 29.74,-56 33.97,-84.73 7.65,-51.97 -10.18,-116.82 -67.37,-136.39 -7.02,-2.4 -14.76,-3.87 -22.52,-3.87 z"
     style="fill:#666666"
     id="path6" />
</svg>
